<svg width="200" height="200" viewBox="0 0 200 200" fill="none" xmlns="http://www.w3.org/2000/svg">
<g clip-path="url(#clip0_2_6203)">
<rect width="200" height="200" rx="100" fill="#0097B8"/>
<path d="M175.676 59.2463H97.6207C92.0061 59.2463 87.4545 63.7979 87.4545 69.4125V208.486C87.4545 214.101 92.0061 218.652 97.6207 218.652H175.676C181.291 218.652 185.842 214.101 185.842 208.486V69.4125C185.842 63.7979 181.291 59.2463 175.676 59.2463Z" fill="#D7DAF4"/>
<path d="M94.093 200.722C94.0919 200.722 94.0909 200.721 94.0901 200.721C94.0893 200.72 94.0887 200.719 94.0886 200.718V77.1777H179.208V200.722H94.093Z" fill="white"/>
<path d="M136.649 68.8855C137.87 68.8855 138.861 67.8951 138.861 66.6734C138.861 65.4517 137.87 64.4613 136.649 64.4613C135.427 64.4613 134.437 65.4517 134.437 66.6734C134.437 67.8951 135.427 68.8855 136.649 68.8855Z" fill="white"/>
<path d="M145.102 72.0557C145.102 72.2075 145.072 72.3577 145.014 72.4979C144.956 72.638 144.871 72.7653 144.763 72.8725C144.656 72.9796 144.528 73.0645 144.388 73.1222C144.248 73.1799 144.097 73.2094 143.946 73.2089H129.349C129.043 73.2089 128.748 73.087 128.532 72.8702C128.315 72.6533 128.193 72.3591 128.193 72.0524C128.193 71.7457 128.315 71.4516 128.532 71.2347C128.748 71.0178 129.043 70.896 129.349 70.896H143.947C144.099 70.8962 144.25 70.9264 144.39 70.9848C144.531 71.0432 144.658 71.1287 144.765 71.2365C144.872 71.3442 144.957 71.472 145.015 71.6126C145.073 71.7531 145.103 71.9037 145.102 72.0557Z" fill="white"/>
<path d="M170.26 136.197C170.26 136.424 170.26 136.652 170.252 136.877C169.889 155.124 154.983 169.808 136.649 169.808C118.087 169.808 103.037 154.758 103.037 136.197C103.025 128.343 105.777 120.734 110.811 114.705C111.703 113.627 112.664 112.608 113.687 111.653C119.907 105.816 128.121 102.573 136.651 102.586C136.784 102.586 136.917 102.586 137.048 102.586C145.893 102.692 154.339 106.28 160.556 112.571C166.773 118.862 170.26 127.35 170.262 136.195L170.26 136.197Z" fill="#82CAFA"/>
<path d="M157.963 110.21C157.884 111.064 157.505 111.871 156.795 112.339C155.213 113.381 152.813 112.375 151.344 113.57C150.718 114.077 150.417 114.874 149.959 115.536C149.501 116.197 148.687 116.774 147.933 116.488C147.334 116.263 147.029 115.548 147.107 114.913C147.175 114.362 147.468 113.87 147.658 113.352C147.848 112.834 147.912 112.201 147.573 111.767C147.193 111.282 146.46 111.241 145.866 111.42C145.272 111.6 144.749 111.946 144.153 112.106C143.557 112.266 142.82 112.179 142.485 111.66C142.022 110.947 142.609 110.039 142.686 109.192C142.766 108.315 142.26 107.467 141.578 106.909C140.897 106.351 140.056 106.034 139.232 105.724C138.409 105.414 137.567 105.099 136.884 104.544C136.404 104.153 136.003 103.448 136.365 102.947C136.525 102.727 136.772 102.627 137.046 102.586C144.685 102.664 152.066 105.355 157.963 110.21Z" fill="#47ADF7"/>
<path d="M170.26 137.141C170.26 137.369 170.26 137.597 170.252 137.822C169.995 137.97 169.705 138.05 169.409 138.057C168.197 138.072 167.324 136.804 166.129 136.598C165.363 136.467 164.605 136.792 163.861 137.018C163.117 137.243 162.229 137.348 161.628 136.855C161.093 136.421 160.964 135.675 160.782 135.01C160.601 134.346 160.227 133.612 159.547 133.498C158.935 133.396 158.39 133.847 157.823 134.104C156.812 134.569 155.642 134.428 154.541 134.281C153.838 134.186 153.054 134.041 152.653 133.455C152.382 133.06 152.357 132.548 152.34 132.066C152.289 130.532 152.239 128.998 152.19 127.465C152.166 126.697 152.154 125.878 152.561 125.226C153.184 124.23 154.589 123.937 155.181 122.921C155.545 122.296 155.523 121.513 155.836 120.861C156.47 119.527 158.174 119.186 159.376 118.327C160.785 117.321 160.693 116.032 161.345 114.633C161.376 114.566 161.41 114.502 161.442 114.445C167.125 120.636 170.272 128.737 170.26 137.141Z" fill="#218AE5"/>
<path d="M170.26 136.183C170.26 136.411 170.257 136.638 170.252 136.865C169.995 137.012 169.705 137.093 169.409 137.1C168.197 137.114 167.324 135.846 166.129 135.64C165.363 135.509 164.605 135.834 163.861 136.06C163.117 136.286 162.229 136.39 161.628 135.895C161.093 135.461 160.964 134.714 160.782 134.05C160.601 133.386 160.227 132.651 159.547 132.537C158.935 132.436 158.39 132.886 157.823 133.146C156.812 133.611 155.642 133.471 154.541 133.323C153.838 133.228 153.054 133.083 152.653 132.497C152.382 132.102 152.357 131.591 152.34 131.108C152.289 129.574 152.239 128.041 152.19 126.508C152.166 125.74 152.154 124.92 152.561 124.268C153.184 123.272 154.589 122.979 155.181 121.963C155.545 121.338 155.523 120.555 155.836 119.903C156.47 118.57 158.174 118.228 159.376 117.373C160.785 116.367 160.693 115.077 161.345 113.679C161.376 113.611 161.41 113.548 161.442 113.49C167.124 119.68 170.272 127.78 170.26 136.183Z" fill="#47ADF7"/>
<path d="M128.637 124.138C128.834 126.702 127.122 129.293 124.684 130.117C122.53 130.847 119.946 130.333 118.106 131.673C116.373 132.94 116.005 135.488 116.702 137.517C117.4 139.546 121.598 140.816 120.484 142.648C119.732 143.882 117.747 141.725 116.38 141.262C115.076 140.821 113.605 140.22 113.176 138.911C112.795 137.754 113.406 136.488 113.239 135.276C113.159 134.714 112.916 134.188 112.674 133.674C112.325 132.933 111.979 132.191 111.628 131.449C111.286 130.722 110.644 129.852 109.885 130.127C109.933 129.102 109.981 128.076 110.028 127.049C109.713 127.461 108.974 127.209 108.792 126.722C108.61 126.235 108.812 125.692 109.075 125.246C109.339 124.8 109.677 124.373 109.779 123.864C110.054 122.524 108.646 121.15 109.194 119.896C109.47 119.269 110.156 118.929 110.821 118.762C111.485 118.595 112.185 118.542 112.803 118.243C113.421 117.945 113.949 117.3 113.821 116.629C113.681 115.895 112.878 115.512 112.163 115.291C111.901 115.209 111.625 115.126 111.366 115.016C112.259 113.938 113.22 112.919 114.243 111.964L118.509 112.698C119.8 112.919 120.611 113.707 121.779 114.174C123.417 114.829 123.393 115.837 122.205 117.102C121.672 117.669 121.139 118.486 121.522 119.16C121.866 119.771 122.77 119.81 123.385 119.478C124.001 119.146 124.428 118.557 124.935 118.077C125.572 117.471 126.377 117.02 127.247 116.92C128.118 116.821 129.674 116.92 129.618 117.798C129.54 118.993 128.214 119.792 128.2 120.992C128.189 122.053 128.557 123.083 128.637 124.138Z" fill="#218AE5"/>
<path d="M128.083 123.828C128.279 126.392 126.568 128.983 124.129 129.807C121.975 130.537 119.391 130.023 117.551 131.363C115.818 132.63 115.45 135.178 116.148 137.207C116.846 139.236 121.044 140.506 119.929 142.338C119.178 143.572 117.192 141.415 115.825 140.952C114.521 140.511 113.05 139.91 112.621 138.601C112.241 137.444 112.851 136.178 112.684 134.966C112.604 134.404 112.362 133.878 112.119 133.364C111.771 132.623 111.422 131.881 111.073 131.139C110.731 130.412 110.089 129.542 109.33 129.817C109.379 128.792 109.425 127.765 109.474 126.739C109.158 127.151 108.419 126.899 108.237 126.412C108.056 125.925 108.257 125.382 108.521 124.936C108.785 124.49 109.122 124.063 109.224 123.554C109.499 122.214 108.092 120.84 108.639 119.589C108.915 118.961 109.602 118.622 110.266 118.455C110.93 118.287 111.631 118.234 112.248 117.936C112.866 117.637 113.395 116.993 113.266 116.322C113.126 115.587 112.323 115.205 111.609 114.984C111.346 114.902 111.071 114.819 110.811 114.708C111.704 113.631 112.665 112.611 113.688 111.656L117.954 112.391C119.246 112.611 120.055 113.399 121.223 113.867C122.862 114.522 122.838 115.53 121.65 116.795C121.117 117.362 120.584 118.179 120.967 118.853C121.311 119.464 122.215 119.503 122.831 119.171C123.447 118.838 123.873 118.249 124.379 117.77C125.017 117.164 125.822 116.713 126.692 116.613C127.563 116.514 129.119 116.613 129.06 117.49C128.983 118.685 127.657 119.485 127.642 120.684C127.634 121.743 128.003 122.771 128.083 123.828Z" fill="#47ADF7"/>
<path d="M141.51 140.726C140.408 139.941 139.367 138.905 138.023 138.756C137.077 138.65 136.148 139.012 135.264 139.366L130.759 141.173C130.076 141.448 129.31 141.809 129.106 142.517C128.891 143.279 129.437 144.142 129.106 144.862C128.81 145.508 127.976 145.683 127.468 146.179C126.769 146.859 126.813 147.976 126.907 148.947C127.007 149.986 127.157 151.126 127.932 151.825C128.432 152.276 129.109 152.461 129.743 152.688C133.207 153.934 135.976 156.96 136.91 160.52C137.346 162.186 137.409 163.959 138.099 165.537C138.386 166.194 138.801 166.826 139.417 167.193C140.033 167.561 140.881 167.601 141.435 167.146C142.017 166.668 142.151 165.792 142.731 165.315C143.239 164.9 144.063 164.798 144.287 164.182C144.51 163.565 143.944 162.937 143.963 162.285C143.983 161.647 144.548 161.165 145.114 160.87C145.679 160.575 146.318 160.357 146.728 159.868C147.279 159.213 147.267 158.271 147.425 157.431C147.807 155.393 149.272 153.768 150.442 152.058C151.611 150.348 152.541 148.151 151.718 146.25C151.084 144.786 149.588 143.921 148.188 143.157C147.203 142.619 145.985 141.621 144.849 141.541C144.258 141.499 143.776 141.686 143.164 141.532C142.702 141.415 141.912 140.726 141.51 140.726Z" fill="#218AE5"/>
<path d="M142.133 140.102C141.032 139.317 139.991 138.281 138.647 138.132C137.7 138.027 136.774 138.388 135.888 138.742L131.382 140.549C130.699 140.825 129.934 141.185 129.73 141.893C129.514 142.656 130.061 143.518 129.73 144.238C129.434 144.884 128.6 145.06 128.092 145.555C127.393 146.236 127.437 147.352 127.531 148.323C127.631 149.362 127.78 150.502 128.555 151.202C129.056 151.653 129.733 151.837 130.366 152.065C133.831 153.31 136.6 156.336 137.534 159.896C137.97 161.562 138.032 163.335 138.723 164.914C139.01 165.571 139.425 166.203 140.04 166.569C140.656 166.936 141.505 166.978 142.059 166.522C142.641 166.044 142.775 165.169 143.355 164.692C143.863 164.276 144.686 164.175 144.911 163.558C145.135 162.942 144.567 162.313 144.587 161.661C144.606 161.023 145.172 160.542 145.738 160.246C146.303 159.95 146.941 159.733 147.352 159.245C147.903 158.59 147.891 157.648 148.049 156.807C148.43 154.769 149.896 153.144 151.066 151.434C152.235 149.724 153.165 147.527 152.341 145.626C151.707 144.162 150.212 143.297 148.812 142.533C147.826 141.995 146.609 140.998 145.473 140.917C144.882 140.875 144.399 141.063 143.787 140.908C143.326 140.791 142.536 140.102 142.133 140.102Z" fill="#47ADF7"/>
<g opacity="0.4">
<path d="M133.818 119.411C134.341 118.869 135.36 118.742 135.795 119.356C136.17 119.886 135.931 120.614 135.68 121.213L134.413 124.247C133.981 125.282 133.544 126.325 132.921 127.257C131.757 128.996 129.991 130.263 128.097 131.149C126.203 132.035 124.166 132.571 122.143 133.101C124.528 132.383 126.775 131.268 128.789 129.802C129.58 129.226 130.353 128.572 130.798 127.701C131.315 126.69 131.559 125.062 131.303 123.957C131.047 122.851 129.136 121.676 130.152 121.17C130.338 121.077 132.265 121.461 132.575 121.328C133.335 121.001 133.27 119.981 133.818 119.411Z" fill="white"/>
</g>
<g opacity="0.4">
<path d="M150.889 139.643C151.38 140.529 152.226 141.153 153.042 141.753C153.859 142.353 154.7 142.985 155.176 143.88C155.715 144.894 155.709 146.127 155.407 147.234C155.104 148.342 154.529 149.352 153.96 150.35L152.179 153.47C152.986 151.882 153.801 150.268 154.152 148.52C154.502 146.773 154.334 144.845 153.301 143.393C152.759 142.634 152.013 142.043 151.15 141.689C150.627 141.476 150.063 141.352 149.578 141.061C149.093 140.771 148.686 140.25 148.752 139.689C148.78 139.516 148.83 139.347 148.9 139.187C149.043 138.82 149.781 136.317 150.401 136.683C150.646 136.828 150.549 137.642 150.55 137.859C150.551 138.497 150.568 139.064 150.889 139.643Z" fill="white"/>
</g>
<g opacity="0.4">
<path d="M134.159 164.87C134.104 165.292 133.687 165.561 133.296 165.731C131.639 166.453 129.707 166.455 128 165.857C126.294 165.258 124.82 164.08 123.751 162.621C123.271 161.969 122.87 161.256 122.329 160.65C121.787 160.044 121.075 159.543 120.268 159.479C119.64 159.429 118.908 159.613 118.455 159.177C118.232 158.963 118.142 158.651 118.004 158.374C117.704 157.783 117.151 157.349 116.55 157.068C115.948 156.787 115.294 156.644 114.645 156.503C117.191 156.262 119.745 156.87 121.909 158.234C123.046 158.954 124.047 159.87 125.174 160.607C126.301 161.343 127.61 161.911 128.953 161.807C129.387 161.772 129.898 161.693 130.196 162.01C130.404 162.231 130.417 162.556 130.458 162.868C130.472 163.003 130.502 163.136 130.548 163.263C130.614 163.426 130.722 163.569 130.86 163.678C130.863 163.679 130.865 163.679 130.868 163.678C131.229 163.913 131.694 163.92 132.125 163.887C132.278 163.874 132.433 163.86 132.586 163.852C132.87 163.833 133.153 163.838 133.422 163.92C133.839 164.054 134.215 164.439 134.159 164.87Z" fill="white"/>
</g>
<g opacity="0.4">
<path d="M144.195 114.272C144.288 114.722 144.227 115.187 144.201 115.649C144.176 116.11 144.191 116.591 144.418 116.991C144.634 117.372 145.012 117.629 145.388 117.854C146.103 118.283 146.854 118.649 147.632 118.947L147.188 118.593C146.857 118.329 146.52 118.061 146.255 117.729C145.869 117.244 145.649 116.641 145.549 116.027C145.449 115.414 145.468 114.788 145.515 114.169C145.538 113.869 145.566 113.55 145.432 113.28C145.26 112.932 144.842 112.749 144.455 112.778C144.241 112.797 144.035 112.862 143.849 112.969C143.657 113.075 143.444 113.164 143.591 113.348C143.708 113.495 143.88 113.578 143.987 113.751C144.086 113.911 144.157 114.088 144.195 114.272Z" fill="white"/>
</g>
<g opacity="0.4">
<path d="M125.831 110.102L124.029 109.7C123.85 109.661 123.66 109.615 123.537 109.48C123.33 109.249 123.415 108.888 123.519 108.595C123.675 108.154 123.944 107.644 124.411 107.631C124.683 107.624 124.926 107.802 125.107 108.005C125.289 108.208 125.433 108.445 125.64 108.623C125.998 108.93 126.491 109.017 126.962 109.072C127.432 109.127 127.919 109.167 128.324 109.409C128.849 109.721 129.232 110.615 128.343 110.549C127.495 110.485 126.658 110.286 125.831 110.102Z" fill="white"/>
</g>
<g opacity="0.4">
<path d="M130.048 114.076C130.197 114.241 130.379 114.386 130.594 114.436C130.639 114.446 130.685 114.452 130.731 114.452C130.819 114.456 130.906 114.437 130.984 114.398C131.063 114.359 131.13 114.3 131.18 114.228C131.295 114.04 131.248 113.796 131.17 113.589C130.768 112.519 128.953 112.874 130.048 114.076Z" fill="white"/>
</g>
<g opacity="0.4">
<path d="M127.289 138.607C126.302 138.832 125.595 139.664 124.874 140.374C124.153 141.084 123.193 141.754 122.207 141.526L124.491 139.07C124.766 138.775 125.046 138.474 125.399 138.278C126.104 137.884 126.964 137.968 127.772 137.968C128.088 137.968 129.735 137.448 129.614 138.082C129.498 138.691 127.719 138.509 127.289 138.607Z" fill="white"/>
</g>
<path d="M136.649 170.083C118.045 170.083 102.911 154.948 102.911 136.345C102.911 117.742 118.045 102.608 136.649 102.608C155.252 102.608 170.386 117.743 170.386 136.345C170.386 154.948 155.251 170.083 136.649 170.083ZM136.649 103.159C118.349 103.159 103.462 118.046 103.462 136.345C103.462 154.644 118.349 169.532 136.649 169.532C154.948 169.532 169.835 154.644 169.835 136.345C169.835 118.046 154.948 103.159 136.649 103.159Z" fill="#218AE5"/>
<path d="M136.649 170.083C125.405 170.083 116.259 154.948 116.259 136.345C116.259 117.742 125.405 102.608 136.649 102.608C147.892 102.608 157.038 117.743 157.038 136.345C157.038 154.948 147.891 170.083 136.649 170.083ZM136.649 103.159C125.709 103.159 116.809 118.046 116.809 136.345C116.809 154.644 125.709 169.532 136.649 169.532C147.589 169.532 156.488 154.644 156.488 136.345C156.488 118.046 147.588 103.159 136.649 103.159Z" fill="#218AE5"/>
<path d="M136.924 102.884H136.373V169.807H136.924V102.884Z" fill="#218AE5"/>
<path d="M168.952 127.318H104.15V127.869H168.952V127.318Z" fill="#218AE5"/>
<path d="M168.952 144.823H104.15V145.373H168.952V144.823Z" fill="#218AE5"/>
<path d="M30.6825 79.7742C26.1283 78.1981 20.8908 78.7279 16.7463 81.1894C12.6019 83.651 9.6249 87.9909 8.82531 92.7438C8.18211 96.5694 8.88864 100.473 9.30165 104.33C9.71466 108.188 9.79286 112.275 8.03012 115.729C6.91113 117.923 5.13298 119.694 3.43743 121.479C1.74188 123.264 0.0633922 125.165 -0.7775 127.481C-1.61839 129.798 -1.44823 132.635 0.251726 134.416C1.8063 136.046 4.47546 136.709 5.22053 138.834C5.8417 140.604 4.78384 142.481 3.76894 144.058L-0.966935 151.414C4.5074 152.169 10.186 152.911 15.4731 151.303C20.7603 149.695 25.5506 145.041 25.4355 139.519C25.3992 137.772 24.9207 135.869 25.8392 134.382C27.038 132.441 29.8162 132.413 32.074 132.743C34.7421 133.133 37.4399 133.703 40.1101 133.331C42.7804 132.959 45.4909 131.403 46.3329 128.841C47.0774 126.568 46.2293 124.004 46.9772 121.733C48.0235 118.547 51.8909 116.828 52.6459 113.56C53.6415 109.248 48.7096 105.727 48.247 101.326C47.9579 98.5728 49.4695 95.9554 49.7339 93.2009C50.2036 88.3505 46.6385 83.8327 42.2853 81.6421C37.9322 79.4515 32.9193 79.0908 28.0562 78.7703" fill="#0E1738"/>
<path d="M56.8933 239.246H36.4046L35.8539 234.745L31.7596 201.286L31.7425 201.16L52.5104 199.933L56.8933 239.246Z" fill="#0E1738"/>
<path d="M35.4172 202.565L33.8615 239.246H9.70309L10.6949 196.774L35.4172 202.565Z" fill="#0E1738"/>
<path d="M102.481 148.072C101.132 150.307 87.1258 156.966 87.1258 156.966L80.7175 148.427C80.7175 148.427 86.1665 138.081 88.1886 137.997C90.1876 137.92 88.2745 143.348 88.2745 143.348C89.1804 142.55 95.929 136.627 96.7192 138.8C97.0067 139.589 96.0887 141.365 95.5545 141.977C97.592 140.641 100.85 139.281 101.297 140.324C101.92 141.776 99.4038 143.336 98.5001 143.841C99.4407 143.359 102.211 142.079 102.527 143.625C102.719 144.565 100.631 145.869 99.7182 146.55C100.554 146.299 103.363 146.617 102.481 148.072Z" fill="#FEC3BD"/>
<path d="M88.8577 156.994C88.8577 156.994 76.5879 177.529 65.0412 179.737C64.4702 179.85 63.8897 179.907 63.3076 179.909C56.6994 179.892 47.6132 171.037 40.6399 162.873C34.6809 155.901 30.2617 149.432 30.2617 149.432L42.2016 128.684C47.0085 132.955 56.1433 147.709 65.0412 158.911L80.4801 147.479L88.8577 156.994Z" fill="#37C092"/>
<path d="M65.0412 179.738C64.4702 179.851 63.8897 179.909 63.3076 179.91C56.6995 179.893 47.6132 171.038 40.6399 162.875C42.4125 158.145 46.0503 140.481 46.0503 140.481C46.0503 140.481 55.0281 172.012 65.0412 179.738Z" fill="#30B588"/>
<path d="M54.3679 206.269C54.3679 211.419 8.24653 212.849 8.24653 207.701C8.24653 207.701 8.09124 204.347 7.84784 199.276C7.23217 186.606 6.04655 163.206 5.25963 154.538C4.36422 144.704 3.97048 135.154 5.47164 132.826C8.03947 128.844 16.6411 126.474 21.3605 126.039C25.7291 125.635 31.2177 125.185 35.5885 125.598C39.8838 126.002 41.4967 127.813 43.7039 130.343C46.443 133.482 46.3086 147.809 46.3086 147.809C53.4675 155.371 51.1436 163.453 49.094 167.474C48.4007 168.856 48.6589 170.714 48.6589 170.714L54.3679 206.269Z" fill="#37C092"/>
<path d="M29.4974 182.22L28.3409 194.864L7.84564 199.273C7.22998 186.604 6.04436 163.204 5.25743 154.536C7.1259 145.753 5.97772 136.042 8.24433 134.909C8.24433 134.909 14.0876 140.604 13.5667 145.796C12.7225 154.211 8.24378 172.35 8.24378 172.35L29.4974 182.22Z" fill="#30B588"/>
<path d="M6.05811 131.978C-0.256566 134.858 -16.3635 168.952 -12.3732 181.278C-7.78054 195.465 28.3415 194.864 28.3415 194.864L29.4979 182.222L2.81129 175.36C2.81129 175.36 14.4621 156.871 13.5204 143.992C12.7511 133.511 6.05811 131.978 6.05811 131.978Z" fill="#37C092"/>
<path d="M46.6699 189.818C46.8665 188.886 42.9748 188.404 40.1278 188.182C41.8773 188.167 43.7623 187.892 43.7408 186.754C43.694 184.642 34.3896 185.402 34.3896 185.402C34.3896 185.402 36.1612 183.977 36.2278 182.999C36.3771 180.818 29.4974 183.389 29.4974 183.389L28.3999 194.227C28.3999 194.227 39.0358 198.057 41.5821 196.774C44.1285 195.49 39.9471 193.311 39.9471 193.311C39.9471 193.311 45.4226 194.823 45.5933 192.793C45.7073 191.448 43.2694 191.034 41.624 190.905C43.4765 190.935 46.4628 190.821 46.6699 189.818ZM40.1592 190.853C40.1592 190.853 40.7853 190.842 41.6135 190.905C40.7699 190.894 40.1592 190.853 40.1592 190.853Z" fill="#FEC3BD"/>
<path d="M41.6135 190.905C40.7699 190.894 40.1591 190.853 40.1591 190.853C40.1591 190.853 40.7853 190.842 41.6135 190.905Z" fill="#FEC3BD"/>
<path d="M35.2994 134.482C25.8486 137.199 21.3605 126.039 21.3605 126.039L22.2416 112.029L27.5672 111.019L32.1632 114.181L36.4073 117.1L35.8638 122.731L35.5885 125.598C35.5885 125.598 38.6998 133.504 35.2994 134.482Z" fill="#FEC3BD"/>
<path d="M36.4068 117.1L35.8633 122.732C35.8633 122.732 25.7241 118.917 24.2389 114.565C23.24 111.624 28.5893 112.986 32.1627 114.179L36.4068 117.1Z" fill="#E98C6F"/>
<path d="M40.2324 120.387C29.4974 123.44 22.2416 112.026 22.2416 112.026C22.2416 112.026 16.0739 111.078 15.836 106.412C15.5981 101.746 19.3147 101.192 20.5818 102.535C20.5818 102.535 22.2427 82.604 34.8941 82.9217C39.8678 83.0451 43.2226 88.4599 44.8218 95.1271C47.2894 105.42 46.5344 118.595 40.2324 120.387Z" fill="#FEC3BD"/>
<path d="M45.3345 95.4168C45.1632 95.3314 44.9925 95.2318 44.8218 95.1271C41.2721 92.9872 37.7416 87.5866 37.7416 87.5866C35.2124 95.4977 26.8271 96.9592 26.8271 96.9592C28.5684 95.0231 28.412 88.5338 28.412 88.5338C25.2467 90.6694 20.9778 105.38 20.9778 105.38L20.584 102.533C19.3175 101.19 15.6014 101.745 15.8382 106.41C16.075 111.075 22.2416 112.026 22.2416 112.026L22.0037 115.81C11.4069 113.437 9.58139 103.963 10.7698 95.9719C11.9581 87.9804 19.4705 75.8841 35.2135 79.6001C50.9564 83.3161 45.3345 95.4168 45.3345 95.4168Z" fill="#0E1738"/>
<path d="M34.0689 103.174C34.6015 103.149 35.0036 102.482 34.967 101.683C34.9305 100.884 34.4691 100.256 33.9365 100.28C33.4039 100.304 33.0018 100.972 33.0384 101.771C33.0749 102.57 33.5363 103.198 34.0689 103.174Z" fill="#0E1738"/>
<path d="M32.5394 99.5833C32.4822 99.5834 32.4265 99.5657 32.3799 99.5326C32.3333 99.4996 32.2982 99.4529 32.2793 99.399C32.2604 99.3451 32.2588 99.2866 32.2746 99.2318C32.2904 99.1769 32.3229 99.1283 32.3676 99.0927C34.2487 97.5932 35.4332 98.6251 35.4828 98.6698C35.5372 98.7184 35.5702 98.7867 35.5743 98.8596C35.5784 98.9325 35.5534 99.0041 35.5048 99.0585C35.4562 99.113 35.3879 99.1459 35.315 99.1501C35.242 99.1542 35.1705 99.1292 35.116 99.0806C35.0736 99.0442 34.2057 98.3322 32.7106 99.5211C32.6623 99.5607 32.6019 99.5826 32.5394 99.5833Z" fill="#0E1738"/>
<path d="M42.2281 103.174C42.7607 103.149 43.1628 102.482 43.1263 101.683C43.0897 100.884 42.6283 100.256 42.0957 100.28C41.5631 100.304 41.161 100.972 41.1976 101.771C41.2341 102.57 41.6955 103.198 42.2281 103.174Z" fill="#0E1738"/>
<path d="M40.6994 99.5833C40.6422 99.5834 40.5865 99.5657 40.5399 99.5326C40.4933 99.4996 40.4582 99.4529 40.4393 99.399C40.4204 99.3451 40.4188 99.2866 40.4346 99.2318C40.4504 99.1769 40.4829 99.1283 40.5275 99.0927C42.4081 97.5932 43.5926 98.6251 43.6428 98.6698C43.6972 98.7185 43.7301 98.7868 43.7342 98.8598C43.7383 98.9327 43.7132 99.0043 43.6645 99.0588C43.6158 99.1133 43.5474 99.1462 43.4745 99.1503C43.4015 99.1543 43.3299 99.1293 43.2754 99.0806C43.2336 99.0442 42.3657 98.3316 40.8706 99.5211C40.8222 99.5607 40.7619 99.5826 40.6994 99.5833Z" fill="#0E1738"/>
<path d="M39.7461 109.308C39.6903 109.308 39.6357 109.291 39.5897 109.259C39.5437 109.227 39.5085 109.183 39.4886 109.13C39.4688 109.078 39.4653 109.021 39.4787 108.967C39.492 108.913 39.5215 108.864 39.5633 108.827C39.695 108.714 39.8021 108.575 39.8779 108.419C39.9537 108.263 39.9965 108.093 40.0038 107.92C40.0078 107.753 39.9772 107.586 39.914 107.431C39.8508 107.276 39.7564 107.136 39.6365 107.019C39.5172 106.906 39.3907 106.8 39.2577 106.703C39.1646 106.632 39.0721 106.561 38.9823 106.487C38.3634 105.96 37.9465 105.22 37.7774 104.351C37.6304 103.592 37.6767 102.831 37.7224 102.093C37.7276 102.02 37.761 101.953 37.8154 101.904C37.8699 101.856 37.941 101.831 38.0137 101.835C38.0865 101.839 38.1547 101.872 38.2031 101.927C38.2516 101.981 38.2763 102.053 38.2719 102.126C38.229 102.828 38.1849 103.553 38.3193 104.244C38.4641 104.991 38.8149 105.62 39.3403 106.064C39.4207 106.133 39.5055 106.198 39.5914 106.264C39.744 106.375 39.8891 106.497 40.0259 106.628C40.1989 106.797 40.3351 107.001 40.4259 107.226C40.5166 107.451 40.5601 107.692 40.5534 107.934C40.5445 108.182 40.4846 108.426 40.3775 108.65C40.2703 108.874 40.1182 109.073 39.9306 109.236C39.8802 109.282 39.8144 109.308 39.7461 109.308Z" fill="#F18B89"/>
<path d="M37.3391 113.316C36.0912 113.316 34.855 112.662 34.1611 111.624C34.1402 111.594 34.1256 111.56 34.118 111.524C34.1103 111.489 34.1099 111.452 34.1167 111.416C34.1235 111.38 34.1374 111.346 34.1576 111.315C34.1777 111.285 34.2037 111.258 34.2341 111.238C34.2645 111.218 34.2987 111.204 34.3345 111.197C34.3704 111.19 34.4073 111.19 34.4431 111.197C34.4789 111.205 34.5129 111.219 34.5431 111.24C34.5732 111.261 34.5989 111.287 34.6187 111.318C34.9324 111.776 35.3559 112.149 35.8505 112.401C36.3451 112.654 36.8952 112.778 37.4503 112.763C37.5234 112.761 37.5945 112.787 37.648 112.837C37.7016 112.886 37.7332 112.955 37.7359 113.028C37.7386 113.101 37.7121 113.173 37.6624 113.226C37.6127 113.28 37.5437 113.311 37.4707 113.314C37.4267 113.316 37.3854 113.316 37.3391 113.316Z" fill="#F18B89"/>
</g>
<defs>
<clipPath id="clip0_2_6203">
<rect width="200" height="200" rx="100" fill="white"/>
</clipPath>
</defs>
</svg>
