<svg width="300" height="300" viewBox="0 0 300 300" fill="none" xmlns="http://www.w3.org/2000/svg">
<g clip-path="url(#clip0_2_559)">
<rect width="300" height="300" fill="white"/>
<path d="M39.7359 119.96C46.2047 84.3151 87.8009 72.4704 123.486 78.713C188.525 90.0909 243.771 62.3892 267.611 99.924C299.069 149.456 241.176 290.338 110.619 267.445C31.5758 253.585 29.2585 177.692 39.7359 119.96Z" fill="#3FDA57"/>
<path opacity="0.2" d="M253.299 213.092C253.002 215.63 251.713 223.897 244.774 229.514C242.959 230.977 240.921 232.14 238.739 232.96H251.164C251.732 232.958 252.275 232.73 252.676 232.328C253.076 231.925 253.3 231.38 253.299 230.813V213.092Z" fill="white"/>
<path d="M141.659 154.087H160.613C164.384 154.086 168.118 154.829 171.602 156.271C175.085 157.714 178.251 159.83 180.917 162.496C183.583 165.163 185.697 168.328 187.139 171.812C188.581 175.296 189.323 179.03 189.322 182.801V233.144H112.955V182.801C112.953 179.031 113.695 175.297 115.137 171.813C116.579 168.33 118.693 165.164 121.359 162.498C124.024 159.831 127.189 157.716 130.672 156.273C134.156 154.829 137.889 154.087 141.659 154.087Z" fill="#FF6C6C"/>
<path d="M161.053 118.748H139.375V156.593H161.053V118.748Z" fill="url(#paint0_linear_2_559)"/>
<path opacity="0.2" d="M139.375 139.314L143.341 135.745C148.982 138.09 155.293 138.259 161.052 136.219V119.294L139.373 118.748L139.375 139.314Z" fill="#404142"/>
<path d="M180.872 92.1592C184.318 89.3617 188.194 88.5231 190.68 90.0656C191.406 90.5045 191.994 91.1377 192.379 91.8936C193.816 94.8239 191.322 98.6781 188.836 102.522C187.627 104.39 186.998 105.346 185.755 106.375C183.942 107.841 181.761 108.782 179.45 109.095L180.872 92.1592Z" fill="#FFC09F"/>
<path d="M183.923 95.0915C184.143 94.5406 184.572 94.0992 185.117 93.8637C185.662 93.6282 186.277 93.6177 186.829 93.8345C187.336 94.0422 187.742 94.44 187.959 94.9427C188.177 95.4455 188.189 96.0133 187.993 96.525C187.606 98.0858 186.742 99.4872 185.521 100.534C184.415 101.474 183.081 102.105 181.653 102.364C182.41 99.9397 183.167 97.5156 183.923 95.0915Z" fill="#F99062"/>
<path d="M119.488 93.3885C115.613 90.932 111.557 89.8197 109.681 91.2948C107.068 93.3429 109.358 99.7864 111.862 103.436C114.721 107.6 118.813 109.521 120.911 110.322L119.488 93.3885Z" fill="#FFC09F"/>
<path d="M116.065 96.3188C115.846 95.7681 115.417 95.3268 114.872 95.0912C114.328 94.8557 113.713 94.8451 113.161 95.0618C112.653 95.2691 112.247 95.6672 112.029 96.1705C111.812 96.6739 111.8 97.2424 111.997 97.7543C112.385 99.3139 113.248 100.714 114.467 101.761C115.574 102.701 116.909 103.332 118.338 103.591L116.065 96.3188Z" fill="#F99062"/>
<path d="M115.685 66.7201C117.941 77.5519 119.333 88.5458 119.848 99.5981C120.16 106.488 119.967 108.573 121.157 112.255C124.45 122.45 137.23 136.245 154.646 134.75C171.908 133.277 181.877 117.824 183.152 107.39C183.715 102.784 182.678 101.424 182.268 93.3389C181.805 84.0679 182.798 74.7817 185.21 65.818C175.899 59.2646 164.898 55.5312 153.521 55.0642C133.259 54.2453 119.254 64.0475 115.685 66.7201Z" fill="#FFC09F"/>
<path d="M146.917 107.231C147.5 108.314 148.393 109.196 149.482 109.766C150.572 110.335 151.807 110.565 153.028 110.425C154.162 110.301 155.237 109.858 156.13 109.147C157.022 108.436 157.694 107.486 158.067 106.408C156.47 107.571 154.58 108.264 152.61 108.409C150.639 108.554 148.668 108.146 146.917 107.231Z" fill="#F99062"/>
<path d="M147.431 121.407C146.915 121.052 145.676 120.182 145.228 118.586C144.867 117.303 144.97 115.429 145.962 114.854C146.499 114.545 147.056 114.753 147.871 114.944C150.553 115.564 154.128 115.527 156.775 114.767C157.766 114.48 158.266 114.196 158.831 114.474C159.935 115.013 160.108 117.091 159.822 118.469C159.592 119.599 158.997 120.623 158.129 121.383C156.626 122.666 154.818 122.626 152.518 122.573C150.639 122.537 149.025 122.501 147.431 121.407Z" fill="#CE4545"/>
<path d="M145.226 115.868C145.854 116.375 148.731 118.582 152.881 118.27C155.386 118.066 157.746 117.012 159.57 115.283C159.523 115.179 159.466 115.08 159.4 114.987C159.288 114.819 159.145 114.674 158.978 114.561C158.886 114.496 158.785 114.446 158.678 114.412C158.56 114.375 158.436 114.358 158.311 114.363C158.046 114.381 157.785 114.437 157.536 114.529C157.076 114.664 156.941 114.727 156.618 114.811C156.295 114.894 156.095 114.944 155.877 114.989C155.054 115.155 154.222 115.268 153.385 115.328C152.554 115.384 151.721 115.391 150.89 115.348C150.151 115.31 149.582 115.239 149.395 115.213C149.209 115.187 148.999 115.162 148.711 115.11C147.968 114.977 147.421 114.835 147.421 114.835C147.169 114.754 146.908 114.709 146.644 114.7C146.49 114.691 146.337 114.709 146.19 114.753C146.036 114.804 145.893 114.885 145.771 114.991C145.623 115.118 145.501 115.271 145.41 115.443C145.332 115.577 145.271 115.719 145.226 115.868Z" fill="#FFF3F3"/>
<path d="M146.287 120.443C150.397 118.935 154.905 118.911 159.031 120.376C158.667 120.924 158.195 121.392 157.643 121.75C156.834 122.271 156.071 122.402 155.347 122.519C155.103 122.557 154.493 122.646 152.704 122.581C150.708 122.509 149.687 122.464 148.69 122.067C148.046 121.811 147.445 121.461 146.905 121.028L146.287 120.443Z" fill="#EF5750"/>
<path d="M129.563 82.8151L146.782 87.9441C146.868 87.972 146.951 88.0058 147.032 88.0452C147.39 88.2196 147.802 88.2495 148.181 88.1288C148.56 88.0081 148.879 87.746 149.07 87.3969C149.166 87.1894 149.213 86.9623 149.205 86.7338C149.198 86.5052 149.138 86.2815 149.029 86.0805C148.852 85.7615 148.561 85.5214 148.214 85.4083L131.403 79.4942C131.201 79.4226 130.986 79.3935 130.773 79.4089C129.595 79.5001 128.685 80.202 128.497 81.0822C128.483 81.141 128.473 81.2006 128.467 81.2607C128.442 81.6065 128.537 81.9504 128.737 82.2337C128.937 82.5171 129.229 82.7225 129.563 82.8151Z" fill="#A55330"/>
<path d="M129.654 92.5716C136.127 90.8806 143.006 91.8065 148.801 95.149C148.267 94.3798 145.571 90.6743 140.474 89.7147C134.573 88.6163 130.249 92.078 129.654 92.5716Z" fill="#444343"/>
<path d="M174.03 92.3515C167.556 90.6606 160.677 91.5865 154.881 94.9289C155.417 94.1617 158.113 90.4541 163.208 89.4965C169.109 88.3981 173.435 91.8598 174.03 92.3515Z" fill="#444343"/>
<path d="M174.525 82.2976L157.306 87.4266C157.221 87.4545 157.137 87.4883 157.056 87.5278C156.698 87.7016 156.286 87.7306 155.906 87.6088C155.527 87.487 155.209 87.2236 155.018 86.8735C154.922 86.6659 154.876 86.4389 154.883 86.2103C154.89 85.9818 154.951 85.7581 155.06 85.557C155.237 85.2381 155.528 84.9979 155.875 84.8849L172.685 78.9707C172.887 78.8991 173.102 78.8701 173.316 78.8855C174.494 78.9767 175.404 79.6785 175.592 80.5588C175.606 80.6176 175.616 80.6772 175.622 80.7372C175.648 81.0841 175.553 81.4293 175.353 81.7139C175.153 81.9985 174.861 82.2048 174.525 82.2976Z" fill="#A55330"/>
<path d="M114.793 91.2352C116.03 91.6372 117.141 92.3563 118.014 93.3209C118.887 94.2854 119.492 95.4619 119.769 96.7331C119.465 93.6832 119.626 90.6048 120.245 87.603C121.209 82.9617 122.747 81.1972 123.558 77.6681C124.218 74.7893 124.466 70.4196 122.109 64.4201L178.358 63.7896C177.771 67.2833 177.72 70.8459 178.205 74.3551C178.681 77.7533 179.432 79.3672 180.275 83.2551C181.099 87.0868 181.564 90.987 181.663 94.9051L183.15 90.6305L186.421 89.431C191.697 76.8433 192.714 66.6843 192.811 60.4846C192.891 55.4408 192.377 51.9969 190.212 48.8921C186.213 43.1604 179.038 42.0996 176.756 41.8538C168.07 39.7007 161.024 39.437 156.263 39.5777C139.476 40.0833 131.348 46.17 121.064 41.2352C115.647 38.636 114.269 35.2041 111.335 36.0606C104.951 37.9242 105.104 56.0138 105.125 58.4167C105.139 60.0702 105.276 66.7953 107.816 75.39C109.458 80.947 111.803 86.2717 114.793 91.2352Z" fill="#A55330"/>
<path opacity="0.2" d="M112.512 87.1253L116.632 82.4622C118.279 80.8424 119.549 78.8792 120.35 76.7125C122.501 70.8281 120.302 65.5424 119.705 64.222C120.007 62.2323 120.799 60.349 122.011 58.7422C123.222 57.1354 124.815 55.8557 126.645 55.0186C126.706 54.749 126.696 54.4683 126.616 54.2037C126.537 53.939 126.39 53.6995 126.19 53.5083C125.991 53.3171 125.745 53.1808 125.477 53.1127C125.21 53.0445 124.929 53.0467 124.662 53.1192L119.154 54.5566L122.921 52.3757C123.267 52.262 123.564 52.035 123.764 51.7314C124.182 51.0513 123.98 49.9946 123.189 49.1936L118.337 51.9693L108.525 59.5529V77.692L112.512 87.1253Z" fill="#111111"/>
<path opacity="0.2" d="M187.246 87.1253L183.126 82.4622C181.479 80.8424 180.21 78.8792 179.408 76.7125C177.257 70.8281 179.456 65.5424 180.053 64.222C179.751 62.2323 178.959 60.349 177.748 58.7422C176.536 57.1354 174.944 55.8557 173.114 55.0186C173.053 54.749 173.062 54.4683 173.142 54.2037C173.222 53.939 173.368 53.6995 173.568 53.5083C173.767 53.3171 174.013 53.1808 174.281 53.1127C174.549 53.0445 174.83 53.0467 175.096 53.1192L180.598 54.5566L176.831 52.3757C176.486 52.262 176.189 52.035 175.988 51.7314C175.57 51.0513 175.772 49.9946 176.563 49.1936L181.415 51.9693L191.223 59.5628V77.7019L187.246 87.1253Z" fill="#111111"/>
<path d="M229.607 131.195C229.493 130.721 229.313 130.265 229.071 129.841C226.601 124.686 207.56 93.9931 196.098 75.616C195.208 73.6307 194.565 71.5431 194.185 69.4005C193.194 63.7718 194.806 61.9854 193.41 58.0202C192.014 54.0549 188.939 51.7194 187.012 50.2582C184.283 48.195 181.12 46.7812 177.763 46.1244C177.345 46.515 177.047 47.0173 176.904 47.5717C176.484 49.3264 177.987 50.732 178.054 50.7915L182.156 53.3451C182.652 55.0317 183.149 56.7196 183.647 58.4088C182.763 56.9007 181.88 55.3919 180.997 53.8824L177.44 51.8145C176.417 51.0651 175.225 51.3625 174.918 51.9434C174.654 52.445 174.938 53.359 175.766 53.9261L179.121 55.8948L182.232 62.7745C181.621 64.6779 179.892 70.9033 182.936 77.1665C183.561 78.4479 184.342 79.6467 185.263 80.7352L208.216 130.678L182.158 139.51C183.451 145.876 184.744 152.242 186.038 158.607L221.629 146.864C223.752 146.113 225.638 144.814 227.095 143.097C230.707 138.743 230.035 133.267 229.607 131.195Z" fill="#FFC09F"/>
<path d="M125.112 53.1688C124.805 52.5859 123.613 52.2885 122.592 53.038L119.035 55.1118L116.385 59.6382L117.875 54.5725L121.978 52.0209C122.045 51.9594 123.548 50.5537 123.126 48.8011C122.985 48.2463 122.688 47.7437 122.269 47.3538C118.911 48.0095 115.747 49.4226 113.018 51.4856C111.093 52.9468 108.022 55.2783 106.622 59.2496C105.222 63.2208 106.838 64.9992 105.847 70.6279C105.41 73.0826 104.63 75.4638 103.531 77.7019C92.9122 95.1015 82.2919 112.5 71.6702 129.897C70.7467 131.401 70.2074 133.109 70.1 134.871C69.9513 137.48 70.332 141.188 72.9332 144.312C74.39 146.029 76.2762 147.329 78.3993 148.079L113.995 159.834C115.289 153.468 116.583 147.102 117.875 140.738L91.8178 131.905C99.1376 115.609 106.465 99.3153 113.799 83.0233C115.144 81.668 116.258 80.1015 117.096 78.3859C120.14 72.1248 118.411 65.8953 117.798 63.994L120.911 57.1162L124.266 55.1515C125.092 54.5884 125.378 53.6744 125.112 53.1688Z" fill="#FFC09F"/>
<path d="M179.724 233.937H123.082C122.184 199.475 122.412 173.144 122.927 160.058C123.078 156.268 123.465 149.154 128.439 143.442C131.95 139.401 136.415 137.585 139.375 136.701C140.587 142.308 145.702 146.12 151.087 145.704C155.881 145.333 160.009 141.679 161.053 136.727C163.207 137.028 169.448 138.196 173.954 143.432C173.954 143.432 177.127 147.098 178.62 153.062C179.191 155.346 179.476 157.693 179.466 160.048C179.444 166.841 179.597 195.125 179.724 233.937Z" fill="#7BCAFF"/>
<path d="M133.754 138.947L107.687 136.219L101.739 157.554L124.367 167.765C127.495 158.16 130.624 148.554 133.754 138.947Z" fill="#7BCAFF"/>
<path opacity="0.2" d="M122.773 218.786C128.627 217.408 133.848 216.328 138.287 215.481C142.228 214.728 145.097 214.248 148.86 214.688C151.312 214.977 153.714 215.599 155.998 216.538C160.406 212.18 165.495 208.57 171.066 205.851C173.817 204.513 176.674 203.402 179.607 202.528L179.714 233.144L123.046 232.597L122.773 218.786Z" fill="#404142"/>
<path d="M179.466 188.703H122.473L122.697 173.822L179.466 173.661V188.703Z" fill="#A9E0FF"/>
<path d="M165.972 137.986L193.007 135.25L198.955 156.585L176.325 166.799C172.876 157.197 169.425 147.592 165.972 137.986Z" fill="#7BCAFF"/>
<path opacity="0.2" d="M109.069 160.863L125.225 165.136L122.477 192.988L122.773 167.081L109.069 160.863Z" fill="#404142"/>
<path opacity="0.2" d="M193.031 159.277L176.875 163.55L179.623 191.402L179.325 165.495L193.031 159.277Z" fill="#404142"/>
<path opacity="0.2" d="M110.003 139.479L107.358 151.993L127.713 159.277L133.136 140.845L110.003 139.479Z" fill="white"/>
<path opacity="0.2" d="M142.847 189.97C142.582 196.647 142.318 203.321 142.054 209.995C144.903 211.128 147.915 211.797 150.976 211.978C152.277 212.052 153.582 212.037 154.881 211.932C160.954 205.669 168.916 201.576 177.543 200.28C177.321 197.321 177.098 194.361 176.875 191.402L163.664 190.169L157.32 190.962L152.363 190.367L142.847 189.97Z" fill="white"/>
<path opacity="0.2" d="M176.877 174.373H142.781V187.062H176.877V174.373Z" fill="white"/>
<path d="M201.126 31.8098L193.255 42.0898L200.327 36.0864L203.166 39.669L209.834 31.7583L202.905 35.3469L201.126 31.8098Z" fill="#FFA522"/>
<path d="M208.633 41.0806L193.194 48.4639L205.125 45.6367L206.319 51.5588L218.914 46.2414L208.605 46.3127L208.633 41.0806Z" fill="#FFA522"/>
<path d="M209.251 52.7366L196.31 53.1807L205.438 54.8342L204.473 59.3031L214.816 59.4319L207.647 56.3569L209.251 52.7366Z" fill="#FFA522"/>
<path d="M92.3472 32.3393L100.218 42.6192L93.1462 36.6158L90.3071 40.1984L83.6395 32.2877L90.5688 35.8763L92.3472 32.3393Z" fill="#FFA522"/>
<path d="M84.8409 41.61L100.28 48.9933L88.3482 46.1661L87.1546 52.0882L74.559 46.7708L84.8686 46.8422L84.8409 41.61Z" fill="#FFA522"/>
<path d="M84.2222 53.2678L97.1629 53.71L88.0348 55.3635L89.0004 59.8323L78.657 59.9612L85.8282 56.8861L84.2222 53.2678Z" fill="#FFA522"/>
<path d="M167.176 227.619C165.867 227.545 165.219 228.82 165.219 228.82C164.854 229.254 164.592 229.763 164.45 230.311L148.079 230.166C147.84 229.668 147.519 229.213 147.129 228.82C147.129 228.82 146.421 227.547 145.172 227.619L100.533 230.107V233.626L144.433 231.606L145.424 232.962L166.779 233.146L167.905 231.606L211.809 233.628V230.109L167.176 227.619Z" fill="#33E588"/>
<path d="M101.549 230.049V223.507L146.65 217.602C147.698 217.469 148.763 217.568 149.77 217.89C150.765 218.242 151.681 218.787 152.465 219.494C154.761 221.476 155.768 224.127 156.182 225.489C156.182 227.087 156.182 228.685 156.182 230.281L148.075 230.17L146.854 228.782C146.578 228.468 146.235 228.22 145.851 228.056C145.466 227.893 145.049 227.818 144.631 227.839L101.549 230.049Z" fill="#EEFAFF"/>
<path d="M210.811 230.049C210.712 229.454 210.612 228.86 210.51 228.265L171.783 224.3C169.404 224.058 168.092 223.927 165.439 223.838C162.931 223.754 161.648 223.838 160.284 224.101C158.863 224.386 157.484 224.853 156.182 225.489C156.182 227.087 156.182 228.685 156.182 230.281L164.457 230.315C164.68 229.726 165.041 229.199 165.51 228.778C165.792 228.469 166.138 228.224 166.524 228.061C166.91 227.898 167.326 227.821 167.745 227.835L210.811 230.049Z" fill="#EEFAFF"/>
<path d="M156.182 225.485C157.691 221.52 160.447 216.115 165.572 211.343C180.243 197.679 201.023 201.664 203.704 202.223L206.083 206.452C202.135 205.607 183.481 202.043 168.082 213.59C164.031 216.65 160.584 220.436 157.915 224.754L156.182 225.485Z" fill="#EEFAFF"/>
<path d="M156.299 226.149C158.918 222.817 163.159 218.473 169.47 215.443C187.545 206.763 206.196 216.75 208.589 218.08C208.926 219.666 209.264 221.248 209.602 222.827C206.085 220.844 189.328 211.888 171.199 218.336C166.421 220.052 162.004 222.64 158.171 225.969L156.299 226.149Z" fill="#E2EEF2"/>
<path d="M155.992 226.139C158.272 222.571 162.064 217.824 168.05 214.19C185.188 203.779 204.729 211.888 207.239 212.977C207.73 214.519 208.221 216.06 208.712 217.6C205.018 215.975 187.462 208.704 170.05 216.898C165.464 219.075 161.321 222.085 157.833 225.775L155.992 226.139Z" fill="#EEFAFF"/>
<path opacity="0.2" d="M157.064 230.279H155.478C155.466 228.032 155.454 225.785 155.44 223.538C155.605 223.891 155.766 224.278 155.918 224.694C156.017 224.968 156.105 225.231 156.182 225.487C156.283 225.224 156.38 224.954 156.499 224.682C156.66 224.286 156.822 223.889 156.989 223.526C157.013 225.776 157.038 228.027 157.064 230.279Z" fill="#343738"/>
<path opacity="0.2" d="M101.549 228.527L125.225 226.675L101.549 227.865V228.527Z" fill="#343738"/>
<path opacity="0.2" d="M101.549 226.544L110.387 225.485L101.549 225.916V226.544Z" fill="#343738"/>
<path opacity="0.2" d="M101.549 227.518L134.147 224.692L101.549 226.891V227.518Z" fill="#343738"/>
<path d="M249.674 174.195L246.255 173.75L242.226 204.726L245.645 205.171L249.674 174.195Z" fill="#FFA522"/>
<path opacity="0.2" d="M249.673 174.197L247.963 173.975L243.934 204.95L245.645 205.173L249.673 174.197Z" fill="white"/>
<path d="M240.803 176.245H241.889C242.205 176.245 242.507 176.37 242.73 176.593C242.953 176.816 243.079 177.119 243.079 177.434V205.849H239.631V177.426C239.633 177.115 239.757 176.817 239.976 176.596C240.195 176.376 240.492 176.249 240.803 176.245Z" fill="#606060"/>
<path d="M242.042 176.633H240.654V174.777C240.654 174.593 240.727 174.417 240.857 174.286C240.987 174.156 241.164 174.082 241.348 174.082C241.533 174.082 241.71 174.155 241.84 174.285C241.971 174.416 242.044 174.593 242.044 174.777L242.042 176.633Z" fill="#606060"/>
<path d="M241.469 174.696H241.251V176.241H241.469V174.696Z" fill="#444443"/>
<path d="M241.031 174.696H240.813V176.241H241.031V174.696Z" fill="#444443"/>
<path d="M241.879 174.696H241.661V176.241H241.879V174.696Z" fill="#444443"/>
<path d="M243.142 179.123H239.552V184.367H243.142V179.123Z" fill="#878686"/>
<path d="M239.552 180.045C239.182 180.762 238.944 181.54 238.852 182.341C238.787 182.971 238.803 183.607 238.899 184.233C239.019 185.145 239.263 186.037 239.623 186.883V188.694C239.625 188.81 239.591 188.924 239.527 189.021C239.462 189.118 239.369 189.192 239.26 189.235C239.193 189.262 239.12 189.271 239.048 189.261C238.977 189.251 238.909 189.222 238.852 189.177C238.711 189.033 238.741 188.684 239.026 188.384C239.04 187.961 239.025 187.538 238.981 187.117C238.824 185.624 238.412 185.323 238.221 184.143C238.048 183.007 238.177 181.844 238.594 180.773C238.827 180.173 239.15 179.612 239.552 179.109V180.045Z" fill="#878686"/>
<path opacity="0.2" d="M241.031 176.582H241.594C241.837 176.582 242.07 176.678 242.241 176.85C242.413 177.022 242.51 177.255 242.51 177.498V205.514H241.029V176.582H241.031Z" fill="white"/>
<path d="M233.857 175.328L230.507 176.146L237.529 204.906L240.878 204.088L233.857 175.328Z" fill="#33E588"/>
<path d="M233.85 175.333L230.501 176.149L230.198 174.906C230.144 174.686 230.134 174.458 230.168 174.234C230.203 174.011 230.281 173.796 230.398 173.602C230.516 173.409 230.67 173.24 230.853 173.107C231.035 172.973 231.243 172.876 231.463 172.823C231.682 172.769 231.911 172.759 232.134 172.793C232.358 172.828 232.573 172.906 232.767 173.023C232.96 173.141 233.129 173.295 233.262 173.478C233.396 173.66 233.493 173.868 233.546 174.087L233.85 175.333Z" fill="#92FFC3"/>
<path d="M233.633 174.41L230.284 175.227L230.508 176.146L233.858 175.328L233.633 174.41Z" fill="#2FAD68"/>
<path opacity="0.2" d="M233.633 174.412L231.957 174.821L239.203 204.499L240.879 204.09L233.633 174.412Z" fill="white"/>
<path d="M259.157 177.425L255.975 176.098L243.951 204.927L247.133 206.254L259.157 177.425Z" fill="#A55330"/>
<path opacity="0.2" d="M259.158 177.424L257.566 176.76L245.542 205.589L247.134 206.253L259.158 177.424Z" fill="white"/>
<path d="M229.43 195.895H256.67V230.914C256.67 231.456 256.454 231.977 256.07 232.361C255.687 232.744 255.166 232.96 254.624 232.96H231.476C230.934 232.96 230.413 232.744 230.03 232.361C229.646 231.977 229.43 231.456 229.43 230.914V195.895Z" fill="#FF6C6C"/>
<path d="M256.67 204.17H229.43V224.428H256.67V204.17Z" fill="#FF9C9C"/>
<path opacity="0.2" d="M254.592 232.96H231.508C230.957 232.96 230.428 232.741 230.039 232.351C229.649 231.962 229.43 231.433 229.43 230.882V224.429C231.881 221.91 234.073 219.152 235.973 216.197C239.916 210.029 242.556 203.12 243.731 195.895H256.662V230.882C256.662 231.432 256.444 231.959 256.056 232.348C255.668 232.738 255.142 232.958 254.592 232.96Z" fill="white"/>
<path d="M98.7967 222.214H50.6465V230.811H98.7967V222.214Z" fill="#EEFAFF"/>
<path d="M50.0376 222.214H99.6827V220.063H46.689C46.4451 220.168 42.6325 221.875 42.1448 225.602C41.7482 228.608 43.6932 231.631 46.9784 232.972L50.0376 232.96H99.6827V230.813H50.0376C47.4166 230.006 45.9217 227.676 46.3975 225.571C46.7544 223.99 48.1819 222.698 50.0376 222.214Z" fill="#FF6C6C"/>
<path d="M50.6544 222.214V230.813H50.0457C47.5278 230.107 46.0011 227.91 46.362 225.802C46.6514 224.123 48.1027 222.71 50.0457 222.216L50.6544 222.214Z" fill="#D35F5F"/>
<path opacity="0.2" d="M77.4298 228.36L98.0155 229.028V227.938L77.4298 228.36Z" fill="#343738"/>
<path opacity="0.2" d="M88.2689 226.728L98.0155 227.389V226.298L88.2689 226.728Z" fill="#343738"/>
<path opacity="0.2" d="M70.8536 224.76L98.0156 225.42V224.329L70.8536 224.76Z" fill="#343738"/>
<path opacity="0.2" d="M72.3444 228.09L51.7587 228.751V227.66L72.3444 228.09Z" fill="#343738"/>
<path opacity="0.2" d="M61.5053 226.451L51.7587 227.113V226.023L61.5053 226.451Z" fill="#343738"/>
<path d="M98.9633 209.295H50.8131V217.892H98.9633V209.295Z" fill="#EEFAFF"/>
<path d="M50.2043 209.297H99.8494V207.146H46.8556C46.6098 207.251 42.7972 208.958 42.3095 212.683C41.9129 215.691 43.8579 218.713 47.1431 220.053H50.2043H99.8494V217.902H50.2043C47.5813 217.097 46.0884 214.767 46.5642 212.662C46.9211 211.072 48.3486 209.779 50.2043 209.297Z" fill="#FFA522"/>
<path d="M50.8111 209.297V217.892H50.2044C47.6864 217.188 46.1578 214.989 46.5206 212.884C46.8081 211.202 48.2614 209.789 50.2044 209.297H50.8111Z" fill="#CC8221"/>
<path opacity="0.2" d="M72.3307 215.481L51.745 216.141V215.051L72.3307 215.481Z" fill="#343738"/>
<path opacity="0.2" d="M61.4936 213.847L51.745 214.509V213.419L61.4936 213.847Z" fill="#343738"/>
<path opacity="0.2" d="M78.907 211.878L51.745 212.539V211.448L78.907 211.878Z" fill="#343738"/>
<path opacity="0.2" d="M77.4199 215.209L98.0055 215.87V214.779L77.4199 215.209Z" fill="#343738"/>
<path opacity="0.2" d="M88.255 213.578L98.0016 214.238V213.147L88.255 213.578Z" fill="#343738"/>
<path d="M98.7967 196.378H50.6465V204.975H98.7967V196.378Z" fill="#EEFAFF"/>
<path d="M50.0376 196.378H99.6827V194.229H46.689C46.4451 194.334 42.6325 196.041 42.1448 199.767C41.7482 202.774 43.6932 205.796 46.9784 207.136H50.0376H99.6827V204.985H50.0376C47.4166 204.178 45.9217 201.85 46.3975 199.743C46.7544 198.155 48.1819 196.862 50.0376 196.378Z" fill="#7BCAFF"/>
<path d="M50.6544 196.378V204.975H50.0457C47.5278 204.269 46.0011 202.072 46.362 199.965C46.6514 198.286 48.1027 196.872 50.0457 196.378H50.6544Z" fill="#5388A5"/>
<path opacity="0.2" d="M77.4298 202.423L98.0155 203.083V201.993L77.4298 202.423Z" fill="#343738"/>
<path opacity="0.2" d="M88.2689 200.792L98.0155 201.452V200.361L88.2689 200.792Z" fill="#343738"/>
<path opacity="0.2" d="M70.8536 198.821L98.0156 199.483V198.393L70.8536 198.821Z" fill="#343738"/>
<path opacity="0.2" d="M72.3444 202.152L51.7587 202.814V201.723L72.3444 202.152Z" fill="#343738"/>
<path opacity="0.2" d="M61.5053 200.52L51.7587 201.18V200.082L61.5053 200.52Z" fill="#343738"/>
<path d="M264.398 232.96H37.6166C35.0292 232.96 32.9316 235.057 32.9316 237.645V241.792C32.9316 244.38 35.0292 246.477 37.6166 246.477H264.398C266.985 246.477 269.083 244.38 269.083 241.792V237.645C269.083 235.057 266.985 232.96 264.398 232.96Z" fill="#A55330"/>
<path d="M260.04 236.207H41.552C39.5449 236.207 37.9179 237.834 37.9179 239.842V239.844C37.9179 241.851 39.5449 243.478 41.552 243.478H260.04C262.047 243.478 263.674 241.851 263.674 239.844V239.842C263.674 237.834 262.047 236.207 260.04 236.207Z" fill="#C15A36"/>
</g>
<defs>
<linearGradient id="paint0_linear_2_559" x1="150.361" y1="141.574" x2="150.113" y2="134.933" gradientUnits="userSpaceOnUse">
<stop stop-color="#FFC09F"/>
<stop offset="1" stop-color="#F99569"/>
</linearGradient>
<clipPath id="clip0_2_559">
<rect width="300" height="300" fill="white"/>
</clipPath>
</defs>
</svg>
