<svg width="350" height="250" viewBox="0 0 350 250" fill="none" xmlns="http://www.w3.org/2000/svg">
<path d="M343 125.14C343 190.232 257.381 243 184.774 243C112.167 243 6.76978 190.232 6.76978 125.14C6.76978 60.0471 53.3068 -6.28005 184.774 7.27916C257.381 7.27916 343 60.0471 343 125.14Z" fill="#D0D5DD"/>
<rect x="42.453" y="24.4756" width="264.864" height="199.549" rx="7" fill="#ADD0F6"/>
<path fill-rule="evenodd" clip-rule="evenodd" d="M50.4116 27.5732C47.8826 27.5732 45.8204 29.6354 45.8204 32.1644V216.328C45.8204 218.857 47.8826 220.919 50.4116 220.919H299.35C301.879 220.919 303.949 218.849 303.957 216.32V32.1644C303.957 29.6354 301.895 27.5732 299.366 27.5732H50.4116ZM299.343 227.121H50.4116C44.4664 227.121 39.6261 222.281 39.6261 216.336V32.1644C39.6261 26.2192 44.4664 21.3789 50.4116 21.3789H299.358C305.303 21.3789 310.144 26.2192 310.144 32.1644V216.328C310.128 222.273 305.288 227.121 299.343 227.121Z" fill="black"/>
<ellipse cx="117.463" cy="93.6246" rx="46.9384" ry="50.2009" fill="#EF970A"/>
<ellipse cx="117.311" cy="93.565" rx="34.1646" ry="34.7973" fill="#DEEF18"/>
<path fill-rule="evenodd" clip-rule="evenodd" d="M117.463 62.8635C100.507 62.8635 86.7019 76.6606 86.7019 93.6248C86.7019 110.589 100.499 124.378 117.455 124.378C134.412 124.378 148.209 110.581 148.209 93.6248C148.225 76.6606 134.42 62.8635 117.463 62.8635ZM117.463 130.58C97.0905 130.58 80.5076 114.005 80.5076 93.6248C80.5076 73.2444 97.0905 56.6692 117.463 56.6692C137.836 56.6692 154.419 73.2521 154.419 93.6248C154.419 113.997 137.844 130.58 117.463 130.58Z" fill="black"/>
<rect x="163.655" y="177.395" width="19.2165" height="28.6685" fill="#D9D9D9"/>
<rect x="194.31" y="162.052" width="19.2165" height="44.011" fill="#5A90E1"/>
<rect x="224.227" y="167.905" width="19.2165" height="38.1587" fill="#D9D9D9"/>
<rect x="254.113" y="154.46" width="19.2165" height="51.6031" fill="#5A90E1"/>
<path fill-rule="evenodd" clip-rule="evenodd" d="M117.459 48.6304C92.6433 48.6304 72.4652 68.8164 72.4652 93.6246C72.4652 118.433 92.6433 138.619 117.459 138.619C142.275 138.619 162.454 118.433 162.454 93.6246C162.454 68.8164 142.275 48.6304 117.459 48.6304ZM117.459 144.813C89.2349 144.813 66.2709 121.849 66.2709 93.6246C66.2709 65.4002 89.2349 42.4362 117.459 42.4362C145.684 42.4362 168.656 65.4002 168.656 93.6246C168.648 121.849 145.684 144.821 117.459 144.813Z" fill="black"/>
<path fill-rule="evenodd" clip-rule="evenodd" d="M151.31 96.722H117.459C115.747 96.722 114.362 95.3368 114.362 93.6248V59.7741C114.362 58.0622 115.747 56.677 117.459 56.677C119.171 56.677 120.556 58.0622 120.556 59.7741V90.5277H151.31C153.022 90.5277 154.407 91.9129 154.407 93.6248C154.407 95.3368 153.022 96.722 151.31 96.722Z" fill="black"/>
<path fill-rule="evenodd" clip-rule="evenodd" d="M93.5149 120.659C92.7211 120.659 91.9274 120.355 91.3204 119.748C90.122 118.542 90.122 116.581 91.3282 115.367L115.265 91.4303C116.471 90.2241 118.432 90.2241 119.646 91.4303C120.852 92.6364 120.844 94.5974 119.638 95.8114L95.7016 119.748C95.1101 120.355 94.3086 120.659 93.5149 120.659Z" fill="black"/>
<path fill-rule="evenodd" clip-rule="evenodd" d="M182.313 206.063C180.601 206.063 179.215 204.678 179.215 202.966V180.843H168.835V202.966C168.835 204.678 167.442 206.063 165.737 206.063C164.033 206.063 162.64 204.678 162.64 202.966V179.349C162.64 176.757 164.749 174.648 167.333 174.648H180.71C183.301 174.648 185.402 176.757 185.402 179.349V202.966C185.41 204.678 184.017 206.063 182.313 206.063Z" fill="black"/>
<path fill-rule="evenodd" clip-rule="evenodd" d="M212.21 206.063C210.498 206.063 209.113 204.678 209.113 202.966V164.089H198.74V202.966C198.74 204.678 197.347 206.063 195.643 206.063C193.938 206.063 192.546 204.678 192.546 202.966V162.594C192.546 160.003 194.647 157.894 197.238 157.894H210.615C213.206 157.894 215.315 160.003 215.315 162.594V202.966C215.315 204.678 213.922 206.063 212.21 206.063Z" fill="black"/>
<path fill-rule="evenodd" clip-rule="evenodd" d="M242.108 206.064C240.396 206.064 239.01 204.678 239.01 202.966V172.384H228.63V202.966C228.63 204.678 227.244 206.064 225.532 206.064C223.82 206.064 222.435 204.678 222.435 202.966V170.882C222.435 168.291 224.544 166.182 227.136 166.182H240.512C243.104 166.182 245.205 168.291 245.205 170.882V202.966C245.213 204.678 243.82 206.064 242.108 206.064Z" fill="black"/>
<path fill-rule="evenodd" clip-rule="evenodd" d="M272.013 206.064C270.301 206.064 268.916 204.679 268.916 202.967V155.63H258.543V202.967C258.543 204.679 257.158 206.064 255.453 206.064C253.749 206.064 252.356 204.679 252.356 202.967V154.128C252.356 151.537 254.457 149.428 257.056 149.428H270.433C273.025 149.428 275.126 151.537 275.126 154.128V202.959C275.11 204.679 273.733 206.064 272.013 206.064Z" fill="black"/>
<path fill-rule="evenodd" clip-rule="evenodd" d="M280.386 206.063H157.356C155.644 206.063 154.259 204.678 154.259 202.966C154.259 201.254 155.644 199.869 157.356 199.869H280.386C282.098 199.869 283.483 201.254 283.483 202.966C283.483 204.678 282.09 206.063 280.386 206.063Z" fill="black"/>
<path fill-rule="evenodd" clip-rule="evenodd" d="M69.3602 184.259C68.5431 184.259 67.7494 183.932 67.1735 183.348C66.5977 182.773 66.2631 181.971 66.2631 181.162C66.2631 180.959 66.2864 180.757 66.3331 180.563C66.372 180.368 66.4343 180.174 66.5121 179.979C66.5821 179.792 66.6833 179.613 66.7922 179.442C66.9012 179.271 67.0335 179.115 67.1735 178.967C67.7494 178.391 68.5509 178.057 69.3602 178.057C70.1695 178.057 70.971 178.391 71.5547 178.967C71.6947 179.115 71.827 179.271 71.936 179.442C72.0527 179.605 72.1461 179.784 72.2161 179.979C72.2939 180.166 72.3562 180.36 72.3951 180.563C72.4418 180.757 72.4573 180.967 72.4573 181.162C72.4573 181.356 72.4418 181.574 72.3951 181.769C72.3562 181.963 72.2939 182.158 72.2161 182.352C72.1461 182.539 72.0449 182.718 71.936 182.889C71.827 183.061 71.6947 183.216 71.5547 183.356C70.971 183.94 70.1773 184.259 69.3602 184.259Z" fill="black"/>
<path fill-rule="evenodd" clip-rule="evenodd" d="M126.51 184.259H81.9668C80.2548 184.259 78.8696 182.874 78.8696 181.162C78.8696 179.45 80.2548 178.065 81.9668 178.065H126.517C128.229 178.065 129.615 179.45 129.615 181.162C129.607 182.874 128.222 184.259 126.51 184.259Z" fill="black"/>
<path fill-rule="evenodd" clip-rule="evenodd" d="M69.3601 206.063C69.1655 206.063 68.9554 206.048 68.7609 205.993C68.5663 205.954 68.3718 205.892 68.1772 205.822C67.9905 205.744 67.8115 205.643 67.6403 205.542C67.4691 205.433 67.3057 205.301 67.1656 205.153C67.0255 205.013 66.8932 204.849 66.7843 204.686C66.6753 204.515 66.5742 204.336 66.5041 204.149C66.4263 203.962 66.3641 203.768 66.3252 203.565C66.2785 203.363 66.2551 203.161 66.2551 202.966C66.2551 202.772 66.2785 202.554 66.3252 202.359C66.3641 202.157 66.4263 201.97 66.5041 201.776C66.5742 201.589 66.6753 201.41 66.7843 201.239C66.8932 201.068 67.0255 200.912 67.1656 200.764C67.3134 200.624 67.4691 200.492 67.6403 200.383C67.8037 200.274 67.9827 200.173 68.1772 200.103C68.364 200.033 68.5585 199.963 68.7609 199.924C69.1577 199.846 69.5702 199.846 69.967 199.924C70.1694 199.963 70.3561 200.025 70.5507 200.103C70.7374 200.173 70.9164 200.274 71.0876 200.383C71.2588 200.492 71.4144 200.624 71.5623 200.764C71.7024 200.912 71.8347 201.068 71.9436 201.239C72.0603 201.402 72.1537 201.589 72.2237 201.776C72.3016 201.962 72.3638 202.157 72.4027 202.359C72.4494 202.554 72.465 202.764 72.465 202.966C72.465 203.169 72.4494 203.371 72.4027 203.565C72.3638 203.76 72.3016 203.955 72.2237 204.149C72.1537 204.336 72.0525 204.515 71.9436 204.686C71.8347 204.849 71.7024 205.021 71.5623 205.153C71.4222 205.301 71.2588 205.425 71.0876 205.542C70.9242 205.643 70.7374 205.744 70.5507 205.822C70.3639 205.892 70.1694 205.954 69.967 205.993C69.7725 206.04 69.5624 206.063 69.3601 206.063Z" fill="black"/>
<path fill-rule="evenodd" clip-rule="evenodd" d="M126.51 206.063H81.9668C80.2548 206.063 78.8696 204.678 78.8696 202.966C78.8696 201.254 80.2548 199.869 81.9668 199.869H126.517C128.229 199.869 129.615 201.254 129.615 202.966C129.607 204.678 128.222 206.063 126.51 206.063Z" fill="black"/>
<path fill-rule="evenodd" clip-rule="evenodd" d="M223.245 53.1207C223.042 53.1207 222.832 53.1051 222.638 53.0584C222.443 53.0195 222.249 52.9573 222.054 52.8795C221.875 52.8094 221.688 52.7083 221.517 52.5993C221.346 52.4904 221.183 52.3581 221.042 52.218C220.467 51.6344 220.14 50.8406 220.14 50.0236C220.14 49.829 220.155 49.6189 220.202 49.4244C220.241 49.222 220.303 49.0353 220.381 48.8407C220.451 48.654 220.552 48.475 220.661 48.3038C220.778 48.1326 220.902 47.977 221.042 47.8291C221.19 47.6812 221.346 47.5567 221.517 47.44C221.681 47.3311 221.867 47.2377 222.054 47.1599C222.241 47.0898 222.435 47.0276 222.638 46.9887C223.642 46.7863 224.708 47.1132 225.431 47.8369C225.571 47.9847 225.704 48.1404 225.813 48.3116C225.929 48.475 226.023 48.654 226.093 48.8485C226.178 49.0353 226.233 49.2298 226.272 49.4321C226.318 49.6267 226.342 49.8368 226.342 50.0313C226.342 50.2259 226.318 50.4438 226.272 50.6383C226.233 50.8329 226.171 51.0274 226.093 51.2219C226.023 51.4087 225.922 51.5877 225.813 51.7589C225.704 51.9301 225.571 52.0857 225.431 52.2336C225.291 52.3736 225.128 52.5059 224.957 52.6149C224.793 52.7238 224.614 52.825 224.42 52.895C224.233 52.9728 224.038 53.0351 223.836 53.074C223.649 53.1129 223.439 53.1207 223.245 53.1207Z" fill="black"/>
<path fill-rule="evenodd" clip-rule="evenodd" d="M280.394 53.1284H235.843C234.131 53.1284 232.746 51.7432 232.746 50.0312C232.746 48.3192 234.131 46.9341 235.843 46.9341H280.394C282.114 46.9341 283.491 48.3192 283.491 50.0312C283.491 51.7432 282.106 53.1284 280.394 53.1284Z" fill="black"/>
<path fill-rule="evenodd" clip-rule="evenodd" d="M223.245 74.925C223.042 74.925 222.832 74.9095 222.638 74.8628C222.443 74.8239 222.249 74.7616 222.054 74.6916C221.875 74.6138 221.688 74.5126 221.517 74.4114C221.346 74.2947 221.183 74.1702 221.042 74.0224C220.902 73.8823 220.77 73.7189 220.661 73.5555C220.552 73.3843 220.451 73.2053 220.381 73.0185C220.303 72.8317 220.241 72.6372 220.202 72.4349C220.155 72.2403 220.14 72.0302 220.14 71.8357C220.14 71.0186 220.467 70.2249 221.042 69.649C221.19 69.5012 221.346 69.3766 221.517 69.2599C221.681 69.151 221.867 69.0498 222.054 68.9798C222.241 68.9097 222.435 68.8475 222.638 68.8008C223.035 68.723 223.447 68.723 223.844 68.8008C224.038 68.8475 224.233 68.902 224.428 68.9798C224.622 69.0576 224.793 69.151 224.964 69.2599C225.136 69.3689 225.299 69.5012 225.439 69.649C225.579 69.7891 225.712 69.9447 225.82 70.1159C225.937 70.2793 226.031 70.4661 226.101 70.6529C226.186 70.8396 226.241 71.0342 226.28 71.2365C226.326 71.431 226.35 71.6411 226.35 71.8435C226.35 72.0458 226.326 72.2481 226.28 72.4427C226.241 72.6372 226.178 72.8317 226.101 73.0263C226.031 73.2131 225.929 73.392 225.82 73.5632C225.712 73.7267 225.579 73.8901 225.439 74.0301C224.856 74.5904 224.054 74.925 223.245 74.925Z" fill="black"/>
<path fill-rule="evenodd" clip-rule="evenodd" d="M280.394 74.9251H235.843C234.131 74.9251 232.746 73.54 232.746 71.828C232.746 70.116 234.131 68.7308 235.843 68.7308H280.394C282.114 68.7308 283.491 70.116 283.491 71.828C283.491 73.54 282.106 74.9251 280.394 74.9251Z" fill="black"/>
<path fill-rule="evenodd" clip-rule="evenodd" d="M223.245 96.7219C223.042 96.7219 222.832 96.7063 222.638 96.6596C222.443 96.6207 222.249 96.5584 222.054 96.4806C221.875 96.4106 221.688 96.3094 221.517 96.2005C221.346 96.0915 221.183 95.9592 221.042 95.8114C220.467 95.2355 220.14 94.434 220.14 93.6247C220.14 92.8154 220.467 92.0139 221.042 91.438C221.19 91.298 221.346 91.1657 221.517 91.0489C221.681 90.94 221.867 90.8466 222.054 90.7688C222.241 90.6988 222.435 90.6365 222.638 90.5898C223.642 90.3953 224.708 90.7221 225.431 91.4458C225.571 91.5937 225.704 91.7493 225.813 91.9205C225.929 92.0839 226.023 92.2629 226.093 92.4575C226.178 92.6442 226.233 92.8388 226.272 93.0411C226.318 93.2356 226.342 93.4457 226.342 93.6403C226.342 93.8348 226.318 94.0527 226.272 94.2473C226.233 94.4418 226.171 94.6363 226.093 94.8309C226.023 95.0177 225.922 95.1966 225.813 95.3678C225.704 95.5312 225.571 95.6947 225.431 95.8347C224.856 96.395 224.054 96.7219 223.245 96.7219Z" fill="black"/>
<path fill-rule="evenodd" clip-rule="evenodd" d="M280.394 96.7219H235.843C234.131 96.7219 232.746 95.3367 232.746 93.6247C232.746 91.9127 234.131 90.5276 235.843 90.5276H280.394C282.114 90.5276 283.491 91.9127 283.491 93.6247C283.491 95.3367 282.106 96.7219 280.394 96.7219Z" fill="black"/>
<path fill-rule="evenodd" clip-rule="evenodd" d="M174.025 164.089C173.231 164.089 172.438 163.785 171.838 163.178C170.632 161.972 170.632 160.011 171.838 158.797L201.417 129.211C202.436 128.191 204.008 128.012 205.238 128.759L233.54 146.261L261.718 122.324C263.025 121.211 264.971 121.382 266.083 122.682C267.196 123.989 267.033 125.935 265.725 127.047L235.82 152.455C234.793 153.326 233.33 153.435 232.186 152.727L204.063 135.335L176.204 163.186C175.613 163.785 174.811 164.089 174.025 164.089Z" fill="black"/>
</svg>
