<svg width="300" height="300" viewBox="0 0 300 300" fill="none" xmlns="http://www.w3.org/2000/svg">
<g clip-path="url(#clip0_2_498)">
<path d="M79.8139 71.8865C102.877 51.4388 136.507 60.6218 160.141 80.4067C206.566 119.27 248.678 110.901 248.678 183.799C248.678 275.494 105.589 304.472 38.5785 217.461C-3.48298 162.846 40.9201 106.369 79.8139 71.8865Z" fill="#DA6D3F"/>
<path d="M175.06 170.807C175.446 171.743 183.893 168.29 183.633 167.275C179.469 151.032 176.248 129.317 175.635 124.818C175.635 124.818 164.196 124.356 164.72 133.107C165.346 143.576 169.847 158.139 175.06 170.807Z" fill="#FFC19F"/>
<path opacity="0.12" d="M99.9184 282.828C99.9184 285.544 121.658 287.745 148.474 287.745C175.289 287.745 197.029 285.544 197.029 282.828C197.029 280.112 175.289 277.911 148.474 277.911C121.658 277.911 99.9184 280.112 99.9184 282.828Z" fill="black"/>
<path d="M136.772 263.297C136.677 265.201 124.165 266.181 124.102 264.27C123.485 245.704 119.475 194.756 118.927 187.379L138.102 190.318C137.156 208.524 137.423 250.1 136.772 263.297Z" fill="#FFC19F"/>
<path d="M160.258 262.152C160.607 263.996 173.104 261.628 172.905 259.724C170.984 241.327 165.709 191.893 165.243 184.511L147.169 191.163C150.587 208.807 157.814 249.353 160.258 262.152Z" fill="#FFC19F"/>
<path d="M163.606 153.881C165.781 170.449 169.789 204.928 171.197 214.025C166.944 216.644 152.77 218.346 148.69 218.361C146.711 208.93 144.605 195.719 143.375 191.576C143.185 190.936 142.766 189.324 141.674 189.202C140.694 189.094 140.231 190.409 140.221 191.26C140.123 200.139 139.788 211.796 139.935 218.842C134.676 219.671 121.945 219.598 117.442 218.426C116.986 210.486 115.87 176.89 115.391 155.395L163.606 153.881Z" fill="#224A66"/>
<path d="M115.43 158.988C115.487 164.891 115.72 172.875 116.031 181.767C116.191 181.767 116.343 181.798 116.506 181.781C121.117 181.281 124.559 175.774 124.191 169.478C123.834 163.297 119.934 158.682 115.43 158.988Z" fill="#0B283A"/>
<path d="M164.289 159.404C165.096 165.202 166.036 173.092 167.03 181.887C166.872 181.926 166.727 182.003 166.567 182.031C161.977 182.797 157.797 178.338 157.235 172.075C156.683 165.915 159.83 160.331 164.289 159.404Z" fill="#0B283A"/>
<path opacity="0.37" d="M166.186 171.925C155.051 169.593 126.687 166.1 115.76 166.32C115.833 169.418 115.912 172.653 115.996 175.963C130.966 180.967 149.373 181.521 166.43 176.476C166.348 174.922 166.277 173.416 166.186 171.925Z" fill="black"/>
<path d="M98.6224 152.148C97.9937 152.793 91.2868 144.975 91.8265 144.191C100.437 131.636 109.816 113.538 111.703 109.76C111.703 109.76 122.304 115.646 119.236 123.363C115.566 132.593 107.141 143.434 98.6224 152.148Z" fill="#FFC19F"/>
<path d="M78.0476 154.036C80.7635 153.051 84.7021 150.971 92.4936 148.501C93.3844 148.22 95.7126 152.623 94.7869 152.73C89.4144 153.351 79.7225 158.984 78.0476 154.036Z" fill="#E0956C"/>
<path d="M75.3318 149.679C78.0477 148.695 84.2027 144.558 91.8964 145.045C92.8448 145.104 94.7276 149.645 93.8019 149.761C88.4312 150.374 76.7797 153.715 75.3318 149.679Z" fill="#E0956C"/>
<path d="M74.0427 143.16C76.7587 142.175 92.1723 139.941 99.866 140.428C100.814 140.49 101.321 149.647 100.144 150.948C98.8582 155.521 92.9827 156.139 87.6521 163.194C86.7317 164.416 86.1466 161.821 86.2095 161.012C86.3736 158.927 86.9256 158.567 88.5307 153.884C89.5088 151.029 87.6574 148.517 86.206 147.803C79.6825 146.105 75.033 146.573 74.0427 143.16Z" fill="#FFC19F"/>
<path d="M104.631 115.463C107.408 111.288 119.677 92.7221 121.464 90.5371C122.135 89.718 130.022 88.5425 137.973 88.9407C136.618 95.0538 121.281 126.377 119.494 129.986C116.857 129.142 107.602 119.55 104.631 115.463Z" fill="#1BA6D2"/>
<path d="M166.521 176.27C147.833 179.821 126.175 177.514 112.452 168.22C112.452 168.22 122.797 103.86 126.358 89.6658C134.798 89.3514 139.208 88.9217 147.382 90.6421C156.347 92.5302 164.015 96.0565 169.088 98.259C167.071 120.455 165.34 148.903 166.521 176.27Z" fill="#1BA6D2"/>
<path d="M180.116 133.395C179.095 127.631 174.583 104.697 173.383 101.862C172.583 99.9722 167.742 97.1463 159.997 94.2539C160.123 100.383 161.297 134.647 161.606 138.458C164.301 138.857 176.262 135.702 180.116 133.395Z" fill="#1BA6D2"/>
<path d="M136.869 93.4209C136.92 92.4952 137.743 89.7898 137.973 88.9409C145.55 89.5051 154.679 91.4735 161.851 94.8129C161.873 95.2199 161.964 95.6111 161.942 96.0268C161.552 103.188 155.563 108.428 148.563 107.729C141.562 107.03 136.48 100.591 136.869 93.4209Z" fill="#037B9F"/>
<path d="M160.75 77.5479L158.221 97.5359C157.676 101.832 153.235 104.374 148.299 103.209C143.363 102.044 139.803 97.6197 140.348 93.3179L142.872 73.3317L160.75 77.5479Z" fill="#FFC19F"/>
<path opacity="0.19" d="M160.038 83.1841L158.354 96.4791C155.659 97.3157 152.543 97.1463 149.446 95.639C145.697 93.819 142.809 90.4935 141.192 86.7122L142.523 76.0807C147.986 77.8744 154.456 80.5642 160.038 83.1841Z" fill="#601805"/>
<path d="M138.287 272.867C138.272 273.405 122.776 274.247 122.743 273.595C122.441 268.356 121.883 261.102 121.695 257.791L138.228 257.216C138.088 263.203 138.387 269.419 138.287 272.867Z" fill="white"/>
<path d="M118.263 266.759C118.492 265.579 118.972 264.082 119.342 262.712C119.616 261.698 126.874 261.776 126.908 264.211C126.908 264.833 126.908 265.385 126.867 265.882C128.108 265.882 129.455 265.849 130.884 265.762C133.973 265.575 136.742 265.2 138.684 264.754C138.832 268.597 138.628 275.269 138.768 279.546C138.768 279.546 106.447 288.185 101.307 281.832C99.8521 280.042 107.93 271.924 118.263 266.759Z" fill="#EC3A3A"/>
<path d="M138.716 276.863C138.716 277.815 138.735 278.732 138.761 279.546C138.761 279.546 106.44 288.185 101.3 281.832C101.096 281.581 101.085 281.2 101.239 280.721C110.187 283.268 130.679 278.804 138.716 276.863Z" fill="#982121"/>
<path d="M120.428 270.422C120.462 270.494 120.516 270.555 120.584 270.598C120.651 270.641 120.729 270.663 120.809 270.663C120.907 270.655 120.997 270.61 121.062 270.537C121.163 270.417 121.224 270.269 121.239 270.113C121.254 269.958 121.222 269.801 121.146 269.664C119.877 267.393 117.679 266.239 115.802 266.819C115.557 266.895 115.405 267.227 115.452 267.559C115.5 267.891 115.749 268.094 115.996 268.025C117.547 267.538 119.365 268.53 120.428 270.422ZM118.158 271.957C118.194 272.017 118.246 272.065 118.307 272.099C118.368 272.132 118.437 272.149 118.507 272.147C118.566 272.141 118.623 272.122 118.674 272.092C118.725 272.062 118.769 272.021 118.802 271.973C118.89 271.845 118.938 271.693 118.94 271.538C118.942 271.383 118.899 271.23 118.815 271.099C117.368 269.045 115.405 268.052 113.426 268.394C113.177 268.434 113.002 268.743 113.032 269.082C113.061 269.421 113.292 269.687 113.536 269.62C114.522 269.452 116.443 269.536 118.149 271.957H118.158ZM110.438 270.864C110.482 271.201 110.71 271.43 110.962 271.363C112.468 270.962 114.455 271.948 115.786 273.691C115.822 273.746 115.872 273.791 115.93 273.822C115.989 273.852 116.054 273.868 116.12 273.866C116.182 273.86 116.242 273.84 116.295 273.807C116.348 273.775 116.394 273.73 116.427 273.677C116.511 273.547 116.555 273.394 116.553 273.239C116.551 273.084 116.503 272.932 116.415 272.804C114.888 270.804 112.585 269.707 110.801 270.151C110.548 270.207 110.386 270.528 110.429 270.864H110.438Z" fill="#D2DAE5"/>
<path d="M159.802 272.874C159.874 273.398 174.672 271.327 174.671 270.673C174.658 265.523 174.571 257.473 174.629 254.69L158.211 257.375C158.978 263.273 159.339 269.482 159.802 272.874Z" fill="white"/>
<path d="M178.111 266.759C177.883 265.579 177.413 264.082 177.034 262.712C176.76 261.698 169.503 261.776 169.468 264.211C169.468 264.833 169.468 265.385 169.508 265.882C168.266 265.882 166.919 265.849 165.491 265.762C162.399 265.575 159.631 265.2 157.689 264.754C157.54 268.597 157.746 275.269 157.605 279.546C157.605 279.546 189.925 288.185 195.066 281.832C196.524 280.042 188.444 271.924 178.111 266.759Z" fill="#EC3A3A"/>
<path d="M157.659 276.863C157.659 277.815 157.641 278.732 157.613 279.546C157.613 279.546 189.934 288.185 195.074 281.832C195.279 281.581 195.291 281.2 195.137 280.721C186.188 283.268 165.695 278.804 157.659 276.863Z" fill="#982121"/>
<path d="M180.372 268.031C180.616 268.099 180.857 267.898 180.913 267.564C180.969 267.231 180.817 266.901 180.564 266.824C178.688 266.244 176.491 267.407 175.219 269.669C175.144 269.806 175.111 269.963 175.126 270.119C175.141 270.274 175.203 270.422 175.303 270.542C175.369 270.615 175.46 270.66 175.558 270.668C175.638 270.669 175.716 270.646 175.783 270.604C175.85 270.561 175.904 270.5 175.937 270.427C177.009 268.53 178.828 267.538 180.372 268.031ZM182.85 269.622C183.096 269.688 183.325 269.423 183.355 269.084C183.384 268.745 183.21 268.436 182.962 268.396C180.981 268.046 179.018 269.047 177.574 271.101C177.489 271.231 177.444 271.384 177.446 271.54C177.449 271.695 177.497 271.847 177.586 271.975C177.619 272.023 177.663 272.064 177.713 272.094C177.764 272.124 177.821 272.143 177.879 272.149C177.949 272.151 178.018 272.134 178.079 272.101C178.141 272.068 178.192 272.018 178.228 271.959C179.931 269.536 181.853 269.452 182.85 269.622ZM185.58 270.146C183.797 269.702 181.493 270.799 179.968 272.799C179.88 272.927 179.831 273.078 179.829 273.233C179.826 273.389 179.87 273.542 179.954 273.672C179.988 273.725 180.033 273.769 180.086 273.802C180.139 273.835 180.199 273.855 180.261 273.861C180.327 273.862 180.393 273.847 180.451 273.817C180.509 273.786 180.559 273.741 180.595 273.686C181.924 271.94 183.914 270.956 185.419 271.358C185.672 271.424 185.901 271.196 185.943 270.858C185.985 270.521 185.826 270.207 185.58 270.146Z" fill="#D2DAE5"/>
<path d="M193.684 184.329C191.438 182.023 188.36 178.074 181.819 171.788C181.074 171.069 177.703 173.956 178.531 174.529C183.339 177.861 190.769 188.056 193.684 184.329Z" fill="#E0956C"/>
<path d="M197.401 181.686C195.155 179.381 190.589 172.389 183.327 168.891C182.431 168.46 179.435 171.701 180.263 172.276C185.07 175.608 194.947 184.684 197.401 181.686Z" fill="#E0956C"/>
<path d="M200.391 176.298C198.146 173.993 184.478 164.013 177.214 160.516C176.318 160.085 173.327 168.311 174.059 170.122C173.991 175.013 179.271 178.609 182.268 187.88C182.792 189.482 184.041 187.379 184.205 186.596C184.628 184.581 184.205 183.966 184.017 178.801C183.896 175.657 186.306 174.277 187.845 174.36C194.351 176.141 198.531 178.965 200.391 176.298Z" fill="#FFC19F"/>
<path d="M192.416 69.3826L200.602 65.1681L197.839 63.5892L215.405 59.1337L202.772 63.956L205.474 65.4808L192.416 69.3826Z" fill="#B7B7B7"/>
<path d="M190.051 77.8098L209.749 79.352L208.013 76.0771L224.497 80.0768L213.532 79.462L215.251 82.6443L190.051 77.8098Z" fill="#B7B7B7"/>
<path d="M189.601 84.3263L203.177 93.9535L204.151 91.3808L213.291 101.576L205.823 95.8695L204.899 98.3828L189.601 84.3263Z" fill="#B7B7B7"/>
<path opacity="0.55" d="M121.961 111.914C121.096 116.726 120.195 121.869 119.304 127.041C126.525 130.171 134.049 132.552 141.756 134.146C149.654 135.763 157.926 136.574 166.558 136.684C166.759 131.388 167.029 126.225 167.34 121.181C150.692 121.097 135.711 118.032 121.961 111.914Z" fill="white"/>
<path d="M184.167 67.4054C183.294 73.3071 178.641 77.4675 174.887 77.319C171.134 77.1706 170.056 72.5264 170.282 66.9111C170.507 61.2958 173.729 56.849 177.481 57.0132C182.611 57.2385 184.988 61.86 184.167 67.4054Z" fill="#F4B18C"/>
<path d="M184.167 50.9666C183.817 71.0052 170.411 79.7853 151.855 79.4639C133.299 79.1425 119.854 69.8909 120.203 49.8523C120.553 29.8136 134.241 25.4 152.795 25.7196C171.349 26.0393 184.516 30.928 184.167 50.9666Z" fill="#752912"/>
<path d="M178.048 76.5367C176.232 85.0652 165.892 91.2517 157.893 91.0071C141.085 90.4936 123.834 80.3739 124.245 56.8893C124.655 33.4047 136.759 32.9977 153.229 33.2841C164.233 33.4763 173.411 33.8553 177.83 41.2084C180.557 45.7478 179.163 71.2986 178.048 76.5367Z" fill="#FFC19F"/>
<path d="M134.139 72.7483C134.029 74.0949 135.926 75.3507 138.377 75.5428C140.827 75.7349 142.904 74.8145 143.014 73.4661C143.124 72.1178 141.227 70.8637 138.777 70.6716C136.326 70.4795 134.251 71.3999 134.139 72.7483Z" fill="#FF9797"/>
<path d="M170.224 73.5378C170.294 74.7342 172.014 75.6092 174.066 75.4887C176.119 75.3682 177.734 74.301 177.657 73.1046C177.581 71.9082 175.867 71.0331 173.815 71.1519C171.763 71.2707 170.154 72.3396 170.224 73.5378Z" fill="#FF9797"/>
<path d="M176.232 20.1428C176.709 22.9006 175.315 25.1886 172.9 27.1134C174.564 23.7687 174.716 19.4284 171.167 14C168.629 15.9614 165.927 18.0329 163.239 20.0904C163.522 18.5542 163.49 16.9766 163.145 15.4532C158.817 20.8868 154.424 20.6038 139.887 23.7075C129.941 25.8296 127.836 32.32 128.987 36.0419C135.727 34.6447 145.405 38.3544 152.7 38.4872C161.835 38.6461 168.82 37.172 172.484 34.6621C176.931 31.6126 180.494 25.5188 176.232 20.1428Z" fill="#752912"/>
<path d="M164.937 60.7212C163.224 63.6398 163.475 66.8343 165.017 68.0255C167.339 69.8262 172.791 70.2856 174.798 67.6203C176.737 65.0371 175.734 60.3841 172.503 58.414C169.67 56.6814 166.596 57.8883 164.937 60.7212Z" fill="#F9FEFF"/>
<path d="M175.072 59.7851C172.524 55.3209 166.532 56.9137 164.879 60.8121C166.594 57.8953 169.808 56.9696 172.423 58.5678C174.038 59.5528 175.198 61.3274 175.526 63.3132C175.788 64.8957 175.488 66.6789 174.683 67.7513C175.616 67.0457 176.946 63.067 175.072 59.7851Z" fill="#723C27"/>
<path d="M165.601 62.6425C164.902 64.6598 165.775 66.9356 167.546 67.7268C169.317 68.518 171.31 67.5277 172.004 65.5104C172.697 63.4931 171.829 61.219 170.058 60.4261C168.287 59.6331 166.294 60.6217 165.601 62.6425Z" fill="#752912"/>
<path d="M165.877 62.2931C165.684 62.852 165.927 63.4843 166.418 63.7026C166.909 63.921 167.466 63.6467 167.655 63.0878C167.843 62.5289 167.604 61.8967 167.115 61.6783C166.626 61.46 166.07 61.729 165.877 62.2931Z" fill="#FEFFFE"/>
<path d="M151.032 60.7788C153.016 63.6799 152.76 66.8727 151.013 68.0831C148.381 69.91 142.168 70.4252 139.859 67.7792C137.622 65.2187 138.722 60.5535 142.387 58.5502C145.597 56.7966 149.113 57.9721 151.032 60.7788Z" fill="#F9FEFF"/>
<path d="M139.465 59.958C142.327 55.4675 149.178 56.9888 151.099 60.8785C149.116 57.9791 145.442 57.0918 142.476 58.7127C141.576 59.2003 140.796 59.8819 140.192 60.708C139.588 61.5342 139.175 62.4843 138.983 63.4896C138.7 65.0755 139.06 66.8553 139.989 67.919C138.916 67.2238 137.36 63.2591 139.465 59.958Z" fill="#723C27"/>
<path d="M141.711 62.6703C141.427 63.3921 141.364 64.1818 141.53 64.9394C141.695 65.697 142.081 66.3886 142.64 66.9267C143.198 67.4647 143.904 67.8252 144.667 67.9624C145.43 68.0997 146.217 68.0075 146.928 67.6976C147.638 67.3877 148.241 66.874 148.66 66.2215C149.079 65.5689 149.295 64.8068 149.281 64.0315C149.267 63.2562 149.023 62.5025 148.581 61.8657C148.138 61.2289 147.517 60.7376 146.795 60.4539C146.316 60.2655 145.804 60.1734 145.289 60.1828C144.774 60.1922 144.266 60.303 143.794 60.5088C143.322 60.7146 142.895 61.0115 142.537 61.3823C142.18 61.7532 141.899 62.1909 141.711 62.6703Z" fill="#752912"/>
<path d="M142.027 62.3228C141.948 62.5232 141.931 62.7424 141.977 62.9526C142.023 63.1629 142.131 63.3547 142.286 63.5039C142.441 63.6531 142.637 63.753 142.849 63.7908C143.061 63.8286 143.279 63.8028 143.476 63.7166C143.673 63.6303 143.841 63.4875 143.957 63.3062C144.073 63.1249 144.132 62.9133 144.128 62.6981C144.124 62.4829 144.056 62.2738 143.933 62.0973C143.81 61.9207 143.637 61.7846 143.436 61.7062C143.303 61.654 143.161 61.6285 143.018 61.6312C142.876 61.6339 142.735 61.6648 142.604 61.722C142.473 61.7793 142.354 61.8619 142.255 61.965C142.156 62.068 142.079 62.1896 142.027 62.3228Z" fill="#FEFFFE"/>
<path d="M160.897 69.7144C160.832 69.7134 160.769 69.6892 160.719 69.646C160.67 69.6028 160.638 69.5434 160.628 69.4786C160.487 68.5145 159.737 67.8787 158.719 67.8613C157.701 67.8438 156.908 68.4638 156.756 69.4052C156.75 69.441 156.737 69.4753 156.718 69.5061C156.699 69.5369 156.674 69.5637 156.645 69.5849C156.615 69.606 156.582 69.6212 156.547 69.6295C156.511 69.6378 156.475 69.639 156.439 69.6332C156.403 69.6273 156.369 69.6145 156.338 69.5954C156.307 69.5763 156.28 69.5513 156.259 69.5219C156.238 69.4924 156.223 69.4591 156.215 69.4238C156.206 69.3885 156.205 69.3519 156.211 69.3162C156.405 68.111 157.434 67.2849 158.73 67.3076C160.026 67.3303 161 68.1704 161.175 69.4035C161.18 69.4395 161.178 69.4763 161.17 69.5116C161.161 69.547 161.145 69.5802 161.123 69.6094C161.102 69.6387 161.074 69.6633 161.043 69.6819C161.012 69.7005 160.977 69.7127 160.941 69.7179L160.897 69.7144Z" fill="#C4735B"/>
<path d="M133.743 52.2102C133.308 62.0435 129.551 68.2352 125.375 68.1513C121.199 68.0675 118.336 56.1942 118.535 46.3539C118.762 35.0849 124.8 30.6748 129.003 30.0792C133.137 29.4941 134.241 41.0356 133.743 52.2102Z" fill="#752912"/>
<path d="M117.225 70.214C119.054 76.5926 125.398 80.4718 130.075 79.7277C134.752 78.9837 133.724 59.9196 125.22 58.4682C118.137 57.2596 115.509 64.2145 117.225 70.214Z" fill="#FFC19F"/>
<path d="M122.437 69.8192C122.867 72.5229 125.962 74.7428 128.238 73.9429C129.127 73.6303 127.403 64.2057 125.967 64.2389C123.558 64.2913 122.004 67.1155 122.437 69.8192Z" fill="#E0956C"/>
<path d="M174.865 51.1482C174.974 51.1048 175.071 51.0366 175.149 50.949C175.227 50.8613 175.283 50.7567 175.314 50.6434C175.375 50.4259 175.356 50.1937 175.259 49.9893C175.163 49.7849 174.996 49.6221 174.79 49.5308C171.717 48.2942 167.562 49.3422 164.904 52.025C164.751 52.192 164.667 52.41 164.667 52.6363C164.667 52.8625 164.751 53.0805 164.904 53.2476C164.97 53.3314 165.053 53.4004 165.148 53.4503C165.242 53.5002 165.346 53.5297 165.452 53.5371C165.559 53.5445 165.666 53.5296 165.766 53.4933C165.867 53.4569 165.959 53.4 166.036 53.3262C168.259 51.0801 171.819 50.1404 174.315 51.1464C174.491 51.2171 174.688 51.2177 174.865 51.1482Z" fill="#752912"/>
<path d="M140.183 50.2592C140.396 50.3521 140.636 50.3688 140.86 50.3063C143.81 49.6409 148.021 50.5281 150.442 53.1742C150.527 53.2623 150.628 53.3322 150.741 53.3796C150.854 53.427 150.975 53.451 151.097 53.45C151.219 53.449 151.339 53.4231 151.451 53.3739C151.563 53.3247 151.664 53.2532 151.747 53.1637C151.913 52.9864 152.004 52.7521 152.002 52.5093C152 52.2665 151.905 52.0337 151.736 51.8591C148.844 48.5999 143.83 47.5956 140.3 48.5493C140.183 48.5843 140.075 48.6425 139.981 48.7203C139.887 48.7981 139.81 48.894 139.754 49.0022C139.698 49.1104 139.665 49.2287 139.656 49.3501C139.646 49.4716 139.662 49.5936 139.701 49.709C139.739 49.8287 139.802 49.9393 139.885 50.0339C139.968 50.1285 140.069 50.2052 140.183 50.2592Z" fill="#752912"/>
<path d="M148.427 73.9272C146.231 77.0589 146.98 81.4376 149.331 83.551C151.41 85.4146 155.27 83.0025 158.338 83.0968C161.657 83.1964 163.917 84.6006 165.293 83.9055C168.757 82.1589 168.752 74.0058 165.323 72.5212C163.926 71.9134 163.11 72.1597 158.538 72.2348C153.3 72.3204 150.224 71.3598 148.427 73.9272Z" fill="#6F1911"/>
<path d="M154.995 80.7353C155.074 83.1509 156.229 81.9772 158.064 81.9318C159.9 81.8863 161.732 82.9797 161.646 80.5659C161.561 78.1521 160.017 76.2309 158.18 76.2763C156.342 76.3217 154.924 78.3198 154.995 80.7353Z" fill="#2C0F0E"/>
<path d="M158.347 81.172C160.911 79.3014 163.365 82.0453 164.244 84.0906C162.193 83.8897 159.674 83.1527 158.338 83.0968C156.155 83.0042 153.582 84.1936 151.527 84.2303C152.917 80.9292 156.403 79.2351 158.347 81.172Z" fill="#DC6B5C"/>
<path d="M150.997 72.4234C152.784 71.6986 155.626 72.1614 158.239 72.1649C161.185 72.1649 162.986 71.847 164.846 72.371C164.214 74.4442 161.748 74.7988 158.356 74.8477C154.442 74.8966 151.605 74.6328 150.997 72.4234Z" fill="white"/>
<path d="M157.612 78.0213C157.592 78.122 157.594 78.2258 157.619 78.3255C157.644 78.4251 157.69 78.5181 157.755 78.5978C157.819 78.6776 157.901 78.742 157.993 78.7867C158.086 78.8313 158.187 78.855 158.29 78.8561C158.614 78.816 158.927 78.3531 158.784 77.8763C158.499 76.9174 158.407 76.4249 159.234 76.3969C158.859 75.3682 157.631 75.5237 157.139 76.3969C158.117 76.4039 157.82 77.1096 157.612 78.0213Z" fill="#6F1911"/>
</g>
<defs>
<clipPath id="clip0_2_498">
<rect width="300" height="300" fill="white"/>
</clipPath>
</defs>
</svg>
