<svg width="300" height="300" viewBox="0 0 300 300" fill="none" xmlns="http://www.w3.org/2000/svg">
<g clip-path="url(#clip0_885_187)">
<path d="M285.42 230.656C279.939 260.295 248.995 275.615 218.895 274.039C125.252 269.136 22.1379 302.018 14.942 202.549C6.34474 83.7081 72.7609 56.2513 207.676 73.8092C296.791 85.4065 296.135 172.714 285.42 230.656Z" fill="#CE8BA3"/>
<ellipse cx="104.96" cy="254.984" rx="56.8786" ry="4.8925" fill="#B37088"/>
<ellipse cx="192.256" cy="256.192" rx="54.4677" ry="4.68512" fill="#B37088"/>
<path d="M115.695 98.1406C114.901 96.9054 113.342 95.1937 112.377 95.2651C112.124 95.2833 111.788 95.3472 111.628 95.5514C111.463 95.7606 111.372 96.0761 111.373 96.0794L109.895 96.3484C109.877 96.2454 109.745 95.319 110.352 94.547C110.644 94.1776 111.211 93.721 112.262 93.6455C114.573 93.482 116.815 96.8771 117.063 97.2648L115.695 98.1398V98.1406Z" fill="#3B3853"/>
<path d="M103.392 98.4679C103.372 98.4828 103.327 98.4571 103.076 98.3799L100.903 104.358C100.761 104.309 100.623 104.255 100.484 104.197C100.36 104.143 100.254 104.09 100.139 104.032L100.057 103.989L99.9861 103.95L99.845 103.869L99.7055 103.786L99.5868 103.708C99.2564 103.493 99.0157 103.302 98.7791 103.107C98.3284 102.728 97.9689 102.374 97.6344 102.026C96.9728 101.334 96.4166 100.666 95.8878 100C95.5317 99.5512 95.1897 99.1021 94.8585 98.6522C94.206 97.7722 93.595 96.8931 92.9948 96.0099C92.0925 94.6759 91.2317 93.3361 90.3916 91.9871C89.9724 91.3122 89.5581 90.6357 89.1497 89.9533L88.5396 88.9273L88.2349 88.4093C88.132 88.2317 88.0357 88.0681 87.9253 87.8681L97.1106 83.749C97.1562 83.8976 97.2202 84.0836 97.2766 84.2537L97.4551 84.7784L97.6726 85.4018L97.8228 85.8318C98.0719 86.5341 98.3259 87.2364 98.5849 87.9361C99.1045 89.3341 99.6433 90.7212 100.207 92.0793C100.77 93.4349 101.361 94.7722 101.983 96.0074C102.292 96.6234 102.615 97.2127 102.92 97.7108C103.07 97.9574 103.219 98.1773 103.322 98.3292C103.365 98.3957 103.41 98.4604 103.392 98.4671V98.4679Z" fill="#EFAC7F"/>
<path d="M94.8585 98.6512C94.206 97.7713 93.595 96.8922 92.9948 96.0089C92.0925 94.6749 91.2317 93.3351 90.3916 91.9862C89.9724 91.3113 89.5581 90.6347 89.1497 89.9524L88.5396 88.9263L88.2349 88.4083C88.132 88.2307 88.0357 88.0672 87.9253 87.8671L97.1106 83.748C97.1562 83.8966 97.2202 84.0826 97.2766 84.2528L97.4551 84.7774L97.6726 85.4008C96.2373 88.5229 94.3421 93.7319 94.8585 98.6504V98.6512Z" fill="#E2A074"/>
<path d="M149.783 230.001L144.324 234.369L143.231 235.243L118.118 206.512L117.922 206.287L117.637 205.81C117.516 205.61 117.399 205.406 117.282 205.202C117.179 205.014 117.091 204.838 116.994 204.654L116.925 204.517L116.866 204.393L116.745 204.141L116.627 203.89L116.523 203.653L116.319 203.181L116.134 202.729C116.07 202.576 116.016 202.431 115.961 202.287L115.793 201.848C115.371 200.704 115.019 199.615 114.691 198.537C114.04 196.388 113.49 194.296 112.975 192.212C111.949 188.047 111.067 183.924 110.234 179.8C109.403 175.676 108.63 171.559 107.895 167.439C107.527 165.378 107.168 163.318 106.817 161.254L106.448 159.048L106.299 158.157L105.794 155.027L109.078 154.674L122.27 153.257L122.458 156.29L122.666 159.35C122.81 161.392 122.963 163.433 123.124 165.473C123.18 166.181 123.238 166.89 123.296 167.598C123.573 170.968 123.876 174.329 124.216 177.677C124.627 181.725 125.087 185.762 125.658 189.709C125.945 191.679 126.259 193.633 126.629 195.49C126.814 196.415 127.013 197.319 127.224 198.14L127.305 198.438C127.331 198.537 127.358 198.637 127.385 198.726L127.465 199.004L127.542 199.254L127.58 199.377L127.615 199.482L127.65 199.586L127.666 199.639L127.681 199.678C127.699 199.726 127.718 199.786 127.731 199.827C127.733 199.831 127.734 199.835 127.735 199.84L149.783 230.004V230.001Z" fill="#007D9D"/>
<path d="M111.532 157.616L104.414 179.594L97.3329 201.568L96.4613 204.302L96.0512 205.591C95.9334 205.969 95.8005 206.291 95.7018 206.8L94.4259 212.398L91.8716 223.602L87.2063 244.061L86.7564 246.032L85.903 245.872L77.9803 244.38L81.4212 221.432L83.1454 209.946L84.007 204.201C84.0568 203.757 84.2071 203.157 84.3291 202.605L84.6703 201.106L85.3194 198.274L90.5592 175.743L91.6624 171.03L92.8229 166.071L95.8279 153.235L111.532 157.616Z" fill="#007D9D"/>
<path d="M88.5377 94.1794C87.8952 94.5596 87.2237 94.9058 86.5272 95.2171C79.9012 98.1698 73.3399 97.2998 68.1342 93.4307C65.7659 95.5607 61.0301 95.2793 61.6369 92.6495C62.0519 90.8515 61.1513 86.9624 60.2489 83.8096C59.5035 81.2005 58.758 79.097 58.758 79.097C58.2724 77.7671 57.8432 76.4339 57.4971 75.1107C55.2458 66.5115 56.4727 58.344 68.321 54.3561C79.2354 50.6819 91.4423 55.016 96.4704 66.2998C101.166 76.8341 97.596 88.8202 88.5394 94.1786L88.5377 94.1794Z" fill="#F2C4A5"/>
<path d="M111.532 157.616L104.414 179.594L97.3329 201.568L96.4613 204.302L96.0512 205.591C95.9333 205.969 95.8005 206.291 95.7017 206.8L94.4258 212.398L91.8715 223.602L87.2063 244.061C86.025 227.413 92.734 206.109 92.734 206.109C93.0636 201.627 94.6134 192.769 94.7562 180.628C94.7977 177.126 93.5119 173.878 91.6624 171.03L92.8229 166.071L95.8279 153.235L111.532 157.616Z" fill="#007491"/>
<path d="M119.444 202.447C117.352 199.067 115.195 190.179 113.355 180.682C112.106 174.233 116.748 168.131 123.295 167.596C123.237 166.888 123.179 166.179 123.123 165.47C122.962 163.431 122.809 161.389 122.666 159.347L122.457 156.287L122.269 153.255L109.077 154.672L105.793 155.025L106.298 158.154L106.447 159.046V159.047L106.816 161.251C107.166 163.315 107.525 165.375 107.894 167.437C108.63 171.556 109.403 175.675 110.233 179.797C111.066 183.921 111.949 188.044 112.974 192.209C113.489 194.294 114.039 196.386 114.69 198.534C115.019 199.612 115.371 200.701 115.792 201.846L115.96 202.284C116.014 202.429 116.07 202.574 116.133 202.727L116.318 203.178L116.522 203.651L116.627 203.887L116.744 204.139L116.865 204.39L116.925 204.515L116.993 204.652C117.09 204.836 117.179 205.012 117.281 205.2C117.398 205.404 117.516 205.607 117.636 205.807L117.922 206.284L118.117 206.509L143.23 235.241L144.323 234.367C135.303 223.352 122.73 207.753 119.443 202.445L119.444 202.447Z" fill="#007491"/>
<path d="M124.113 161.786C116.806 163.951 92.5173 163.748 92.5173 163.748C92.5173 163.748 92.6352 162.997 92.8228 161.676C93.6837 155.598 95.9972 137.457 94.8848 125.116C94.5046 120.885 88.717 94.7264 100.38 96.8897C101.355 97.0698 102.451 97.4484 103.681 98.0535C119.647 105.901 124.113 161.786 124.113 161.786H124.113Z" fill="#D15A35"/>
<path d="M124.113 161.786C116.806 163.951 92.5173 163.748 92.5173 163.748C92.5173 163.748 92.6352 162.997 92.8228 161.676C99.3177 156.126 109.759 146.107 111.604 137.669C114.222 125.698 101.3 98.7837 100.38 96.8894C101.355 97.0695 102.451 97.4481 103.681 98.0532C119.647 105.901 124.113 161.786 124.113 161.786H124.113Z" fill="#C75532"/>
<path d="M109.705 148.981C103.295 148.981 96.834 145.548 90.4811 138.76L94.4324 135.061C100.002 141.011 105.407 143.865 110.496 143.543C116.866 143.14 120.731 137.893 120.769 137.839L125.155 141.011C124.938 141.311 119.728 148.383 110.838 148.946C110.46 148.97 110.083 148.981 109.705 148.981Z" fill="#474563"/>
<path d="M133.074 118.076C133.074 118.076 138.265 113.38 141.384 120.617C144.457 127.748 147.094 133.114 137.111 135.6C129.317 137.541 133.074 118.076 133.074 118.076Z" fill="#474563"/>
<path d="M106.343 103.879C106.329 104.051 106.306 104.234 106.279 104.402L104.382 115.984L99.8175 143.854L99.6839 144.674L99.5137 145.058L85.1443 175.984C84.369 177.736 78.5739 175.667 79.1417 173.987L89.9856 142.23L92.8636 107.288L93.233 102.799C93.5319 99.179 96.7079 96.4861 100.328 96.7841C103.948 97.0821 106.641 100.259 106.343 103.879Z" fill="#F86B40"/>
<path d="M140.047 139.927C139.336 140.877 138.388 141.659 137.17 142.233C128.872 146.144 121.836 146.928 121.068 143.451C120.022 138.719 118.092 131.138 115.791 123.018C113.237 114.004 110.197 106.744 108.485 102.18C108.485 102.178 108.622 102.043 108.622 102.042C109.003 101.479 109.428 100.953 109.891 100.466C111.398 98.8802 113.31 97.7206 115.429 97.1536C115.776 97.0589 116.128 96.9834 116.484 96.922H116.486C116.607 96.9021 116.726 96.8838 116.845 96.868C117.038 96.8406 117.229 96.8207 117.418 96.8074C118.971 96.687 120.423 96.9643 121.967 97.8442C122.199 97.9779 122.436 98.124 122.675 98.2867C122.749 98.3365 122.823 98.388 122.898 98.4419C122.965 98.4892 123.033 98.5382 123.101 98.588C123.308 98.7408 123.518 98.906 123.732 99.0819C123.76 99.106 123.789 99.1293 123.819 99.155C124.555 99.7718 125.324 100.526 126.145 101.436C134.531 110.738 146.206 131.692 140.049 139.927H140.047Z" fill="#8556B7"/>
<path d="M122.422 128.025L134.464 123.424C134.464 123.424 140.282 135.061 134.464 137.361C128.646 139.662 125.128 139.526 124.316 136.008C123.504 132.49 122.422 128.025 122.422 128.025Z" fill="#474563"/>
<path d="M122.404 127.096L134.162 123.087C134.581 122.944 135.036 123.167 135.179 123.586L135.36 124.119C135.503 124.538 135.279 124.993 134.861 125.136L123.103 129.145C122.684 129.288 122.229 129.064 122.086 128.646L121.904 128.113C121.761 127.694 121.985 127.239 122.404 127.096Z" fill="#3B3853"/>
<path d="M96.4678 66.3006C91.4398 55.0167 79.2329 50.6827 68.3184 54.3568C56.4701 58.3447 55.2432 66.5122 57.4945 75.1115C59.5922 75.0459 63.1219 73.3043 64.9764 71.5702C65.6297 70.9592 66.6175 70.8895 67.3547 71.3967C69.5985 72.9399 74.7934 75.666 84.2003 76.3849L84.2128 76.4023C85.1151 76.3915 87.4751 76.4878 89.743 78.0949C91.1218 79.072 92.1786 80.0233 92.3836 82.375C92.3463 86.0342 91.5884 90.7318 88.5368 94.1793C97.5934 88.8209 101.163 76.8348 96.4678 66.3006Z" fill="#EFB38B"/>
<path d="M45.0826 73.0636C45.0826 73.0636 48.4944 70.9152 52.0324 62.575C55.5712 54.2348 64.5431 44.2517 81.3497 47.9167C81.3497 47.9167 81.7291 45.6422 79.8331 44.6311C79.8331 44.6311 83.2449 44.7573 83.3711 48.1691C83.3711 48.1691 85.0139 44.2517 90.574 45.7684C90.574 45.7684 87.2884 47.6635 88.0463 49.1802C88.8042 50.6968 107.127 56.2096 97.5238 82.541C97.5238 82.541 94.9961 81.5299 91.2057 74.7064C90.6603 73.7243 83.7504 75.0857 83.7504 75.0857C83.7504 75.0857 78.0641 75.0857 66.0589 68.8939C66.0589 68.8939 60.4988 75.4651 52.5379 75.0857C52.5379 75.0857 55.0656 71.5478 55.5703 69.2732C55.5703 69.2732 51.653 75.2127 45.0818 73.0644L45.0826 73.0636Z" fill="#DD7D26"/>
<path d="M91.9138 76.4739C91.0289 81.5683 85.8166 79.3851 84.2128 76.4025C84.0534 76.1061 83.8193 75.8745 83.6823 75.6014C82.6015 73.4497 83.3686 70.8805 85.3957 69.8628C87.4229 68.845 89.9423 69.764 91.0223 71.9157C91.6756 73.2156 92.1645 75.0311 91.9138 76.4747V76.4739Z" fill="#F2C4A5"/>
<path d="M67.1066 73.3434C67.29 73.8705 65.8282 74.8583 64.8727 75.1904C63.9173 75.5224 62.9933 75.3647 62.8099 74.8376C62.6264 74.3105 63.2523 73.6131 64.2086 73.2811C65.1641 72.9491 66.9231 72.8162 67.1066 73.3434Z" fill="#DD7D26"/>
<path d="M69.0288 81.2423C69.7542 80.8235 69.8613 79.651 69.2681 78.6234C68.6748 77.5959 67.6058 77.1024 66.8805 77.5212C66.1551 77.94 66.0479 79.1125 66.6412 80.1401C67.2344 81.1676 68.3034 81.6611 69.0288 81.2423Z" fill="#4F2312"/>
<path d="M75.5364 93.4081C75.4227 93.4081 75.3073 93.3774 75.2035 93.3126C74.9072 93.1284 74.8167 92.739 75.0001 92.4427C75.069 92.3314 76.7409 89.7282 80.8027 90.7086C81.1422 90.7907 81.3506 91.1319 81.2684 91.4706C81.1862 91.8101 80.845 92.0185 80.5063 91.9363C77.322 91.1676 76.0859 93.0893 76.0735 93.1093C75.954 93.3018 75.7473 93.4073 75.5364 93.4073V93.4081Z" fill="#C7755A"/>
<path d="M117.246 108.987C115.283 104.082 114.677 100.115 115.429 97.1536C115.775 97.059 116.127 96.9834 116.484 96.922C115.601 99.7079 116.158 103.715 118.125 108.635C121.93 118.147 123.979 123.353 123.979 123.842C123.738 123.747 123.475 123.797 123.316 123.964C123.166 124.121 123.165 124.323 123.165 124.372C120.685 117.239 118.644 112.483 117.246 108.987Z" fill="#3B3853"/>
<path d="M111.997 101.369C111.75 101.104 109.634 98.7524 109.634 96.384C109.634 95.4369 110.244 92.7755 113.25 93.77C113.25 93.77 112.232 94.0879 111.779 94.5835C111.371 95.0309 111.317 95.778 111.406 96.4903C111.579 97.8874 113.04 99.9735 113.575 100.546L111.997 101.369Z" fill="#8556B7"/>
<path d="M92.973 106.935C92.9024 106.743 89.5471 102.829 91.6066 99.0638C92.7821 96.9154 94.8374 95.5026 97.7171 94.8642C101.707 93.9801 104.375 94.4392 107.943 97.8435C110.493 100.275 111.906 104.32 111.967 104.432L109.998 105.72L111.665 104.819L110 105.722C109.952 105.636 105.206 97.0848 98.5373 98.5632C96.7475 98.96 95.5679 99.7179 94.9312 100.882C93.7076 103.119 92.9622 106.904 92.9738 106.935H92.973Z" fill="#474563"/>
<path d="M140.047 139.927C139.336 140.877 138.388 141.659 137.17 142.233C128.872 146.144 121.836 146.928 121.068 143.451C120.022 138.719 118.092 131.138 115.791 123.018C113.237 114.004 110.197 106.744 108.485 102.18C108.485 102.178 108.622 102.043 108.622 102.042C109.003 101.479 109.428 100.953 109.891 100.466C115.657 110.679 120.605 126.157 122.422 134.79C123.883 141.733 126.572 145.48 135.051 142.142C136.874 141.425 138.546 140.67 140.048 139.927H140.047Z" fill="#474563"/>
<path d="M130.552 120.354C130.529 120.343 130.314 120.248 130.095 120.366C129.899 120.473 129.851 120.67 129.845 120.701C128.591 117.919 126.875 114.401 125.174 110.065C123.904 106.831 122.996 104.093 122.476 101.925C122.068 100.219 121.897 98.8654 121.965 97.8444C122.198 97.978 122.435 98.1241 122.673 98.2868C122.748 98.3366 122.822 98.3881 122.896 98.442C122.933 100.21 123.623 103.523 126.055 109.719C128.196 115.174 130.529 120.304 130.553 120.354H130.552Z" fill="#3B3853"/>
<path d="M85.624 174.918C85.624 174.918 85.5036 176.552 85.2355 178.28C84.9167 180.34 83.9836 182.692 83.9836 182.692C83.9836 182.692 81.7705 183.456 79.6114 182.665C77.5178 181.897 76.1838 179.97 76.1838 179.97C76.1838 179.97 76.6114 177.746 77.5436 175.804C78.4667 173.882 79.7915 172.094 79.7915 172.094L85.6231 174.918H85.624Z" fill="#F2C4A5"/>
<path d="M78.5962 179.09C78.4709 179.54 78.3347 179.985 78.1986 180.432C78.06 180.877 77.9197 181.322 77.7744 181.765C77.6325 182.209 77.4814 182.651 77.3344 183.093L76.8795 184.417L76.9293 184.149L76.8314 185.15C76.794 185.483 76.7608 185.816 76.7177 186.149C76.6787 186.482 76.633 186.815 76.5873 187.148C76.5384 187.481 76.4902 187.813 76.4296 188.145C76.3491 188.585 75.9274 188.877 75.4866 188.796C75.113 188.728 74.8466 188.414 74.8233 188.052C74.8017 187.716 74.7918 187.379 74.7818 187.043C74.7744 186.708 74.7685 186.372 74.7677 186.036C74.7636 185.701 74.7694 185.365 74.7702 185.03L74.7885 184.025C74.7901 183.953 74.8009 183.884 74.82 183.817L74.8383 183.758L75.2417 182.418C75.3812 181.973 75.5157 181.526 75.6601 181.082C75.8012 180.637 75.9473 180.195 76.0942 179.752C76.2445 179.311 76.3939 178.869 76.555 178.431C76.7592 177.874 77.3768 177.589 77.933 177.794C78.4601 177.988 78.7432 178.557 78.5971 179.089L78.5962 179.09Z" fill="#F2C4A5"/>
<path d="M81.0492 180.099C80.8956 180.509 80.7362 180.918 80.5793 181.328L80.1004 182.553C79.9418 182.961 79.7766 183.368 79.6147 183.776L79.1266 184.998L79.1789 184.765L79.0038 185.813C78.9448 186.162 78.8892 186.512 78.8261 186.86L78.6418 187.907C78.5771 188.256 78.5148 188.605 78.4468 188.953C78.3613 189.391 77.9371 189.676 77.4996 189.591C77.1069 189.514 76.8363 189.164 76.8471 188.776C76.8571 188.422 76.8728 188.067 76.8853 187.714L76.9334 186.652C76.9484 186.298 76.97 185.945 76.9882 185.591L77.0455 184.53C77.048 184.486 77.0555 184.444 77.0671 184.404L77.0978 184.299L77.4672 183.036C77.5909 182.615 77.7113 182.194 77.8391 181.774L78.2176 180.514C78.3471 180.096 78.4733 179.676 78.6053 179.257C78.8211 178.577 79.5475 178.2 80.2282 178.415C80.9089 178.631 81.2858 179.357 81.0708 180.038C81.0641 180.058 81.0558 180.081 81.0492 180.101V180.099Z" fill="#F2C4A5"/>
<path d="M82.9934 180.332C82.9809 180.555 82.9095 180.76 82.8431 180.967L82.6439 181.587C82.5119 182.001 82.3749 182.413 82.2396 182.825L81.4145 185.298L81.4377 185.199L81.031 187.049L80.8276 187.974L80.6176 188.898C80.5188 189.331 80.0879 189.603 79.6538 189.504C79.2454 189.412 78.9814 189.021 79.0337 188.614L79.1582 187.675L79.2894 186.737L79.5509 184.861C79.5525 184.851 79.5542 184.841 79.5567 184.832L79.5741 184.761L80.2116 182.233C80.3204 181.813 80.4266 181.392 80.5387 180.973L80.7055 180.342C80.7603 180.132 80.8118 179.921 80.9205 179.727C81.2211 179.194 81.8968 179.004 82.4297 179.305C82.8099 179.519 83.0149 179.925 82.9925 180.333L82.9934 180.332Z" fill="#F2C4A5"/>
<path d="M84.2892 181.84L83.3453 185.288L83.357 185.228L82.8473 187.839C82.7751 188.21 82.4156 188.452 82.0437 188.38C81.6934 188.312 81.4585 187.985 81.4942 187.637L81.7698 184.991L81.7814 184.931L82.4223 181.415C82.5169 180.895 83.0166 180.549 83.5371 180.644C84.0576 180.739 84.4029 181.238 84.3083 181.759C84.3033 181.785 84.2967 181.814 84.29 181.84H84.2892Z" fill="#F2C4A5"/>
<path d="M87.0668 244.672L86.6326 252.954C86.621 253.217 86.5513 253.464 86.4359 253.683C86.1578 254.214 85.6149 254.582 84.9815 254.615C79.7327 254.885 63.1701 255.698 62.638 255.222C62.462 255.056 62.3193 254.894 62.208 254.733C60.6648 252.5 65.2761 250.834 69.7522 248.839C70.0078 248.725 70.2635 248.61 70.5167 248.493C70.7101 248.405 70.9027 248.316 71.0936 248.225C71.1941 248.178 71.2937 248.13 71.3925 248.081C71.6398 247.959 71.8814 247.834 72.1172 247.705C72.3662 247.569 72.6078 247.429 72.8427 247.287C73.0718 247.149 73.2943 247.008 73.5093 246.866C75.3247 245.659 76.6529 244.319 77.4374 243.216C78.9466 242.367 87.0668 244.673 87.0668 244.673V244.672Z" fill="#1A4E87"/>
<path d="M86.4359 253.683C86.1578 254.214 85.6149 254.582 84.9815 254.615C79.7327 254.885 63.1701 255.698 62.638 255.222C62.462 255.056 62.3192 254.894 62.208 254.734L86.4367 253.683H86.4359Z" fill="white"/>
<path d="M75.3481 248.753C75.275 248.846 75.1654 248.896 75.0542 248.896C74.9745 248.896 74.8948 248.871 74.8276 248.819L72.8428 247.286C73.0719 247.148 73.2944 247.006 73.5094 246.864L75.2808 248.232C75.4427 248.358 75.4726 248.59 75.3472 248.753H75.3481Z" fill="white"/>
<path d="M73.8904 249.541C73.8182 249.636 73.7078 249.686 73.5974 249.686C73.5177 249.686 73.4388 249.661 73.3716 249.608L71.3934 248.08C71.6408 247.958 71.8824 247.833 72.1181 247.704L73.824 249.021C73.9867 249.147 74.0158 249.379 73.8904 249.541Z" fill="white"/>
<path d="M72.4127 250.426C72.3405 250.52 72.2301 250.57 72.1189 250.57C72.0392 250.57 71.9603 250.545 71.8931 250.493L69.7522 248.838C70.0079 248.725 70.2636 248.609 70.5167 248.493L72.3455 249.905C72.5074 250.03 72.5373 250.263 72.4119 250.425L72.4127 250.426Z" fill="white"/>
<path d="M149.119 228.552L155.378 234.677C155.562 234.866 155.694 235.087 155.773 235.321C155.968 235.887 155.863 236.536 155.451 237.018C152.043 241.019 141.26 253.615 140.547 253.676C140.306 253.69 140.089 253.682 139.897 253.653C137.214 253.241 139.169 248.744 140.793 244.121C140.886 243.857 140.978 243.592 141.067 243.328C141.135 243.126 141.203 242.925 141.269 242.724C141.304 242.619 141.337 242.513 141.369 242.408C141.451 242.144 141.525 241.883 141.593 241.623C141.666 241.348 141.73 241.076 141.788 240.808C141.845 240.547 141.895 240.289 141.939 240.035C142.309 237.886 142.247 236 141.983 234.673C142.403 232.994 149.118 228.552 149.118 228.552H149.119Z" fill="#1A4E87"/>
<path d="M155.773 235.321C155.969 235.888 155.863 236.536 155.451 237.018C152.043 241.019 141.26 253.616 140.547 253.676C140.306 253.69 140.089 253.682 139.897 253.653L155.773 235.321H155.773Z" fill="white"/>
<path d="M144.574 239.995C144.593 240.113 144.553 240.226 144.477 240.307C144.422 240.364 144.349 240.406 144.266 240.419L141.788 240.808C141.846 240.547 141.896 240.289 141.94 240.035L144.151 239.686C144.353 239.654 144.543 239.792 144.575 239.995H144.574Z" fill="white"/>
<path d="M144.146 241.595C144.165 241.713 144.126 241.827 144.049 241.908C143.995 241.965 143.922 242.006 143.838 242.019L141.369 242.408C141.45 242.144 141.525 241.882 141.593 241.623L143.722 241.287C143.925 241.255 144.114 241.394 144.146 241.595Z" fill="white"/>
<path d="M143.775 243.277C143.793 243.394 143.754 243.509 143.678 243.589C143.623 243.647 143.551 243.687 143.467 243.701L140.795 244.121C140.888 243.857 140.98 243.592 141.069 243.328L143.352 242.968C143.554 242.937 143.743 243.075 143.776 243.277H143.775Z" fill="white"/>
<path d="M62.413 84.1289C62.413 84.3796 62.2104 84.5821 61.9597 84.5821C61.709 84.5821 61.5065 84.3796 61.5065 84.1289C61.5065 83.8782 61.709 83.6757 61.9597 83.6757C62.2104 83.6757 62.413 83.8782 62.413 84.1289Z" fill="#E2A074"/>
<path d="M64.2991 86.4927C64.5494 86.4927 64.7523 86.2897 64.7523 86.0394C64.7523 85.7891 64.5494 85.5862 64.2991 85.5862C64.0488 85.5862 63.8458 85.7891 63.8458 86.0394C63.8458 86.2897 64.0488 86.4927 64.2991 86.4927Z" fill="#E2A074"/>
<path d="M66.6689 87.7882C66.9193 87.7882 67.1222 87.5853 67.1222 87.335C67.1222 87.0846 66.9193 86.8817 66.6689 86.8817C66.4186 86.8817 66.2157 87.0846 66.2157 87.335C66.2157 87.5853 66.4186 87.7882 66.6689 87.7882Z" fill="#E2A074"/>
<path d="M74.962 80.7448C74.962 80.9954 74.7595 81.198 74.5088 81.198C74.2581 81.198 74.0555 80.9954 74.0555 80.7448C74.0555 80.4941 74.2581 80.2915 74.5088 80.2915C74.7595 80.2915 74.962 80.4941 74.962 80.7448Z" fill="#E2A074"/>
<path d="M73.0909 83.6758C73.3413 83.6758 73.5442 83.4729 73.5442 83.2225C73.5442 82.9722 73.3413 82.7693 73.0909 82.7693C72.8406 82.7693 72.6377 82.9722 72.6377 83.2225C72.6377 83.4729 72.8406 83.6758 73.0909 83.6758Z" fill="#E2A074"/>
<path d="M77.0514 83.4807C77.3017 83.4807 77.5046 83.2778 77.5046 83.0275C77.5046 82.7771 77.3017 82.5742 77.0514 82.5742C76.8011 82.5742 76.5981 82.7771 76.5981 83.0275C76.5981 83.2778 76.8011 83.4807 77.0514 83.4807Z" fill="#E2A074"/>
<path d="M80.6525 82.8291C80.9028 82.8291 81.1057 82.6262 81.1057 82.3759C81.1057 82.1255 80.9028 81.9226 80.6525 81.9226C80.4021 81.9226 80.1992 82.1255 80.1992 82.3759C80.1992 82.6262 80.4021 82.8291 80.6525 82.8291Z" fill="#E2A074"/>
<path d="M74.9619 86.0392C75.2122 86.0392 75.4152 85.8363 75.4152 85.5859C75.4152 85.3356 75.2122 85.1327 74.9619 85.1327C74.7116 85.1327 74.5087 85.3356 74.5087 85.5859C74.5087 85.8363 74.7116 86.0392 74.9619 86.0392Z" fill="#E2A074"/>
<path d="M71.4156 86.4927C71.666 86.4927 71.8689 86.2897 71.8689 86.0394C71.8689 85.7891 71.666 85.5862 71.4156 85.5862C71.1653 85.5862 70.9624 85.7891 70.9624 86.0394C70.9624 86.2897 71.1653 86.4927 71.4156 86.4927Z" fill="#E2A074"/>
<path d="M68.4414 85.5858C68.6917 85.5858 68.8947 85.3829 68.8947 85.1326C68.8947 84.8822 68.6917 84.6793 68.4414 84.6793C68.1911 84.6793 67.9882 84.8822 67.9882 85.1326C67.9882 85.3829 68.1911 85.5858 68.4414 85.5858Z" fill="#E2A074"/>
<path d="M78.7798 80.2915C79.0301 80.2915 79.233 80.0886 79.233 79.8383C79.233 79.5879 79.0301 79.385 78.7798 79.385C78.5295 79.385 78.3265 79.5879 78.3265 79.8383C78.3265 80.0886 78.5295 80.2915 78.7798 80.2915Z" fill="#E2A074"/>
<path d="M62.4131 88.2416C62.6634 88.2416 62.8663 88.0387 62.8663 87.7883C62.8663 87.538 62.6634 87.3351 62.4131 87.3351C62.1628 87.3351 61.9598 87.538 61.9598 87.7883C61.9598 88.0387 62.1628 88.2416 62.4131 88.2416Z" fill="#E2A074"/>
<path d="M88.297 72.4851C86.8584 71.8899 85.8299 72.642 85.4863 73.1226C85.3568 73.3036 85.3991 73.5543 85.5792 73.6855C85.7594 73.8166 86.0126 73.7759 86.1454 73.5975C86.2068 73.5153 86.7414 72.8454 87.7691 73.1575C87.7873 73.4837 87.7467 74.1379 87.2552 74.7829C87.1191 74.9614 87.1531 75.2162 87.3316 75.3515C87.4055 75.408 87.4918 75.4345 87.5773 75.4345C87.6994 75.4345 87.8206 75.3797 87.9002 75.2751C88.3386 74.7007 88.5054 74.1155 88.5594 73.6539C89.1114 74.2641 89.3795 75.2976 89.2724 76.1019C89.2434 76.3244 89.3994 76.5286 89.6219 76.5577C89.6402 76.5602 89.6576 76.561 89.6759 76.561C89.8768 76.561 90.0511 76.4124 90.0777 76.2082C90.2578 74.8468 89.6277 73.0363 88.2962 72.4851H88.297Z" fill="#E2A074"/>
<path d="M50.6378 69.7181C50.5548 69.7181 50.4726 69.6799 50.4195 69.6077C50.3306 69.4873 50.3564 69.318 50.4767 69.2291C52.0672 68.0562 52.9986 66.2797 54.2886 63.8201C55.3678 61.7622 56.7109 59.2021 58.8767 56.2826C61.3306 52.9754 65.1831 51.1724 67.984 50.2418C71.0073 49.2374 73.4943 49.0049 73.5192 49.0024C73.6686 48.9892 73.7998 49.0987 73.8131 49.2473C73.8264 49.3959 73.7168 49.5279 73.5682 49.5412C73.5441 49.5437 71.1094 49.772 68.1433 50.759C65.4214 51.6646 61.6792 53.4145 59.3125 56.6047C57.1717 59.4902 55.8393 62.0295 54.7693 64.0708C53.4959 66.4989 52.4898 68.4173 50.7988 69.6641C50.7507 69.6998 50.6942 69.7172 50.6386 69.7172L50.6378 69.7181Z" fill="#CE6E20"/>
<path d="M57.2008 72.1414C57.0937 72.1414 56.9932 72.0775 56.9501 71.9729C56.8936 71.8342 56.96 71.6765 57.0978 71.6201C57.1451 71.601 61.8436 69.6054 64.7001 62.7677C64.7573 62.6299 64.9159 62.5651 65.0545 62.6224C65.1923 62.6797 65.2579 62.8382 65.1998 62.9769C63.6607 66.6593 61.6045 68.9454 60.151 70.2139C58.5655 71.5977 57.3535 72.1007 57.3029 72.1215C57.2697 72.1348 57.2348 72.1414 57.2008 72.1414Z" fill="#CE6E20"/>
<path d="M95.6602 76.4255C95.6245 76.4255 95.588 76.418 95.5531 76.4031C95.4162 76.3441 95.3531 76.1847 95.412 76.0478C97.0997 72.1371 96.0197 66.953 94.8168 63.293C93.5044 59.3001 91.7628 56.2021 91.7454 56.1714C91.6715 56.0411 91.718 55.8759 91.8475 55.8028C91.9778 55.7289 92.143 55.7746 92.2161 55.9049C92.2335 55.9365 93.9983 59.0727 95.3274 63.1145C96.5617 66.8666 97.6641 72.1927 95.9084 76.2619C95.8644 76.364 95.7648 76.4255 95.6602 76.4255Z" fill="#CE6E20"/>
<path d="M73.0901 66.3678C72.9722 66.3678 72.8635 66.2906 72.8303 66.1711C72.7896 66.0274 72.8726 65.8772 73.0162 65.8365C76.0279 64.9782 77.992 62.3558 79.1085 60.3071C80.3321 58.0633 80.8368 55.9963 80.8418 55.9755C80.8766 55.8303 81.0227 55.7406 81.168 55.7755C81.3133 55.8103 81.4029 55.9564 81.3681 56.1017C81.3473 56.188 80.8443 58.2492 79.5899 60.5545C77.9164 63.6292 75.6942 65.6356 73.164 66.357C73.1391 66.3645 73.1142 66.3678 73.0901 66.3678Z" fill="#CE6E20"/>
<path d="M131.426 123.594L130.886 120.702C130.835 120.425 130.592 120.213 130.299 120.21C129.966 120.207 129.694 120.474 129.691 120.807L129.663 123.748C129.663 123.803 129.668 123.863 129.678 123.919C129.769 124.401 130.233 124.719 130.715 124.63C131.197 124.54 131.515 124.075 131.426 123.593V123.594ZM129.971 120.81C129.956 120.634 130.087 120.478 130.263 120.462C130.439 120.447 130.595 120.578 130.61 120.754L130.664 121.364C130.68 121.54 130.549 121.696 130.373 121.712C130.197 121.727 130.041 121.596 130.025 121.42L129.971 120.81ZM130.606 124.373C130.321 124.398 130.068 124.187 130.044 123.901C130.019 123.615 130.229 123.363 130.516 123.338C130.801 123.313 131.054 123.524 131.079 123.81C131.104 124.096 130.893 124.348 130.606 124.373Z" fill="#A7A7CE"/>
<path d="M124.43 127.258L124.341 124.318C124.333 124.035 124.126 123.789 123.837 123.741C123.508 123.688 123.199 123.909 123.145 124.238L122.666 127.14C122.657 127.194 122.652 127.255 122.654 127.312C122.669 127.802 123.078 128.188 123.569 128.173C124.059 128.159 124.445 127.749 124.43 127.259L124.43 127.258ZM123.42 124.284C123.432 124.108 123.585 123.973 123.761 123.985C123.937 123.996 124.072 124.15 124.06 124.326L124.02 124.938C124.008 125.114 123.854 125.248 123.678 125.237C123.502 125.225 123.368 125.071 123.38 124.895L123.42 124.284ZM123.501 127.902C123.214 127.883 122.998 127.636 123.017 127.349C123.036 127.063 123.283 126.846 123.57 126.865C123.856 126.884 124.073 127.132 124.054 127.418C124.034 127.704 123.787 127.921 123.501 127.902Z" fill="#A7A7CE"/>
<path d="M228.832 249.076C227.806 249.546 226.11 250.172 223.928 250.297C221.528 250.434 219.621 249.905 218.523 249.508C215.932 225.384 213.341 201.26 210.75 177.136L183.068 248.973L174.156 247.614C176.925 228.959 186.161 193.774 192.615 170.292C196.404 156.503 199.235 146.75 199.235 146.75L228.266 150.287L228.386 171.15L228.833 249.076H228.832Z" fill="#2C4B8B"/>
<path d="M228.734 91.8514C228.64 92.0691 228.537 92.3401 228.44 92.5912L228.147 93.3653C227.954 93.8838 227.763 94.4051 227.579 94.929C227.208 95.975 226.847 97.0274 226.516 98.078C226.429 98.3417 226.351 98.6037 226.27 98.8666C226.19 99.1294 226.106 99.3941 226.033 99.6552L225.804 100.443L225.592 101.226C225.318 102.268 225.073 103.306 224.903 104.295H219.288C219.13 102.997 219.064 101.757 219.026 100.526L219.016 100.092L219.006 99.6064L219 98.6958C218.998 98.3914 219.002 98.0906 219.006 97.788C219.009 97.4863 219.011 97.1828 219.019 96.8829C219.042 95.6778 219.094 94.4828 219.157 93.2868C219.189 92.6888 219.227 92.0917 219.269 91.4918L219.335 90.5912C219.362 90.285 219.383 89.9978 219.419 89.6599L228.333 91.7574L228.734 91.8523V91.8514Z" fill="#FFB88E"/>
<path d="M228.333 91.7574C225.454 93.2994 221.304 96.0672 219.016 100.092L219.006 99.6064L219 98.6958C218.998 98.3914 219.002 98.0906 219.006 97.788C219.009 97.4863 219.011 97.1828 219.019 96.8829C219.042 95.6778 219.094 94.4828 219.157 93.2868C219.189 92.6888 219.227 92.0917 219.269 91.4918L219.335 90.5912C219.362 90.285 219.383 89.9978 219.419 89.6599L228.333 91.7574Z" fill="#F09D78"/>
<path d="M249.361 68.3046C249.361 68.3046 247.131 75.2837 242.433 81.7849C237.386 88.7721 229.488 95.2056 218.444 91.8253C206.661 88.1253 199.971 76.7227 206.081 64.9994C206.081 64.9994 207.029 58.0745 211.078 51.7206C215.142 45.3458 222.327 39.5447 234.809 41.8852C245.375 43.8662 253.061 56.5226 249.362 68.3055L249.361 68.3046Z" fill="#FFB88E"/>
<path d="M249.361 68.3044C249.361 68.3044 247.131 75.2835 242.433 81.7847C243.225 76.5175 240.335 69.308 238.713 67.5086C236.93 65.5285 235.804 60.8602 235.6 59.965C235.136 60.0165 232.607 60.264 227.677 59.544C219.608 58.3661 213.001 53.8034 211.078 51.7194C215.142 45.3447 222.327 39.5436 234.809 41.8841C245.375 43.8651 253.061 56.5215 249.362 68.3044H249.361Z" fill="#F09D78"/>
<path d="M259.135 59.9361C257.154 54.873 253.741 55.863 253.741 55.863C256.493 52.5605 253.851 48.0484 254.181 49.5886C254.512 51.1296 252.31 53.9913 252.31 53.9913C241.193 33.298 223.582 39.6818 218.959 41.3539C214.335 43.0259 206.08 43.0395 206.08 43.0395C206.08 43.9247 206.962 45.3529 208.192 46.9129C209.152 48.1315 210.209 49.2552 211.347 50.2796C208.115 48.9526 207.369 47.5344 207.354 47.5037C207.274 47.3366 207.075 47.2652 206.906 47.3438C206.738 47.4224 206.664 47.6229 206.744 47.7918C206.789 47.8885 207.763 49.8614 212.455 51.4078C209.817 51.21 208.186 50.3085 208.164 50.2959C208.002 50.2037 207.796 50.2606 207.704 50.4223C207.612 50.584 207.668 50.79 207.83 50.8821C207.936 50.9426 210.056 52.1251 213.435 52.1251C213.499 52.1251 213.565 52.1242 213.63 52.1233C217.371 54.8251 221.774 56.5667 226.432 57.1494C233.957 58.0906 237.78 56.854 237.78 56.854C237.21 59.9894 238.255 63.0797 239.063 64.8683C239.41 65.6379 239.856 66.356 240.355 67.0371C242.609 70.1093 242.493 73.813 242.183 79.0893C241.852 84.717 232.607 90.734 232.607 90.734C261.006 84.9879 253.741 59.386 253.741 59.386C255.282 57.7347 259.135 59.9361 259.135 59.9361Z" fill="#633825"/>
<path d="M221.428 110.332L221.379 110.351C215.043 112.704 208.654 114.877 202.225 116.872C196.951 118.507 191.649 120.02 186.326 121.412C185.933 121.565 185.528 121.638 185.131 121.638C184.575 121.638 184.033 121.497 183.553 121.235L183.511 121.211C179.674 119.092 175.879 116.816 172.232 114.308C170.41 113.057 168.626 111.752 166.884 110.407C165.142 109.061 163.444 107.678 161.777 106.275C160.593 105.277 164.064 101.004 165.243 101.873L165.253 101.88C166.955 103.142 168.671 104.37 170.409 105.546C172.147 106.722 173.907 107.848 175.699 108.92C178.789 110.772 181.978 112.46 185.243 114.047C194.536 109.994 203.627 105.558 212.486 100.765C213.687 100.115 214.883 99.4592 216.075 98.7961C219.153 97.0843 221.714 110.224 221.427 110.332H221.428Z" fill="#FFDC48"/>
<path d="M246.002 75.6802C246.002 78.2637 243.909 80.3585 241.326 80.3585C240.841 80.3585 240.373 80.2844 239.932 80.1471C238.03 79.5545 236.649 77.7786 236.649 75.6802C236.649 73.0976 238.742 71.0037 241.326 71.0037C242.066 71.0037 242.765 71.1753 243.387 71.4806C244.936 72.243 246.002 73.8365 246.002 75.6802Z" fill="#FFB88E"/>
<path d="M233.859 63.7905C233.844 64.3677 232.674 64.8049 231.246 64.767C229.817 64.729 228.695 64.2304 228.687 63.6532C228.674 62.5313 229.873 62.6388 231.301 62.6767C232.729 62.7146 233.874 63.2133 233.859 63.7905Z" fill="#633825"/>
<path d="M211.902 57.2442C212.121 56.7094 213.37 56.7158 214.692 57.2578C216.014 57.7998 216.887 58.6642 216.689 59.2062C216.304 60.2604 215.221 59.7347 213.898 59.1927C212.577 58.6507 211.683 57.7781 211.902 57.2442Z" fill="#633825"/>
<path d="M215.824 68.3723C215.8 68.3723 215.776 68.3705 215.752 68.3668C215.481 68.3271 215.294 68.076 215.333 67.805C215.35 67.6894 215.716 64.9523 213.786 64.5069C211.827 64.0553 211.016 65.8809 210.983 65.9586C210.876 66.2088 210.586 66.3271 210.334 66.2205C210.083 66.114 209.965 65.8258 210.071 65.5738C210.46 64.6461 211.782 63.0282 214.009 63.5422C216.266 64.0625 216.503 66.6523 216.314 67.9486C216.277 68.1952 216.066 68.3723 215.824 68.3723Z" fill="#4F2312"/>
<path d="M230.59 73.2792C230.556 73.281 230.522 73.2792 230.488 73.2738C230.218 73.2313 230.032 72.9784 230.074 72.7083C230.092 72.5891 230.492 69.7626 228.237 69.161C225.924 68.544 224.846 70.5611 224.802 70.6469C224.676 70.8899 224.378 70.9848 224.135 70.8583C223.892 70.7327 223.797 70.4338 223.923 70.1908C224.428 69.217 226.033 67.5476 228.492 68.2034C230.987 68.8692 231.258 71.5403 231.053 72.8601C231.016 73.0958 230.819 73.2666 230.59 73.2783V73.2792Z" fill="#4F2312"/>
<path d="M219.289 77.2585C219.262 77.2585 219.234 77.2558 219.206 77.2513C218.813 77.1854 215.367 76.5494 215.367 74.6579C215.367 73.0653 218.699 67.8197 219.368 66.7845C219.516 66.5551 219.822 66.4882 220.052 66.6373C220.282 66.7854 220.349 67.0925 220.2 67.322C218.715 69.6245 216.358 73.6525 216.358 74.6579C216.358 75.4139 218.156 76.0697 219.371 76.2748C219.641 76.32 219.823 76.5756 219.777 76.8457C219.736 77.0878 219.527 77.2585 219.289 77.2585Z" fill="#CF7A5D"/>
<path d="M154.476 102.04L155.667 102.698L161.778 106.273L165.244 101.872L164.568 100.292L159.099 95.4267C158.344 94.7538 156.919 94.7185 156.334 95.5424L153.61 99.3743C153.009 100.219 153.552 101.568 154.475 102.04H154.476Z" fill="#FFB88E"/>
<path d="M154.476 102.04C154.476 102.04 155.582 102.156 155.918 101.903C156.497 101.469 156.422 100.81 156.422 100.81C157.179 100.642 157.599 99.6326 157.599 99.6326C158.272 99.4646 157.798 99.1457 158.861 100.474C161.888 104.258 164.051 101.899 164.051 101.899L164.568 100.292L159.099 95.4267C158.344 94.7538 156.919 94.7185 156.334 95.5424L153.61 99.3743C153.009 100.219 153.552 101.568 154.475 102.04H154.476Z" fill="#F29074"/>
<path d="M155.758 97.7727L158.997 95.4431C159.367 95.1757 160.227 95.2515 160.549 95.5939L161.851 96.8604C162.148 97.0862 167.623 100.924 164.24 102.858C163.347 103.368 160.955 101.914 160.103 100.797C159.602 100.141 159.534 99.5532 159.709 99.0329C159.751 98.9064 159.737 98.7673 159.675 98.6489L159.288 97.6706C159.242 97.5541 159.101 97.509 158.996 97.5767L156.424 99.0428C156.051 99.2596 155.571 99.0862 155.415 98.7908C155.222 98.424 155.423 98.013 155.76 97.7709L155.758 97.7727Z" fill="#FFB88E"/>
<path d="M159.01 95.2887L151.076 90.7658C150.67 90.5345 150.153 90.6764 149.922 91.082C149.705 91.4613 149.819 91.9401 150.166 92.1894L157.607 97.4856C158.194 97.9038 159.009 97.7665 159.427 97.1794C159.845 96.5922 159.708 95.7774 159.121 95.3592C159.085 95.3339 159.047 95.3095 159.01 95.2887Z" fill="#FFB88E"/>
<path d="M154.413 97.714L156.933 99.0672C157.294 99.2614 157.745 99.1259 157.939 98.7645C158.109 98.4493 158.027 98.0654 157.763 97.8441L155.574 96.0022C155.135 95.6327 154.479 95.6887 154.109 96.1287C153.74 96.5677 153.796 97.2235 154.236 97.5938C154.29 97.6399 154.353 97.6815 154.413 97.714Z" fill="#FFB88E"/>
<path d="M153.136 99.1663L155.669 100.501C156.034 100.693 156.487 100.553 156.679 100.187C156.845 99.8718 156.763 99.4924 156.504 99.2702L154.329 97.4094C153.88 97.0264 153.206 97.0788 152.823 97.5268C152.44 97.9749 152.492 98.6496 152.94 99.0327C153.001 99.0841 153.069 99.1302 153.137 99.1663H153.136Z" fill="#FFB88E"/>
<path d="M152.822 101.112L155.372 101.737C155.693 101.815 156.016 101.619 156.095 101.299C156.16 101.034 156.036 100.767 155.81 100.637L153.529 99.3356C153.066 99.071 152.477 99.2327 152.212 99.6952C151.948 100.158 152.109 100.748 152.572 101.012C152.65 101.057 152.737 101.091 152.82 101.112H152.822Z" fill="#FFB88E"/>
<path d="M230.589 256.661C230.903 258.017 230.043 259.369 228.721 259.587C227.3 259.822 225.677 259.986 223.887 259.989C221.893 259.994 220.102 259.799 218.566 259.526C217.431 259.325 216.69 258.174 216.938 257.002C217.466 254.504 217.995 252.007 218.523 249.509C219.97 249.711 221.718 249.843 223.695 249.761C225.672 249.678 227.405 249.401 228.832 249.077C229.417 251.606 230.004 254.133 230.589 256.662V256.661Z" fill="#83A6C6"/>
<path d="M184.269 246.967L183.906 256.766C183.893 257.067 183.817 257.35 183.689 257.601C183.384 258.208 182.788 258.629 182.093 258.666C176.333 258.975 158.154 259.905 157.57 259.361C157.376 259.171 157.22 258.984 157.098 258.802C155.404 256.248 160.466 254.341 165.379 252.059C165.66 251.929 165.94 251.797 166.218 251.664C166.43 251.562 166.642 251.461 166.851 251.357C166.962 251.303 167.071 251.248 167.179 251.192C167.451 251.052 167.716 250.909 167.975 250.761C168.249 250.605 168.513 250.446 168.771 250.283C169.022 250.125 169.266 249.963 169.502 249.801C171.494 248.421 172.951 246.888 173.813 245.627C175.469 244.656 184.268 246.965 184.268 246.965L184.269 246.967Z" fill="#83A6C6"/>
<path d="M183.69 257.601C183.385 258.208 182.789 258.629 182.094 258.666C176.334 258.975 158.155 259.905 157.571 259.361C157.378 259.171 157.221 258.984 157.099 258.802L183.691 257.6L183.69 257.601Z" fill="white"/>
<path d="M171.521 251.962C171.44 252.069 171.32 252.126 171.198 252.126C171.111 252.126 171.023 252.097 170.949 252.038L168.771 250.284C169.022 250.126 169.266 249.964 169.502 249.802L171.447 251.366C171.624 251.51 171.657 251.776 171.52 251.962H171.521Z" fill="white"/>
<path d="M169.921 252.863C169.841 252.972 169.721 253.029 169.598 253.029C169.512 253.029 169.424 253 169.35 252.939L167.179 251.192C167.451 251.052 167.716 250.909 167.975 250.761L169.848 252.268C170.026 252.412 170.058 252.677 169.921 252.862V252.863Z" fill="white"/>
<path d="M168.3 253.875C168.22 253.982 168.099 254.039 167.977 254.039C167.89 254.039 167.803 254.01 167.729 253.951L165.379 252.059C165.66 251.929 165.94 251.797 166.218 251.664L168.226 253.28C168.403 253.423 168.436 253.689 168.299 253.875H168.3Z" fill="white"/>
<path d="M229.569 83.5111C229.474 83.7306 229.371 83.9411 229.256 84.1434C229.119 84.3919 228.966 84.6276 228.802 84.8498C226.44 88.0476 221.586 88.5688 218.01 87.1768C217.728 87.0675 217.445 86.9356 217.165 86.7829C216.883 86.6294 216.604 86.455 216.339 86.2626C215.672 85.7848 215.073 85.2021 214.648 84.5635C214.144 83.8083 214.161 82.9095 214.911 82.4C214.963 82.3648 215.02 82.3314 215.081 82.2989C215.289 82.1868 215.511 82.1155 215.736 82.0721C215.77 82.0667 215.804 82.0613 215.838 82.0559C216.651 81.9321 217.538 82.1453 218.334 82.1634C220.054 82.2067 221.744 82.1227 223.394 81.6132C224.646 81.2275 225.774 80.4172 227.015 80.0704C227.536 79.9258 227.991 79.9042 228.375 79.9809C228.41 79.9873 228.445 79.9954 228.479 80.0035C229.821 80.345 230.254 81.924 229.57 83.5102L229.569 83.5111Z" fill="#C13A1B"/>
<path d="M228.374 79.9805C228.136 81.1051 226.521 82.9859 221.485 83.7058C217.507 84.2749 215.723 83.3689 214.91 82.3987C214.962 82.3635 215.019 82.33 215.08 82.2975C215.288 82.1855 215.51 82.1141 215.736 82.0708C215.769 82.0654 215.803 82.0599 215.837 82.0545C216.65 81.9308 217.538 82.144 218.333 82.162C220.053 82.2054 221.744 82.1214 223.393 81.6119C224.645 81.2262 225.773 80.4159 227.014 80.069C227.535 79.9245 227.99 79.9028 228.374 79.9796V79.9805Z" fill="white"/>
<path d="M228.801 84.8496C226.439 88.0474 221.585 88.5686 218.009 87.1766C217.727 87.0673 217.444 86.9354 217.164 86.7827C217.726 86.3175 218.533 85.7728 219.62 85.3022C221.668 84.4169 226.506 84.3031 228.801 84.8505V84.8496Z" fill="#DB5522"/>
<path d="M221.428 110.332L221.379 110.351C215.043 112.704 208.655 114.877 202.225 116.872C206.649 111.696 210.188 105.407 212.487 100.765C213.688 100.115 214.884 99.4592 216.076 98.7961C219.154 97.0843 221.715 110.224 221.428 110.332Z" fill="#F0CE43"/>
<path d="M246.002 75.6798C246.002 78.2633 243.909 80.3581 241.326 80.3581C240.84 80.3581 240.814 80.4205 240.373 80.2841C241.794 79.6527 243.466 78.6355 244.25 76.6898C244.982 74.8687 244.203 72.6085 243.387 71.4812C244.936 72.2436 246.002 73.8371 246.002 75.6807V75.6798Z" fill="#F09D78"/>
<path d="M242.852 75.7733C243.006 74.1897 241.967 73.4038 241.396 73.2096C241.189 73.1392 240.965 73.2494 240.892 73.4562C240.82 73.6631 240.929 73.8898 241.135 73.9639C241.237 74.0009 242.08 74.3388 242.069 75.4788C241.756 75.5944 241.081 75.7615 240.275 75.4589C240.069 75.3812 239.839 75.4851 239.762 75.692C239.685 75.8979 239.789 76.1283 239.995 76.2051C240.431 76.3686 240.839 76.4264 241.2 76.4264C241.47 76.4264 241.712 76.3938 241.919 76.3487C241.713 76.9404 241.257 77.5004 240.292 77.6567C240.074 77.6919 239.927 77.897 239.962 78.1138C239.994 78.3098 240.163 78.4489 240.355 78.4489C240.376 78.4489 240.397 78.4471 240.419 78.4435C241.817 78.2168 242.704 77.2475 242.851 75.7832C242.851 75.7814 242.851 75.7796 242.851 75.7778C242.851 75.776 242.851 75.7742 242.851 75.7733H242.852Z" fill="#F09D78"/>
<path d="M228.386 171.151C213.629 174.807 197.515 171.484 192.615 170.293C196.405 156.504 199.236 146.751 199.236 146.751L228.267 150.288L228.386 171.151Z" fill="#254377"/>
<path d="M240.693 46.3935C240.616 46.3935 240.539 46.3673 240.476 46.3149C236.223 42.7549 229.391 41.9265 221.732 44.043C216.592 45.4639 211.134 45.4938 211.079 45.4938C210.893 45.4938 210.742 45.3438 210.742 45.1577C210.742 44.9716 210.892 44.8199 211.078 44.8199C211.131 44.8199 216.502 44.7892 221.553 43.3935C229.43 41.2165 236.485 42.0927 240.91 45.7982C241.053 45.9174 241.072 46.1306 240.953 46.2733C240.886 46.3528 240.79 46.3944 240.694 46.3944L240.693 46.3935Z" fill="#572E1E"/>
<path d="M228.322 52.6807C221.374 52.6807 217.819 50.4974 217.643 50.3872C217.486 50.2878 217.438 50.0791 217.538 49.9219C217.637 49.7648 217.845 49.7169 218.002 49.8163C218.056 49.8497 223.03 52.8839 232.566 51.7449C232.75 51.7223 232.919 51.8551 232.941 52.0393C232.963 52.2245 232.831 52.3916 232.647 52.4142C231.083 52.6012 229.64 52.6798 228.321 52.6798L228.322 52.6807Z" fill="#572E1E"/>
<path d="M249.455 72.7769C249.407 72.7769 249.358 72.7661 249.312 72.7444C249.147 72.6649 249.076 72.4671 249.156 72.3009C251.957 66.4428 247.294 60.4845 247.246 60.4249C247.131 60.2813 247.156 60.0726 247.299 59.9579C247.442 59.8431 247.651 59.8675 247.766 60.0103C247.816 60.0744 249.027 61.6064 249.888 63.9225C251.037 67.0083 250.99 70.0046 249.755 72.5872C249.698 72.7064 249.579 72.776 249.455 72.776V72.7769Z" fill="#572E1E"/>
<path d="M237.495 86.952C237.359 86.952 237.232 86.868 237.183 86.7334C237.12 86.5609 237.208 86.3703 237.381 86.3071C242.807 84.3261 245.268 81.112 245.291 81.0795C245.402 80.9332 245.61 80.9034 245.757 81.0136C245.903 81.1238 245.933 81.3325 245.823 81.4788C245.719 81.617 243.218 84.8834 237.609 86.9312C237.571 86.9448 237.533 86.9511 237.495 86.9511V86.952Z" fill="#572E1E"/>
<path d="M242.456 68.347C242.356 68.347 242.256 68.3018 242.191 68.2151C242.11 68.1085 240.194 65.5611 239.416 62.6877C238.634 59.797 239.014 58.0464 239.03 57.9741C239.071 57.7953 239.25 57.6833 239.428 57.7239C239.607 57.7646 239.719 57.9416 239.679 58.1205C239.675 58.1367 239.322 59.7988 240.058 62.5142C240.801 65.2594 242.702 67.7878 242.721 67.8131C242.832 67.9595 242.803 68.1681 242.656 68.2783C242.597 68.3235 242.526 68.3461 242.456 68.3461V68.347Z" fill="#572E1E"/>
<path d="M238.95 53.8938C238.475 53.8938 237.978 53.8694 237.46 53.8143C237.277 53.7953 237.144 53.6318 237.164 53.4493C237.183 53.2669 237.346 53.135 237.529 53.154C242.388 53.6652 245.32 51.3636 245.349 51.3401C245.492 51.2254 245.702 51.248 245.816 51.3916C245.931 51.5343 245.908 51.7439 245.765 51.8586C245.65 51.9507 243.173 53.8938 238.95 53.8938Z" fill="#572E1E"/>
<path d="M230.691 167.69C225.541 169.079 220.516 169.723 215.87 169.907C212.562 170.036 209.447 169.933 206.616 169.698C205.929 169.641 205.258 169.577 204.606 169.506C196.463 168.618 191.123 166.754 191.123 166.754C194.26 142.152 216.078 98.7962 216.078 98.7962C216.387 98.6652 216.693 98.5459 216.997 98.4385C217.25 98.349 217.501 98.2668 217.75 98.1936C218.007 98.1169 218.264 98.0491 218.516 97.9886C218.675 97.9498 218.832 97.9136 218.99 97.8811C219.099 98.6327 219.523 99.7239 220.876 100.858C221.314 101.223 221.734 101.433 222.142 101.514C223.824 101.857 225.259 100.041 226.46 98.2063C226.482 98.1711 226.506 98.1376 226.527 98.1024C226.604 98.1223 226.677 98.1422 226.75 98.162C226.897 98.2027 227.035 98.2442 227.163 98.2849C227.489 98.3852 227.751 98.4791 227.941 98.5514C228.173 98.6399 228.297 98.6977 228.297 98.6977C228.297 98.6977 228.297 98.6995 228.296 98.7031C228.178 99.0626 228.07 99.471 227.973 99.9244C227.973 99.9262 227.972 99.9271 227.972 99.9298C226.864 105.072 226.988 116.065 227.57 127.729C227.598 128.301 227.628 128.875 227.658 129.45C228.507 145.379 230.128 162.078 230.575 166.539C230.577 166.566 230.581 166.591 230.583 166.618C230.589 166.665 230.593 166.712 230.597 166.755C230.597 166.759 230.598 166.763 230.598 166.767C230.606 166.834 230.611 166.898 230.618 166.959C230.618 166.964 230.618 166.968 230.619 166.972C230.631 167.097 230.642 167.207 230.652 167.301C230.678 167.556 230.692 167.69 230.692 167.69H230.691Z" fill="#FFDC48"/>
<path d="M228.29 98.7211C228.271 98.7933 228.202 99.0526 228.093 99.469C228.155 99.2034 228.221 98.9532 228.29 98.7211Z" fill="#F0CE43"/>
<path d="M230.691 167.69C225.541 169.079 220.516 169.723 215.87 169.907C215.868 169.906 215.865 169.906 215.863 169.906C227.9 157.42 216.267 138.737 218.223 133.922C220.216 129.012 226.471 105.585 227.971 99.9298C227.971 99.928 227.972 99.9271 227.972 99.9244C228.017 99.7563 228.058 99.6028 228.093 99.4673C226.887 104.616 226.986 115.841 227.568 127.728C227.596 128.3 227.626 128.874 227.657 129.449C228.494 145.408 230.122 162.081 230.573 166.538C230.575 166.565 230.579 166.59 230.582 166.617C230.587 166.665 230.591 166.711 230.595 166.754C230.595 166.758 230.596 166.762 230.596 166.766C230.603 166.833 230.609 166.898 230.616 166.958C230.616 166.964 230.616 166.967 230.617 166.971C230.629 167.096 230.64 167.206 230.65 167.3C230.676 167.555 230.69 167.689 230.69 167.689L230.691 167.69Z" fill="#F0CE43"/>
<path d="M244.681 133.201C239.575 136.588 234.161 139.511 228.541 141.948C228.512 141.961 228.483 141.974 228.454 141.986C227.051 142.593 225.639 143.171 224.213 143.719C222.99 144.189 219.628 139.017 220.569 138.642C221.946 138.095 223.304 137.501 224.645 136.872C225.774 136.341 226.891 135.784 227.993 135.199C229.722 134.282 231.415 133.298 233.07 132.253C234.109 131.596 235.133 130.914 236.143 130.211C236.919 129.67 239.052 128.632 239.445 127.777C239.794 127.017 237.553 124.279 236.148 122.344C233.435 118.604 230.6 115.085 227.133 112.022C227.11 112.001 227.086 111.981 227.062 111.96C225.752 110.805 226.273 98.3658 226.889 98.205C226.93 98.1942 226.968 98.1878 227.007 98.1869C227.075 98.186 227.145 98.1887 227.216 98.1987C227.466 98.2267 227.735 98.3125 228.01 98.4344C228.919 98.8364 229.893 99.6322 230.462 100.066C232.732 101.797 240.843 111.96 243.991 118.635C245.407 121.637 246.912 124.283 247.847 127.239C248.811 130.288 247.054 131.625 244.681 133.201Z" fill="#FFDC48"/>
<path d="M228.01 98.4337C227.987 98.4726 227.963 98.5123 227.939 98.5521C227.15 99.861 225.791 101.714 224.068 102.465C223.582 102.678 223.068 102.801 222.528 102.801C222.215 102.801 221.894 102.76 221.565 102.669C219.89 102.205 218.678 101.066 218.062 99.375C217.908 98.9531 217.81 98.5476 217.748 98.1935C218.006 98.1167 218.262 98.0489 218.514 97.9884C218.714 99.226 219.407 101.245 221.777 101.9C222.816 102.187 223.795 101.832 224.653 101.197C225.704 100.423 226.575 99.2305 227.161 98.2847C227.179 98.2549 227.197 98.226 227.215 98.1971C227.465 98.2251 227.734 98.3109 228.009 98.4328L228.01 98.4337Z" fill="white"/>
<path d="M224.708 143.486C224.708 143.486 223.523 144.379 222.184 145.228C220.59 146.24 218.43 147.007 218.43 147.007C218.43 147.007 216.588 145.954 215.839 144.01C215.113 142.125 215.632 140.065 215.632 140.065C215.632 140.065 217.403 139.029 219.283 138.507C221.144 137.99 223.153 137.826 223.153 137.826L224.707 143.486H224.708Z" fill="#FFB88E"/>
<path d="M217.671 141.186C217.29 141.369 216.905 141.541 216.52 141.715C216.133 141.886 215.746 142.056 215.358 142.222C214.971 142.39 214.579 142.55 214.19 142.714L213.017 143.194L213.228 143.068L212.487 143.598C212.238 143.772 211.99 143.948 211.738 144.118C211.488 144.289 211.234 144.457 210.98 144.624C210.724 144.79 210.468 144.955 210.205 145.111C209.858 145.319 209.407 145.205 209.198 144.858C209.022 144.562 209.077 144.194 209.31 143.961C209.527 143.746 209.75 143.539 209.972 143.331C210.197 143.126 210.422 142.921 210.65 142.72C210.876 142.517 211.108 142.321 211.337 142.121L212.033 141.534C212.083 141.492 212.137 141.458 212.193 141.432L212.244 141.409L213.399 140.884C213.785 140.713 214.17 140.539 214.559 140.373C214.946 140.204 215.335 140.038 215.725 139.875C216.115 139.714 216.506 139.551 216.901 139.401C217.402 139.208 217.965 139.458 218.157 139.96C218.34 140.435 218.121 140.967 217.671 141.185L217.671 141.186Z" fill="#FFB88E"/>
<path d="M218.447 143.46C218.076 143.6 217.702 143.736 217.33 143.873L216.209 144.277C215.836 144.412 215.46 144.542 215.085 144.675L213.962 145.072L214.151 144.969L213.333 145.474C213.059 145.643 212.788 145.813 212.513 145.979L211.689 146.477C211.412 146.641 211.138 146.807 210.859 146.969C210.51 147.171 210.063 147.053 209.86 146.703C209.677 146.39 209.755 145.997 210.025 145.773C210.272 145.568 210.523 145.367 210.772 145.165L211.524 144.564C211.775 144.363 212.028 144.166 212.28 143.969L213.037 143.375C213.069 143.351 213.102 143.33 213.136 143.314L213.226 143.272L214.307 142.771C214.668 142.605 215.027 142.435 215.39 142.271L216.474 141.777C216.837 141.616 217.198 141.451 217.561 141.292C218.154 141.033 218.844 141.303 219.103 141.896C219.362 142.488 219.092 143.178 218.5 143.438C218.483 143.445 218.462 143.454 218.444 143.46H218.447Z" fill="#FFB88E"/>
<path d="M219.448 144.924C219.289 145.048 219.107 145.122 218.926 145.201L218.384 145.435C218.024 145.592 217.661 145.745 217.298 145.899L215.121 146.812L215.203 146.769L213.699 147.596L212.946 148.008L212.191 148.417C211.837 148.608 211.394 148.476 211.203 148.122C211.022 147.789 211.131 147.375 211.44 147.168L212.155 146.693L212.872 146.222L214.308 145.281C214.315 145.276 214.323 145.271 214.331 145.268L214.39 145.238L216.493 144.164C216.844 143.987 217.195 143.808 217.548 143.634L218.076 143.372C218.252 143.285 218.427 143.194 218.625 143.152C219.167 143.038 219.699 143.386 219.812 143.929C219.894 144.316 219.739 144.698 219.447 144.926L219.448 144.924Z" fill="#FFB88E"/>
<path d="M219.193 146.707L216.28 148.12L216.327 148.092L214.243 149.303C213.947 149.475 213.568 149.374 213.395 149.078C213.232 148.799 213.316 148.444 213.573 148.259L215.541 146.868L215.588 146.84L218.368 145.179C218.78 144.933 219.313 145.067 219.558 145.479C219.804 145.891 219.67 146.424 219.258 146.67C219.237 146.682 219.214 146.695 219.193 146.706L219.193 146.707Z" fill="#FFB88E"/>
<path d="M226.391 253.028H221.332C221.083 253.028 220.88 252.825 220.88 252.577C220.88 252.328 221.083 252.125 221.332 252.125H226.391C226.64 252.125 226.843 252.328 226.843 252.577C226.843 252.825 226.64 253.028 226.391 253.028Z" fill="white"/>
<path d="M226.057 254.082H221.666C221.428 254.082 221.236 254.274 221.236 254.512V254.554C221.236 254.792 221.428 254.984 221.666 254.984H226.057C226.294 254.984 226.487 254.792 226.487 254.554V254.512C226.487 254.274 226.294 254.082 226.057 254.082Z" fill="white"/>
<path d="M225.704 256.038H222.019C221.8 256.038 221.622 256.216 221.622 256.436V256.543C221.622 256.763 221.8 256.941 222.019 256.941H225.704C225.923 256.941 226.101 256.763 226.101 256.543V256.436C226.101 256.216 225.923 256.038 225.704 256.038Z" fill="white"/>
</g>
<defs>
<clipPath id="clip0_885_187">
<rect width="300" height="300" fill="white"/>
</clipPath>
</defs>
</svg>
