<svg width="350" height="250" viewBox="0 0 350 250" fill="none" xmlns="http://www.w3.org/2000/svg">
<path d="M236.193 117.072V94.6597H213.791C213.804 95.5427 213.64 96.4194 213.311 97.2388C212.982 98.0582 212.493 98.804 211.873 99.4329C211.253 100.062 210.514 100.561 209.699 100.902C208.884 101.243 208.01 101.418 207.127 101.418C206.244 101.418 205.37 101.243 204.555 100.902C203.74 100.561 203.001 100.062 202.381 99.4329C201.761 98.804 201.272 98.0582 200.943 97.2388C200.614 96.4194 200.45 95.5427 200.463 94.6597H178.062V117.072C178.185 117.072 178.308 117.06 178.433 117.06C180.2 117.06 181.896 117.762 183.146 119.012C184.395 120.262 185.098 121.957 185.098 123.725C185.098 125.492 184.395 127.187 183.146 128.437C181.896 129.687 180.2 130.389 178.433 130.389C178.301 130.389 178.185 130.389 178.062 130.379V152.789H200.463C200.488 151.038 201.2 149.367 202.448 148.137C203.695 146.908 205.376 146.218 207.127 146.218C208.878 146.218 210.559 146.908 211.807 148.137C213.054 149.367 213.767 151.038 213.791 152.789H236.193V130.377C234.493 130.282 232.894 129.539 231.725 128.302C230.555 127.065 229.904 125.427 229.904 123.725C229.904 122.022 230.555 120.384 231.725 119.147C232.894 117.91 234.493 117.167 236.193 117.072V117.072Z" fill="#A6E0FF"/>
<path d="M206.798 142.589C206.012 142.587 205.258 142.274 204.702 141.718C204.145 141.162 203.832 140.408 203.829 139.622V134.791C203.83 134.666 203.88 134.546 203.968 134.458C204.056 134.37 204.176 134.32 204.301 134.319H209.296C209.421 134.32 209.54 134.37 209.628 134.458C209.716 134.547 209.766 134.666 209.766 134.791V139.628C209.762 140.413 209.448 141.165 208.892 141.72C208.336 142.275 207.584 142.587 206.798 142.589V142.589Z" fill="#FFA86E"/>
<path d="M206.211 142.995C206.289 143.407 206.095 143.664 205.779 143.568L201.053 142.119C200.737 142.023 200.642 141.67 200.842 141.337L202.93 137.848C203.13 137.514 203.558 137.241 203.882 137.241H204.54C204.864 137.241 205.199 137.578 205.27 137.989L206.211 142.995Z" fill="#26ADE4"/>
<path d="M207.499 142.995C207.421 143.407 207.616 143.664 207.931 143.568L212.659 142.119C212.973 142.023 213.068 141.67 212.869 141.337L210.79 137.847C210.591 137.512 210.162 137.24 209.838 137.24H209.18C208.856 137.24 208.522 137.577 208.449 137.988L207.499 142.995Z" fill="#5BC5FF"/>
<path d="M201.783 130.515C202.615 127.444 200.8 124.279 197.728 123.448C194.657 122.616 191.492 124.431 190.66 127.503C189.829 130.574 191.644 133.739 194.716 134.571C197.787 135.402 200.952 133.587 201.783 130.515Z" fill="#EF970A"/>
<path d="M197.169 124.689C199.586 123.588 200.652 120.736 199.55 118.32C198.449 115.903 195.598 114.837 193.181 115.938C190.765 117.04 189.698 119.891 190.8 122.308C191.901 124.724 194.753 125.791 197.169 124.689Z" fill="#EF970A"/>
<path d="M222.693 119.316C223.442 116.842 222.044 114.229 219.57 113.48C217.096 112.731 214.483 114.129 213.734 116.603C212.984 119.077 214.382 121.69 216.857 122.439C219.331 123.189 221.944 121.791 222.693 119.316Z" fill="#EF970A"/>
<path d="M223.479 128.462C224.604 125.745 223.314 122.631 220.597 121.505C217.881 120.38 214.766 121.67 213.641 124.387C212.515 127.104 213.805 130.219 216.522 131.344C219.239 132.469 222.354 131.179 223.479 128.462Z" fill="#EF970A"/>
<path d="M195.948 122.282C197.032 121.791 197.513 120.513 197.022 119.428C196.53 118.343 195.252 117.862 194.167 118.354C193.082 118.845 192.601 120.123 193.093 121.208C193.585 122.293 194.863 122.774 195.948 122.282Z" fill="#FFB380"/>
<path d="M220.573 120.794C220.847 119.635 220.129 118.473 218.97 118.199C217.811 117.926 216.649 118.644 216.375 119.803C216.102 120.962 216.82 122.124 217.979 122.397C219.138 122.671 220.3 121.953 220.573 120.794Z" fill="#FFB380"/>
<path d="M206.691 136.098C200.25 136.098 194.979 130.832 194.979 124.387V117.954C194.987 115.535 195.951 113.217 197.661 111.506C199.372 109.796 201.69 108.831 204.109 108.824H209.271C211.691 108.831 214.009 109.795 215.719 111.506C217.43 113.216 218.394 115.534 218.401 117.954V124.389C218.401 130.828 213.132 136.098 206.691 136.098Z" fill="#FFB380"/>
<path d="M219.116 117.316C220.952 114.137 218.972 109.558 214.695 107.089C210.418 104.619 205.463 105.195 203.627 108.374C201.792 111.552 203.771 116.131 208.048 118.601C212.326 121.07 217.281 120.495 219.116 117.316Z" fill="#EF970A"/>
<path d="M209.255 104.998C205.009 104.998 204.206 104.785 202.81 108.307C201.772 107.381 200.432 106.866 199.042 106.858C195.633 106.858 193.654 110.321 193.654 114.162C193.654 116.907 194.282 118.931 196.331 120.063V117.166C196.334 115.348 197.058 113.605 198.343 112.319C199.628 111.032 201.37 110.307 203.188 110.301H210.353C214.124 110.301 221.169 112.504 219.416 110.342C217.662 108.18 214.71 104.998 209.255 104.998Z" fill="#EF970A"/>
<path d="M212.276 104.936C206.859 102.921 201.527 103.822 200.363 106.949C199.632 108.915 200.608 111.176 202.864 113.172C204.444 112.218 206.575 111.763 208.77 111.763C212.921 111.763 219.584 115.293 219.975 114.245C221.141 111.119 217.692 106.95 212.276 104.936Z" fill="#EF970A"/>
<path d="M205.965 113.104C207.13 115.618 205.525 118.837 202.383 120.292C199.24 121.747 195.748 120.888 194.584 118.374C193.42 115.859 195.024 112.641 198.167 111.186C201.309 109.731 204.801 110.59 205.965 113.104Z" fill="#EF970A"/>
<path d="M202.496 122.17C202.496 122.944 202.119 123.572 201.654 123.572C201.19 123.572 200.813 122.944 200.813 122.17C200.813 121.395 201.19 120.766 201.654 120.766C202.119 120.766 202.496 121.394 202.496 122.17Z" fill="#3F1C0D"/>
<path d="M212.57 122.17C212.57 122.944 212.194 123.572 211.729 123.572C211.264 123.572 210.888 122.944 210.888 122.17C210.888 121.395 211.264 120.766 211.729 120.766C212.194 120.766 212.57 121.394 212.57 122.17Z" fill="#3F1C0D"/>
<path d="M209.757 129.78C209.757 129.78 209.362 132.846 206.69 132.846C204.019 132.846 203.624 129.78 203.624 129.78H209.757Z" fill="white"/>
<path d="M207.317 124.927H206.202C205.642 124.927 205.187 125.381 205.187 125.942V126.026C205.187 126.587 205.642 127.041 206.202 127.041H207.317C207.878 127.041 208.333 126.587 208.333 126.026V125.942C208.333 125.381 207.878 124.927 207.317 124.927Z" fill="#FFA86E"/>
<path d="M213.62 124.741H211.426C211.107 124.741 210.848 125 210.848 125.319V125.395C210.848 125.715 211.107 125.973 211.426 125.973H213.62C213.939 125.973 214.198 125.715 214.198 125.395V125.319C214.198 125 213.939 124.741 213.62 124.741Z" fill="#FF9473"/>
<path d="M202.381 124.741H200.187C199.868 124.741 199.609 125 199.609 125.319V125.395C199.609 125.715 199.868 125.973 200.187 125.973H202.381C202.7 125.973 202.959 125.715 202.959 125.395V125.319C202.959 125 202.7 124.741 202.381 124.741Z" fill="#FF9473"/>
<path d="M312.222 53.5159C312.112 53.4909 312.004 53.4672 311.895 53.4475L317.056 31.6413L295.258 26.4827C294.851 28.2031 293.777 29.6914 292.273 30.6201C290.768 31.5487 288.956 31.8417 287.236 31.4345C286.384 31.2329 285.58 30.8655 284.87 30.3533C284.16 29.841 283.558 29.1939 283.098 28.449C282.17 26.9445 281.877 25.1327 282.284 23.4123L260.49 18.2537L255.328 40.0599C253.648 39.7533 251.914 40.1035 250.485 41.0381C249.055 41.9727 248.039 43.4204 247.646 45.0825C247.253 46.7445 247.513 48.4941 248.373 49.97C249.232 51.446 250.625 52.5357 252.265 53.0143L247.103 74.8218L268.906 79.9804C268.892 80.0317 268.878 80.0805 268.866 80.1318C268.486 81.8418 268.795 83.6326 269.725 85.1167C270.656 86.6008 272.133 87.659 273.838 88.0624C275.542 88.4657 277.337 88.1818 278.834 87.272C280.331 86.3622 281.409 84.8997 281.836 83.2009C281.848 83.1509 281.857 83.0995 281.868 83.0482L303.67 88.2081L308.831 66.4019C308.937 66.4322 309.045 66.4611 309.153 66.4875C310.873 66.8946 312.684 66.6018 314.188 65.6734C315.693 64.745 316.766 63.257 317.174 61.5369C317.581 59.8168 317.288 58.0053 316.36 56.5011C315.431 54.9969 313.943 53.9231 312.223 53.5159H312.222Z" fill="#A6E0FF"/>
<path d="M277.676 70.6376C276.929 70.4581 276.283 69.9905 275.88 69.3368C275.477 68.6831 275.349 67.8965 275.523 67.1485L276.611 62.5508C276.639 62.4322 276.713 62.3296 276.816 62.2654C276.92 62.2013 277.045 62.1808 277.164 62.2084L281.911 63.3329C282.03 63.361 282.133 63.435 282.197 63.5387C282.261 63.6423 282.281 63.7671 282.254 63.8858L281.165 68.4836C280.986 69.2308 280.519 69.8769 279.865 70.2805C279.211 70.6841 278.424 70.8125 277.676 70.6376V70.6376Z" fill="#8E583E"/>
<path d="M277.017 70.8904C276.999 71.2998 276.754 71.5 276.478 71.338L272.31 68.897C272.033 68.7337 272.022 68.3782 272.287 68.107L275.052 65.2604C275.315 64.9879 275.785 64.8246 276.092 64.8983L276.713 65.0445C277.02 65.1182 277.257 65.5119 277.24 65.92L277.017 70.8904Z" fill="#F9CC4E"/>
<path d="M278.249 71.1813C278.083 71.5552 278.209 71.8396 278.531 71.8225L283.349 71.5078C283.672 71.4867 283.841 71.1734 283.726 70.8126L282.525 67.026C282.411 66.6639 282.066 66.3084 281.758 66.236L281.137 66.0898C280.829 66.0174 280.441 66.2623 280.275 66.6362L278.249 71.1813Z" fill="#FFDA65"/>
<path d="M276.957 64.8197C278.313 61.1151 276.409 57.0129 272.704 55.6573C268.999 54.3016 264.897 56.2057 263.542 59.9103C262.186 63.6149 264.09 67.717 267.795 69.0727C271.499 70.4284 275.601 68.5243 276.957 64.8197Z" fill="#3B3B3B"/>
<path d="M292.997 73.1535C295.968 70.5582 296.272 66.0459 293.677 63.075C291.082 60.1041 286.569 59.7997 283.598 62.395C280.627 64.9903 280.323 69.5026 282.918 72.4735C285.514 75.4444 290.026 75.7488 292.997 73.1535Z" fill="#3B3B3B"/>
<path d="M276.608 58.5645C278.344 55.9661 277.644 52.4529 275.046 50.7174C272.447 48.9819 268.934 49.6814 267.199 52.2797C265.463 54.878 266.163 58.3913 268.761 60.1267C271.359 61.8622 274.873 61.1628 276.608 58.5645Z" fill="#3B3B3B"/>
<path d="M276.099 48.3556C276.931 45.8991 275.615 43.2328 273.158 42.4003C270.702 41.5679 268.035 42.8845 267.203 45.3411C266.37 47.7976 267.687 50.4639 270.143 51.2964C272.6 52.1288 275.266 50.8122 276.099 48.3556Z" fill="#3B3B3B"/>
<path d="M297.422 52.8957C299.134 51.04 299.017 48.1479 297.161 46.4361C295.306 44.7243 292.414 44.8409 290.702 46.6967C288.99 48.5524 289.107 51.4445 290.962 53.1563C292.818 54.8681 295.71 54.7515 297.422 52.8957Z" fill="#3B3B3B"/>
<path d="M294.505 62.7281C297.152 61.6145 298.396 58.5655 297.282 55.9179C296.169 53.2702 293.12 52.0265 290.472 53.14C287.824 54.2536 286.581 57.3026 287.694 59.9503C288.808 62.5979 291.857 63.8416 294.505 62.7281Z" fill="#3B3B3B"/>
<path d="M273.576 47.3001C273.48 47.7056 273.266 48.0736 272.961 48.3574C272.655 48.6413 272.273 48.8282 271.861 48.8945C271.45 48.9609 271.028 48.9037 270.649 48.7301C270.27 48.5566 269.951 48.2746 269.733 47.9198C269.514 47.5649 269.405 47.1532 269.421 46.7367C269.436 46.3202 269.575 45.9176 269.819 45.58C270.064 45.2423 270.403 44.9846 270.793 44.8397C271.184 44.6947 271.609 44.6689 272.015 44.7655C272.557 44.8949 273.027 45.2345 273.32 45.7097C273.612 46.1849 273.705 46.7569 273.576 47.3001V47.3001Z" fill="#B57351"/>
<path d="M295.837 52.5693C295.741 52.9747 295.527 53.3425 295.222 53.6262C294.917 53.91 294.535 54.0969 294.124 54.1633C293.712 54.2298 293.291 54.1728 292.912 53.9996C292.533 53.8264 292.214 53.5448 291.995 53.1903C291.776 52.8358 291.667 52.4244 291.682 52.0081C291.697 51.5917 291.835 51.1892 292.079 50.8513C292.323 50.5134 292.661 50.2554 293.051 50.1098C293.442 49.9643 293.866 49.9377 294.272 50.0335C294.541 50.0971 294.795 50.2132 295.02 50.3751C295.244 50.537 295.435 50.7416 295.58 50.9771C295.725 51.2126 295.823 51.4744 295.867 51.7476C295.911 52.0208 295.901 52.3 295.837 52.5693V52.5693Z" fill="#B57351"/>
<path d="M279.027 64.4428C276.08 63.7361 273.532 61.8919 271.94 59.313C270.348 56.7341 269.842 53.63 270.531 50.6787L271.979 44.5642C272.53 42.2663 273.968 40.2799 275.979 39.0387C277.99 37.7976 280.41 37.4027 282.711 37.9402L287.617 39.1015C289.914 39.6522 291.901 41.0898 293.142 43.1005C294.383 45.1111 294.778 47.5312 294.241 49.8321L292.792 55.9466C292.086 58.894 290.241 61.4419 287.662 63.0339C285.083 64.6258 281.978 65.1324 279.027 64.4428Z" fill="#B57351"/>
<path d="M295.049 49.3702C297.509 46.7611 296.657 41.9635 293.147 38.6545C289.637 35.3456 284.797 34.7782 282.338 37.3873C279.878 39.9964 280.73 44.7939 284.24 48.1029C287.75 51.4119 292.59 51.9793 295.049 49.3702Z" fill="#3B3B3B"/>
<path d="M288.461 35.4607C284.425 34.5062 283.71 34.123 281.592 37.1552C280.813 36.0418 279.656 35.2506 278.336 34.9301C275.097 34.1625 272.436 37.0091 271.572 40.6588C270.955 43.2684 271.097 45.3329 272.79 46.8694L273.442 44.115C273.855 42.3889 274.934 40.8966 276.445 39.9643C277.955 39.0319 279.773 38.7354 281.501 39.1394L288.31 40.751C291.896 41.6002 298.096 45.2776 296.915 42.8286C295.734 40.3797 293.646 36.6878 288.461 35.4607Z" fill="#3B3B3B"/>
<path d="M291.345 36.0822C286.651 32.9486 281.38 32.605 279.571 35.3146C278.433 37.0197 278.852 39.3883 280.55 41.7925C282.262 41.2408 284.393 41.2882 286.475 41.782C290.425 42.7155 295.955 47.5752 296.567 46.6614C298.38 43.9518 296.04 39.2145 291.345 36.0822Z" fill="#3B3B3B"/>
<path d="M283.511 42.4259C284.052 45.0776 281.8 47.7754 278.49 48.4509C275.18 49.1263 272.049 47.5292 271.511 44.8749C270.974 42.2205 273.223 39.5254 276.534 38.8486C279.846 38.1719 282.97 39.7742 283.511 42.4259Z" fill="#3B3B3B"/>
<path d="M278.171 50.2626C277.997 50.9999 277.498 51.5121 277.056 51.4067C276.614 51.3014 276.398 50.6168 276.571 49.8847C276.745 49.1527 277.246 48.6352 277.688 48.7405C278.13 48.8459 278.346 49.5239 278.171 50.2626Z" fill="#3F1C0D"/>
<path d="M287.749 52.5272C287.576 53.2632 287.077 53.7754 286.634 53.6714C286.192 53.5673 285.976 52.8814 286.15 52.148C286.323 51.4146 286.824 50.8998 287.265 51.0038C287.706 51.1079 287.924 51.7912 287.749 52.5272Z" fill="#3F1C0D"/>
<path d="M279.863 54.4442L279.844 54.5249C279.718 55.0578 280.048 55.5919 280.581 55.718L281.642 55.969C282.174 56.095 282.709 55.7653 282.835 55.2324L282.854 55.1517C282.98 54.6189 282.65 54.0847 282.117 53.9586L281.056 53.7077C280.523 53.5816 279.989 53.9114 279.863 54.4442Z" fill="#8E583E"/>
<path d="M283.76 59.9753C283.76 59.9753 282.957 62.2057 279.744 61.446C276.532 60.6863 276.813 58.3322 276.813 58.3322L283.76 59.9753Z" fill="white"/>
<path d="M168.078 186.169C167.952 186.185 167.829 186.206 167.706 186.228L164.895 163.993L142.67 166.804C142.889 168.556 142.404 170.323 141.321 171.717C140.238 173.112 138.646 174.019 136.894 174.241C135.143 174.462 133.375 173.98 131.979 172.899C130.583 171.818 129.673 170.227 129.449 168.476L107.224 171.287L110.036 193.521C108.36 193.827 106.864 194.763 105.857 196.138C104.85 197.513 104.408 199.221 104.621 200.912C104.835 202.603 105.689 204.147 107.006 205.228C108.324 206.309 110.006 206.844 111.706 206.723L114.518 228.957L136.744 226.146C136.55 224.407 137.049 222.661 138.131 221.287C139.214 219.912 140.794 219.018 142.53 218.799C144.266 218.579 146.019 219.052 147.409 220.114C148.8 221.176 149.717 222.742 149.962 224.475L172.188 221.664L169.376 199.429C169.507 199.421 169.625 199.409 169.75 199.393C171.5 199.168 173.09 198.257 174.17 196.861C175.25 195.465 175.732 193.698 175.511 191.947C175.289 190.196 174.382 188.604 172.989 187.521C171.595 186.438 169.829 185.951 168.078 186.169V186.169Z" fill="#A6E0FF"/>
<path d="M142.203 215.988C141.389 216.088 140.568 215.863 139.92 215.36C139.272 214.857 138.849 214.118 138.744 213.305L138.111 208.302C138.095 208.172 138.13 208.042 138.21 207.939C138.29 207.836 138.407 207.769 138.536 207.752L143.704 207.094C143.833 207.078 143.963 207.115 144.066 207.194C144.169 207.274 144.236 207.392 144.253 207.521L144.885 212.524C144.987 213.339 144.762 214.161 144.259 214.81C143.756 215.459 143.017 215.883 142.203 215.988Z" fill="#B56F51"/>
<path d="M141.65 216.484C141.782 216.899 141.616 217.191 141.277 217.132L136.196 216.251C135.858 216.193 135.714 215.841 135.878 215.469L137.585 211.587C137.749 211.215 138.156 210.877 138.49 210.835L139.165 210.749C139.501 210.707 139.884 211.012 140.019 211.427L141.65 216.484Z" fill="#35B8B0"/>
<path d="M142.984 216.315C142.957 216.75 143.192 216.991 143.51 216.85L148.211 214.732C148.524 214.591 148.577 214.215 148.327 213.896L145.709 210.56C145.459 210.24 144.98 210.014 144.645 210.057L143.97 210.142C143.634 210.184 143.339 210.575 143.312 211.011L142.984 216.315Z" fill="#35B8B0"/>
<path d="M129.716 201.607C132.485 201.524 134.611 197.493 134.464 192.604C134.318 187.716 131.954 183.82 129.185 183.903C126.416 183.986 124.29 188.017 124.437 192.905C124.583 197.794 126.947 201.69 129.716 201.607Z" fill="#FFDA65"/>
<path d="M153.137 190.678C153.38 186.012 151.394 182.115 148.702 181.975C146.01 181.835 143.631 185.504 143.388 190.17C143.145 194.837 145.131 198.733 147.823 198.873C150.515 199.014 152.894 195.344 153.137 190.678Z" fill="#FFDA65"/>
<path d="M129.376 194.186C129.432 194.627 129.356 195.076 129.157 195.474C128.959 195.872 128.646 196.203 128.26 196.423C127.874 196.644 127.43 196.745 126.986 196.714C126.542 196.683 126.118 196.521 125.766 196.248C125.414 195.976 125.151 195.605 125.01 195.183C124.869 194.76 124.856 194.306 124.973 193.877C125.091 193.447 125.333 193.062 125.669 192.77C126.005 192.479 126.42 192.293 126.861 192.237C127.453 192.163 128.05 192.326 128.522 192.691C128.993 193.057 129.301 193.594 129.376 194.186V194.186Z" fill="#C48874"/>
<path d="M154.031 193.126C154.801 192.145 154.629 190.725 153.648 189.955C152.667 189.185 151.247 189.356 150.477 190.337C149.707 191.318 149.879 192.738 150.86 193.508C151.841 194.278 153.261 194.107 154.031 193.126Z" fill="#C48874"/>
<path d="M141.242 209.286C134.578 210.129 128.437 205.367 127.595 198.703L126.753 192.049C126.444 189.545 127.138 187.021 128.684 185.027C130.23 183.034 132.502 181.733 135.003 181.409L140.344 180.734C142.847 180.425 145.371 181.119 147.364 182.665C149.358 184.211 150.658 186.482 150.982 188.984L151.825 195.639C152.667 202.302 147.905 208.444 141.242 209.286Z" fill="#C48874"/>
<path d="M135.084 195.426C135.185 196.227 134.878 196.926 134.398 196.988C133.917 197.049 133.445 196.448 133.345 195.646C133.245 194.844 133.55 194.145 134.032 194.084C134.514 194.024 134.976 194.624 135.084 195.426Z" fill="#1D2733"/>
<path d="M145.503 194.107C145.605 194.909 145.297 195.608 144.816 195.668C144.336 195.729 143.863 195.129 143.763 194.327C143.663 193.525 143.97 192.827 144.45 192.767C144.931 192.706 145.402 193.305 145.503 194.107Z" fill="#1D2733"/>
<path d="M140.435 197.644L139.28 197.79C138.7 197.863 138.29 198.393 138.363 198.973L138.374 199.06C138.448 199.64 138.977 200.051 139.557 199.978L140.712 199.832C141.292 199.758 141.703 199.229 141.629 198.649L141.618 198.561C141.545 197.981 141.015 197.57 140.435 197.644Z" fill="#B56F51"/>
<path d="M137.309 202.404L137.367 202.379C137.611 202.288 137.933 202.519 138.157 202.794C139.325 204.284 141.761 203.979 142.524 202.242C142.672 201.92 142.927 201.617 143.183 201.645L143.244 201.655C143.508 201.68 143.653 202.182 143.439 202.664C142.377 205.076 138.99 205.501 137.367 203.429C137.044 203.017 137.065 202.492 137.309 202.404Z" fill="#D13E48"/>
<path d="M139.824 176.777C135.431 177.333 134.573 177.218 133.59 181.043C132.397 180.223 130.946 179.864 129.508 180.036C125.982 180.482 124.388 184.323 124.889 188.296C125.249 191.136 126.164 193.147 128.431 194.05L128.052 191.051C127.819 189.171 128.341 187.275 129.502 185.778C130.663 184.281 132.369 183.304 134.248 183.062L141.661 182.124C145.562 181.63 153.138 182.986 151.042 180.98C148.945 178.973 145.47 176.064 139.824 176.777Z" fill="#FDE497"/>
<path d="M134.835 194.007C137.905 192.092 139.152 188.55 137.621 186.094C136.09 183.639 132.36 183.2 129.29 185.114C126.22 187.028 124.972 190.571 126.504 193.026C128.035 195.482 131.765 195.921 134.835 194.007Z" fill="#FDE497"/>
<path d="M151.609 188.287C153.119 184.77 150.241 180.157 145.181 177.984C140.12 175.811 134.793 176.9 133.283 180.417C131.773 183.935 134.651 188.548 139.711 190.721C144.772 192.894 150.099 191.804 151.609 188.287Z" fill="#FDE497"/>
<path d="M142.943 176.318C137.076 174.943 131.676 176.573 130.882 179.958C130.383 182.088 131.688 184.303 134.287 186.069C135.795 184.876 137.941 184.127 140.212 183.838C144.506 183.296 151.862 186.077 152.129 184.94C152.923 181.554 148.81 177.694 142.943 176.318Z" fill="#FDE497"/>
<path d="M167.802 118.688C167.671 118.679 167.551 118.675 167.427 118.674L168.964 96.3147L146.616 94.7782C146.561 95.6551 146.334 96.5125 145.946 97.301C145.559 98.0896 145.019 98.7937 144.358 99.373C143.698 99.9522 142.929 100.395 142.096 100.676C141.264 100.957 140.384 101.071 139.508 101.011C138.631 100.95 137.775 100.717 136.989 100.325C136.203 99.9329 135.502 99.389 134.927 98.7249C134.351 98.0607 133.913 97.2894 133.637 96.4553C133.361 95.6211 133.253 94.7406 133.318 93.8644L111.272 92.349L109.736 114.699H109.808C110.685 114.754 111.543 114.982 112.331 115.369C113.12 115.757 113.824 116.296 114.403 116.957C114.982 117.618 115.425 118.386 115.706 119.219C115.987 120.051 116.101 120.931 116.041 121.808C115.981 122.684 115.748 123.54 115.355 124.326C114.963 125.113 114.419 125.813 113.755 126.389C113.091 126.964 112.32 127.402 111.485 127.678C110.651 127.954 109.771 128.063 108.895 127.997H108.822L107.287 150.346L129.333 151.861C129.333 151.869 129.333 151.877 129.333 151.885C129.211 153.648 129.794 155.388 130.954 156.721C132.115 158.055 133.758 158.872 135.521 158.995C137.284 159.117 139.024 158.534 140.358 157.373C141.691 156.213 142.509 154.57 142.631 152.806C142.63 152.799 142.63 152.791 142.631 152.783L164.972 154.307L166.509 131.95C166.632 131.964 166.757 131.977 166.882 131.986C168.645 132.109 170.385 131.525 171.719 130.365C173.052 129.204 173.87 127.562 173.992 125.798C174.114 124.035 173.531 122.295 172.37 120.962C171.21 119.628 169.567 118.811 167.804 118.688H167.802Z" fill="#A6E0FF"/>
<path d="M132.67 142.572C132.6 143.589 132.937 144.592 133.607 145.36C134.276 146.128 135.224 146.599 136.24 146.669C137.257 146.739 138.26 146.402 139.028 145.732C139.796 145.063 140.267 144.116 140.337 143.099C140.347 142.936 140.347 142.772 140.337 142.609L132.735 142.082C132.702 142.244 132.681 142.408 132.67 142.572V142.572Z" fill="#1BBC86"/>
<path d="M148.945 129.833C154.846 123.932 154.846 114.364 148.945 108.463C143.044 102.561 133.476 102.561 127.575 108.463C121.674 114.364 121.674 123.932 127.575 129.833C133.476 135.734 143.044 135.734 148.945 129.833Z" fill="#3B3B3B"/>
<path d="M136.342 145.183C135.646 145.132 134.999 144.808 134.541 144.281C134.084 143.754 133.853 143.068 133.899 142.372L134.187 138.082C134.195 137.972 134.247 137.869 134.33 137.796C134.414 137.724 134.523 137.687 134.633 137.694L139.06 137.998C139.17 138.006 139.273 138.058 139.346 138.141C139.419 138.225 139.456 138.334 139.448 138.445L139.153 142.731C139.104 143.429 138.781 144.078 138.254 144.537C137.727 144.997 137.04 145.229 136.342 145.183V145.183Z" fill="#B36E4F"/>
<path d="M129.209 124.852C129.183 125.23 129.045 125.591 128.814 125.891C128.582 126.191 128.267 126.416 127.908 126.537C127.549 126.657 127.162 126.669 126.796 126.57C126.43 126.47 126.102 126.265 125.853 125.979C125.604 125.694 125.446 125.341 125.397 124.965C125.349 124.589 125.413 124.207 125.582 123.868C125.751 123.529 126.016 123.247 126.345 123.059C126.673 122.87 127.051 122.783 127.429 122.809C127.936 122.844 128.408 123.079 128.742 123.462C129.075 123.845 129.243 124.345 129.209 124.852V124.852Z" fill="#B57351"/>
<path d="M149.962 126.277C149.936 126.655 149.799 127.017 149.567 127.317C149.335 127.617 149.02 127.842 148.661 127.962C148.302 128.083 147.915 128.095 147.549 127.995C147.184 127.896 146.855 127.691 146.607 127.405C146.358 127.12 146.199 126.767 146.151 126.391C146.102 126.015 146.166 125.633 146.335 125.294C146.504 124.955 146.769 124.673 147.098 124.485C147.427 124.296 147.804 124.209 148.182 124.235C148.689 124.27 149.161 124.505 149.495 124.888C149.828 125.271 149.997 125.771 149.962 126.277V126.277Z" fill="#B57351"/>
<path d="M138.656 139.562L134.628 139.286C132.412 139.127 130.349 138.098 128.89 136.423C127.43 134.748 126.693 132.564 126.839 130.347L127.508 120.619C127.622 119.008 128.37 117.509 129.587 116.448C130.803 115.387 132.39 114.851 134.001 114.957L142.604 115.548C144.214 115.663 145.714 116.41 146.774 117.627C147.835 118.844 148.371 120.431 148.266 122.042L147.592 131.774C147.433 133.99 146.404 136.052 144.73 137.511C143.055 138.97 140.872 139.708 138.656 139.562V139.562Z" fill="#B57351"/>
<path d="M133.767 126.825C133.72 127.512 133.349 128.046 132.937 128.01C132.525 127.975 132.228 127.403 132.278 126.716C132.328 126.029 132.698 125.495 133.109 125.524C133.52 125.553 133.819 126.139 133.767 126.825Z" fill="#3F1C0D"/>
<path d="M142.702 127.439C142.654 128.126 142.282 128.659 141.871 128.631C141.46 128.604 141.162 128.023 141.212 127.337C141.262 126.651 141.632 126.117 142.043 126.144C142.454 126.172 142.749 126.759 142.702 127.439Z" fill="#3F1C0D"/>
<path d="M134.924 124.389L131.529 124.351C131.366 124.348 131.21 124.281 131.097 124.164C130.983 124.047 130.92 123.89 130.921 123.727C130.923 123.564 130.99 123.408 131.107 123.294C131.224 123.18 131.381 123.117 131.545 123.119L134.942 123.161C135.105 123.163 135.261 123.23 135.375 123.347C135.489 123.464 135.552 123.622 135.55 123.785C135.546 123.948 135.479 124.103 135.362 124.216C135.244 124.329 135.087 124.391 134.924 124.389V124.389Z" fill="#3B3B3B"/>
<path d="M143.766 125.204L140.398 124.755C140.236 124.732 140.091 124.647 139.992 124.517C139.893 124.388 139.85 124.224 139.871 124.063V124.063C139.894 123.901 139.979 123.755 140.109 123.657C140.238 123.558 140.402 123.515 140.564 123.536L143.931 123.985C144.093 124.008 144.238 124.094 144.337 124.223C144.436 124.353 144.479 124.516 144.458 124.678V124.678C144.436 124.839 144.35 124.985 144.22 125.084C144.091 125.182 143.927 125.226 143.766 125.204V125.204Z" fill="#3B3B3B"/>
<path d="M139.218 135.115C139.35 135.378 138.905 137.17 136.799 137.025C134.694 136.88 134.412 135.034 134.664 134.801C134.915 134.568 139.085 134.855 139.218 135.115Z" fill="white"/>
<path d="M135.917 130.401L135.922 130.326C135.931 130.208 135.962 130.092 136.015 129.986C136.067 129.88 136.14 129.786 136.23 129.708C136.319 129.63 136.423 129.57 136.535 129.533C136.647 129.495 136.766 129.48 136.884 129.488L137.873 129.556C138.111 129.572 138.333 129.683 138.49 129.863C138.647 130.043 138.726 130.278 138.71 130.516L138.705 130.592C138.688 130.831 138.578 131.053 138.398 131.209C138.218 131.366 137.983 131.445 137.744 131.429L136.755 131.361C136.517 131.345 136.294 131.234 136.137 131.054C135.98 130.873 135.901 130.638 135.917 130.399L135.917 130.401Z" fill="#8E583E"/>
<path d="M144.452 116.592C145.567 113.326 143.823 109.773 140.557 108.658C137.29 107.543 133.738 109.287 132.622 112.554C131.507 115.82 133.251 119.373 136.518 120.488C139.785 121.603 143.337 119.859 144.452 116.592Z" fill="#3B3B3B"/>
<path d="M127.756 114.519L127.067 124.555C127.015 125.304 127.581 125.953 128.331 126.005L128.881 126.043C129.63 126.094 130.28 125.528 130.331 124.779L131.021 114.743C131.072 113.994 130.506 113.345 129.757 113.293L129.207 113.256C128.457 113.204 127.808 113.77 127.756 114.519Z" fill="#3B3B3B"/>
<path d="M145.872 115.773L145.181 125.808C145.129 126.557 145.695 127.207 146.444 127.258L146.689 127.275C147.438 127.327 148.087 126.761 148.139 126.012L148.83 115.976C148.882 115.227 148.316 114.578 147.567 114.526L147.322 114.509C146.573 114.458 145.924 115.023 145.872 115.773Z" fill="#3B3B3B"/>
<path d="M98.518 205.843C96.8239 205.658 95.2651 204.831 94.1623 203.531C93.0595 202.232 92.4963 200.56 92.5887 198.858C92.6811 197.156 93.422 195.555 94.6591 194.382C95.8961 193.21 97.5353 192.557 99.2395 192.556L100.453 170.173L78.3879 168.976C78.3872 168.965 78.3872 168.953 78.3879 168.942C78.4734 167.183 77.8592 165.461 76.6794 164.154C75.4997 162.846 73.8503 162.058 72.0917 161.963C70.3331 161.868 68.6082 162.472 67.294 163.645C65.9798 164.817 65.1831 166.462 65.078 168.22C65.0786 168.231 65.0786 168.242 65.078 168.253L42.7109 167.049L41.497 189.418H41.5694C43.3345 189.514 44.9894 190.307 46.1699 191.623C47.3505 192.939 47.9599 194.669 47.8642 196.435C47.7685 198.2 46.9756 199.855 45.6597 201.035C44.3439 202.216 42.613 202.825 40.8478 202.729H40.7754L39.5615 225.087L61.9325 226.297C61.9325 226.338 61.9246 226.379 61.922 226.42C61.8344 228.18 62.4475 229.903 63.6273 231.213C64.807 232.522 66.4573 233.311 68.2172 233.406C69.977 233.502 71.703 232.896 73.0176 231.723C74.3322 230.549 75.1284 228.902 75.2319 227.143C75.2319 227.1 75.2319 227.061 75.2319 227.02L97.3001 228.217L98.518 205.843Z" fill="#A6E0FF"/>
<path d="M69.1068 217.561C68.2822 217.514 67.5099 217.143 66.9583 216.528C66.4067 215.913 66.1208 215.105 66.1628 214.28L66.438 209.21C66.4417 209.145 66.4582 209.081 66.4867 209.022C66.5152 208.963 66.5551 208.91 66.6041 208.867C66.653 208.823 66.7101 208.79 66.7719 208.769C66.8338 208.747 66.8993 208.738 66.9646 208.743L72.2009 209.027C72.2663 209.03 72.3302 209.047 72.3892 209.075C72.4481 209.104 72.5008 209.144 72.5441 209.193C72.5875 209.242 72.6207 209.299 72.6418 209.361C72.6629 209.423 72.6715 209.488 72.667 209.554L72.3918 214.625C72.3436 215.45 71.9709 216.221 71.3553 216.771C70.7397 217.322 69.9313 217.606 69.1068 217.561V217.561Z" fill="#FFA86E"/>
<path d="M60.3303 193.652C60.3075 194.1 60.1522 194.532 59.8841 194.891C59.6161 195.251 59.2473 195.523 58.8245 195.673C58.4017 195.823 57.944 195.844 57.5092 195.733C57.0745 195.623 56.6823 195.386 56.3824 195.052C56.0825 194.719 55.8883 194.304 55.8244 193.86C55.7606 193.416 55.83 192.963 56.0238 192.558C56.2175 192.154 56.5271 191.816 56.9131 191.587C57.2991 191.359 57.7442 191.25 58.1921 191.275C58.7905 191.308 59.3515 191.576 59.7522 192.022C60.1529 192.468 60.3608 193.054 60.3303 193.652Z" fill="#FFB380"/>
<path d="M84.8843 194.985C84.8602 195.432 84.704 195.862 84.4355 196.221C84.1669 196.579 83.798 196.85 83.3755 196.999C82.953 197.148 82.4959 197.168 82.0619 197.057C81.6279 196.946 81.2366 196.709 80.9374 196.376C80.6383 196.042 80.4447 195.627 80.3812 195.184C80.3178 194.741 80.3872 194.288 80.5808 193.884C80.7745 193.48 81.0835 193.143 81.4689 192.915C81.8544 192.686 82.2988 192.578 82.7461 192.602C83.3456 192.635 83.9076 192.904 84.3086 193.351C84.7096 193.798 84.9167 194.385 84.8843 194.985V194.985Z" fill="#FFB380"/>
<path d="M71.7455 210.879L66.9793 210.616C64.358 210.466 61.9026 209.284 60.1494 207.33C58.3962 205.375 57.4875 202.807 57.6219 200.184L58.2473 188.674C58.3575 186.77 59.2166 184.987 60.637 183.714C62.0574 182.441 63.9238 181.782 65.8286 181.88L76.0049 182.433C77.9095 182.542 79.6936 183.4 80.9675 184.82C82.2415 186.24 82.9017 188.107 82.804 190.012L82.1799 201.522C82.0296 204.144 80.8479 206.6 78.8928 208.353C76.9377 210.106 74.3682 211.015 71.7455 210.879V210.879Z" fill="#FFB380"/>
<path d="M81.2807 187.983L80.7409 197.942C80.4223 203.814 75.6666 202.662 69.7944 202.344C63.9235 202.025 59.0703 202.656 59.3929 196.783L59.934 186.824L58.4778 186.745C58.4117 186.745 58.3479 186.77 58.2991 186.814C58.2503 186.859 58.2201 186.92 58.2145 186.986L57.2415 204.916C56.8965 211.27 61.7497 217.929 68.1051 218.274L69.768 218.364C76.1234 218.709 81.6691 212.615 82.0128 206.259L82.9989 188.075L81.2807 187.983Z" fill="#AF4319"/>
<path d="M65.7548 195.909C65.7113 196.72 65.2808 197.358 64.7923 197.331C64.3038 197.305 63.9457 196.626 63.9905 195.813C64.0352 195.001 64.4658 194.365 64.9529 194.39C65.4401 194.415 65.7995 195.093 65.7548 195.909Z" fill="#1D2733"/>
<path d="M76.3207 196.482C76.2759 197.294 75.8454 197.93 75.3582 197.905C74.8711 197.88 74.5116 197.198 74.5551 196.386C74.5985 195.574 75.0304 194.938 75.5175 194.964C76.0047 194.99 76.3615 195.67 76.3207 196.482Z" fill="#1D2733"/>
<path d="M67.0765 193.014L63.0594 193.022C62.8665 193.021 62.6816 192.945 62.5449 192.809C62.4083 192.673 62.331 192.488 62.33 192.295V192.295C62.3303 192.102 62.4069 191.917 62.5431 191.781C62.6792 191.644 62.8639 191.567 63.0568 191.566L67.0725 191.558C67.2655 191.558 67.4506 191.634 67.5874 191.77C67.7241 191.907 67.8012 192.092 67.8019 192.285V192.285C67.8019 192.477 67.7256 192.662 67.5897 192.799C67.4537 192.936 67.2692 193.013 67.0765 193.014Z" fill="#AF4319"/>
<path d="M77.5467 193.824L73.5586 193.35C73.367 193.326 73.1924 193.228 73.073 193.076C72.9536 192.925 72.8991 192.732 72.9213 192.54V192.54C72.9448 192.349 73.0429 192.174 73.1944 192.055C73.3459 191.936 73.5383 191.882 73.7298 191.904L77.7192 192.377C77.9106 192.4 78.0849 192.499 78.204 192.651C78.3231 192.802 78.3774 192.995 78.3551 193.186V193.186C78.3317 193.378 78.2336 193.552 78.0822 193.672C77.9307 193.791 77.7383 193.846 77.5467 193.824V193.824Z" fill="#AF4319"/>
<path d="M74.1128 203.791C75.0055 204.394 73.5479 208.135 69.5164 207.913C65.4848 207.69 64.9174 203.831 65.394 203.317C65.631 203.061 66.0312 204.558 69.6928 204.757C73.3544 204.956 73.6638 203.486 74.1128 203.791Z" fill="white"/>
<path d="M68.3667 200.03L68.3618 200.12C68.3299 200.707 68.7802 201.209 69.3676 201.241L70.539 201.305C71.1264 201.337 71.6285 200.887 71.6604 200.299L71.6652 200.21C71.6972 199.622 71.2468 199.12 70.6594 199.088L69.488 199.025C68.9006 198.993 68.3986 199.443 68.3667 200.03Z" fill="#FFA86E"/>
<path d="M74.0595 199.389L74.0552 199.469C74.037 199.804 74.2936 200.09 74.6283 200.108L76.9277 200.233C77.2625 200.251 77.5486 199.995 77.5667 199.66L77.5711 199.58C77.5893 199.245 77.3327 198.959 76.998 198.941L74.6985 198.816C74.3638 198.797 74.0777 199.054 74.0595 199.389Z" fill="#FF9473"/>
<path d="M62.4067 197.935L62.4027 198.015C62.386 198.351 62.6441 198.636 62.9793 198.653L65.2821 198.768C65.6174 198.785 65.9027 198.527 65.9195 198.191L65.9235 198.111C65.9402 197.776 65.6821 197.49 65.3469 197.474L63.044 197.359C62.7088 197.342 62.4235 197.6 62.4067 197.935Z" fill="#FF9473"/>
<path d="M73.8203 178.293C69.3688 178.05 68.5393 177.782 66.8763 181.393C65.8408 180.364 64.4656 179.747 63.0081 179.658C59.4347 179.464 57.1622 182.982 56.9436 187.009C56.7869 189.887 57.3307 192.045 59.415 193.347L59.5795 190.308C59.6873 188.403 60.5451 186.618 61.9652 185.343C63.3854 184.069 65.2524 183.408 67.1581 183.506L74.663 183.913C76.5676 184.022 78.3517 184.88 79.6256 186.3C80.8996 187.72 81.5598 189.587 81.4621 191.492L81.3304 193.862C84.2731 192.599 85.8755 186.842 84.1599 184.476C82.4443 182.11 79.5385 178.602 73.8203 178.293Z" fill="#AF4319"/>
<path d="M84.5356 188.597C85.9326 185.385 82.5548 180.82 76.991 178.4C71.4272 175.979 65.7844 176.621 64.3874 179.832C62.9905 183.043 66.3683 187.609 71.9321 190.029C77.4958 192.449 83.1387 191.808 84.5356 188.597Z" fill="#AF4319"/>
<path d="M66.9371 184.007C67.6323 185.75 66.2893 187.923 63.9378 188.86C61.5862 189.797 59.1175 189.146 58.4224 187.402C57.7272 185.659 59.0701 183.487 61.4217 182.549C63.7732 181.612 66.2432 182.265 66.9371 184.007Z" fill="#AF4319"/>
<path d="M237.578 200.22C235.878 200.124 234.279 199.382 233.11 198.144C231.94 196.907 231.289 195.269 231.289 193.567C231.289 191.865 231.94 190.227 233.11 188.989C234.279 187.752 235.878 187.01 237.578 186.914V164.502H215.176V164.468C215.152 162.717 214.439 161.045 213.192 159.816C211.944 158.586 210.263 157.897 208.512 157.897C206.761 157.897 205.08 158.586 203.833 159.816C202.585 161.045 201.872 162.717 201.848 164.468V164.502H179.447V186.914C179.57 186.906 179.693 186.902 179.818 186.902C181.585 186.902 183.281 187.604 184.531 188.854C185.78 190.104 186.483 191.799 186.483 193.567C186.483 195.335 185.78 197.03 184.531 198.28C183.281 199.53 181.585 200.232 179.818 200.232C179.686 200.232 179.57 200.232 179.447 200.22V222.632H201.851C201.851 222.673 201.851 222.713 201.851 222.754C201.838 223.637 202.001 224.514 202.331 225.333C202.66 226.153 203.149 226.899 203.769 227.527C204.389 228.156 205.128 228.656 205.943 228.996C206.757 229.337 207.632 229.513 208.515 229.513C209.398 229.513 210.272 229.337 211.087 228.996C211.902 228.656 212.64 228.156 213.26 227.527C213.88 226.899 214.369 226.153 214.699 225.333C215.028 224.514 215.191 223.637 215.179 222.754C215.179 222.713 215.179 222.673 215.179 222.632H237.583L237.578 200.22Z" fill="#A6E0FF"/>
<path d="M207.143 212.137C207.221 212.454 207.026 212.653 206.707 212.578L201.94 211.461C201.621 211.386 201.527 211.115 201.728 210.858L203.835 208.168C203.956 208.031 204.103 207.919 204.268 207.838C204.432 207.758 204.611 207.711 204.794 207.701H205.453C205.621 207.708 205.782 207.767 205.914 207.871C206.047 207.974 206.143 208.117 206.19 208.278L207.143 212.137Z" fill="#D31917"/>
<path d="M210.144 212.137C210.065 212.454 210.261 212.653 210.579 212.578L215.347 211.461C215.665 211.386 215.761 211.115 215.559 210.858L213.453 208.168C213.332 208.031 213.184 207.919 213.02 207.838C212.855 207.758 212.676 207.712 212.493 207.701H211.835C211.667 207.708 211.505 207.767 211.373 207.87C211.241 207.974 211.145 208.116 211.099 208.278L210.144 212.137Z" fill="#D31917"/>
<path d="M204.865 206.51H198.852C197.223 206.505 195.663 205.855 194.511 204.704C193.359 203.552 192.71 201.991 192.705 200.362V186.419C192.712 183.813 193.751 181.317 195.593 179.474C197.435 177.632 199.932 176.594 202.538 176.586H204.865C206.494 176.591 208.055 177.24 209.206 178.392C210.358 179.544 211.007 181.105 211.012 182.734V200.36C211.008 201.989 210.359 203.55 209.207 204.703C208.056 205.855 206.495 206.505 204.865 206.51V206.51Z" fill="#42241C"/>
<path d="M218.178 178.368H212.166C208.771 178.368 206.019 181.12 206.019 184.515V200.361C206.019 203.756 208.771 206.508 212.166 206.508H218.178C221.573 206.508 224.326 203.756 224.326 200.361V184.515C224.326 181.12 221.573 178.368 218.178 178.368Z" fill="#42241C"/>
<path d="M208.584 213.097C207.791 213.094 207.031 212.778 206.47 212.217C205.909 211.656 205.593 210.896 205.59 210.103V205.231C205.59 205.105 205.64 204.984 205.729 204.895C205.819 204.806 205.939 204.756 206.066 204.756H211.103C211.166 204.756 211.228 204.768 211.285 204.792C211.343 204.815 211.396 204.85 211.44 204.894C211.485 204.939 211.52 204.991 211.544 205.049C211.568 205.107 211.581 205.168 211.581 205.231V210.103C211.578 210.896 211.261 211.657 210.7 212.218C210.139 212.779 209.378 213.095 208.584 213.097V213.097Z" fill="#FFA86E"/>
<path d="M198.755 191.453C199.215 190.343 198.688 189.071 197.578 188.611C196.468 188.151 195.196 188.678 194.736 189.788C194.277 190.898 194.804 192.17 195.914 192.63C197.023 193.09 198.296 192.563 198.755 191.453Z" fill="#FFB380"/>
<path d="M222.543 190.616C222.543 191.047 222.415 191.468 222.176 191.826C221.937 192.184 221.597 192.462 221.2 192.627C220.802 192.792 220.364 192.835 219.942 192.751C219.52 192.667 219.132 192.46 218.828 192.155C218.523 191.851 218.316 191.463 218.232 191.041C218.148 190.619 218.191 190.181 218.356 189.784C218.521 189.386 218.8 189.046 219.157 188.807C219.515 188.568 219.936 188.44 220.367 188.44C220.944 188.44 221.497 188.669 221.906 189.078C222.314 189.486 222.543 190.039 222.543 190.616Z" fill="#FFB380"/>
<path d="M210.767 206.548H206.183C203.66 206.54 201.244 205.535 199.46 203.752C197.677 201.968 196.672 199.552 196.665 197.03V185.957C196.67 184.124 197.4 182.369 198.696 181.073C199.991 179.777 201.747 179.047 203.58 179.042H213.37C215.202 179.047 216.958 179.777 218.254 181.073C219.55 182.369 220.28 184.124 220.285 185.957V197.03C220.278 199.552 219.273 201.968 217.489 203.752C215.706 205.535 213.289 206.54 210.767 206.548V206.548Z" fill="#FFB380"/>
<path d="M211.062 175.184C206.779 175.184 205.969 174.968 204.563 178.52C203.516 177.586 202.164 177.066 200.762 177.058C197.324 177.058 195.327 180.549 195.327 184.423C195.327 187.188 195.961 189.233 198.027 190.374V187.456C198.033 185.624 198.763 183.868 200.059 182.572C201.355 181.276 203.111 180.546 204.943 180.54H212.169C214.002 180.545 215.758 181.276 217.054 182.572C218.35 183.868 219.08 185.624 219.085 187.456V189.732C221.842 188.368 223.079 182.761 221.31 180.581C219.542 178.401 216.563 175.184 211.062 175.184Z" fill="#42241C"/>
<path d="M214.108 175.121C208.646 173.089 203.266 173.998 202.094 177.151C201.355 179.134 202.34 181.414 204.619 183.427C206.21 182.465 208.361 182.006 210.575 182.006C214.76 182.006 218.294 184.069 219.43 186.896C220.615 186.369 221.482 185.566 221.875 184.51C223.048 181.356 219.571 177.152 214.108 175.121Z" fill="#42241C"/>
<path d="M204.756 181.023C205.513 182.66 204.339 184.814 202.132 185.836C199.925 186.857 197.524 186.362 196.765 184.724C196.007 183.086 197.183 180.935 199.39 179.913C201.596 178.892 203.999 179.388 204.756 181.023Z" fill="#42241C"/>
<path d="M205.358 189.656L201.506 189.872C201.321 189.882 201.14 189.819 201.001 189.695C200.863 189.572 200.779 189.399 200.768 189.214C200.758 189.029 200.822 188.848 200.945 188.709C201.068 188.571 201.241 188.488 201.426 188.476L205.279 188.259C205.464 188.249 205.645 188.313 205.783 188.436C205.921 188.56 206.005 188.733 206.016 188.917V188.917C206.026 189.102 205.962 189.284 205.839 189.422C205.715 189.56 205.543 189.645 205.358 189.656Z" fill="#42241C"/>
<path d="M215.437 189.887L211.587 189.641C211.401 189.629 211.228 189.545 211.104 189.406C210.981 189.266 210.918 189.084 210.929 188.898V188.898C210.934 188.806 210.958 188.716 210.998 188.633C211.038 188.55 211.094 188.476 211.163 188.415C211.232 188.354 211.313 188.307 211.4 188.277C211.487 188.247 211.579 188.234 211.671 188.24L215.521 188.486C215.707 188.497 215.881 188.582 216.004 188.721C216.128 188.86 216.191 189.043 216.179 189.229C216.174 189.321 216.151 189.411 216.111 189.494C216.07 189.577 216.014 189.651 215.945 189.712C215.876 189.773 215.796 189.82 215.708 189.85C215.621 189.88 215.529 189.893 215.437 189.887V189.887Z" fill="#42241C"/>
<path d="M212.726 199.631C212.577 199.617 212.428 199.662 212.312 199.756C212.196 199.851 212.122 199.987 212.106 200.136C212.095 200.228 211.817 202.405 208.474 202.405C205.131 202.405 204.854 200.228 204.844 200.14C204.827 199.993 204.753 199.86 204.638 199.767C204.523 199.675 204.377 199.631 204.23 199.644C204.084 199.658 203.948 199.728 203.852 199.84C203.757 199.952 203.708 200.097 203.717 200.244C203.717 200.276 204.07 203.535 208.474 203.535C212.879 203.535 213.229 200.275 213.233 200.244C213.246 200.095 213.2 199.948 213.105 199.833C213.01 199.719 212.874 199.646 212.726 199.631V199.631Z" fill="#FF9661"/>
<path d="M209.109 195.283H207.982C207.417 195.283 206.959 195.741 206.959 196.306V196.393C206.959 196.958 207.417 197.416 207.982 197.416H209.109C209.674 197.416 210.132 196.958 210.132 196.393V196.306C210.132 195.741 209.674 195.283 209.109 195.283Z" fill="#FFA86E"/>
<path d="M215.465 195.096H213.253C212.931 195.096 212.669 195.357 212.669 195.679V195.755C212.669 196.077 212.931 196.338 213.253 196.338H215.465C215.787 196.338 216.048 196.077 216.048 195.755V195.679C216.048 195.357 215.787 195.096 215.465 195.096Z" fill="#FF9473"/>
<path d="M204.129 195.096H201.917C201.595 195.096 201.334 195.357 201.334 195.679V195.755C201.334 196.077 201.595 196.338 201.917 196.338H204.129C204.452 196.338 204.713 196.077 204.713 195.755V195.679C204.713 195.357 204.452 195.096 204.129 195.096Z" fill="#FF9473"/>
<path d="M204.987 192.439C204.987 192.834 204.353 193.14 203.573 193.14C202.792 193.14 202.157 192.827 202.157 192.439C202.157 192.05 202.79 191.737 203.573 191.737C204.355 191.737 204.987 192.051 204.987 192.439Z" fill="#1D2733"/>
<path d="M215.151 192.439C215.151 192.834 214.518 193.14 213.736 193.14C212.954 193.14 212.322 192.827 212.322 192.439C212.322 192.05 212.955 191.737 213.736 191.737C214.517 191.737 215.151 192.051 215.151 192.439Z" fill="#1D2733"/>
<path d="M95.9794 117.506L95.9083 117.514L93.9531 95.1968L71.6413 97.1507C71.4863 95.3899 70.6381 93.7628 69.2834 92.6273C67.9287 91.4919 66.1784 90.9411 64.4176 91.0961C62.6568 91.2512 61.0297 92.0994 59.8942 93.4541C58.7588 94.8088 58.208 96.5591 58.363 98.3199L36.0473 100.269L38.0025 122.586C36.2639 122.767 34.6663 123.625 33.554 124.973C32.4417 126.321 31.9038 128.053 32.0564 129.794C32.2089 131.536 33.0395 133.148 34.3693 134.282C35.6991 135.417 37.4214 135.983 39.1651 135.86L41.1203 158.177L63.4347 156.222C63.2806 154.461 63.8321 152.711 64.9681 151.357C66.104 150.003 67.7313 149.156 69.4919 149.002C71.2526 148.848 73.0023 149.399 74.3563 150.535C75.7103 151.671 76.5576 153.299 76.7117 155.059L99.0275 153.105L97.0736 130.788H97.1447C98.906 130.634 100.534 129.786 101.67 128.431C102.806 127.076 103.358 125.326 103.203 123.564C103.049 121.803 102.201 120.175 100.846 119.039C99.4914 117.903 97.7408 117.351 95.9794 117.506V117.506Z" fill="#A6E0FF"/>
<path d="M65.7493 135.898L60.9369 136.319C58.2312 136.556 55.8113 134.396 55.5585 131.506L54.517 119.607C54.1128 114.999 57.3228 110.907 61.6506 110.529L63.5136 110.366C66.2193 110.129 68.6393 112.295 68.8921 115.18L70.2087 130.222C70.4628 133.107 68.4615 135.661 65.7493 135.898Z" fill="#292D36"/>
<path d="M76.1943 134.983L71.1016 135.429C68.2392 135.68 65.6823 133.441 65.4203 130.454L64.1945 116.453C63.9312 113.465 66.0615 110.816 68.9239 110.566L74.0166 110.12C76.879 109.868 79.4359 112.108 79.6979 115.095L80.9237 129.096C81.1857 132.082 79.0567 134.733 76.1943 134.983Z" fill="#292D36"/>
<path d="M69.1754 145.078C68.4159 145.142 67.6617 144.903 67.0778 144.413C66.4938 143.923 66.1275 143.222 66.0589 142.463L65.6508 137.794C65.6409 137.674 65.6789 137.554 65.7566 137.462C65.8342 137.37 65.9453 137.311 66.0655 137.3L70.8857 136.878C71.0062 136.868 71.1257 136.906 71.2184 136.984C71.3111 137.061 71.3694 137.172 71.3808 137.293L71.7889 141.961C71.8533 142.721 71.6145 143.475 71.1249 144.059C70.6352 144.642 69.9343 145.009 69.1754 145.078V145.078Z" fill="#FFA86E"/>
<path d="M58.0446 124.377C58.0808 124.789 57.994 125.203 57.7952 125.566C57.5963 125.928 57.2944 126.224 56.9276 126.415C56.5608 126.606 56.1456 126.684 55.7345 126.639C55.3234 126.594 54.9348 126.428 54.618 126.162C54.3011 125.896 54.0702 125.543 53.9545 125.146C53.8388 124.748 53.8434 124.326 53.9678 123.932C54.0921 123.537 54.3307 123.188 54.6533 122.93C54.9759 122.671 55.368 122.513 55.78 122.478C56.3322 122.429 56.8809 122.602 57.3056 122.959C57.7303 123.315 57.9961 123.825 58.0446 124.377V124.377Z" fill="#FFB380"/>
<path d="M80.6499 122.397C80.6864 122.809 80.5998 123.223 80.4011 123.586C80.2025 123.948 79.9007 124.244 79.534 124.435C79.1672 124.627 78.752 124.705 78.3408 124.66C77.9296 124.615 77.5409 124.45 77.2239 124.184C76.907 123.918 76.6759 123.564 76.5601 123.167C76.4442 122.77 76.4487 122.348 76.5731 121.953C76.6974 121.559 76.9359 121.21 77.2585 120.951C77.5811 120.692 77.9732 120.535 78.3853 120.499C78.6586 120.475 78.9341 120.505 79.1958 120.587C79.4576 120.669 79.7005 120.803 79.9108 120.979C80.1211 121.155 80.2946 121.371 80.4214 121.615C80.5482 121.858 80.6259 122.124 80.6499 122.397V122.397Z" fill="#FFB380"/>
<path d="M68.5223 138.821C62.9358 139.311 57.9194 134.625 57.3757 128.408L56.8319 122.198C56.4066 117.352 59.6232 113.074 63.9786 112.694L68.4552 112.299C72.8106 111.917 76.7211 115.57 77.145 120.417L77.6888 126.628C78.2339 132.845 74.1089 138.331 68.5223 138.821Z" fill="#FFB380"/>
<path d="M63.3878 109.024C67.4865 108.665 68.2436 108.391 69.8867 111.672C70.811 110.692 72.061 110.084 73.4022 109.96C76.6938 109.672 78.8952 112.846 79.2204 116.554C79.4521 119.203 79.0163 121.21 77.1348 122.479L76.8886 119.671C76.7297 117.917 75.8835 116.298 74.5348 115.167C73.1862 114.036 71.4446 113.484 69.6906 113.632L62.7756 114.238C61.0233 114.398 59.4055 115.245 58.2755 116.593C57.1454 117.942 56.5948 119.683 56.744 121.436L56.9336 123.614C54.1766 122.546 52.5229 117.28 54.0331 115.041C55.5433 112.803 58.1239 109.485 63.3878 109.024Z" fill="#292D36"/>
<path d="M60.4675 109.219C65.5247 106.818 70.7478 107.236 72.1355 110.155C73.0072 111.991 72.2567 114.255 70.2448 116.372C68.6412 115.582 66.5451 115.327 64.4253 115.513C60.4201 115.863 57.2101 118.133 56.3609 120.935C55.1838 120.53 54.2858 119.834 53.8211 118.854C52.4333 115.935 55.4103 111.618 60.4675 109.219Z" fill="#292D36"/>
<path d="M70.0277 115.022C69.4102 117.597 70.9967 120.778 73.5681 122.131C76.1395 123.485 78.732 122.484 79.3429 119.913C79.9538 117.341 78.3739 114.155 75.8011 112.803C73.2284 111.451 70.6439 112.448 70.0277 115.022Z" fill="#292D36"/>
<path d="M64.1235 122.916L60.4554 123.443C60.2791 123.468 60.1002 123.422 59.9576 123.315C59.8151 123.209 59.7204 123.05 59.6944 122.874V122.874C59.6699 122.698 59.7158 122.519 59.8223 122.377C59.9288 122.234 60.0872 122.139 60.2632 122.113L63.9313 121.586C64.1076 121.561 64.2867 121.607 64.4294 121.713C64.572 121.82 64.6666 121.979 64.6923 122.155C64.7172 122.331 64.6714 122.51 64.5648 122.653C64.4582 122.795 64.2996 122.89 64.1235 122.916Z" fill="#292D36"/>
<path d="M73.7888 122.292L70.0838 122.379C69.9054 122.382 69.733 122.315 69.6041 122.192C69.4753 122.068 69.4006 121.899 69.3965 121.721V121.721C69.3944 121.632 69.4098 121.544 69.4418 121.462C69.4738 121.379 69.5217 121.304 69.5829 121.24C69.644 121.176 69.7172 121.125 69.7982 121.09C69.8792 121.054 69.9664 121.035 70.0548 121.033L73.7598 120.946C73.8482 120.944 73.9361 120.96 74.0184 120.992C74.1008 121.024 74.176 121.072 74.2399 121.133C74.3037 121.194 74.3549 121.267 74.3904 121.348C74.426 121.429 74.4452 121.516 74.4471 121.605C74.4492 121.693 74.4338 121.781 74.4019 121.863C74.3699 121.946 74.3219 122.021 74.2608 122.085C74.1996 122.149 74.1264 122.2 74.0454 122.236C73.9644 122.271 73.8772 122.29 73.7888 122.292V122.292Z" fill="#292D36"/>
<path d="M71.6214 132.068C71.4922 132.067 71.3677 132.117 71.2748 132.207C71.1819 132.297 71.1282 132.419 71.125 132.549C71.125 132.629 71.0474 134.524 68.1705 134.776C65.2936 135.029 64.8894 133.175 64.8789 133.1C64.8675 133.037 64.8437 132.977 64.809 132.923C64.7743 132.869 64.7293 132.822 64.6765 132.785C64.57 132.711 64.4384 132.683 64.3108 132.706C64.1831 132.729 64.0699 132.802 63.9959 132.908C63.922 133.015 63.8934 133.146 63.9164 133.274C63.9164 133.302 64.4681 136.082 68.2614 135.751C72.0546 135.419 72.1086 132.591 72.1086 132.556C72.1087 132.492 72.0963 132.429 72.0719 132.37C72.0475 132.31 72.0116 132.257 71.9664 132.211C71.9211 132.166 71.8673 132.13 71.8081 132.105C71.749 132.081 71.6855 132.068 71.6214 132.068V132.068Z" fill="#FE5250"/>
<path d="M68.1908 127.982L67.1139 128.077C66.5728 128.124 66.1726 128.601 66.2201 129.142L66.2272 129.224C66.2746 129.765 66.7517 130.165 67.2929 130.118L68.3697 130.023C68.9108 129.976 69.311 129.499 69.2636 128.958L69.2564 128.876C69.209 128.335 68.7319 127.935 68.1908 127.982Z" fill="#FFA86E"/>
<path d="M74.2577 127.271L72.1395 127.457C71.8316 127.484 71.604 127.756 71.631 128.064L71.6376 128.138C71.6646 128.446 71.9361 128.674 72.244 128.647L74.3622 128.461C74.6701 128.434 74.8977 128.162 74.8707 127.854L74.8641 127.78C74.8371 127.472 74.5656 127.244 74.2577 127.271Z" fill="#FF9473"/>
<path d="M63.4109 128.223L61.2926 128.408C60.9847 128.435 60.757 128.707 60.7839 129.015L60.7905 129.089C60.8174 129.397 61.0888 129.625 61.3967 129.598L63.515 129.413C63.8228 129.386 64.0506 129.114 64.0236 128.806L64.0171 128.732C63.9902 128.424 63.7188 128.196 63.4109 128.223Z" fill="#FF9473"/>
<path d="M64.0023 125.61C64.0234 125.855 63.4349 126.106 62.6857 126.172C61.9365 126.238 61.3138 126.092 61.2927 125.847C61.2716 125.602 61.8602 125.351 62.6093 125.285C63.3585 125.219 63.9852 125.365 64.0023 125.61Z" fill="#1D2733"/>
<path d="M73.7283 124.758C73.7494 125.003 73.1608 125.254 72.4117 125.32C71.6625 125.386 71.0397 125.24 71.0187 124.995C70.9976 124.75 71.5861 124.499 72.3353 124.433C73.0845 124.367 73.7072 124.513 73.7283 124.758Z" fill="#1D2733"/>
<path d="M58.2485 118.059L54.9701 113.413C54.8309 113.215 54.7758 112.971 54.8168 112.733C54.8578 112.496 54.9915 112.284 55.1886 112.145V112.145C55.3858 112.006 55.6301 111.95 55.8679 111.991C56.1056 112.032 56.3174 112.166 56.4566 112.363L59.7363 117.016C59.8051 117.114 59.8541 117.224 59.8803 117.341C59.9065 117.457 59.9094 117.578 59.889 117.696C59.8686 117.814 59.8252 117.926 59.7613 118.027C59.6973 118.128 59.6141 118.215 59.5164 118.284V118.284C59.4184 118.353 59.3079 118.401 59.1911 118.427C59.0743 118.453 58.9536 118.455 58.8358 118.435C58.718 118.414 58.6055 118.37 58.5048 118.305C58.404 118.241 58.3169 118.157 58.2485 118.059V118.059Z" fill="#3ABB78"/>
<path d="M60.8253 116.379L57.5468 111.734C57.4077 111.537 57.3525 111.292 57.3935 111.055C57.4345 110.817 57.5683 110.605 57.7654 110.466V110.466C57.9625 110.327 58.2068 110.272 58.4446 110.313C58.6824 110.354 58.8942 110.487 59.0333 110.684L62.3118 115.33C62.451 115.527 62.5062 115.771 62.4652 116.009C62.4242 116.247 62.2904 116.459 62.0932 116.599V116.599C61.9955 116.668 61.8852 116.717 61.7686 116.743C61.652 116.769 61.5314 116.772 61.4137 116.751C61.2959 116.731 61.1834 116.688 61.0824 116.624C60.9815 116.56 60.8941 116.477 60.8253 116.379V116.379Z" fill="#3ABB78"/>
<path d="M69.7783 145.217C69.91 145.481 69.6466 145.686 69.1792 145.661L62.1576 145.286C61.6889 145.261 61.5295 145.034 61.8021 144.783L64.6592 142.15C64.9331 141.898 65.544 141.659 66.0193 141.623L66.9765 141.54C67.4518 141.498 67.9534 141.684 68.093 141.952L69.7783 145.217Z" fill="#148C66"/>
<path d="M69.0569 145.28C68.9647 145.57 69.2715 145.719 69.7389 145.612L76.7395 144.007C77.2069 143.901 77.328 143.649 77.0028 143.45L73.6651 141.358C73.3465 141.159 72.6882 141.03 72.2023 141.072L71.2241 141.158C70.7382 141.2 70.2656 141.471 70.1708 141.761L69.0569 145.28Z" fill="#3ABB78"/>
<path d="M240.494 59.9754C238.807 59.7512 237.269 58.8899 236.197 57.5682C235.125 56.2465 234.599 54.5646 234.727 52.8675C234.855 51.1703 235.628 49.5866 236.887 48.4412C238.146 47.2958 239.795 46.6755 241.497 46.7076L243.186 24.3589L220.849 22.671C220.983 20.9076 220.41 19.1634 219.258 17.8221C218.105 16.4809 216.467 15.6524 214.703 15.519C212.94 15.3856 211.196 15.9582 209.854 17.1108C208.513 18.2634 207.685 19.9017 207.551 21.6651L185.221 19.9798L183.536 42.3245C183.66 42.3245 183.782 42.3324 183.907 42.3416C185.671 42.475 187.309 43.3034 188.461 44.6447C189.614 45.986 190.187 47.7302 190.053 49.4936C189.92 51.257 189.091 52.8952 187.75 54.0479C186.409 55.2005 184.665 55.7731 182.901 55.6397C182.777 55.6305 182.655 55.616 182.533 55.6002L180.843 77.9475L203.184 79.6368C203.184 79.6881 203.172 79.7395 203.168 79.7921C203.102 80.6653 203.209 81.5429 203.482 82.3748C203.755 83.2068 204.19 83.9768 204.761 84.6408C205.331 85.3049 206.027 85.85 206.809 86.2451C207.59 86.6402 208.442 86.8775 209.315 86.9435C211.078 87.0767 212.823 86.5039 214.164 85.3512C214.828 84.7804 215.373 84.0844 215.768 83.303C216.163 82.5215 216.4 81.6699 216.466 80.7967C216.466 80.7454 216.466 80.6927 216.474 80.6414L238.815 82.3306L240.494 59.9754Z" fill="#A6E0FF"/>
<path d="M210.527 71.2444C209.691 71.1788 208.915 70.7851 208.369 70.1494C207.822 69.5137 207.55 68.6876 207.61 67.8515L208.005 62.7166C208.016 62.5841 208.078 62.4611 208.179 62.3744C208.279 62.2878 208.41 62.2446 208.543 62.2544L213.85 62.6494C213.983 62.6602 214.106 62.7227 214.192 62.8235C214.279 62.9243 214.323 63.0552 214.314 63.1879L213.919 68.3228C213.854 69.1591 213.461 69.9358 212.825 70.4832C212.19 71.0307 211.363 71.3043 210.527 71.2444V71.2444Z" fill="#FFA86E"/>
<path d="M202.133 46.7945C202.099 47.2479 201.931 47.681 201.651 48.039C201.371 48.3971 200.991 48.664 200.559 48.806C200.127 48.948 199.663 48.9587 199.225 48.8368C198.787 48.7149 198.394 48.4658 198.098 48.1211C197.802 47.7764 197.614 47.3515 197.559 46.9001C197.504 46.4488 197.584 45.9913 197.789 45.5854C197.994 45.1796 198.315 44.8437 198.711 44.6202C199.107 44.3967 199.56 44.2956 200.014 44.3297C200.621 44.3758 201.186 44.6613 201.583 45.1235C201.981 45.5856 202.179 46.1866 202.133 46.7945Z" fill="#FFB380"/>
<path d="M227.019 48.6824C226.985 49.1358 226.817 49.569 226.537 49.927C226.256 50.2851 225.876 50.552 225.444 50.6939C225.012 50.8358 224.548 50.8465 224.11 50.7244C223.672 50.6024 223.28 50.3532 222.983 50.0084C222.687 49.6635 222.499 49.2385 222.444 48.7871C222.39 48.3357 222.47 47.8781 222.675 47.4724C222.88 47.0666 223.201 46.7308 223.597 46.5074C223.994 46.2841 224.447 46.1832 224.9 46.2176C225.508 46.2641 226.072 46.5497 226.469 47.0118C226.867 47.4739 227.064 48.0747 227.019 48.6824Z" fill="#FFB380"/>
<path d="M213.344 64.5204L208.515 64.1557C205.858 63.9467 203.392 62.6949 201.655 60.6738C199.918 58.6527 199.052 56.0264 199.245 53.3684L200.125 41.7043C200.277 39.7743 201.186 37.9827 202.655 36.7209C204.123 35.459 206.031 34.8295 207.962 34.9697L218.277 35.7492C220.206 35.9013 221.997 36.8106 223.259 38.2786C224.52 39.7465 225.15 41.654 225.01 43.5845L224.128 55.2499C223.919 57.9062 222.668 60.3721 220.648 62.109C218.628 63.846 216.002 64.7129 213.344 64.5204V64.5204Z" fill="#FFB380"/>
<path d="M223.515 41.491L222.751 51.5844C222.301 57.5356 217.5 56.2637 211.549 55.8147C205.599 55.3645 200.662 55.899 201.111 49.9491L201.874 39.8544L200.398 39.7425C200.33 39.7385 200.263 39.7613 200.211 39.806C200.159 39.8507 200.126 39.9139 200.12 39.9822L198.747 58.1518C198.26 64.5928 203.519 65.1458 209.96 65.6329L211.645 65.7646C218.086 66.2518 223.363 66.4953 223.854 60.0543L225.247 41.6214L223.515 41.491Z" fill="#44251B"/>
<path d="M207.59 49.2C207.528 50.0242 207.076 50.6614 206.582 50.6233C206.089 50.5851 205.738 49.8886 205.8 49.0657C205.862 48.2428 206.314 47.6055 206.808 47.6424C207.301 47.6793 207.651 48.3771 207.59 49.2Z" fill="#1D2733"/>
<path d="M218.295 50.0097C218.232 50.8339 217.782 51.4711 217.288 51.4329C216.794 51.3948 216.444 50.6983 216.506 49.8754C216.568 49.0525 217.019 48.4139 217.513 48.4521C218.007 48.4902 218.36 49.1867 218.295 50.0097Z" fill="#1D2733"/>
<path d="M208.992 46.2915L204.917 46.2138C204.721 46.2093 204.535 46.1276 204.399 45.9865C204.264 45.8455 204.189 45.6564 204.192 45.4607V45.4607C204.196 45.265 204.278 45.0789 204.419 44.9431C204.56 44.8073 204.749 44.733 204.944 44.7366L209.026 44.8143C209.222 44.8187 209.408 44.9005 209.543 45.0415C209.679 45.1826 209.753 45.3717 209.75 45.5674V45.5674C209.748 45.6648 209.727 45.7608 209.687 45.85C209.648 45.9392 209.592 46.0197 209.521 46.087C209.451 46.1543 209.368 46.207 209.277 46.2421C209.186 46.2772 209.089 46.294 208.992 46.2915V46.2915Z" fill="#44251B"/>
<path d="M219.592 47.3382L215.555 46.772C215.362 46.744 215.187 46.6405 215.069 46.4841C214.952 46.3277 214.901 46.1311 214.927 45.9373V45.9373C214.955 45.7435 215.058 45.5684 215.214 45.4505C215.37 45.3325 215.567 45.2813 215.761 45.3079L219.797 45.8754C219.991 45.9031 220.166 46.0065 220.284 46.1629C220.402 46.3194 220.453 46.5161 220.427 46.7101V46.7101C220.399 46.9038 220.295 47.0785 220.139 47.1962C219.982 47.3138 219.786 47.3649 219.592 47.3382V47.3382Z" fill="#44251B"/>
<path d="M215.845 58.1123C215.845 58.1123 215.292 61.0024 211.205 60.6929C207.118 60.3835 207.008 57.4435 207.008 57.4435L215.845 58.1123Z" fill="white"/>
<path d="M210.14 53.422L210.133 53.5126C210.088 54.1079 210.534 54.6269 211.13 54.6719L212.317 54.7615C212.912 54.8065 213.431 54.3604 213.476 53.7651L213.483 53.6745C213.528 53.0792 213.082 52.5601 212.486 52.5152L211.299 52.4255C210.704 52.3805 210.185 52.8267 210.14 53.422Z" fill="#FFA86E"/>
<path d="M215.929 52.8952L215.923 52.9766C215.897 53.316 216.151 53.6118 216.491 53.6374L218.821 53.813C219.16 53.8386 219.456 53.5842 219.482 53.2449L219.488 53.1635C219.514 52.8241 219.259 52.5283 218.92 52.5027L216.589 52.3271C216.25 52.3015 215.954 52.5559 215.929 52.8952Z" fill="#FF9473"/>
<path d="M204.926 51.6694L204.919 51.751C204.892 52.0913 205.146 52.3893 205.486 52.4165L207.823 52.6034C208.164 52.6307 208.462 52.3769 208.489 52.0366L208.495 51.9549C208.523 51.6146 208.269 51.3167 207.928 51.2894L205.591 51.1025C205.251 51.0753 204.953 51.3291 204.926 51.6694Z" fill="#FF9473"/>
<path d="M211.24 31.1278C215.752 31.4688 216.622 31.3069 217.823 35.1594C219 34.2595 220.465 33.8195 221.944 33.9217C225.565 34.1956 227.391 38.0336 227.079 42.1152C226.858 45.0315 226.025 47.1316 223.759 48.1717L223.993 45.0921C224.133 43.1612 223.503 41.2532 222.241 39.7849C220.98 38.3166 219.188 37.4072 217.258 37.2555L209.644 36.6801C207.713 36.5406 205.806 37.1707 204.338 38.4327C202.87 39.6947 201.961 41.4862 201.81 43.416L201.629 45.8136C198.834 44.1573 197.977 38.1521 200.014 35.9967C202.051 33.8414 205.444 30.6894 211.24 31.1278Z" fill="#44251B"/>
<path d="M217.417 37.7821C216.495 39.445 217.555 41.8084 219.799 43.0605C222.042 44.3126 224.614 43.9822 225.542 42.3179C226.47 40.6537 225.41 38.2916 223.16 37.0395C220.91 35.7874 218.345 36.1205 217.417 37.7821Z" fill="#44251B"/>
<path d="M201.768 42.4258L201.693 42.2547C201.852 40.1481 203.986 38.5681 206.094 38.7327L218.185 39.6464C220.119 37.8611 221.068 35.7781 220.531 33.9138C219.548 30.4997 213.948 29.1133 208.035 30.8184C202.122 32.5234 198.119 36.6761 199.104 40.0914C199.478 41.3897 200.213 42.5417 201.683 43.1948C201.652 42.9433 201.748 42.6879 201.768 42.4258Z" fill="#44251B"/>
<path d="M206.158 67.8266C206.05 69.2564 208.02 70.5731 210.559 70.764C213.097 70.9549 215.243 69.9516 215.351 68.5257C215.359 68.4145 215.355 68.3028 215.338 68.1926L206.222 67.5027C206.19 67.6082 206.168 67.7167 206.158 67.8266Z" fill="#FFA86E"/>
<path d="M205.129 65.5114L203.679 67.6362C203.522 67.865 203.581 68.1772 203.81 68.3334L209.245 72.0436C209.474 72.1998 209.786 72.1409 209.942 71.9121L211.393 69.7873C211.549 69.5585 211.49 69.2464 211.261 69.0902L205.826 65.3799C205.597 65.2237 205.285 65.2826 205.129 65.5114Z" fill="#1D9E92"/>
<path d="M215.819 66.1326L209.889 68.9843C209.639 69.1043 209.534 69.4041 209.654 69.6538L210.769 71.9724C210.889 72.222 211.189 72.3271 211.439 72.2071L217.369 69.3554C217.619 69.2354 217.724 68.9356 217.604 68.6859L216.489 66.3673C216.369 66.1177 216.069 66.0126 215.819 66.1326Z" fill="#148C66"/>
<path d="M211.545 69.999C211.536 70.1226 211.49 70.2405 211.413 70.338C211.337 70.4355 211.233 70.5082 211.115 70.5467C210.998 70.5853 210.871 70.5881 210.752 70.5548C210.632 70.5215 210.526 70.4536 210.445 70.3596C210.364 70.2656 210.313 70.1498 210.298 70.0268C210.283 69.9038 210.305 69.7791 210.361 69.6685C210.417 69.5579 210.504 69.4664 210.612 69.4054C210.72 69.3445 210.843 69.3169 210.967 69.3262C211.049 69.3324 211.129 69.3547 211.203 69.3918C211.276 69.429 211.342 69.4803 211.396 69.5428C211.449 69.6053 211.49 69.6777 211.516 69.756C211.541 69.8343 211.551 69.9169 211.545 69.999V69.999Z" fill="#CCD0D6"/>
<path d="M223.825 46.6339L213.136 45.9176H213.047L211.23 45.7952L200.458 45.0723C200.332 45.064 200.208 45.1059 200.113 45.1889C200.018 45.2718 199.96 45.389 199.952 45.5147C199.864 46.9386 200.298 48.3458 201.172 49.4736C202.045 50.6013 203.3 51.3724 204.7 51.643C206.101 51.9136 207.553 51.6651 208.784 50.9439C210.014 50.2227 210.941 49.0782 211.39 47.724L212.633 47.807C212.897 49.2086 213.662 50.4662 214.785 51.3452C215.908 52.2242 217.313 52.6645 218.737 52.5839C220.161 52.5033 221.507 51.9073 222.523 50.9072C223.54 49.9071 224.158 48.5711 224.262 47.1487C224.268 47.0861 224.261 47.023 224.242 46.9631C224.223 46.9032 224.192 46.8477 224.152 46.7998C224.111 46.7519 224.061 46.7125 224.005 46.684C223.949 46.6556 223.888 46.6385 223.825 46.6339V46.6339ZM205.49 50.7813C204.273 50.7027 203.129 50.1751 202.28 49.3007C201.43 48.4264 200.936 47.2676 200.892 46.0493L210.669 46.7076C210.463 47.9082 209.819 48.9896 208.861 49.7422C207.903 50.4948 206.7 50.8651 205.485 50.7813H205.49ZM218.08 51.6266C216.941 51.5513 215.864 51.083 215.032 50.3015C214.201 49.52 213.667 48.4739 213.521 47.3422L213.552 46.8972L223.264 47.5489C223.059 48.7511 222.414 49.834 221.455 50.5875C220.496 51.341 219.291 51.7113 218.074 51.6266H218.08Z" fill="#292D36"/>
<path d="M168.921 47.2657C168.79 47.2657 168.67 47.2657 168.546 47.2763V24.8657H146.143C146.119 26.6169 145.406 28.2881 144.159 29.5178C142.912 30.7475 141.231 31.4369 139.479 31.4369C137.728 31.4369 136.047 30.7475 134.8 29.5178C133.553 28.2881 132.84 26.6169 132.815 24.8657H110.713V47.267H110.784C111.667 47.2546 112.543 47.4178 113.363 47.7472C114.182 48.0765 114.928 48.5654 115.557 49.1855C116.186 49.8055 116.685 50.5444 117.026 51.3591C117.367 52.1738 117.542 53.0481 117.542 53.9312C117.542 54.8143 117.367 55.6886 117.026 56.5034C116.685 57.3181 116.186 58.0569 115.557 58.677C114.928 59.297 114.182 59.7859 113.363 60.1153C112.543 60.4446 111.667 60.6078 110.784 60.5954H110.713V82.9954H132.814C132.814 83.0467 132.814 83.0981 132.814 83.1507C132.801 84.0338 132.965 84.9105 133.294 85.7299C133.623 86.5493 134.112 87.2951 134.732 87.9239C135.352 88.5528 136.091 89.0521 136.906 89.3929C137.721 89.7337 138.595 89.9093 139.478 89.9093C140.361 89.9093 141.235 89.7337 142.05 89.3929C142.865 89.0521 143.604 88.5528 144.224 87.9239C144.844 87.2951 145.333 86.5493 145.662 85.7299C145.991 84.9105 146.155 84.0338 146.142 83.1507C146.142 83.0981 146.142 83.0467 146.142 82.9954H168.539V60.5835C168.663 60.5901 168.788 60.5941 168.915 60.5941C170.666 60.5695 172.337 59.8565 173.567 58.6094C174.797 57.3623 175.486 55.6813 175.486 53.9299C175.486 52.1785 174.797 50.4975 173.567 49.2504C172.337 48.0033 170.666 47.2903 168.915 47.2657H168.921Z" fill="#A6E0FF"/>
<path d="M148.633 41.8123H129.869C128.31 41.8123 127.046 43.0761 127.046 44.6351V71.0877C127.046 72.6468 128.31 73.9106 129.869 73.9106H148.633C150.192 73.9106 151.456 72.6468 151.456 71.0877V44.6351C151.456 43.0761 150.192 41.8123 148.633 41.8123Z" fill="#1D2733"/>
<path d="M149.916 51.2961C151.013 51.2961 151.902 50.4066 151.902 49.3093C151.902 48.212 151.013 47.3225 149.916 47.3225C148.818 47.3225 147.929 48.212 147.929 49.3093C147.929 50.4066 148.818 51.2961 149.916 51.2961Z" fill="#FFB380"/>
<path d="M139.014 63.8582C136.155 63.8498 133.416 62.7106 131.395 60.6894C129.374 58.6683 128.235 55.9293 128.226 53.0709V47.146C128.233 44.9175 129.121 42.7821 130.696 41.2062C132.272 39.6302 134.407 38.742 136.636 38.7354H141.392C143.62 38.742 145.755 39.6302 147.331 41.2062C148.907 42.7821 149.795 44.9175 149.801 47.146V53.0709C149.793 55.9293 148.653 58.6683 146.632 60.6894C144.611 62.7106 141.872 63.8498 139.014 63.8582V63.8582Z" fill="#FFB380"/>
<path d="M135.189 51.0235C135.189 51.7372 134.841 52.3152 134.413 52.3152C133.985 52.3152 133.638 51.7358 133.639 51.0222C133.64 50.3086 133.987 49.7306 134.415 49.7306C134.843 49.7306 135.19 50.3099 135.189 51.0235Z" fill="#1D2733"/>
<path d="M144.473 51.0315C144.473 51.7451 144.125 52.3231 143.697 52.3231C143.269 52.3231 142.922 51.7438 142.922 51.0301C142.922 50.3165 143.271 49.7385 143.698 49.7385C144.126 49.7385 144.474 50.3178 144.473 51.0315Z" fill="#1D2733"/>
<path d="M136.445 47.5805L132.482 48.1809C132.43 48.1889 132.378 48.1866 132.327 48.1742C132.276 48.1618 132.229 48.1394 132.187 48.1085C132.145 48.0775 132.109 48.0385 132.082 47.9938C132.056 47.949 132.038 47.8994 132.03 47.8478V47.8478C132.023 47.7964 132.025 47.744 132.037 47.6936C132.05 47.6431 132.072 47.5956 132.103 47.5538C132.134 47.512 132.172 47.4766 132.217 47.4498C132.261 47.423 132.311 47.4052 132.362 47.3975L136.325 46.7971C136.377 46.7891 136.429 46.7913 136.48 46.8036C136.53 46.816 136.578 46.8382 136.62 46.869C136.662 46.8999 136.698 46.9387 136.724 46.9833C136.751 47.0279 136.769 47.0774 136.777 47.1289V47.1289C136.785 47.1803 136.783 47.2329 136.77 47.2835C136.758 47.3341 136.736 47.3817 136.705 47.4237C136.674 47.4657 136.635 47.5012 136.591 47.5281C136.546 47.555 136.497 47.5728 136.445 47.5805V47.5805Z" fill="#1D2733"/>
<path d="M142.375 47.5858L146.337 48.1927C146.388 48.2008 146.441 48.1986 146.491 48.1862C146.542 48.1739 146.59 48.1516 146.632 48.1208C146.674 48.09 146.709 48.0511 146.736 48.0065C146.763 47.9619 146.781 47.9125 146.788 47.8609V47.8609C146.796 47.8095 146.794 47.7569 146.782 47.7063C146.77 47.6557 146.747 47.6081 146.716 47.5661C146.686 47.5241 146.647 47.4887 146.602 47.4618C146.558 47.4349 146.508 47.417 146.457 47.4093L142.495 46.801C142.443 46.7928 142.39 46.795 142.34 46.8073C142.289 46.8196 142.241 46.8419 142.199 46.8729C142.157 46.9039 142.121 46.943 142.094 46.9878C142.067 47.0327 142.049 47.0824 142.042 47.1342V47.1342C142.034 47.1857 142.036 47.2383 142.049 47.289C142.061 47.3397 142.083 47.3874 142.114 47.4294C142.145 47.4714 142.184 47.5068 142.229 47.5337C142.274 47.5605 142.323 47.5782 142.375 47.5858V47.5858Z" fill="#1D2733"/>
<path d="M139.631 53.5674H138.603C138.087 53.5674 137.668 53.9859 137.668 54.5022V54.5799C137.668 55.0962 138.087 55.5147 138.603 55.5147H139.631C140.148 55.5147 140.566 55.0962 140.566 54.5799V54.5022C140.566 53.9859 140.148 53.5674 139.631 53.5674Z" fill="#FFA86E"/>
<path d="M145.436 53.4014H143.415C143.121 53.4014 142.883 53.6395 142.883 53.9333V54.0044C142.883 54.2982 143.121 54.5363 143.415 54.5363H145.436C145.73 54.5363 145.968 54.2982 145.968 54.0044V53.9333C145.968 53.6395 145.73 53.4014 145.436 53.4014Z" fill="#FF9473"/>
<path d="M135.084 53.3922H133.063C132.769 53.3922 132.531 53.6304 132.531 53.9241V53.9952C132.531 54.289 132.769 54.5272 133.063 54.5272H135.084C135.377 54.5272 135.616 54.289 135.616 53.9952V53.9241C135.616 53.6304 135.377 53.3922 135.084 53.3922Z" fill="#FF9473"/>
<path d="M135.639 57.986L135.708 57.9662C135.993 57.8991 136.321 58.2006 136.53 58.5403C137.626 60.3704 140.392 60.373 141.49 58.5403C141.701 58.1992 142.029 57.8977 142.314 57.9662L142.383 57.986C142.667 58.0505 142.765 58.6337 142.458 59.1406C140.931 61.687 137.085 61.6831 135.561 59.1406C135.256 58.6311 135.355 58.0492 135.639 57.986Z" fill="#FE5250"/>
<path d="M141.017 33.9494C139.867 33.9499 138.726 34.1412 137.639 34.5155C136.191 34.8671 135.019 35.8822 133.911 37.291C133.307 37.0472 132.661 36.9216 132.01 36.921C128.869 36.921 127.046 40.1112 127.046 43.649C127.046 46.177 127.422 53.7306 128.341 53.3922C133.637 51.0222 135.633 43.1724 135.75 43.2238C136.349 44.6836 137.307 45.9687 138.535 46.96C139.762 47.9513 141.22 48.6168 142.774 48.8948C144.327 49.1729 145.925 49.0545 147.421 48.5506C148.916 48.0468 150.26 47.1738 151.329 46.0124C151.564 44.5222 151.473 42.9988 151.063 41.5469C150.653 40.0951 149.933 38.7494 148.953 37.6024C147.973 36.4555 146.756 35.5345 145.386 34.903C144.016 34.2714 142.525 33.9443 141.017 33.9441V33.9494Z" fill="#1D2733"/>
<path d="M139.014 63.8581C138.139 63.8581 137.267 63.7507 136.419 63.5382V67.1036C136.419 67.8289 136.707 68.5245 137.22 69.0373C137.733 69.5502 138.428 69.8383 139.153 69.8383C139.879 69.8383 140.574 69.5502 141.087 69.0373C141.6 68.5245 141.888 67.8289 141.888 67.1036V63.4631C140.952 63.7248 139.985 63.8577 139.014 63.8581Z" fill="#FFA86E"/>
<path d="M142.354 64.9313H136.043V67.8002H142.354V64.9313Z" fill="#927DD3"/>
<path d="M134.895 66.4769H143.285C143.285 66.4769 144.577 71.1971 139.124 71.1971C133.672 71.1971 134.895 66.4769 134.895 66.4769Z" fill="#9F85DC"/>
<path d="M310.561 188.764C310.451 188.777 310.341 188.793 310.232 188.813L307.536 166.561L285.296 169.258C285.296 169.246 285.296 169.235 285.296 169.224C285.07 167.48 284.164 165.896 282.776 164.818C281.388 163.739 279.63 163.252 277.884 163.464C276.139 163.676 274.548 164.568 273.458 165.948C272.368 167.327 271.867 169.081 272.064 170.829C272.064 170.839 272.064 170.851 272.064 170.861L249.825 173.558L252.522 195.809C250.84 196.102 249.334 197.03 248.315 198.401C247.296 199.772 246.843 201.482 247.049 203.178C247.254 204.873 248.103 206.425 249.42 207.513C250.737 208.601 252.421 209.142 254.125 209.024L256.823 231.275L279.063 228.579C279.063 228.62 279.063 228.659 279.075 228.7C279.303 230.442 280.21 232.023 281.597 233.1C282.985 234.177 284.742 234.663 286.486 234.451C288.229 234.24 289.819 233.349 290.909 231.972C292 230.594 292.502 228.842 292.307 227.096C292.307 227.056 292.296 227.016 292.289 226.975L314.53 224.279L311.832 202.028C311.942 202.02 312.053 202.009 312.164 201.996C313.038 201.897 313.884 201.626 314.653 201.199C315.422 200.772 316.099 200.196 316.645 199.506C317.19 198.816 317.594 198.024 317.832 197.177C318.07 196.33 318.138 195.444 318.032 194.571C317.926 193.697 317.648 192.854 317.214 192.088C316.781 191.322 316.2 190.65 315.505 190.111C314.81 189.571 314.015 189.174 313.166 188.943C312.318 188.711 311.431 188.651 310.559 188.764H310.561Z" fill="#A6E0FF"/>
<path d="M284.588 218.529C283.772 218.626 282.95 218.396 282.303 217.889C281.656 217.382 281.236 216.639 281.135 215.823L280.526 210.806C280.511 210.676 280.547 210.545 280.628 210.443C280.708 210.34 280.826 210.273 280.956 210.257L286.138 209.629C286.267 209.613 286.398 209.65 286.5 209.73C286.603 209.811 286.67 209.929 286.686 210.058L287.294 215.077C287.39 215.893 287.16 216.714 286.653 217.361C286.146 218.008 285.404 218.428 284.588 218.529V218.529Z" fill="#FFA86E"/>
<path d="M270.836 198.771C271.879 198.092 272.175 196.696 271.496 195.652C270.817 194.609 269.421 194.313 268.377 194.992C267.334 195.671 267.038 197.067 267.717 198.111C268.396 199.154 269.792 199.45 270.836 198.771Z" fill="#FFB380"/>
<path d="M296.143 193.671C296.197 194.114 296.118 194.562 295.916 194.96C295.715 195.357 295.4 195.686 295.012 195.905C294.624 196.124 294.179 196.223 293.735 196.189C293.29 196.155 292.866 195.991 292.515 195.716C292.164 195.441 291.902 195.068 291.763 194.644C291.625 194.221 291.614 193.765 291.734 193.336C291.854 192.907 292.098 192.522 292.436 192.232C292.774 191.941 293.191 191.758 293.634 191.704C294.227 191.632 294.825 191.799 295.296 192.168C295.766 192.537 296.071 193.077 296.143 193.671V193.671Z" fill="#FFB380"/>
<path d="M286.017 211.525L281.3 212.097C278.705 212.404 276.094 211.672 274.037 210.059C271.98 208.447 270.644 206.087 270.322 203.493L268.941 192.103C268.718 190.217 269.25 188.32 270.422 186.825C271.593 185.331 273.308 184.361 275.193 184.127L285.264 182.905C287.149 182.682 289.047 183.214 290.541 184.385C292.036 185.557 293.006 187.272 293.24 189.156L294.621 200.546C294.928 203.142 294.195 205.753 292.583 207.81C290.971 209.867 288.61 211.203 286.017 211.525V211.525Z" fill="#FFB380"/>
<path d="M277.571 198.04C277.669 198.844 277.357 199.542 276.874 199.601C276.391 199.66 275.922 199.055 275.821 198.252C275.719 197.449 276.035 196.748 276.517 196.69C276.999 196.632 277.473 197.235 277.571 198.04Z" fill="#1D2733"/>
<path d="M288.026 196.772C288.123 197.576 287.813 198.275 287.329 198.333C286.846 198.391 286.377 197.787 286.276 196.984C286.175 196.181 286.491 195.481 286.973 195.422C287.454 195.363 287.928 195.969 288.026 196.772Z" fill="#1D2733"/>
<path d="M278.346 194.822L274.411 195.526C274.222 195.56 274.027 195.517 273.87 195.407C273.712 195.297 273.605 195.129 273.571 194.94V194.94C273.537 194.751 273.58 194.557 273.69 194.399C273.799 194.242 273.967 194.134 274.155 194.099L278.092 193.396C278.281 193.363 278.476 193.406 278.633 193.515C278.791 193.625 278.898 193.793 278.932 193.982V193.982C278.966 194.171 278.923 194.365 278.813 194.523C278.703 194.68 278.535 194.788 278.346 194.822V194.822Z" fill="#1D2733"/>
<path d="M288.744 193.803L284.751 194.029C284.56 194.04 284.372 193.974 284.229 193.846C284.086 193.718 283.999 193.539 283.988 193.347V193.347C283.977 193.155 284.043 192.967 284.171 192.824C284.299 192.681 284.478 192.594 284.67 192.582L288.661 192.356C288.853 192.345 289.041 192.411 289.184 192.539C289.328 192.667 289.414 192.847 289.426 193.039V193.039C289.436 193.231 289.37 193.419 289.242 193.562C289.114 193.705 288.935 193.791 288.744 193.803V193.803Z" fill="#1D2733"/>
<path d="M287.11 204.166C287.11 204.166 287.308 208.52 283.319 209.003C279.33 209.487 278.482 205.213 278.482 205.213L282.586 204.715L287.11 204.166Z" fill="white"/>
<path d="M287.11 204.166C287.11 204.166 287.308 208.52 283.319 209.003C279.33 209.487 278.482 205.213 278.482 205.213L282.586 204.715L287.11 204.166Z" fill="white"/>
<path d="M282.895 200.16L281.736 200.301C281.155 200.371 280.741 200.899 280.811 201.481L280.822 201.569C280.893 202.151 281.421 202.565 282.002 202.494L283.161 202.354C283.742 202.283 284.156 201.755 284.086 201.174L284.075 201.085C284.005 200.504 283.477 200.09 282.895 200.16Z" fill="#FFA86E"/>
<path d="M289.414 199.168L287.138 199.444C286.807 199.484 286.571 199.785 286.611 200.117L286.621 200.195C286.661 200.526 286.962 200.762 287.293 200.722L289.569 200.447C289.9 200.406 290.136 200.105 290.096 199.774L290.087 199.695C290.046 199.364 289.745 199.128 289.414 199.168Z" fill="#FF9473"/>
<path d="M277.75 200.59L275.474 200.866C275.143 200.906 274.907 201.207 274.947 201.538L274.956 201.617C274.996 201.948 275.297 202.184 275.629 202.144L277.904 201.868C278.236 201.828 278.472 201.527 278.432 201.196L278.422 201.117C278.382 200.786 278.081 200.55 277.75 200.59Z" fill="#FF9473"/>
<path d="M282.408 179.223C278.003 179.758 277.141 179.637 276.138 183.466C274.945 182.635 273.49 182.269 272.046 182.436C268.511 182.864 266.891 186.706 267.375 190.691C267.72 193.538 268.627 195.563 270.894 196.475L270.531 193.468C270.307 191.583 270.839 189.685 272.01 188.191C273.181 186.696 274.896 185.726 276.781 185.492L284.214 184.59C286.1 184.367 287.997 184.9 289.492 186.071C290.986 187.242 291.956 188.957 292.191 190.842L292.475 193.183C295.14 191.435 295.713 185.514 293.622 183.492C291.531 181.47 288.067 178.538 282.408 179.223Z" fill="#1D2733"/>
<path d="M294.695 187.468C295.509 184.079 291.407 180.189 285.535 178.78C279.662 177.371 274.243 178.977 273.429 182.367C272.616 185.757 276.718 189.647 282.59 191.055C288.462 192.464 293.882 190.858 294.695 187.468Z" fill="#1D2733"/>
<path d="M276.65 186.017C277.634 187.605 276.694 189.967 274.551 191.294C272.409 192.622 269.875 192.408 268.89 190.82C267.905 189.233 268.848 186.871 270.996 185.545C273.145 184.219 275.668 184.428 276.65 186.017Z" fill="#1D2733"/>
<path d="M279.736 216.079C279.905 217.476 282.052 218.365 284.53 218.064C287.008 217.764 288.875 216.387 288.712 214.99C288.698 214.882 288.673 214.775 288.635 214.673L279.735 215.751C279.723 215.86 279.723 215.97 279.736 216.079V216.079Z" fill="#FFA86E"/>
<path d="M278.321 214.075L277.331 216.395C277.225 216.646 277.341 216.935 277.591 217.042L283.527 219.572C283.777 219.679 284.066 219.562 284.173 219.312L285.162 216.992C285.269 216.742 285.153 216.452 284.903 216.346L278.967 213.815C278.717 213.708 278.427 213.825 278.321 214.075Z" fill="#F2F2F2"/>
<path d="M285.656 219.294L290.816 215.419C290.92 215.34 290.988 215.224 291.007 215.094C291.025 214.965 290.991 214.834 290.913 214.729L289.394 212.712C289.315 212.608 289.199 212.539 289.07 212.521C288.941 212.503 288.81 212.537 288.705 212.615L283.545 216.491C283.441 216.57 283.373 216.686 283.354 216.815C283.336 216.944 283.37 217.075 283.448 217.18L284.963 219.197C285.002 219.249 285.051 219.293 285.107 219.326C285.163 219.359 285.225 219.381 285.289 219.39C285.354 219.399 285.419 219.395 285.482 219.379C285.545 219.362 285.604 219.334 285.656 219.294V219.294Z" fill="white"/>
<path d="M285.332 217.14C285.347 217.261 285.325 217.383 285.27 217.491C285.215 217.6 285.129 217.69 285.023 217.749C284.917 217.809 284.796 217.836 284.675 217.826C284.554 217.817 284.438 217.772 284.342 217.697C284.247 217.622 284.175 217.52 284.137 217.405C284.1 217.289 284.097 217.165 284.13 217.048C284.162 216.931 284.229 216.826 284.321 216.747C284.413 216.668 284.527 216.618 284.648 216.603C284.728 216.593 284.809 216.599 284.887 216.621C284.965 216.643 285.038 216.68 285.101 216.73C285.165 216.779 285.218 216.841 285.258 216.912C285.297 216.982 285.323 217.06 285.332 217.14V217.14Z" fill="#CCD0D6"/>
<path d="M39.023 63.7054L40.5029 86.0593L62.8581 84.5807C62.7869 82.8439 63.3974 81.1481 64.5593 79.8551C65.7211 78.5622 67.3423 77.7745 69.0768 77.6602C70.8113 77.546 72.5218 78.1142 73.8432 79.2435C75.1646 80.3729 75.9923 81.974 76.1496 83.7052L98.5048 82.2253L97.0328 59.874C97.0565 59.874 97.0815 59.874 97.1052 59.874C98.8439 59.7248 100.455 58.8997 101.592 57.5758C102.729 56.2519 103.301 54.535 103.186 52.7937C103.071 51.0524 102.277 49.4258 100.976 48.2632C99.6743 47.1006 97.9689 46.4948 96.2257 46.5759L96.1533 46.5825L94.6629 24.218L72.3155 25.6979C72.2743 24.8127 72.057 23.9446 71.6763 23.1443C71.2955 22.3441 70.759 21.6278 70.0981 21.0374C69.4373 20.447 68.6653 19.9943 67.8273 19.7059C66.9894 19.4174 66.1023 19.2989 65.2181 19.3574C64.3338 19.4159 63.4701 19.6502 62.6774 20.0465C61.8848 20.4428 61.1791 20.9932 60.6017 21.6655C60.0244 22.3378 59.5869 23.1185 59.3148 23.9619C59.0428 24.8053 58.9417 25.6945 59.0175 26.5775L36.6649 28.056L38.1434 50.41C36.38 50.5266 34.7351 51.339 33.5707 52.6684C32.4062 53.9978 31.8175 55.7353 31.9342 57.4988C32.0508 59.2622 32.8632 60.9071 34.1926 62.0715C35.522 63.236 37.2595 63.8247 39.023 63.708V63.7054Z" fill="#A6E0FF"/>
<path d="M70.0138 75.8029C77.7527 75.2903 83.4191 65.7077 82.67 54.3997C81.9209 43.0917 75.04 34.3403 67.301 34.853C59.5621 35.3657 53.8957 44.9482 54.6448 56.2562C55.3939 67.5642 62.2748 76.3156 70.0138 75.8029Z" fill="#2A384F"/>
<path d="M68.6675 76.2872C76.4234 75.7443 82.0677 66.1172 81.2744 54.7844C80.4811 43.4516 73.5506 34.7046 65.7947 35.2476C58.0389 35.7905 52.3946 45.4176 53.1879 56.7504C53.9811 68.0832 60.9116 76.8301 68.6675 76.2872Z" fill="#2A384F"/>
<path d="M68.4961 71.8449C66.8725 71.9524 65.2437 71.739 63.7026 71.2169C62.1615 70.6948 60.7383 69.8743 59.5143 68.8021C58.2903 67.73 57.2895 66.4273 56.569 64.9684C55.8486 63.5094 55.4225 61.9229 55.3152 60.2993L54.3738 45.9808C54.2664 44.3572 54.4798 42.7284 55.0018 41.1873C55.5239 39.6462 56.3445 38.223 57.4166 36.999C58.4887 35.775 59.7914 34.7742 61.2504 34.0538C62.7093 33.3333 64.2959 32.9072 65.9194 32.7999V32.7999C69.1983 32.5833 72.429 33.6779 74.9009 35.8431C77.3727 38.0083 78.8833 41.0667 79.1003 44.3456L80.047 58.664C80.1544 60.288 79.9409 61.9173 79.4185 63.4587C78.896 65.0001 78.0751 66.4235 77.0024 67.6476C75.9297 68.8716 74.6264 69.8723 73.1668 70.5925C71.7073 71.3127 70.1202 71.7383 68.4961 71.8449V71.8449Z" fill="#252A34"/>
<path d="M67.6425 59.6922C65.0506 59.856 62.4992 58.9876 60.5454 57.2765C58.5917 55.5655 57.3943 53.1509 57.2148 50.56L56.8593 45.1881C56.7317 43.1665 57.4096 41.1767 58.7449 39.6534C60.0801 38.1302 61.964 37.1975 63.9849 37.0592L68.2956 36.7735C72.4891 36.4957 76.2389 41.0394 76.5154 45.2329L76.7787 49.2658C76.9424 51.8582 76.0734 54.41 74.3615 56.3637C72.6496 58.3174 70.234 59.5141 67.6425 59.6922V59.6922Z" fill="#FFB380"/>
<path d="M70.0781 45.6173L70.0544 45.5712C69.9517 45.3803 70.1124 45.092 70.427 44.9946C71.1331 44.7763 71.8904 44.7887 72.589 45.0301C72.8984 45.1367 73.0419 45.4251 72.93 45.6121L72.9036 45.6581C72.837 45.7481 72.7423 45.8132 72.6346 45.8432C72.5268 45.8733 72.412 45.8665 72.3085 45.824C71.7795 45.6418 71.206 45.6335 70.6719 45.8003C70.4442 45.8701 70.1822 45.8096 70.0781 45.6173Z" fill="#131D28"/>
<path d="M63.8755 46.0914C63.8755 46.0743 63.8847 46.0572 63.89 46.0414C63.9572 45.832 63.7281 45.5476 63.3871 45.4857C62.643 45.3433 61.8729 45.4429 61.1896 45.7701C60.8973 45.9123 60.8064 46.2046 60.946 46.3705L60.9789 46.4127C61.0573 46.4928 61.1592 46.5458 61.2698 46.564C61.3803 46.5823 61.4939 46.5648 61.5938 46.514C62.1232 46.2705 62.7174 46.2053 63.287 46.3284C63.5398 46.3797 63.8084 46.3007 63.8755 46.0914Z" fill="#131D28"/>
<path d="M70.5444 53.7687C70.5444 53.7687 70.5154 56.9707 67.5688 57.1669C64.6222 57.3631 64.1719 54.1913 64.1719 54.1913L67.2001 53.9899L70.5444 53.7687Z" fill="white"/>
<path d="M61.4093 50.3085C61.3975 50.1228 61.9742 49.9332 62.697 49.8858C63.4198 49.8384 64.0136 49.949 64.0281 50.136C64.0426 50.323 63.4646 50.5099 62.7418 50.5586C62.0189 50.6074 61.4225 50.4941 61.4093 50.3085Z" fill="#FF696B"/>
<path d="M70.235 49.7252C70.2219 49.5382 70.7986 49.3499 71.5214 49.3012C72.2442 49.2525 72.838 49.3657 72.8525 49.5514C72.867 49.737 72.289 49.9266 71.5662 49.974C70.8433 50.0214 70.2469 49.9108 70.235 49.7252Z" fill="#FF696B"/>
<path d="M63.2135 48.5416C63.2451 49.0301 63.0291 49.4409 62.7316 49.4633C62.434 49.4857 62.1654 49.1038 62.1325 48.6167C62.0996 48.1295 62.3168 47.7174 62.6144 47.695C62.912 47.6726 63.1805 48.0545 63.2135 48.5416Z" fill="#231F20"/>
<path d="M71.9756 47.9624C72.0072 48.4495 71.7912 48.8616 71.4937 48.884C71.1961 48.9064 70.9275 48.5246 70.8946 48.0361C70.8617 47.5476 71.0776 47.1368 71.3765 47.1145C71.6754 47.0921 71.9427 47.4752 71.9756 47.9624Z" fill="#231F20"/>
<path d="M67.7767 52.3098L66.7234 52.3796C66.491 52.3941 66.2624 52.3161 66.0873 52.1627C65.9122 52.0093 65.8048 51.7929 65.7886 51.5607V51.5607C65.7734 51.328 65.8511 51.0988 66.0046 50.9234C66.1581 50.7479 66.3749 50.6404 66.6075 50.6245L67.6608 50.5561C67.8933 50.5409 68.1224 50.6186 68.2976 50.7722C68.4729 50.9257 68.5801 51.1425 68.5956 51.375V51.375C68.6101 51.6074 68.5321 51.836 68.3787 52.0111C68.2253 52.1862 68.0089 52.2936 67.7767 52.3098V52.3098Z" fill="#EF9960"/>
<path d="M57.3848 51.0775C57.221 48.4857 58.0895 45.9344 59.8006 43.9808C61.5117 42.0273 63.9263 40.8302 66.517 40.651V40.651C68.8299 40.5056 71.1198 41.1814 72.9832 42.5591C74.8466 43.9369 76.1637 45.9283 76.7025 48.1822L76.5472 45.512C76.2707 41.3198 73.4386 36.4272 68.2905 36.7735L63.9851 37.0592C59.7916 37.3357 56.4368 43.0815 56.7146 47.275L56.8753 49.6858C56.9108 50.2335 57.34 51.6436 57.4625 52.1611L57.3848 51.0775Z" fill="white"/>
<path d="M56.812 48.834C56.4749 43.7333 60.7922 39.2554 66.4063 38.8841C71.4477 38.5497 75.4609 41.3515 76.5589 45.6793C76.5589 45.6793 76.5589 34.6458 68.2812 35.1936L63.7809 35.4911C53.9562 36.1415 56.7554 49.3698 56.8752 49.8675L56.812 48.834Z" fill="#131D28"/>
<path d="M245.672 135.59L248.624 157.804L270.829 154.852C270.596 153.1 271.068 151.327 272.142 149.923C273.216 148.519 274.803 147.599 276.555 147.366C278.307 147.133 280.08 147.605 281.484 148.679C282.888 149.752 283.808 151.34 284.042 153.092L306.247 150.147L303.295 127.932C301.59 128.075 299.894 127.557 298.561 126.484C297.228 125.411 296.358 123.867 296.132 122.17C295.907 120.474 296.343 118.755 297.35 117.372C298.357 115.988 299.858 115.044 301.541 114.737L298.591 92.5266L276.385 95.4746C276.594 97.2148 276.108 98.967 275.034 100.352C273.959 101.737 272.383 102.642 270.645 102.873C268.908 103.104 267.15 102.641 265.751 101.585C264.353 100.529 263.426 98.9639 263.173 97.2296L240.968 100.18L243.92 122.395C242.236 122.702 240.736 123.645 239.729 125.029C238.723 126.413 238.287 128.131 238.512 129.827C238.737 131.523 239.606 133.068 240.939 134.14C242.272 135.213 243.967 135.732 245.672 135.59V135.59Z" fill="#A6E0FF"/>
<path d="M279.478 117.09L266.202 118.855C262.535 119.342 259.958 122.71 260.445 126.377L261.952 137.717C262.439 141.384 265.807 143.961 269.474 143.474L282.75 141.71C286.417 141.223 288.994 137.855 288.507 134.188L287 122.848C286.513 119.181 283.145 116.603 279.478 117.09Z" fill="#0F73A5"/>
<path d="M276.085 143.6C275.299 143.703 274.504 143.49 273.875 143.008C273.245 142.526 272.832 141.815 272.725 141.029L272.083 136.196C272.068 136.072 272.103 135.948 272.179 135.849C272.256 135.751 272.367 135.686 272.491 135.669L277.482 135.011C277.606 134.996 277.73 135.031 277.829 135.107C277.927 135.184 277.992 135.296 278.009 135.419L278.651 140.252C278.75 141.036 278.536 141.826 278.056 142.453C277.575 143.08 276.867 143.492 276.085 143.6V143.6Z" fill="#B56F51"/>
<path d="M264.713 129.397C267.389 129.29 269.406 125.372 269.217 120.646C269.028 115.92 266.705 112.176 264.028 112.283C261.351 112.39 259.335 116.308 259.524 121.034C259.713 125.76 262.036 129.504 264.713 129.397Z" fill="#0F73A5"/>
<path d="M286.506 119.072C286.712 114.559 284.77 110.805 282.167 110.686C279.565 110.567 277.287 114.128 277.081 118.64C276.874 123.153 278.817 126.907 281.42 127.027C284.022 127.146 286.3 123.584 286.506 119.072Z" fill="#0F73A5"/>
<path d="M263.553 122.605C263.61 123.031 263.538 123.465 263.349 123.85C263.159 124.236 262.859 124.557 262.487 124.772C262.115 124.987 261.687 125.087 261.258 125.06C260.829 125.032 260.418 124.878 260.077 124.616C259.736 124.355 259.48 123.999 259.341 123.592C259.202 123.185 259.187 122.746 259.298 122.331C259.409 121.915 259.64 121.542 259.963 121.258C260.285 120.974 260.685 120.792 261.111 120.736C261.394 120.698 261.682 120.716 261.958 120.79C262.234 120.863 262.493 120.991 262.72 121.164C262.946 121.338 263.137 121.555 263.28 121.802C263.423 122.049 263.516 122.322 263.553 122.605V122.605Z" fill="#C48874"/>
<path d="M286.955 119.495C287.012 119.922 286.941 120.355 286.751 120.741C286.561 121.126 286.261 121.447 285.889 121.662C285.517 121.878 285.089 121.978 284.66 121.95C284.231 121.922 283.82 121.768 283.479 121.506C283.137 121.245 282.881 120.888 282.743 120.481C282.604 120.074 282.589 119.635 282.7 119.22C282.811 118.805 283.043 118.432 283.366 118.148C283.688 117.864 284.088 117.682 284.514 117.626C284.797 117.588 285.085 117.606 285.361 117.68C285.637 117.754 285.896 117.881 286.123 118.054C286.349 118.228 286.54 118.445 286.682 118.692C286.825 118.939 286.918 119.212 286.955 119.495V119.495Z" fill="#C48874"/>
<path d="M275.116 137.128C268.681 137.984 262.715 133.418 261.859 126.982L261.006 120.554C260.691 118.136 261.347 115.691 262.829 113.755C264.311 111.819 266.5 110.548 268.916 110.22L274.073 109.534C276.492 109.22 278.936 109.875 280.872 111.357C282.808 112.84 284.08 115.028 284.408 117.444L285.262 123.872C286.117 130.314 281.552 136.273 275.116 137.128Z" fill="#C48874"/>
<path d="M269.073 123.768C269.176 124.542 268.884 125.216 268.415 125.281C267.946 125.345 267.493 124.766 267.386 123.992C267.28 123.217 267.577 122.543 268.045 122.477C268.512 122.412 268.97 122.994 269.073 123.768Z" fill="#1D2733"/>
<path d="M279.143 122.43C279.246 123.204 278.953 123.879 278.485 123.943C278.016 124.008 277.563 123.427 277.458 122.653C277.352 121.879 277.647 121.204 278.116 121.14C278.585 121.075 279.04 121.656 279.143 122.43Z" fill="#1D2733"/>
<path d="M274.262 125.878L273.146 126.027C272.586 126.101 272.192 126.615 272.266 127.175L272.278 127.26C272.352 127.82 272.867 128.214 273.427 128.14L274.543 127.991C275.103 127.917 275.496 127.403 275.422 126.842L275.411 126.758C275.336 126.198 274.822 125.804 274.262 125.878Z" fill="#B56F51"/>
<path d="M273.549 105.713C269.306 106.276 268.476 106.171 267.549 109.873C266.389 109.086 264.982 108.749 263.592 108.925C260.185 109.378 258.667 113.1 259.177 116.938C259.542 119.681 260.438 121.62 262.636 122.479L262.251 119.582C262.013 117.765 262.505 115.928 263.618 114.472C264.731 113.016 266.376 112.06 268.192 111.814L275.351 110.862C279.119 110.362 286.451 111.627 284.412 109.7C282.372 107.772 278.999 104.989 273.549 105.713Z" fill="#189BC4"/>
<path d="M271.339 114.251C272.836 116.609 271.66 120.038 268.713 121.91C265.767 123.782 262.163 123.386 260.666 121.029C259.169 118.673 260.345 115.236 263.292 113.37C266.238 111.505 269.842 111.892 271.339 114.251Z" fill="#189BC4"/>
<path d="M285.004 116.77C286.443 113.36 283.634 108.919 278.729 106.849C273.824 104.779 268.682 105.865 267.243 109.274C265.804 112.684 268.614 117.125 273.519 119.195C278.423 121.265 283.566 120.179 285.004 116.77Z" fill="#189BC4"/>
<path d="M276.559 105.249C270.881 103.956 265.671 105.564 264.924 108.842C264.454 110.904 265.729 113.035 268.251 114.728C269.7 113.565 271.772 112.828 273.966 112.537C278.113 111.985 285.24 114.628 285.491 113.528C286.234 110.25 282.239 106.544 276.559 105.249Z" fill="#189BC4"/>
<path d="M278.612 138.985L272.546 139.791L272.913 142.547L278.978 141.741L278.612 138.985Z" fill="#F9CC4E"/>
<path d="M271.638 141.427L279.701 140.355C279.701 140.355 281.544 144.722 276.305 145.419C271.066 146.115 271.638 141.427 271.638 141.427Z" fill="#FFEA6C"/>
<path d="M270.171 131.092L278.233 130.021C278.233 130.021 278.141 133.049 274.631 133.518C271.12 133.986 270.171 131.092 270.171 131.092Z" fill="white"/>
</svg>
