<svg width="350" height="250" viewBox="0 0 350 250" fill="none" xmlns="http://www.w3.org/2000/svg">
<path fill-rule="evenodd" clip-rule="evenodd" d="M284.324 216.43C355.402 181.307 330.401 113.8 304.465 75.5095C268.148 21.9005 182.33 2.62921 146.835 45.4045C98.655 103.463 49.9239 89.7292 33.3023 127.596C16.6807 165.462 47.1735 202.48 64.3298 216.508C93.7042 215.272 133.056 214.518 175.263 214.518C217.47 214.518 255.178 215.24 284.324 216.43V216.43ZM111.584 67.03C92.9819 78.9374 62.2134 88.1657 51.9955 75.5053C44.3615 66.0474 53.7648 48.3033 72.1822 34.8478C90.5996 21.3924 115.249 13.2656 128.686 23.1658C144.629 34.9136 125.909 57.8605 111.584 67.03Z" fill="#D0D5DD"/>
<path fill-rule="evenodd" clip-rule="evenodd" d="M317.068 114.703C317.177 114.983 317.229 115.282 317.221 115.583C317.213 115.884 317.145 116.18 317.021 116.454C316.898 116.728 316.72 116.975 316.5 117.18C316.28 117.385 316.021 117.543 315.738 117.647C315.456 117.75 315.155 117.797 314.855 117.783C314.554 117.769 314.26 117.695 313.988 117.566C313.717 117.437 313.473 117.254 313.273 117.03C313.073 116.806 312.919 116.544 312.821 116.259C310.634 110.369 308.074 104.624 305.158 99.0581C302.083 93.1667 298.674 87.4559 294.948 81.9536C291.807 77.3358 288.279 72.9936 284.401 68.9741C280.373 64.7934 276.02 60.9378 271.384 57.4432C259.715 48.6591 246.558 42.0495 232.545 37.9312C232.26 37.8476 231.994 37.7087 231.763 37.5224C231.532 37.3361 231.339 37.106 231.197 36.8454C231.055 36.5848 230.965 36.2988 230.933 36.0035C230.902 35.7083 230.928 35.4097 231.012 35.1248C231.096 34.8399 231.234 34.5742 231.421 34.343C231.607 34.1118 231.837 33.9196 232.098 33.7772C232.624 33.4898 233.243 33.4232 233.818 33.5921C248.347 37.8774 261.991 44.7325 274.101 53.832C278.928 57.4721 283.46 61.4877 287.654 65.8415C291.707 70.0463 295.395 74.5884 298.677 79.4187C302.508 85.0631 306.013 90.9221 309.175 96.9669C312.178 102.703 314.814 108.625 317.066 114.696L317.068 114.703ZM216.036 29.8409C216.33 29.8776 216.614 29.972 216.872 30.1185C217.13 30.265 217.356 30.4608 217.538 30.6948C217.72 30.9287 217.854 31.1962 217.933 31.482C218.011 31.7678 218.033 32.0663 217.996 32.3604C217.959 32.6545 217.865 32.9384 217.718 33.1961C217.572 33.4537 217.376 33.68 217.142 33.862C216.908 34.0439 216.641 34.178 216.355 34.2566C216.069 34.3352 215.771 34.3567 215.477 34.32C210.071 33.6098 204.615 33.363 199.167 33.5823C194.125 33.7814 189.114 34.4776 184.208 35.6609C183.631 35.791 183.025 35.6894 182.522 35.378C182.019 35.0665 181.658 34.5701 181.516 33.9953C181.375 33.4205 181.465 32.8132 181.766 32.3039C182.068 31.7946 182.557 31.4239 183.129 31.2714C188.323 30.0199 193.627 29.2833 198.965 29.0724C204.669 28.8428 210.382 29.1013 216.042 29.8451L216.036 29.8409ZM92.1239 95.6134C92.3935 95.4891 92.6849 95.419 92.9815 95.4073C93.2782 95.3956 93.5742 95.4424 93.8528 95.5451C94.1313 95.6478 94.3869 95.8043 94.6049 96.0058C94.8229 96.2072 94.9992 96.4496 95.1235 96.7192C95.2479 96.9888 95.3179 97.2802 95.3296 97.5768C95.3414 97.8734 95.2946 98.1695 95.1919 98.448C95.0892 98.7265 94.9327 98.9821 94.7312 99.2002C94.5297 99.4182 94.2873 99.5944 94.0178 99.7188C89.5765 101.761 85.2541 103.578 80.9332 105.393C76.9636 107.063 72.9927 108.732 69.226 110.432C66.6436 111.602 64.0751 112.822 61.6508 114.143C59.2214 115.447 56.8916 116.929 54.6802 118.576C54.2007 118.922 53.6048 119.066 53.0201 118.978C52.4354 118.89 51.9083 118.577 51.5518 118.105C51.1954 117.633 51.0378 117.041 51.1129 116.454C51.188 115.868 51.4897 115.334 51.9536 114.967C54.3456 113.188 56.8654 111.588 59.4924 110.179C62.1169 108.75 64.7581 107.491 67.3672 106.31C71.3802 104.49 75.2812 102.853 79.1822 101.215C83.5731 99.3689 87.9682 97.5212 92.1239 95.6092V95.6134ZM45.0642 121.539C45.2467 121.296 45.4764 121.092 45.7395 120.94C46.0026 120.788 46.2937 120.691 46.5954 120.654C46.897 120.617 47.203 120.641 47.495 120.725C47.787 120.81 48.059 120.952 48.2947 121.144C48.5304 121.336 48.725 121.573 48.8667 121.842C49.0084 122.111 49.0944 122.406 49.1195 122.708C49.1446 123.011 49.1082 123.316 49.0127 123.605C48.9172 123.893 48.7644 124.159 48.5635 124.387C47.6114 125.558 46.7432 126.795 45.9656 128.088C45.165 129.415 44.4515 130.792 43.8296 132.212C43.5739 132.734 43.1268 133.137 42.5814 133.337C42.0359 133.538 41.4342 133.52 40.9013 133.288C40.3685 133.056 39.9456 132.628 39.7206 132.092C39.4956 131.556 39.4859 130.954 39.6935 130.412C40.3926 128.81 41.1944 127.255 42.094 125.756C42.9833 124.283 43.9759 122.876 45.0642 121.543V121.539ZM127.625 33.042C127.759 33.6262 127.655 34.2394 127.336 34.747C127.018 35.2545 126.51 35.6147 125.926 35.7484C125.342 35.882 124.729 35.7781 124.221 35.4596C123.714 35.1411 123.354 34.6339 123.22 34.0498C123.15 33.7757 123.018 33.5214 122.834 33.3066C122.548 32.9743 122.222 32.6785 121.864 32.4262C120.339 31.3064 118.412 30.7045 116.37 30.4428C113.551 30.0816 110.491 30.3616 107.89 30.8221C104.195 31.4743 100.452 32.6277 96.8186 34.0974C92.7239 35.774 88.7721 37.7804 85.0022 40.0966C84.4906 40.4086 83.8761 40.5046 83.2937 40.3635C82.7114 40.2224 82.2089 39.8558 81.8969 39.3442C81.5849 38.8327 81.4889 38.2181 81.63 37.6358C81.7711 37.0534 82.1377 36.551 82.6493 36.239C86.6335 33.7923 90.81 31.6737 95.1375 29.9039C99.0567 28.3152 103.116 27.0694 107.111 26.364C110.057 25.8433 113.562 25.5354 116.934 25.9665C119.69 26.3192 122.341 27.1674 124.536 28.7827L124.544 28.7911C125.209 29.2685 125.811 29.8282 126.336 30.4568C126.96 31.2068 127.402 32.0919 127.625 33.042V33.042ZM72.4174 43.5133C72.8783 43.1309 73.4721 42.9473 74.0684 43.0028C74.6647 43.0583 75.2145 43.3484 75.5968 43.8093C75.9792 44.2702 76.1628 44.8641 76.1073 45.4604C76.0518 46.0566 75.7617 46.6064 75.3008 46.9888C72.7845 49.0615 70.4308 51.324 68.2602 53.7564C66.3885 55.842 64.7296 58.1091 63.308 60.524C63.1685 60.7947 62.9756 61.0344 62.741 61.2285C62.5063 61.4226 62.2348 61.5672 61.9427 61.6535C61.6507 61.7398 61.3441 61.7661 61.0417 61.7307C60.7392 61.6953 60.447 61.5991 60.1827 61.4477C59.9185 61.2963 59.6876 61.0929 59.5041 60.8499C59.3206 60.6069 59.1882 60.3292 59.1149 60.0336C59.0416 59.738 59.029 59.4306 59.0778 59.13C59.1265 58.8294 59.2357 58.5417 59.3986 58.2845C60.9708 55.6041 62.8075 53.0879 64.8813 50.7736C67.2045 48.1648 69.7239 45.7376 72.4174 43.5133V43.5133Z" fill="#FEECEC"/>
<path fill-rule="evenodd" clip-rule="evenodd" d="M243.993 155.803C243.975 155.843 242.4 158.342 242.387 161.071C242.387 162.492 242.859 164.029 244.274 165.141C245.689 166.254 247.925 166.929 251.392 166.933H251.603H251.705C254.313 166.933 256.067 167.714 257.506 168.893C259.665 170.655 261.053 173.419 263.009 175.824C264.966 178.229 267.605 180.24 272.107 180.225C274.967 180.225 278.557 179.451 283.255 177.575L282.857 176.579C278.238 178.425 274.77 179.151 272.107 179.151C269.308 179.151 267.411 178.365 265.883 177.192C263.59 175.428 262.174 172.675 260.294 170.277C258.414 167.879 255.948 165.853 251.698 165.869H251.589H251.385C248.051 165.869 246.056 165.2 244.932 164.309C243.808 163.417 243.462 162.29 243.454 161.081C243.454 159.928 243.809 158.738 244.175 157.846C244.357 157.4 244.54 157.03 244.676 156.771L244.84 156.474L244.898 156.378L243.993 155.803Z" fill="#99A9D4"/>
<path d="M242.182 154.407H188.547V174.072H242.182V154.407Z" fill="#99A9D4"/>
<path fill-rule="evenodd" clip-rule="evenodd" d="M286.517 156.372C286.518 157.077 286.379 157.774 286.11 158.425C285.841 159.076 285.446 159.667 284.948 160.166C284.45 160.664 283.859 161.059 283.208 161.328C282.557 161.598 281.86 161.736 281.155 161.736H149.582C148.878 161.736 148.18 161.598 147.529 161.328C146.878 161.059 146.287 160.664 145.788 160.166C145.29 159.668 144.895 159.076 144.625 158.425C144.356 157.775 144.217 157.077 144.217 156.372V52.8679C144.217 51.4452 144.783 50.0809 145.789 49.0751C146.795 48.0692 148.159 47.5042 149.582 47.5042H281.155C281.86 47.5038 282.557 47.6423 283.208 47.9117C283.859 48.1812 284.45 48.5763 284.948 49.0744C285.446 49.5726 285.841 50.164 286.11 50.8149C286.38 51.4658 286.518 52.1634 286.517 52.8679V156.372Z" fill="#BCC9E7"/>
<path fill-rule="evenodd" clip-rule="evenodd" d="M281.456 140.267C281.456 143.272 279.144 145.711 276.291 145.711H154.441C151.588 145.711 149.276 143.272 149.276 140.267V57.106C149.276 54.0994 151.588 51.6639 154.441 51.6639H276.291C279.144 51.6639 281.456 54.0994 281.456 57.106V140.267Z" fill="white"/>
<path d="M250.168 170.495H180.086V174.072H250.168V170.495Z" fill="#AAB9DE"/>
<path d="M276.603 174.073H155.147V180.063H276.603V174.073Z" fill="#BCC9E7"/>
<path d="M297.22 175.155H280.222V179.763H297.22V175.155Z" fill="#AAB9DE"/>
<path fill-rule="evenodd" clip-rule="evenodd" d="M297.22 175.343C297.22 172.77 293.415 170.684 288.721 170.684C284.026 170.684 280.222 172.77 280.222 175.343C280.222 177.915 284.027 179.998 288.721 179.998C293.414 179.998 297.22 177.918 297.22 175.343Z" fill="#AAB9DE"/>
<path fill-rule="evenodd" clip-rule="evenodd" d="M276.291 51.6639H154.441C151.587 51.6639 149.277 54.0994 149.277 57.106V62.2276H281.456V57.106C281.456 54.0994 279.144 51.6639 276.291 51.6639Z" fill="#99A9D4"/>
<path fill-rule="evenodd" clip-rule="evenodd" d="M157.629 54.4802C158.117 54.4799 158.593 54.6243 158.999 54.895C159.404 55.1656 159.721 55.5505 159.907 56.0009C160.094 56.4513 160.143 56.9469 160.048 57.4251C159.953 57.9034 159.719 58.3427 159.374 58.6876C159.029 59.0324 158.59 59.2673 158.112 59.3626C157.634 59.4578 157.138 59.409 156.688 59.2225C156.237 59.036 155.852 58.7201 155.581 58.3147C155.31 57.9093 155.166 57.4327 155.166 56.9451C155.166 56.2916 155.425 55.6649 155.887 55.2027C156.349 54.7405 156.976 54.4806 157.629 54.4802V54.4802ZM176.037 54.4802C176.524 54.4799 177.001 54.6243 177.407 54.895C177.812 55.1656 178.128 55.5505 178.315 56.0009C178.502 56.4513 178.551 56.9469 178.456 57.4251C178.361 57.9034 178.126 58.3427 177.782 58.6876C177.437 59.0324 176.998 59.2673 176.52 59.3626C176.041 59.4578 175.546 59.409 175.095 59.2225C174.645 59.036 174.26 58.7201 173.989 58.3147C173.718 57.9093 173.573 57.4327 173.573 56.9451C173.574 56.2917 173.833 55.6652 174.295 55.2031C174.757 54.7409 175.383 54.481 176.037 54.4802V54.4802ZM166.834 54.4802C167.321 54.4802 167.798 54.6248 168.203 54.8956C168.608 55.1665 168.924 55.5514 169.111 56.0018C169.297 56.4522 169.346 56.9479 169.251 57.426C169.156 57.9041 168.921 58.3433 168.577 58.6881C168.232 59.0328 167.793 59.2675 167.315 59.3627C166.836 59.4578 166.341 59.409 165.89 59.2224C165.44 59.0358 165.055 58.7199 164.784 58.3145C164.513 57.9092 164.369 57.4326 164.369 56.9451C164.369 56.2914 164.628 55.6644 165.091 55.2022C165.553 54.7399 166.18 54.4802 166.834 54.4802Z" fill="white"/>
<path fill-rule="evenodd" clip-rule="evenodd" d="M175.263 214.518C266.804 214.518 341 217.985 341 222.26C341 226.534 266.798 230 175.263 230C83.727 230 9.52679 226.536 9.52679 222.26C9.52679 217.983 83.7284 214.518 175.263 214.518Z" fill="#AFB4BF"/>
<path fill-rule="evenodd" clip-rule="evenodd" d="M71.1954 216.234C72.8653 200.351 67.321 202.937 59.7961 192.149C56.6916 187.699 56.8204 183.714 58.9829 178.969C60.4036 175.855 61.8439 171.979 60.1237 168.702C58.2579 165.147 54.6648 164.986 51.2201 164.223C42.3767 162.273 39.5535 155.086 35.1024 148.225C33.9518 146.45 32.3562 144.833 30.3196 144.317C20.5104 141.825 17.0223 157.803 20.9639 164.096C23.4274 168.029 27.2836 170.649 29.7891 174.604C32.0286 178.138 31.988 180.93 31.5737 184.894C30.9173 191.193 34.0638 197.09 38.4211 201.374C40.8944 203.803 43.6281 206.075 45.3959 209.122C47.2519 212.317 50.1815 214.967 53.594 217.002C59.0543 216.728 64.9373 216.47 71.1954 216.234Z" fill="#D0D9EE"/>
<path fill-rule="evenodd" clip-rule="evenodd" d="M67.1573 216.392C64.0153 213.255 61.0831 209.915 58.3797 206.393C58.2705 203.629 58.6209 200.681 59.4309 197.549C58.4049 199.972 57.4643 202.231 57.0863 204.653C51.7142 197.217 48.7315 190.516 46.2554 184.14C47.2772 180.01 49.205 175.849 52.039 171.657C49.2136 174.704 46.99 178.258 45.4855 182.131C41.7441 172.255 38.7557 163.069 29.309 153.017C32.7874 157.987 35.8011 163.266 38.312 168.788C34.8866 166.941 31.1565 165.727 27.3004 165.203C31.9662 166.595 35.9581 168.508 39.2764 170.942C42.8947 179.255 45.2952 187.064 49.5741 195.669C46.1363 193.809 42.3899 192.587 38.5163 192.062C43.322 193.495 47.4097 195.48 50.7792 198.017C53.79 203.694 57.712 209.755 63.3907 216.552C64.6289 216.497 65.8845 216.443 67.1573 216.392Z" fill="white"/>
<path fill-rule="evenodd" clip-rule="evenodd" d="M64.5299 216.494C60.9943 206.321 57.8729 209.443 49.6538 204.495C46.1433 202.382 45.0179 199.583 45.0641 195.62C45.0963 193.023 44.9101 189.882 42.7182 188.157C40.3387 186.279 37.8038 187.289 35.1863 187.837C28.4677 189.246 24.3176 185.152 19.14 181.79C17.8019 180.919 16.2006 180.301 14.6357 180.578C7.07728 181.914 9.54357 194.068 14.1962 197.195C17.1034 199.155 20.5761 199.759 23.5169 201.716C26.1456 203.466 26.97 205.41 27.8938 208.284C29.3621 212.847 33.3429 215.953 37.6694 217.558C37.9634 217.667 38.2592 217.774 38.5568 217.877C46.0243 217.375 54.7487 216.914 64.5299 216.494Z" fill="#BCC9E7"/>
<path fill-rule="evenodd" clip-rule="evenodd" d="M57.0568 216.833C55.6235 216.168 54.2825 215.491 53.0214 214.804C52.1023 212.924 51.4453 210.773 51.0506 208.351C51.08 210.35 51.1164 212.208 51.5951 214.003C45.6057 210.532 41.492 206.822 37.8303 203.18C37.276 200.001 37.3404 196.518 38.0235 192.73C36.9984 195.719 36.5435 198.873 36.6825 202.03C31.0767 196.358 26.2015 190.93 16.5883 186.913C20.5175 189.268 24.2193 191.983 27.646 195.023C24.705 194.814 21.7504 195.138 18.9244 195.979C22.5832 195.484 25.9323 195.564 28.9715 196.218C34.0175 200.837 38.0599 205.502 43.6545 210.124C40.7012 209.911 37.7336 210.233 34.8951 211.076C38.6603 210.569 42.0976 210.668 45.2068 211.373C47.842 213.436 50.6137 215.318 53.5029 217.007C54.6647 216.945 55.8493 216.887 57.0568 216.833Z" fill="white"/>
<path fill-rule="evenodd" clip-rule="evenodd" d="M284.775 216.223C281.136 200.949 286.692 202.902 292.582 191.768C294.984 187.228 294.402 183.51 291.831 179.311C290.151 176.559 288.348 173.09 289.591 169.815C290.935 166.263 294.286 165.69 297.43 164.575C305.502 161.707 307.324 154.637 310.712 147.674C311.588 145.877 312.899 144.175 314.751 143.449C323.667 139.959 328.775 154.539 325.798 160.905C323.937 164.883 320.619 167.794 318.724 171.796C317.03 175.375 317.388 177.988 318.231 181.658C319.569 187.485 317.294 193.389 313.699 197.921C311.658 200.49 309.359 202.941 308.044 206.005C306.084 210.596 301.944 214.403 297.211 217.022C293.407 216.827 289.401 216.643 285.193 216.47L284.775 216.223Z" fill="#D0D9EE"/>
<path fill-rule="evenodd" clip-rule="evenodd" d="M287.52 216.564C290.472 212.895 293.154 209.017 295.546 204.961C295.332 202.356 294.664 199.632 293.543 196.789C294.784 198.94 295.922 200.95 296.559 203.179C300.744 195.574 302.774 188.938 304.365 182.665C302.932 178.911 300.646 175.234 297.507 171.636C300.507 174.163 303.001 177.235 304.857 180.691C307.236 170.988 308.983 162.02 316.688 151.478C313.996 156.546 311.775 161.851 310.052 167.325C313.054 165.193 316.414 163.617 319.972 162.672C315.752 164.526 312.227 166.79 309.396 169.467C306.955 177.687 305.605 185.293 302.575 193.866C305.585 191.72 308.958 190.134 312.531 189.186C308.188 191.093 304.582 193.435 301.711 196.211C299.371 202.325 296.092 208.981 290.934 216.715L287.52 216.564Z" fill="white"/>
<path fill-rule="evenodd" clip-rule="evenodd" d="M290.633 216.658C292.776 204.945 296.03 208.032 303.51 202.161C306.561 199.768 307.296 197.009 306.797 193.3C306.469 190.867 306.283 187.905 308.142 186.021C310.155 183.977 312.652 184.621 315.168 184.837C321.634 185.372 325.056 181.042 329.528 177.278C330.683 176.307 332.112 175.537 333.615 175.614C340.853 175.981 339.939 187.671 335.933 191.151C333.429 193.325 330.242 194.305 327.708 196.484C325.442 198.434 324.892 200.357 324.349 203.159C323.497 207.613 320.118 210.998 316.246 213.006C314.047 214.148 311.701 215.125 309.861 216.839C309.541 217.135 309.207 217.415 308.86 217.678C303.378 217.33 297.29 217.005 290.663 216.699L290.633 216.658Z" fill="#BCC9E7"/>
<path fill-rule="evenodd" clip-rule="evenodd" d="M294.105 216.864C296.675 215.472 299.157 213.922 301.535 212.222C302.184 210.351 302.554 208.256 302.645 205.938C302.847 207.816 303.024 209.564 302.785 211.304C308.005 207.346 311.438 203.385 314.456 199.538C314.612 196.492 314.152 193.231 313.076 189.757C314.379 192.442 315.168 195.348 315.399 198.323C320.008 192.346 323.957 186.683 332.513 181.788C329.101 184.459 325.942 187.439 323.079 190.692C325.812 190.15 328.621 190.108 331.369 190.566C327.879 190.532 324.746 190.998 321.969 191.966C317.77 196.897 314.512 201.741 309.792 206.733C312.535 206.182 315.355 206.135 318.115 206.593C314.526 206.559 311.313 207.055 308.478 208.081C305.58 210.991 302.116 213.959 297.621 217.029C296.471 216.98 295.294 216.914 294.105 216.864Z" fill="white"/>
<path fill-rule="evenodd" clip-rule="evenodd" d="M280.662 216.284C280.124 213.819 281.434 211.914 281.392 207.349C281.365 204.409 280.063 202.697 277.632 201.305C276.038 200.392 274.194 199.15 273.927 197.161C273.635 195.009 275.162 193.79 276.435 192.358C279.708 188.678 278.703 184.621 278.514 180.19C278.465 179.045 278.654 177.824 279.393 176.95C282.919 172.724 289.44 178.621 289.675 182.644C289.822 185.156 288.947 187.543 289.083 190.071C289.205 192.337 290.094 193.549 291.512 195.156C293.767 197.709 294.229 201.303 293.653 204.574C293.327 206.43 292.836 208.3 293.011 210.201C293.21 212.357 292.658 214.63 291.66 216.749C288.143 216.587 284.477 216.432 280.662 216.284Z" fill="#BCC9E7"/>
<path fill-rule="evenodd" clip-rule="evenodd" d="M286.238 216.51C286.354 215.335 286.425 214.218 286.46 213.15C285.568 211.816 284.483 210.621 283.241 209.605C284.447 210.341 285.566 211.031 286.488 211.973C286.523 206.997 285.741 203.103 284.837 199.516C283.096 198.03 280.95 196.82 278.398 195.885C280.587 196.32 282.673 197.17 284.544 198.388C283.101 192.86 281.544 187.874 282.549 180.446C282.576 183.735 282.904 187.015 283.529 190.244C284.455 188.341 285.712 186.619 287.241 185.156C285.627 187.258 284.473 189.373 283.78 191.501C284.786 196.303 286.175 200.496 286.982 205.638C287.909 203.725 289.17 201.993 290.707 200.525C289.046 202.688 287.872 204.865 287.185 207.055C287.592 210.21 287.727 213.394 287.591 216.573L286.238 216.51Z" fill="white"/>
<path fill-rule="evenodd" clip-rule="evenodd" d="M132.906 86.4609H128.522L128.927 91.5125C128.94 91.6662 128.905 91.8203 128.826 91.953C128.747 92.0857 128.629 92.1903 128.487 92.2521C128.346 92.3139 128.189 92.3298 128.038 92.2976C127.887 92.2653 127.75 92.1866 127.646 92.0724L122.558 86.4735H105.287C104.195 86.4735 103.147 86.0397 102.375 85.2675C101.602 84.4953 101.168 83.4478 101.167 82.3556V66.2715C101.167 65.1789 101.601 64.1312 102.374 63.3586C103.147 62.5861 104.194 62.1521 105.287 62.1521H132.906C133.998 62.1525 135.046 62.5866 135.818 63.3591C136.59 64.1316 137.024 65.1792 137.024 66.2715V82.3374C137.024 82.8786 136.918 83.4146 136.712 83.9147C136.505 84.4149 136.202 84.8695 135.819 85.2524C135.437 85.6354 134.983 85.9392 134.483 86.1466C133.983 86.3539 133.447 86.4607 132.906 86.4609Z" fill="#EAEEF8"/>
<path fill-rule="evenodd" clip-rule="evenodd" d="M108.513 72.0969C108.873 72.0969 109.225 72.2036 109.524 72.4036C109.823 72.6035 110.056 72.8877 110.194 73.2202C110.332 73.5527 110.368 73.9186 110.298 74.2715C110.228 74.6245 110.054 74.9487 109.8 75.2032C109.545 75.4577 109.221 75.631 108.868 75.7012C108.515 75.7714 108.149 75.7354 107.817 75.5977C107.484 75.4599 107.2 75.2267 107 74.9275C106.8 74.6282 106.693 74.2764 106.693 73.9166C106.693 73.434 106.885 72.9711 107.226 72.6299C107.568 72.2886 108.03 72.0969 108.513 72.0969ZM122.566 72.0969C122.926 72.0969 123.278 72.2036 123.577 72.4036C123.876 72.6035 124.11 72.8877 124.247 73.2202C124.385 73.5527 124.421 73.9186 124.351 74.2715C124.281 74.6245 124.107 74.9487 123.853 75.2032C123.598 75.4577 123.274 75.631 122.921 75.7012C122.568 75.7714 122.202 75.7354 121.87 75.5977C121.537 75.4599 121.253 75.2267 121.053 74.9275C120.853 74.6282 120.747 74.2764 120.747 73.9166C120.747 73.434 120.938 72.9711 121.28 72.6299C121.621 72.2886 122.084 72.0969 122.566 72.0969V72.0969ZM129.678 72.0969C130.038 72.0969 130.39 72.2036 130.689 72.4036C130.988 72.6035 131.222 72.8877 131.359 73.2202C131.497 73.5527 131.533 73.9186 131.463 74.2715C131.393 74.6245 131.219 74.9487 130.965 75.2032C130.71 75.4577 130.386 75.631 130.033 75.7012C129.68 75.7714 129.314 75.7354 128.982 75.5977C128.649 75.4599 128.365 75.2267 128.165 74.9275C127.965 74.6282 127.859 74.2764 127.859 73.9166C127.859 73.434 128.05 72.9711 128.391 72.6299C128.733 72.2886 129.196 72.0969 129.678 72.0969ZM115.625 72.0969C115.985 72.0969 116.337 72.2036 116.636 72.4036C116.935 72.6035 117.168 72.8877 117.306 73.2202C117.444 73.5527 117.48 73.9186 117.41 74.2715C117.339 74.6245 117.166 74.9487 116.912 75.2032C116.657 75.4577 116.333 75.631 115.98 75.7012C115.627 75.7714 115.261 75.7354 114.929 75.5977C114.596 75.4599 114.312 75.2267 114.112 74.9275C113.912 74.6282 113.805 74.2764 113.805 73.9166C113.805 73.6776 113.852 73.441 113.944 73.2202C114.035 72.9994 114.169 72.7988 114.338 72.6299C114.507 72.4609 114.708 72.3269 114.929 72.2354C115.149 72.144 115.386 72.0969 115.625 72.0969V72.0969Z" fill="white"/>
<path fill-rule="evenodd" clip-rule="evenodd" d="M190.315 67.6683C199.637 67.6683 207.193 72.3 207.193 78.0122C207.193 80.8438 205.337 83.4081 202.33 85.2767L203.926 91.2605L198.327 87.1188C195.739 87.9542 193.034 88.3724 190.314 88.3575C180.993 88.3575 173.436 83.7259 173.436 78.0122C173.436 72.2986 180.994 67.6683 190.315 67.6683Z" fill="#D0D9EE"/>
<path fill-rule="evenodd" clip-rule="evenodd" d="M181.128 76.6068C181.452 76.6071 181.77 76.7037 182.04 76.8845C182.31 77.0652 182.521 77.3219 182.645 77.6222C182.769 77.9225 182.801 78.2529 182.738 78.5716C182.674 78.8902 182.517 79.1829 182.288 79.4126C182.058 79.6422 181.765 79.7986 181.446 79.8619C181.127 79.9252 180.797 79.8926 180.497 79.7682C180.197 79.6437 179.94 79.4331 179.76 79.1629C179.579 78.8927 179.483 78.5751 179.483 78.2501C179.483 78.0342 179.525 77.8204 179.608 77.6209C179.691 77.4215 179.812 77.2403 179.965 77.0877C180.117 76.9351 180.299 76.814 180.498 76.7315C180.698 76.649 180.912 76.6067 181.128 76.6068V76.6068ZM199.884 76.6068C200.209 76.6046 200.528 76.6991 200.8 76.8783C201.071 77.0575 201.284 77.3134 201.41 77.6135C201.536 77.9135 201.57 78.2443 201.508 78.5638C201.446 78.8833 201.29 79.1771 201.061 79.4081C200.831 79.639 200.539 79.7966 200.22 79.8609C199.901 79.9253 199.57 79.8934 199.269 79.7693C198.968 79.6453 198.71 79.4347 198.529 79.1642C198.348 78.8937 198.252 78.5756 198.252 78.2501C198.252 78.0342 198.294 77.8204 198.377 77.6209C198.459 77.4215 198.581 77.2403 198.733 77.0877C198.886 76.9351 199.067 76.814 199.267 76.7315C199.467 76.649 199.68 76.6067 199.896 76.6068H199.884ZM193.628 76.6068C193.953 76.6071 194.271 76.7037 194.541 76.8845C194.811 77.0652 195.021 77.3219 195.146 77.6222C195.27 77.9225 195.302 78.2529 195.238 78.5716C195.175 78.8902 195.018 79.1829 194.788 79.4126C194.559 79.6422 194.266 79.7986 193.947 79.8619C193.628 79.9252 193.298 79.8926 192.998 79.7682C192.698 79.6437 192.441 79.4331 192.261 79.1629C192.08 78.8927 191.984 78.5751 191.984 78.2501C191.984 78.0339 192.026 77.8197 192.109 77.62C192.192 77.4202 192.314 77.2388 192.467 77.0862C192.62 76.9335 192.802 76.8126 193.002 76.7303C193.202 76.6481 193.416 76.6061 193.633 76.6068H193.628ZM187.374 76.6068C187.699 76.6071 188.017 76.7037 188.287 76.8845C188.557 77.0652 188.767 77.3219 188.892 77.6222C189.016 77.9225 189.048 78.2529 188.985 78.5716C188.921 78.8902 188.764 79.1829 188.534 79.4126C188.305 79.6422 188.012 79.7986 187.693 79.8619C187.374 79.9252 187.044 79.8926 186.744 79.7682C186.444 79.6437 186.187 79.4331 186.007 79.1629C185.826 78.8927 185.73 78.5751 185.73 78.2501C185.73 78.0336 185.773 77.8192 185.856 77.6193C185.939 77.4194 186.061 77.2379 186.214 77.0852C186.368 76.9325 186.55 76.8116 186.75 76.7295C186.95 76.6474 187.165 76.6057 187.381 76.6068H187.374Z" fill="white"/>
<path fill-rule="evenodd" clip-rule="evenodd" d="M94.0652 198.448L93.6817 201.842L91.1091 224.657C91.1091 224.657 90.1796 225.426 89.0487 225.466C88.6705 225.477 88.2929 225.429 87.9289 225.326C87.6031 225.237 87.2896 225.109 86.9953 224.943L87.8015 202.844L87.9639 198.446L94.0652 198.448Z" fill="#D1A383"/>
<path fill-rule="evenodd" clip-rule="evenodd" d="M94.0653 198.448L93.553 203.004C91.2603 202.489 88.9969 203.082 87.7484 204.241L87.9611 198.448H94.0653Z" fill="#C19274"/>
<path fill-rule="evenodd" clip-rule="evenodd" d="M90.5646 207.873C89.9683 211.538 89.4126 223.084 89.372 223.812C89.3314 224.54 90.1796 225.146 90.4022 223.57C90.6248 221.994 91.7543 210.673 92.0987 207.389C92.443 204.105 91.1567 204.209 90.5646 207.873Z" fill="#E3BB9B"/>
<path fill-rule="evenodd" clip-rule="evenodd" d="M89.9683 198.448L87.9233 225.322C87.5975 225.233 87.2839 225.104 86.9897 224.939L87.9583 198.442L89.9683 198.448Z" fill="#C19274"/>
<path fill-rule="evenodd" clip-rule="evenodd" d="M166.601 198.81C166.443 198.967 166.02 199.09 165.253 199.128C165.231 199.129 165.21 199.129 165.188 199.128C164.642 199.142 164.098 199.074 163.572 198.926L162.436 192.092L161.999 189.452L161.956 189.191L164.439 188.78L166.076 188.5C166.076 188.5 166.1 188.861 166.139 189.446C166.174 190.006 166.226 190.77 166.279 191.621C166.467 194.628 166.702 198.71 166.601 198.81Z" fill="#D1A383"/>
<path fill-rule="evenodd" clip-rule="evenodd" d="M166.278 191.633C165.052 191.542 163.557 191.801 162.436 192.097L161.999 189.457H166.139C166.174 190.014 166.226 190.782 166.278 191.633Z" fill="#C19274"/>
<path fill-rule="evenodd" clip-rule="evenodd" d="M165.253 199.128H165.188C164.642 199.142 164.098 199.075 163.572 198.929L161.956 189.2L164.439 188.78L165.253 199.128Z" fill="#C19274"/>
<path fill-rule="evenodd" clip-rule="evenodd" d="M196.127 206.443C196.053 206.494 195.972 206.532 195.886 206.556C195.704 206.61 195.516 206.64 195.326 206.647C194.875 206.669 194.422 206.654 193.973 206.602C193.353 206.538 192.853 206.443 192.853 206.443L186.565 190.74L185.25 187.46L184.917 186.091L184.817 185.688L186.526 185.54L187.646 185.442L188.948 185.328L189.95 185.241L190.118 185.818L191.203 189.539L196.127 206.443Z" fill="#D1A383"/>
<path fill-rule="evenodd" clip-rule="evenodd" d="M191.113 189.245C190.658 189.173 189.866 189.166 189.394 189.35C188.587 189.663 187.26 190.56 186.803 191.332L185.248 187.456L184.915 186.087L190.114 185.807L191.113 189.245Z" fill="#C19274"/>
<path fill-rule="evenodd" clip-rule="evenodd" d="M193.975 206.603C193.355 206.537 192.856 206.443 192.856 206.443L185.25 187.455L184.817 185.681L186.526 185.533L193.975 206.603Z" fill="#C19274"/>
<path fill-rule="evenodd" clip-rule="evenodd" d="M195.886 206.556C195.704 206.608 195.516 206.639 195.326 206.647C195.326 206.647 191.156 194.655 190.079 191.693C189.099 188.991 190.708 190.013 191.133 191.372C191.557 192.731 195.886 206.556 195.886 206.556Z" fill="#E3BB9B"/>
<path fill-rule="evenodd" clip-rule="evenodd" d="M199.601 167.668C199.601 168.88 198.714 180.512 197.984 182.45C197.255 184.389 197.564 185.359 196.445 185.843C195.325 186.328 157.03 190.986 155.415 191.203C153.8 191.42 126.658 195.186 122.887 195.727C119.427 196.219 101.18 198.709 96.8704 199.448C96.4813 199.516 96.2083 199.567 96.0655 199.602C94.3439 200.035 91.8664 200.035 89.6045 200.252C87.3425 200.469 82.6059 199.065 78.4068 197.872C74.2076 196.68 71.6209 196.473 70.4368 193.133C69.2526 189.793 67.4204 178.808 66.7737 174.284C66.1271 169.76 63.3192 152.642 63.3192 152.642C63.0679 151.229 63.0486 149.784 63.2619 148.364C63.6818 145.671 65.1361 142.565 69.0567 140.281C75.438 136.566 85.7776 135.514 88.041 135.112C90.3043 134.71 101.046 133.572 104.44 133.416C107.834 133.259 111.548 133.975 115.102 133.416C118.656 132.856 128.351 132.767 130.048 132.767C131.403 132.767 140.035 132.821 146.828 133.336C148.535 133.467 150.125 133.616 151.455 133.819C158.078 134.789 168.743 138.422 171.248 139.958C173.754 141.493 176.903 144.563 179.647 145.137C182.39 145.711 190.228 146.104 193.299 146.832C194.658 147.137 195.998 147.517 197.314 147.97C198.83 148.52 200.012 149.176 200.327 149.984C200.894 151.43 199.601 166.454 199.601 167.668Z" fill="#E3BB9B"/>
<path fill-rule="evenodd" clip-rule="evenodd" d="M95.955 144.28C95.7576 144.56 94.9052 145.604 95.2285 146.215C95.5518 146.825 96.1929 147.673 96.7612 147.754C97.3295 147.836 98.3583 148.157 98.732 147.754C99.1057 147.351 99.0245 146.621 98.5822 146.117C98.1399 145.613 96.6422 143.305 95.955 144.28Z" fill="#F6D2B7"/>
<path fill-rule="evenodd" clip-rule="evenodd" d="M110.004 143.554C109.385 143.853 108.963 145.126 109.406 145.47C109.85 145.814 110.295 145.735 110.537 146.3C110.752 146.791 111.069 147.232 111.467 147.592C111.747 147.835 112.96 147.389 112.96 147.109C112.96 146.829 112.92 145.529 112.759 145.47C112.598 145.411 111.006 143.068 110.004 143.554Z" fill="#F6D2B7"/>
<path fill-rule="evenodd" clip-rule="evenodd" d="M125.079 142.785C124.508 143.048 124.067 144.24 124.837 144.885C125.606 145.53 125.676 146.016 125.926 146.258C126.175 146.5 127.465 146.538 127.866 146.096C128.266 145.653 128.145 144.48 127.586 144.36C127.026 144.24 126.128 142.309 125.079 142.785Z" fill="#F6D2B7"/>
<path fill-rule="evenodd" clip-rule="evenodd" d="M138.972 142.423C138.677 142.595 138.165 143.716 138.772 144.28C139.38 144.844 139.135 145.011 139.612 145.575C140.089 146.139 141.124 146.542 141.398 145.895C141.672 145.249 141.914 144.118 141.188 143.716C140.462 143.314 139.464 142.14 138.972 142.423Z" fill="#F6D2B7"/>
<path fill-rule="evenodd" clip-rule="evenodd" d="M153.473 141.439C153.398 141.475 152.503 141.811 152.8 142.378C153.097 142.945 152.8 143.298 152.94 143.757C153.08 144.216 153.533 144.833 154.313 144.618C155.093 144.402 155.499 144.478 155.633 144.303C155.767 144.128 155.714 143.138 155.283 143.096C154.852 143.054 154.126 142.247 154.099 142.059C154.072 141.871 153.783 141.291 153.473 141.439Z" fill="#F6D2B7"/>
<path fill-rule="evenodd" clip-rule="evenodd" d="M98.2981 157.368C98.1231 157.036 96.8494 156.438 96.8676 157.368C96.8858 158.297 96.6058 158.862 96.8676 159.427C97.1293 159.991 97.9356 160.114 98.2981 160.236C98.6606 160.357 99.1869 160.357 99.3073 159.956C99.4277 159.554 99.4976 159.028 99.1407 158.664C98.7838 158.3 98.2981 157.368 98.2981 157.368Z" fill="#F6D2B7"/>
<path fill-rule="evenodd" clip-rule="evenodd" d="M113.446 156.68C113.234 156.189 111.951 156.356 111.951 156.68C111.951 157.005 112.395 157.892 112.511 158.417C112.627 158.942 112.791 159.872 113.84 159.63C114.89 159.387 115.076 159.184 115.065 158.822C115.054 158.459 113.446 156.68 113.446 156.68Z" fill="#F6D2B7"/>
<path fill-rule="evenodd" clip-rule="evenodd" d="M128.35 155.467C128.176 155.101 127.339 154.536 127.097 155.022C126.855 155.507 126.29 156.476 126.817 156.637C127.345 156.798 127.625 156.84 127.867 157.445C128.109 158.049 128.312 158.294 128.715 158.375C129.118 158.457 129.645 158.455 129.846 157.769C130.048 157.083 128.715 156.213 128.715 156.213L128.35 155.467Z" fill="#F6D2B7"/>
<path fill-rule="evenodd" clip-rule="evenodd" d="M142.2 154.835C141.86 154.389 141.791 153.493 141.391 154.098C140.991 154.702 140.589 155.31 140.872 155.917C141.154 156.525 141.962 157.279 142.487 157.223C143.012 157.167 144.094 156.875 143.899 156.372C143.705 155.87 142.2 154.835 142.2 154.835Z" fill="#F6D2B7"/>
<path fill-rule="evenodd" clip-rule="evenodd" d="M139.658 137.41C139.277 137.03 140.498 141.44 140.498 142.519C140.498 143.599 143.46 142.84 143.46 142.84C143.46 142.84 143.085 142.195 142.654 141.979C142.222 141.764 142.276 141.386 142.006 141.117C141.735 140.848 141.755 141.227 141.395 140.687C141.036 140.147 140.464 138.217 139.658 137.41Z" fill="#D1A383"/>
<path fill-rule="evenodd" clip-rule="evenodd" d="M153.741 137C153.741 137 154.337 140.739 154.282 141.925C154.228 143.11 156.168 142.409 156.168 142.409C156.168 142.409 157.138 141.493 156.168 140.578C155.198 139.663 155.346 139.749 155.188 139.479C155.03 139.209 154.116 136.991 153.741 137Z" fill="#D1A383"/>
<path fill-rule="evenodd" clip-rule="evenodd" d="M126.059 138.158C126.059 138.158 126.758 141.359 126.655 143.096C126.551 144.833 128.108 143.516 128.108 143.096C128.108 142.676 128.234 141.95 127.912 141.789C127.59 141.628 127.166 140.752 127.059 139.889C126.953 139.027 126.383 138.266 126.059 138.158Z" fill="#D1A383"/>
<path fill-rule="evenodd" clip-rule="evenodd" d="M111.091 138.993C111.264 140.315 112.113 143.053 112.165 143.968C112.217 144.883 113.727 144.724 113.889 144.293C114.052 143.862 114.459 143.275 114.213 142.948C113.812 142.417 113.523 142.561 112.974 141.871C112.425 141.181 111.091 138.267 111.091 138.993Z" fill="#D1A383"/>
<path fill-rule="evenodd" clip-rule="evenodd" d="M96.9124 140.006C97.0635 141.125 97.5548 143.26 97.5898 144.639C97.6248 146.017 100.641 145.092 101.125 144.639C101.61 144.185 100.426 144.455 99.8336 144.24C99.2415 144.024 99.0119 144.1 98.732 143.163C98.4324 142.17 97.3687 140.091 96.9124 140.006Z" fill="#D1A383"/>
<path fill-rule="evenodd" clip-rule="evenodd" d="M98.7837 156.866C98.7837 156.447 98.9236 155.797 99.3435 155.677C99.7635 155.556 99.9552 155.798 100.154 156.08C100.353 156.361 100.635 156.442 101.201 156.686C101.766 156.929 102.373 156.808 102.291 157.453C102.21 158.098 100.864 158.652 100.351 158.665C99.839 158.678 99.5045 158.385 99.3435 158.262C99.1826 158.139 98.7837 156.866 98.7837 156.866Z" fill="#D1A383"/>
<path fill-rule="evenodd" clip-rule="evenodd" d="M113.93 156.237C113.958 155.7 113.727 154.905 113.93 154.48C114.133 154.054 114.658 153.812 114.981 154.701C115.305 155.59 115.909 155.671 116.233 156.241C116.556 156.81 115.583 157.443 114.9 157.155C114.481 156.969 114.139 156.644 113.93 156.237V156.237Z" fill="#D1A383"/>
<path fill-rule="evenodd" clip-rule="evenodd" d="M128.997 155.024C128.848 154.523 128.754 154.006 128.717 153.485C128.717 153.119 128.943 152.291 129.39 152.937C129.723 153.422 129.933 154.136 130.415 154.092C130.896 154.049 131.988 154.452 131.988 154.777C131.988 155.101 132.287 155.383 131.795 155.665C131.302 155.948 129.225 155.906 129.225 155.906L128.997 155.024Z" fill="#D1A383"/>
<path fill-rule="evenodd" clip-rule="evenodd" d="M142.609 154.487C142.456 153.916 142.273 153.367 142.204 153.013C142.147 152.711 142.311 151.822 142.467 151.781C142.866 151.672 143.215 152.12 143.456 152.621C143.696 153.122 143.901 153.248 144.385 153.492C144.869 153.735 145.597 154.052 145.597 154.481C145.597 154.911 145.111 155.268 144.669 155.268C144.227 155.268 142.609 154.487 142.609 154.487Z" fill="#D1A383"/>
<path fill-rule="evenodd" clip-rule="evenodd" d="M189.947 174.17C190.706 174.45 191.522 174.748 192.168 174.278C192.815 173.807 192.728 170.182 192.728 169.53C192.728 168.877 194.079 160.8 193.97 160.236C193.861 159.671 193.929 154.176 193.97 152.723C194.02 150.824 196.025 151.324 197.091 149.949C197.619 149.267 186.953 149.442 185.174 149.118C183.395 148.793 179.088 148.26 177.336 147.907C176.233 147.686 172.486 147.207 171.279 145.645C170.073 144.083 165.637 140.193 161.947 139.231C160.658 138.896 158.308 138.698 158.064 139.511C157.821 140.325 158.076 141.871 158.064 143.6C158.053 145.329 156.26 147.305 155.238 149.092C153.979 151.303 153.095 153.94 152.531 156.221C152.193 157.589 148.696 161.227 143.768 162.351C138.839 163.475 160.167 163.714 160.167 163.714L189.947 174.17Z" fill="#D1A383"/>
<path fill-rule="evenodd" clip-rule="evenodd" d="M190.956 169.688C190.956 170.43 190.939 171.286 190.587 172.027C190.405 172.42 190.128 172.762 189.782 173.022C189.352 173.344 188.767 173.593 187.962 173.722C185.055 174.208 174.875 174.693 171.241 175.262C167.608 175.83 156.942 176.958 154.275 177.039C151.609 177.12 137.07 179.303 134.644 179.463C132.219 179.624 121.64 181.003 119.378 181.402C117.116 181.801 104.756 182.613 103.301 182.694C101.845 182.775 98.7781 183.254 96.1915 183.017C93.6048 182.781 91.641 180.594 91.641 180.594V166.525C93.1471 166.35 104.567 165.685 106.722 165.685C108.876 165.685 118.899 164.683 122.34 164.484C125.78 164.285 136.127 162.776 138.389 162.776C140.651 162.776 149.586 161.7 151.206 161.591C152.825 161.481 164.94 160.567 168.17 160.728C171.401 160.889 178.188 160.972 180.45 161.619C182.712 162.265 186.67 162.426 188.043 162.992C189.417 163.557 190.548 163.479 190.951 164.446C191.354 165.413 190.956 168.152 190.956 169.688Z" fill="#E3BB9B"/>
<path fill-rule="evenodd" clip-rule="evenodd" d="M189.782 173.022C189.352 173.344 188.767 173.593 187.962 173.722C185.055 174.208 174.875 174.693 171.241 175.262C167.608 175.83 156.942 176.958 154.275 177.039C151.609 177.12 137.07 179.302 134.644 179.463C132.219 179.624 121.64 181.003 119.378 181.402C117.116 181.801 104.756 182.613 103.301 182.694C101.845 182.775 98.7781 183.254 96.1915 183.017C93.6048 182.781 92.9609 180.897 92.9609 180.897L91.641 171.776C92.0413 171.955 92.4472 172.158 92.7999 172.354C93.9575 173.001 95.7086 173.001 97.5842 172.676C99.3044 172.38 103.694 171.881 103.792 171.881C103.763 171.888 103.734 171.892 103.705 171.895C102.897 171.996 101.363 173.404 100.314 174.049C99.2638 174.695 100.07 176.313 100.314 177.442C100.557 178.572 103.06 180.11 104.756 180.513C106.453 180.916 115.338 179.463 118.005 179.382C120.671 179.301 126.164 178.412 129.719 178.412C133.274 178.412 141.35 176.556 144.259 176.556C147.168 176.556 154.033 175.341 156.376 175.183C158.719 175.025 162.675 174.534 164.535 174.374C166.395 174.215 171.394 173.082 173.825 173.254C176.256 173.426 180.45 173.089 184.891 172.764C187.344 172.578 188.91 172.743 189.782 173.022Z" fill="#E3BB9B"/>
<path fill-rule="evenodd" clip-rule="evenodd" d="M95.6331 182.208C94.7778 182.134 94.1788 182.664 94.071 183.083C93.9632 183.502 95.5799 185.387 97.2483 185.225C98.9168 185.062 99.0246 185.243 99.8868 185.233C100.749 185.223 103.386 184.2 104.197 184.2C105.007 184.2 107.266 183.78 108.072 183.72C108.879 183.66 113.405 183.664 113.89 183.502C114.374 183.339 118.035 182.586 118.952 182.478C119.869 182.371 125.362 181.885 126.975 181.885C128.589 181.885 130.154 181.454 130.801 181.129C131.448 180.804 136.348 180.268 137.532 180.215C138.716 180.162 142.487 179.731 143.618 179.407C144.749 179.084 150.888 178.598 152.18 178.492C153.472 178.386 154.336 178.009 155.412 177.847C156.488 177.684 163.11 177.2 164.352 177.147C165.594 177.094 169.899 176.447 171.192 176.286C172.486 176.125 175.985 176.014 177.655 175.855C179.325 175.695 181.426 175.799 182.394 175.53C183.443 175.218 184.531 175.055 185.625 175.047C186.864 175.047 189.341 174.669 190.15 174.669C190.959 174.669 191.101 173.646 191.13 173.377C191.159 173.109 191.543 170.145 191.49 169.66C191.436 169.174 189.176 170.199 189.176 170.199L95.6331 182.208Z" fill="#D1A383"/>
<path fill-rule="evenodd" clip-rule="evenodd" d="M189.503 172.473C189.432 172.451 186.971 172.903 184.916 173.286L164.29 175.375L96.8045 182.613C96.4 182.613 94.5006 183.059 94.6223 183.381C94.7441 183.703 96.5987 184.511 97.5897 184.431C98.5807 184.351 108.005 182.662 111.507 182.611C113.257 182.588 146.566 177.959 149.151 178.04C151.736 178.121 185.9 173.981 185.913 173.981C187.065 174.042 188.109 174.112 188.412 174.177C189.181 174.338 189.825 174.298 189.951 174.177C190.077 174.055 190.678 173.45 190.678 173.209C190.678 172.969 189.624 172.512 189.503 172.473Z" fill="#C19274"/>
<path fill-rule="evenodd" clip-rule="evenodd" d="M82.3847 197.343L81.0354 200.177L75.0068 212.855C75.0068 212.855 73.7667 213.26 72.7981 213.069C72.7337 213.058 72.6763 213.044 72.6189 213.033C71.7791 212.845 71.4515 212.585 71.4515 212.585L76.156 200.375L77.6957 196.375L80.1872 196.891L82.3847 197.343Z" fill="#D1A383"/>
<path fill-rule="evenodd" clip-rule="evenodd" d="M82.3847 197.343L81.0354 200.176C79.4116 199.923 77.754 199.99 76.156 200.374L77.6957 196.373L80.1872 196.89L82.3847 197.343Z" fill="#C19274"/>
<path fill-rule="evenodd" clip-rule="evenodd" d="M80.19 196.89L72.6189 213.031C71.7791 212.844 71.4515 212.584 71.4515 212.584L77.6985 196.373L80.19 196.89Z" fill="#C19274"/>
<path fill-rule="evenodd" clip-rule="evenodd" d="M190.028 167.296C189.789 166.48 189.26 166.124 188.209 165.843C187.789 165.731 186.161 165.304 185.031 165.304C183.902 165.304 181.37 165.251 178.033 165.304C174.696 165.357 166.401 166.004 164.783 165.896C163.424 165.806 156.059 167.188 153.151 167.296C150.244 167.403 138.718 168.76 135.915 168.676C133.113 168.592 122.99 169.341 119.222 169.665C115.454 169.99 106.296 170.957 105.11 170.85C103.925 170.742 100.587 171.066 98.8649 171.173C97.1433 171.279 95.4174 172.358 93.8022 171.498C93.2087 171.18 92.4164 170.773 91.6466 170.364V166.524C93.1527 166.349 104.573 165.685 106.727 165.685C108.881 165.685 118.905 164.685 122.345 164.485C125.786 164.285 136.132 162.777 138.394 162.777C140.656 162.777 149.592 161.7 151.211 161.592C152.831 161.484 164.945 160.57 168.176 160.731C171.406 160.892 178.194 160.973 180.456 161.618C182.718 162.264 186.676 162.427 188.049 162.992C189.422 163.556 190.553 163.477 190.956 164.446C191.183 164.989 191.224 166.09 191.089 167.216C190.674 170.689 190.133 167.672 190.028 167.296Z" fill="#F6D2B7"/>
<path fill-rule="evenodd" clip-rule="evenodd" d="M96.3664 145.575C96.3667 145.311 96.4451 145.054 96.5917 144.835C96.7383 144.616 96.9465 144.445 97.19 144.345C97.4335 144.244 97.7014 144.218 97.9598 144.27C98.2182 144.321 98.4555 144.448 98.6417 144.635C98.8279 144.821 98.9547 145.058 99.006 145.317C99.0573 145.575 99.0308 145.843 98.9299 146.087C98.829 146.33 98.6582 146.538 98.4391 146.684C98.22 146.831 97.9624 146.909 97.699 146.909C97.5238 146.909 97.3505 146.874 97.1887 146.807C97.0269 146.74 96.88 146.642 96.7562 146.518C96.6325 146.394 96.5343 146.247 96.4675 146.085C96.4006 145.923 96.3662 145.75 96.3664 145.575V145.575Z" fill="#C19274"/>
<path fill-rule="evenodd" clip-rule="evenodd" d="M110.544 144.739C110.544 144.476 110.622 144.218 110.769 143.999C110.915 143.78 111.123 143.609 111.367 143.508C111.61 143.407 111.878 143.381 112.137 143.432C112.395 143.484 112.633 143.611 112.819 143.797C113.005 143.983 113.132 144.221 113.184 144.479C113.235 144.738 113.209 145.006 113.108 145.249C113.007 145.493 112.836 145.701 112.617 145.847C112.398 145.994 112.14 146.072 111.877 146.072C111.523 146.072 111.184 145.932 110.934 145.682C110.685 145.432 110.544 145.093 110.544 144.739Z" fill="#C19274"/>
<path fill-rule="evenodd" clip-rule="evenodd" d="M125.266 144.041C125.266 143.777 125.344 143.519 125.491 143.299C125.637 143.08 125.845 142.909 126.089 142.807C126.333 142.706 126.601 142.68 126.86 142.731C127.119 142.783 127.357 142.91 127.543 143.096C127.73 143.283 127.857 143.521 127.909 143.78C127.96 144.038 127.933 144.307 127.832 144.551C127.731 144.794 127.56 145.003 127.34 145.149C127.121 145.296 126.863 145.374 126.599 145.373C126.424 145.374 126.25 145.339 126.089 145.272C125.927 145.205 125.78 145.107 125.656 144.984C125.532 144.86 125.434 144.713 125.367 144.551C125.3 144.389 125.266 144.216 125.266 144.041Z" fill="#C19274"/>
<path fill-rule="evenodd" clip-rule="evenodd" d="M139.009 143.471C139.008 143.207 139.086 142.949 139.233 142.73C139.379 142.51 139.587 142.339 139.831 142.238C140.075 142.137 140.343 142.11 140.602 142.161C140.861 142.213 141.099 142.34 141.285 142.526C141.472 142.713 141.599 142.95 141.651 143.209C141.702 143.468 141.676 143.736 141.575 143.98C141.474 144.224 141.303 144.432 141.084 144.579C140.864 144.725 140.607 144.804 140.343 144.804C139.989 144.804 139.65 144.663 139.4 144.414C139.15 144.164 139.009 143.825 139.009 143.471V143.471Z" fill="#C19274"/>
<path fill-rule="evenodd" clip-rule="evenodd" d="M153.108 142.749C153.108 142.485 153.186 142.228 153.333 142.009C153.479 141.789 153.687 141.619 153.931 141.518C154.174 141.417 154.442 141.391 154.701 141.442C154.959 141.493 155.196 141.62 155.383 141.807C155.569 141.993 155.696 142.23 155.748 142.489C155.799 142.747 155.773 143.015 155.672 143.259C155.571 143.502 155.4 143.71 155.181 143.857C154.962 144.003 154.704 144.081 154.441 144.081C154.266 144.082 154.092 144.047 153.93 143.98C153.769 143.913 153.622 143.815 153.498 143.692C153.374 143.568 153.276 143.421 153.209 143.259C153.142 143.097 153.108 142.924 153.108 142.749V142.749Z" fill="#C19274"/>
<path fill-rule="evenodd" clip-rule="evenodd" d="M96.7612 145.47C96.7614 145.235 96.8315 145.005 96.9624 144.809C97.0933 144.614 97.2792 144.462 97.4966 144.372C97.714 144.282 97.9532 144.259 98.1839 144.305C98.4146 144.351 98.6265 144.464 98.7927 144.631C98.959 144.797 99.0721 145.009 99.1179 145.24C99.1637 145.471 99.1401 145.71 99.05 145.927C98.9599 146.144 98.8074 146.33 98.6118 146.461C98.4162 146.591 98.1862 146.661 97.9509 146.661C97.7946 146.661 97.6397 146.63 97.4953 146.57C97.3509 146.511 97.2196 146.423 97.1092 146.312C96.9987 146.202 96.911 146.07 96.8513 145.926C96.7916 145.781 96.761 145.626 96.7612 145.47V145.47Z" fill="#E3BB9B"/>
<path fill-rule="evenodd" clip-rule="evenodd" d="M110.921 144.661C110.921 144.426 110.99 144.196 111.121 144C111.252 143.804 111.438 143.652 111.655 143.562C111.873 143.472 112.112 143.448 112.343 143.494C112.573 143.54 112.785 143.653 112.952 143.82C113.118 143.986 113.231 144.198 113.277 144.429C113.323 144.66 113.3 144.899 113.21 145.116C113.12 145.334 112.967 145.519 112.771 145.65C112.576 145.781 112.346 145.851 112.11 145.851C111.954 145.851 111.799 145.82 111.655 145.761C111.51 145.701 111.379 145.613 111.269 145.503C111.158 145.392 111.071 145.261 111.011 145.116C110.951 144.972 110.92 144.817 110.921 144.661V144.661Z" fill="#E3BB9B"/>
<path fill-rule="evenodd" clip-rule="evenodd" d="M125.653 143.968C125.653 143.733 125.723 143.503 125.854 143.307C125.985 143.112 126.171 142.96 126.388 142.87C126.606 142.78 126.845 142.757 127.075 142.803C127.306 142.849 127.518 142.962 127.684 143.129C127.85 143.295 127.964 143.507 128.009 143.738C128.055 143.969 128.032 144.208 127.941 144.425C127.851 144.642 127.699 144.828 127.503 144.959C127.308 145.089 127.078 145.159 126.842 145.159C126.686 145.159 126.531 145.129 126.387 145.069C126.242 145.009 126.111 144.921 126 144.811C125.89 144.7 125.802 144.569 125.742 144.424C125.683 144.279 125.652 144.124 125.653 143.968V143.968Z" fill="#E3BB9B"/>
<path fill-rule="evenodd" clip-rule="evenodd" d="M139.353 143.382C139.353 143.146 139.423 142.916 139.554 142.72C139.686 142.525 139.872 142.372 140.089 142.282C140.307 142.192 140.546 142.169 140.777 142.215C141.008 142.261 141.221 142.375 141.387 142.541C141.553 142.708 141.667 142.92 141.713 143.151C141.758 143.382 141.735 143.622 141.645 143.839C141.554 144.057 141.402 144.243 141.206 144.374C141.01 144.504 140.78 144.574 140.544 144.574C140.388 144.574 140.233 144.543 140.088 144.483C139.943 144.423 139.812 144.336 139.701 144.225C139.591 144.114 139.503 143.983 139.443 143.838C139.384 143.693 139.353 143.538 139.353 143.382V143.382Z" fill="#E3BB9B"/>
<path fill-rule="evenodd" clip-rule="evenodd" d="M141.233 155.266C141.232 155.003 141.31 154.745 141.457 154.525C141.603 154.305 141.811 154.134 142.055 154.033C142.299 153.932 142.567 153.905 142.826 153.957C143.085 154.008 143.323 154.135 143.509 154.321C143.696 154.508 143.823 154.746 143.875 155.004C143.926 155.263 143.9 155.531 143.799 155.775C143.698 156.019 143.527 156.227 143.308 156.374C143.088 156.521 142.831 156.599 142.567 156.599C142.213 156.599 141.874 156.459 141.624 156.209C141.374 155.959 141.233 155.62 141.233 155.266V155.266Z" fill="#C19274"/>
<path fill-rule="evenodd" clip-rule="evenodd" d="M141.675 155.024C141.676 154.789 141.746 154.559 141.876 154.364C142.007 154.168 142.193 154.016 142.411 153.926C142.628 153.836 142.867 153.813 143.098 153.859C143.329 153.905 143.541 154.019 143.707 154.185C143.873 154.351 143.986 154.563 144.032 154.794C144.078 155.025 144.054 155.264 143.964 155.481C143.874 155.699 143.722 155.884 143.526 156.015C143.33 156.146 143.1 156.216 142.865 156.216C142.549 156.215 142.247 156.09 142.024 155.866C141.801 155.643 141.675 155.34 141.675 155.024V155.024Z" fill="#E3BB9B"/>
<path fill-rule="evenodd" clip-rule="evenodd" d="M127.607 155.815C127.607 155.552 127.685 155.294 127.832 155.075C127.979 154.855 128.187 154.685 128.431 154.584C128.675 154.483 128.943 154.457 129.202 154.509C129.46 154.56 129.698 154.687 129.884 154.874C130.071 155.061 130.198 155.298 130.249 155.557C130.3 155.816 130.274 156.084 130.173 156.328C130.072 156.571 129.901 156.779 129.681 156.926C129.462 157.072 129.204 157.151 128.941 157.151C128.765 157.151 128.592 157.116 128.43 157.049C128.268 156.982 128.121 156.883 127.997 156.759C127.873 156.635 127.775 156.488 127.708 156.326C127.641 156.164 127.606 155.991 127.607 155.815V155.815Z" fill="#C19274"/>
<path fill-rule="evenodd" clip-rule="evenodd" d="M128.032 155.671C128.032 155.436 128.102 155.206 128.233 155.01C128.363 154.815 128.549 154.662 128.767 154.572C128.984 154.482 129.223 154.458 129.454 154.504C129.685 154.55 129.897 154.664 130.063 154.83C130.23 154.996 130.343 155.208 130.389 155.439C130.435 155.67 130.411 155.909 130.321 156.126C130.231 156.344 130.079 156.53 129.883 156.66C129.687 156.791 129.457 156.861 129.222 156.861C128.906 156.861 128.604 156.736 128.381 156.512C128.158 156.289 128.032 155.987 128.032 155.671Z" fill="#E3BB9B"/>
<path fill-rule="evenodd" clip-rule="evenodd" d="M112.514 157.006C112.514 156.743 112.592 156.485 112.738 156.266C112.885 156.047 113.093 155.876 113.336 155.775C113.58 155.675 113.848 155.648 114.106 155.7C114.365 155.751 114.602 155.878 114.788 156.064C114.975 156.251 115.102 156.488 115.153 156.747C115.204 157.005 115.178 157.273 115.077 157.516C114.976 157.76 114.806 157.968 114.586 158.114C114.367 158.261 114.11 158.339 113.846 158.339C113.493 158.339 113.154 158.198 112.904 157.948C112.654 157.698 112.514 157.36 112.514 157.006V157.006Z" fill="#C19274"/>
<path fill-rule="evenodd" clip-rule="evenodd" d="M113.026 156.867C113.026 156.631 113.095 156.4 113.226 156.204C113.357 156.008 113.543 155.855 113.76 155.765C113.978 155.675 114.218 155.651 114.449 155.697C114.68 155.743 114.893 155.856 115.059 156.023C115.226 156.189 115.339 156.402 115.385 156.633C115.431 156.864 115.408 157.104 115.317 157.322C115.227 157.539 115.074 157.725 114.878 157.856C114.682 157.987 114.451 158.057 114.216 158.056C113.9 158.056 113.597 157.931 113.374 157.708C113.151 157.485 113.026 157.182 113.026 156.867Z" fill="#E3BB9B"/>
<path fill-rule="evenodd" clip-rule="evenodd" d="M97.3687 158.048C97.3684 157.784 97.4464 157.526 97.5928 157.306C97.7392 157.087 97.9475 156.916 98.1912 156.814C98.4349 156.713 98.7031 156.687 98.962 156.738C99.2208 156.789 99.4587 156.916 99.6453 157.103C99.832 157.289 99.9592 157.527 100.011 157.786C100.062 158.044 100.036 158.313 99.9351 158.557C99.8342 158.8 99.6632 159.009 99.4438 159.155C99.2245 159.302 98.9665 159.38 98.7026 159.38C98.5274 159.381 98.3539 159.347 98.192 159.28C98.0301 159.213 97.883 159.115 97.7591 158.991C97.6351 158.867 97.5369 158.72 97.4699 158.558C97.4029 158.396 97.3685 158.223 97.3687 158.048Z" fill="#C19274"/>
<path fill-rule="evenodd" clip-rule="evenodd" d="M97.7801 157.87C97.7801 157.635 97.8499 157.405 97.9806 157.209C98.1113 157.013 98.2971 156.861 98.5145 156.771C98.7319 156.681 98.9712 156.657 99.202 156.703C99.4327 156.749 99.6447 156.862 99.8111 157.029C99.9775 157.195 100.091 157.407 100.137 157.638C100.183 157.869 100.159 158.108 100.069 158.325C99.979 158.543 99.8265 158.729 99.6308 158.859C99.4352 158.99 99.2052 159.06 98.9698 159.06C98.6543 159.06 98.3517 158.934 98.1286 158.711C97.9054 158.488 97.7801 158.186 97.7801 157.87Z" fill="#E3BB9B"/>
<path fill-rule="evenodd" clip-rule="evenodd" d="M153.473 142.605C153.473 142.369 153.543 142.139 153.674 141.943C153.805 141.747 153.991 141.594 154.209 141.504C154.427 141.414 154.666 141.39 154.897 141.437C155.128 141.483 155.341 141.596 155.507 141.763C155.674 141.93 155.787 142.142 155.833 142.373C155.879 142.604 155.855 142.844 155.765 143.062C155.674 143.279 155.521 143.465 155.325 143.596C155.129 143.727 154.899 143.796 154.663 143.796C154.507 143.796 154.352 143.765 154.207 143.705C154.063 143.645 153.932 143.558 153.821 143.447C153.711 143.336 153.623 143.205 153.563 143.06C153.504 142.916 153.473 142.761 153.473 142.605V142.605Z" fill="#E3BB9B"/>
<path fill-rule="evenodd" clip-rule="evenodd" d="M155.7 153.833C155.701 153.598 155.771 153.368 155.901 153.173C156.032 152.977 156.218 152.825 156.435 152.735C156.653 152.645 156.892 152.622 157.123 152.668C157.353 152.714 157.565 152.827 157.731 152.993C157.898 153.16 158.011 153.372 158.057 153.602C158.103 153.833 158.079 154.072 157.99 154.289C157.9 154.507 157.747 154.692 157.552 154.823C157.357 154.954 157.127 155.024 156.891 155.024C156.735 155.025 156.58 154.994 156.435 154.935C156.291 154.875 156.159 154.787 156.048 154.676C155.938 154.566 155.85 154.434 155.79 154.29C155.731 154.145 155.7 153.99 155.7 153.833V153.833Z" fill="#E3BB9B"/>
<path fill-rule="evenodd" clip-rule="evenodd" d="M199.986 149.448C199.566 149.48 196.787 148.906 195.144 148.363C193.579 147.844 192.107 147.585 190.028 147.393C188.337 147.236 183.322 146.591 181.63 146.478C179.938 146.364 175.776 144.925 175.302 144.458C174.693 143.858 171.262 141.362 170.455 140.715C169.647 140.068 166.793 139.045 164.934 138.476C163.075 137.906 157.868 136.012 155.401 135.298C152.933 134.584 148.71 134.054 147.014 133.732C146.454 133.626 146.5 133.479 146.829 133.329C148.536 133.46 150.127 133.609 151.456 133.812C158.08 134.782 168.744 138.415 171.25 139.951C173.755 141.486 176.904 144.556 179.648 145.13C182.391 145.704 190.23 146.097 193.301 146.825C194.665 147.15 198.86 148.15 199.986 149.448Z" fill="#F6D2B7"/>
<path fill-rule="evenodd" clip-rule="evenodd" d="M96.8676 199.448C96.4785 199.516 96.2055 199.567 96.0627 199.602C94.3411 200.035 91.8636 200.035 89.6017 200.252C87.3397 200.469 82.6031 199.065 78.404 197.872C74.2048 196.68 71.6182 196.473 70.434 193.133C69.2498 189.793 67.4176 178.808 66.7709 174.284C66.1243 169.761 63.3192 152.642 63.3192 152.642C63.0679 151.229 63.0486 149.784 63.2619 148.364L64.9219 144.865C65.1641 144.319 66.0683 144.557 66.0683 146.664C66.0683 148.77 67.0775 151.76 68.4912 152.963C69.1239 153.501 70.511 154.821 71.9653 154.982C73.4196 155.143 78.103 155.468 79.2354 155.67C80.3678 155.871 83.1238 156.679 83.2372 158.617C83.3505 160.556 83.5633 171.215 83.8614 173.564C84.1596 175.912 84.6467 182.217 84.8902 184.437C85.1338 186.656 85.6965 192.062 87.3943 194.163C89.0922 196.264 90.9062 198.485 94.6196 198.849C95.6316 198.95 96.3525 199.174 96.8676 199.448Z" fill="#D1A383"/>
<path fill-rule="evenodd" clip-rule="evenodd" d="M75.382 147.364C75.4407 148.547 75.4897 151.35 78.7217 152.319C81.9536 153.287 87.8772 153.934 89.6017 155.118C91.3261 156.302 92.2933 158.78 92.5089 160.717C92.7244 162.654 93.4789 169.335 93.8022 171.495C94.1255 173.655 94.3411 180.544 94.663 181.619C94.9849 182.694 94.8786 185.282 96.2783 185.605C97.678 185.929 98.1105 188.836 96.8172 188.944C95.5238 189.051 93.2633 186.789 92.618 183.668C91.9728 180.547 90.895 167.291 90.4639 164.387C90.0328 161.483 89.5275 156.549 88.2019 155.989C86.8764 155.429 83.5703 154.589 82.2783 154.371C80.9864 154.152 79.227 153.634 76.5297 153.251C73.2026 152.772 69.4192 148.646 71.278 144.626C72.0786 142.892 73.9165 142.182 75.4239 141.751C76.9314 141.32 78.0834 140.803 80.0164 140.481C81.9494 140.159 86.6538 139.653 86.875 140.413C87.0962 141.173 86.0758 141.796 84.5459 142.092C82.5345 142.489 76.1476 144.892 75.9292 145.539C75.7109 146.185 75.3372 146.399 75.382 147.364Z" fill="#F6D2B7"/>
<path fill-rule="evenodd" clip-rule="evenodd" d="M124.627 205.039C124.251 205.47 124.207 205.947 124.39 206.46C124.734 207.409 125.868 208.467 127.189 209.521C127.357 209.661 127.506 209.78 127.637 209.896C127.671 209.925 127.706 209.955 127.738 209.987L127.815 210.055C129.041 211.185 128.579 211.444 130.784 213.738C133.294 216.351 135.025 216.398 135.518 216.161C135.938 215.958 135.088 214.572 134.149 213.013C134.104 212.939 134.059 212.863 134.009 212.789C133.884 212.579 133.761 212.369 133.638 212.162C132.539 210.286 132.819 209.406 133.078 206.615C133.289 204.346 136.607 193.945 136.607 193.945L131.79 193.115C131.79 193.115 130.342 201.397 128.746 202.673C127.891 203.355 126.926 203.363 126.113 203.867C126.056 203.902 125.998 203.937 125.944 203.975C125.476 204.29 125 204.608 124.627 205.039Z" fill="#F4AE7C"/>
<path fill-rule="evenodd" clip-rule="evenodd" d="M124.627 205.039C124.251 205.47 124.207 205.947 124.39 206.46C124.81 207.409 125.914 208.46 127.189 209.512C127.355 209.652 127.502 209.777 127.633 209.896C127.667 209.925 127.702 209.955 127.734 209.987L127.811 210.056C129.037 211.185 128.575 211.444 130.78 213.738C133.289 216.351 135.021 216.398 135.514 216.161C135.933 215.958 135.084 214.572 134.145 213.013C132.387 212.327 130.842 211.188 129.666 209.713C128.152 207.782 127.146 205.304 126.114 203.867C126.057 203.902 126 203.937 125.945 203.975C125.476 204.29 125 204.608 124.627 205.039Z" fill="#152F54"/>
<path fill-rule="evenodd" clip-rule="evenodd" d="M163.448 202.032C163.742 203.518 165.862 203.271 168.228 202.692C170.593 202.112 170.033 202.801 173.407 202.427C176.78 202.053 177.795 200.801 177.898 200.298C177.991 199.853 176.325 199.699 174.539 199.492C174.314 199.468 174.09 199.44 173.863 199.412C171.849 199.159 170.372 197.858 168.544 196.789C166.811 195.78 164.223 191.656 164.223 191.656L159.604 192.022C159.604 192.022 162.03 195.703 162.963 197.306C163.515 198.245 163.485 199.492 163.417 200.451C163.356 200.977 163.366 201.509 163.448 202.032V202.032Z" fill="#F4AE7C"/>
<path fill-rule="evenodd" clip-rule="evenodd" d="M168.228 202.692C170.595 202.115 170.033 202.801 173.407 202.427C176.78 202.053 177.795 200.801 177.898 200.298C177.991 199.853 176.325 199.699 174.539 199.492L174.525 199.526C173.082 200.453 171.414 200.971 169.699 201.026C167.413 201.081 164.993 200.427 163.416 200.451C163.356 200.977 163.369 201.509 163.452 202.032C163.742 203.518 165.862 203.271 168.228 202.692Z" fill="#152F54"/>
<path fill-rule="evenodd" clip-rule="evenodd" d="M153.167 134.191C153.167 134.191 154.268 131.494 155.479 131.383C156.69 131.273 160.542 130.667 160.818 131.218C161.093 131.77 160.818 133.75 159.99 134.465C159.163 135.181 154.049 136.334 154.049 136.334L153.167 134.191Z" fill="#F4AE7C"/>
<path fill-rule="evenodd" clip-rule="evenodd" d="M145.744 172.494L135.788 199.288C134.781 199.36 133.77 199.266 132.794 199.008C131.445 198.618 129.897 197.597 129.897 197.597C129.897 197.597 132.367 171.871 136.895 166.523C141.423 161.175 145.744 172.494 145.744 172.494Z" fill="#0F3970"/>
<path fill-rule="evenodd" clip-rule="evenodd" d="M106.37 161.656C106.37 161.656 134.975 151.983 141.355 154.043C147.735 156.104 166.888 194.215 166.888 194.215C166.888 194.215 166.456 194.789 165.276 195.233C164.178 195.644 161.522 195.618 161.522 195.618C161.522 195.618 144.235 180.8 142.178 176.478C140.12 172.156 139.296 168.042 137.24 168.452C135.183 168.862 110.691 178.53 105.133 172.773C99.5746 167.016 101.032 159.526 101.032 159.526L106.37 161.656Z" fill="#0F3D86"/>
<path fill-rule="evenodd" clip-rule="evenodd" d="M123.85 116.66C124.306 115.716 124.818 114.041 125.069 111.061C125.03 111.356 124.509 115.12 123.066 117.256C117.116 121.16 105.71 134.202 105.941 136.674C105.941 136.674 101.923 129.862 101.855 129.816C101.855 129.816 94.4447 120.397 103.225 114.998C107.689 112.255 107.665 108.734 107.48 105.678C107.295 102.621 108.697 89.4548 117.635 92.8995C117.635 92.8995 119.073 92.2627 119.715 92.3578C119.715 92.3578 119.19 92.4572 118.923 92.733C119.959 92.6728 121.442 92.7498 122.677 93.4524C125.955 95.314 128.887 112.022 123.85 116.66Z" fill="#0F3970"/>
<path fill-rule="evenodd" clip-rule="evenodd" d="M122.713 117.445C122.744 117.458 119.841 118.964 117.658 118.366C115.606 117.806 114.265 115.147 114.298 115.14C115.167 114.966 115.418 113.771 115.398 108.638L115.792 108.712L122.401 110.024C122.401 110.024 122.251 112.102 122.249 114.062C122.236 115.715 122.338 117.267 122.713 117.445Z" fill="#F4AE7C"/>
<path fill-rule="evenodd" clip-rule="evenodd" d="M122.396 110.024C122.396 110.024 122.246 112.102 122.243 114.062C118.543 113.958 116.587 110.584 115.786 108.712L122.396 110.024Z" fill="#ED7D5B"/>
<path fill-rule="evenodd" clip-rule="evenodd" d="M115.109 107.994C115.109 107.994 113.17 104.93 112.704 102.313C112.372 100.443 113.324 93.5126 120.289 94.5106C121.69 94.7057 123.029 95.2122 124.208 95.9929C125.72 97.0147 127.902 99.2206 125.468 105.267L124.832 107.311L115.109 107.994Z" fill="#0F3970"/>
<path fill-rule="evenodd" clip-rule="evenodd" d="M123.632 111.878C123.632 111.878 114.879 112.018 114.875 106.572C114.871 101.126 113.736 97.4737 119.322 97.1434C124.908 96.8131 125.996 98.9014 126.441 100.72C126.886 102.538 125.907 111.7 123.632 111.878Z" fill="#F4AE7C"/>
<path fill-rule="evenodd" clip-rule="evenodd" d="M123.307 97.0119C123.307 97.0119 120.91 103.406 117.233 104.352C113.556 105.298 111.963 104.313 111.963 104.313C111.963 104.313 114.782 102.073 115.368 98.161C115.368 98.161 121.5 93.9661 123.307 97.0119Z" fill="#0F3970"/>
<path fill-rule="evenodd" clip-rule="evenodd" d="M122.713 97.5298C122.713 97.5298 124.502 98.9575 124.937 100.346C125.373 101.735 125.572 104.591 126.404 104.495C126.404 104.495 128.211 100.147 126.183 97.688C124.03 95.0817 122.713 97.5298 122.713 97.5298Z" fill="#0F3970"/>
<path fill-rule="evenodd" clip-rule="evenodd" d="M99.6586 161.807C100.132 163.119 101.578 163.455 103.518 163.228C107.218 162.797 112.712 160.311 116.675 158.596C122.713 155.976 125.457 158.435 127.379 156.777C129.3 155.118 125.182 151.409 128.752 134.212C129.961 128.382 122.295 115.876 122.295 115.876C122.295 115.876 121.631 119.495 114.297 115.142C114.038 114.988 111.149 119.263 108.369 124.534C105.304 130.347 102.368 137.373 103.229 140.992C104.873 147.889 98.2855 158 99.6586 161.807Z" fill="#6998D0"/>
<path fill-rule="evenodd" clip-rule="evenodd" d="M122.291 115.873L126.81 134.422C126.81 134.422 127.37 135.424 128.257 136.85C130.326 140.199 134.159 145.884 136.614 146.464C137.822 146.744 140.393 145.741 143.244 144.303C148.63 141.581 155.002 137.318 155.002 137.318C155.411 134.847 153.263 132.839 153.263 132.839C153.263 132.839 140.365 137.687 139.084 137.778C136.285 137.979 133.45 124.502 130.841 120.01C128.952 116.758 122.291 115.873 122.291 115.873Z" fill="#6998D0"/>
<path fill-rule="evenodd" clip-rule="evenodd" d="M99.6586 161.807C100.132 163.119 101.578 163.455 103.518 163.228C106.078 162.108 117.141 157.825 117.014 154.924C116.832 150.625 114.889 150.488 116.262 145.183C117.362 140.922 107.143 133.006 105.514 131.28C102.447 137.095 102.364 137.37 103.225 140.989C104.873 147.889 98.2855 158 99.6586 161.807Z" fill="#406FB5"/>
<path fill-rule="evenodd" clip-rule="evenodd" d="M128.258 136.85C130.326 140.199 134.159 145.884 136.614 146.464C137.822 146.744 140.393 145.741 143.244 144.303C141.166 144.837 139.147 144.823 137.185 144.633C135.056 144.427 134.44 141.819 131.078 137.914C128.899 135.374 128.364 136.011 128.258 136.85Z" fill="#406FB5"/>
<path fill-rule="evenodd" clip-rule="evenodd" d="M118.01 145.08C118.01 145.08 119.861 143.639 121.613 143.981C123.366 144.322 124.217 145.52 124.148 146.08C124.079 146.64 123.156 148.17 121.818 148.309C120.479 148.447 116.671 147.484 116.671 147.484L118.01 145.08Z" fill="#F4AE7C"/>
<path fill-rule="evenodd" clip-rule="evenodd" d="M114.293 115.14C114.293 115.14 107.154 115.579 104.691 119.024C101.212 123.871 95.1725 143.659 96.8214 148.191L118.517 148.097C118.517 148.097 119.045 145.642 118.313 144.458C117.581 143.274 105.69 141.346 105.141 140.798C104.593 140.249 112 130.096 112 128.448C112 126.801 114.293 115.14 114.293 115.14Z" fill="#6998D0"/>
<path fill-rule="evenodd" clip-rule="evenodd" d="M119.873 153.184H146.144L150.88 136.669H124.649L119.873 153.184Z" fill="#D0D9EE"/>
<path d="M146.055 152.541H111.709V153.184H146.055V152.541Z" fill="#8D9FCA"/>
<path fill-rule="evenodd" clip-rule="evenodd" d="M137.802 144.658C137.967 144.077 137.633 143.607 137.051 143.607C136.468 143.607 135.866 144.077 135.698 144.658C135.53 145.239 135.868 145.711 136.449 145.711C137.03 145.711 137.634 145.239 137.802 144.658Z" fill="#8D9FCA"/>
<path fill-rule="evenodd" clip-rule="evenodd" d="M119.851 108.758C121.206 108.769 122.561 108.708 123.91 108.575C124.537 108.52 123.249 110.267 119.757 108.855C119.679 108.817 119.728 108.757 119.851 108.758Z" fill="#E97850"/>
<path fill-rule="evenodd" clip-rule="evenodd" d="M119.038 100.576C119.82 100.634 119.777 101.257 119.197 101.404C113.037 102.949 117.102 100.43 119.038 100.576Z" fill="#0F3970"/>
<path fill-rule="evenodd" clip-rule="evenodd" d="M122.429 100.048C121.697 100.328 121.92 100.914 122.516 100.888C128.859 100.577 124.239 99.3466 122.429 100.048Z" fill="#0F3970"/>
<path fill-rule="evenodd" clip-rule="evenodd" d="M122.687 107.119H122.726C123.406 106.969 123.767 106.877 123.897 106.618C124.016 106.384 123.897 106.118 123.683 105.638C123.285 104.782 122.979 103.887 122.771 102.966C122.76 102.919 122.731 102.878 122.69 102.851C122.649 102.825 122.6 102.816 122.552 102.826C122.528 102.831 122.506 102.841 122.486 102.854C122.466 102.868 122.448 102.886 122.435 102.906C122.422 102.927 122.414 102.95 122.41 102.974C122.406 102.998 122.406 103.022 122.412 103.046C122.631 103.986 122.946 104.902 123.353 105.777C123.493 106.093 123.615 106.366 123.574 106.447C123.517 106.562 123.034 106.67 122.646 106.755C122.622 106.76 122.6 106.77 122.58 106.784C122.56 106.797 122.543 106.815 122.53 106.836C122.517 106.856 122.508 106.879 122.504 106.903C122.5 106.927 122.5 106.951 122.506 106.975C122.514 107.016 122.537 107.054 122.57 107.08C122.603 107.106 122.644 107.12 122.687 107.119Z" fill="#E97850"/>
<path fill-rule="evenodd" clip-rule="evenodd" d="M124.383 103.915C124.827 103.869 124.996 102.135 123.916 102.251C123.34 102.313 123.654 103.992 124.383 103.915Z" fill="#0F3970"/>
<path fill-rule="evenodd" clip-rule="evenodd" d="M118.821 104.612C119.266 104.562 119.434 102.832 118.355 102.95C117.779 103.011 118.093 104.691 118.821 104.612Z" fill="#0F3970"/>
<path fill-rule="evenodd" clip-rule="evenodd" d="M312.692 122.268C313.049 127.193 313.776 127.867 318.47 128.251C313.776 128.63 313.049 129.31 312.692 134.232C312.332 129.31 311.606 128.633 306.913 128.251C311.606 127.871 312.332 127.193 312.692 122.268V122.268ZM293.611 135.252C293.802 137.881 294.191 138.245 296.691 138.448C294.187 138.649 293.797 139.008 293.611 141.64C293.42 139.012 293.033 138.649 290.525 138.448C293.033 138.245 293.42 137.881 293.611 135.252ZM301.97 115.023C302.166 117.683 302.557 118.052 305.096 118.258C302.557 118.464 302.166 118.829 301.97 121.492C301.777 118.832 301.384 118.464 298.846 118.258C301.38 118.052 301.773 117.686 301.97 115.023Z" fill="white"/>
<path fill-rule="evenodd" clip-rule="evenodd" d="M87.4489 117.852C87.8086 122.775 88.5337 123.451 93.2269 123.833C88.5337 124.213 87.8086 124.891 87.4489 129.816C87.0906 124.891 86.3627 124.217 81.6695 123.833C86.3627 123.455 87.0906 122.775 87.4489 117.852ZM68.3694 130.832C68.5598 133.459 68.9489 133.823 71.4488 134.025C68.9447 134.228 68.5556 134.584 68.3694 137.219C68.1777 134.59 67.7885 134.228 65.2831 134.025C67.7885 133.823 68.1777 133.465 68.3694 130.832ZM76.7243 110.603C76.9189 113.263 77.3108 113.632 79.8499 113.836C77.3108 114.042 76.9189 114.409 76.7243 117.071C76.5311 114.412 76.1378 114.042 73.6001 113.836C76.1378 113.636 76.5311 113.27 76.7243 110.607V110.603Z" fill="white"/>
<path fill-rule="evenodd" clip-rule="evenodd" d="M87.5986 65.2846C87.3187 61.3556 86.7336 60.8055 82.9796 60.5102C86.7266 60.2079 87.3061 59.6704 87.5986 55.7358C87.8869 59.6648 88.465 60.2148 92.2177 60.5102C88.4706 60.8125 87.8925 61.35 87.5986 65.2846ZM102.829 54.9267C102.676 52.8272 102.367 52.5388 100.367 52.3779C102.367 52.2155 102.676 51.9272 102.829 49.829C102.983 51.9285 103.292 52.2155 105.292 52.3779C103.292 52.5388 102.983 52.8286 102.829 54.9267ZM96.1593 71.064C96.0053 68.9393 95.6917 68.6453 93.6664 68.483C95.6917 68.3192 96.0053 68.0253 96.1593 65.9005C96.3146 68.0253 96.6282 68.3192 98.6535 68.483C96.6324 68.6495 96.3146 68.9435 96.1593 71.064Z" fill="white"/>
<path fill-rule="evenodd" clip-rule="evenodd" d="M247.407 145.711L247.328 122.722C247.328 122.722 246.889 118.577 243.269 118.555C239.413 118.533 239.165 122.674 239.165 122.674C239.184 122.779 239.24 122.873 239.323 122.94C239.406 123.006 239.51 123.041 239.616 123.037C239.726 123.044 239.835 123.012 239.923 122.946C240.012 122.881 240.075 122.787 240.102 122.68C240.102 122.68 240.288 119.487 243.264 119.504C246.049 119.519 246.389 122.723 246.389 122.723L246.249 145.716L247.407 145.711Z" fill="#133261"/>
<path fill-rule="evenodd" clip-rule="evenodd" d="M243.264 115.505L243.094 116.328C243.094 116.328 239.025 116.287 238.055 120.643C238.055 120.643 237.787 122.453 239.097 122.075C240.407 121.697 240.216 120.768 242.063 120.271C243.909 119.774 245.129 119.396 245.422 118.05L245.734 116.549L243.264 115.505Z" fill="#F4AE7C"/>
<path fill-rule="evenodd" clip-rule="evenodd" d="M257.858 79.9171C257.858 79.9171 256.758 84.1442 255.808 88.0089C255.424 89.5653 255.065 91.0644 254.813 92.208C254.555 93.3782 254.407 94.1676 254.461 94.26C255.261 95.5743 253.74 103.551 252.556 106.444C252.453 106.702 252.306 107.004 252.136 107.336C250.486 110.525 246.108 116.772 246.108 116.772C246.108 116.772 244.882 116.893 244.082 116.585C243.416 116.329 242.963 115.508 242.963 115.508C243.355 114.888 244.967 107.514 247.013 103.388C247.887 101.621 249.253 85.201 250.949 83.0007C252.358 81.1587 257.858 79.9171 257.858 79.9171Z" fill="#6998D0"/>
<path fill-rule="evenodd" clip-rule="evenodd" d="M254.461 94.2544C255.261 95.5688 253.74 103.546 252.556 106.439C252.453 106.696 252.306 106.999 252.136 107.331C250.618 100.429 253.256 90.674 253.256 90.674C253.899 90.9343 254.408 91.4662 254.808 92.1982C254.555 93.3726 254.407 94.1662 254.461 94.2544Z" fill="#406FB5"/>
<path fill-rule="evenodd" clip-rule="evenodd" d="M252.98 145.711C252.707 137.932 254.018 115.233 254.018 115.233C254.018 115.233 261.673 110.39 264.809 112.929C267.946 115.468 269.871 117.945 264.629 145.523C264.618 145.582 264.606 145.645 264.598 145.711H252.98Z" fill="#0F3D86"/>
<path fill-rule="evenodd" clip-rule="evenodd" d="M252.98 145.711C252.707 137.932 254.018 115.233 254.018 115.233C254.018 115.233 261.673 110.39 264.809 112.929C267.946 115.468 269.871 117.945 264.629 145.523C264.618 145.582 264.606 145.645 264.598 145.711H252.98Z" fill="#0F3970"/>
<path fill-rule="evenodd" clip-rule="evenodd" d="M260.912 115.828C260.912 115.828 261.332 137.478 262.16 145.711H273.798C273.798 145.544 273.806 145.378 273.822 145.212C276.927 117.312 274.82 114.991 271.499 112.701C268.177 110.411 260.912 115.828 260.912 115.828Z" fill="#0F3D86"/>
<path fill-rule="evenodd" clip-rule="evenodd" d="M271.251 118.268C271.251 118.268 269.416 121.897 272.886 124.707C272.886 124.707 274.392 125.752 274.631 124.407C274.871 123.062 274.6 123.531 274.977 121.648C275.353 119.766 274.899 117.813 273.818 116.959L271.251 118.268Z" fill="#F4AE7C"/>
<path fill-rule="evenodd" clip-rule="evenodd" d="M256.219 73.7514C256.219 73.7514 258.295 76.9469 257.858 79.9101L260.915 87.3958L266.558 78.8869C266.558 78.8869 263.618 75.6536 262.545 71.2655L256.219 73.7514Z" fill="#F4AE7C"/>
<path fill-rule="evenodd" clip-rule="evenodd" d="M255.284 76.4626C255.284 76.4626 262.91 76.8377 263.076 72.2635C263.243 67.6892 265.316 64.6532 259.619 64.2179C254.929 63.8582 253.36 65.8052 252.93 67.3211C252.5 68.837 252.46 76.2009 255.284 76.4626Z" fill="#F4AE7C"/>
<path fill-rule="evenodd" clip-rule="evenodd" d="M273.714 117.214C272.075 117.354 269.818 117.53 267.081 117.687C266.532 117.718 265.967 117.748 265.385 117.778C257.117 118.198 253.838 116.832 253.838 116.832C253.838 116.832 253.62 116.654 253.698 115.685C254.086 110.688 255.157 109.22 255.032 108.267C254.752 106.131 249.683 88.6808 249.683 88.6808C249.683 88.6808 249.617 83.1785 255.753 80.6324C256.434 80.3501 257.136 80.1213 257.853 79.948C258.117 80.6604 258.844 81.8558 260.725 81.6486C263.505 81.3421 265.494 79.7142 266.345 78.88C266.5 78.88 266.56 78.88 266.56 78.88C266.763 79.4763 266.93 80.0839 267.062 80.6996C267.55 82.865 267.831 85.1423 269.15 86.8584C270.376 88.443 271.498 90.1051 272.509 91.8344C273.259 93.1222 273.94 94.4486 274.55 95.8081C279.888 107.811 275.643 117.042 273.714 117.214Z" fill="#6998D0"/>
<path fill-rule="evenodd" clip-rule="evenodd" d="M273.714 117.214C272.075 117.354 269.818 117.53 267.081 117.687C266.363 104.237 271.919 91.3458 271.919 91.3458C272.127 91.4914 272.323 91.6543 272.504 91.8329C273.453 92.7665 274.111 94.1453 274.544 95.8067C276.139 101.915 274.712 111.817 273.714 117.214Z" fill="#406FB5"/>
<path fill-rule="evenodd" clip-rule="evenodd" d="M252.853 72.0816C252.853 72.0816 251.334 77.9604 253.848 78.8002C256.362 79.64 263.054 79.0228 263.095 71.8016C263.095 71.8016 259.573 73.8746 257.898 73.813C256.222 73.7514 255.143 72.7758 253.589 73.5233C253.589 73.5261 253.024 73.4827 252.853 72.0816Z" fill="#E9EFF8"/>
<path fill-rule="evenodd" clip-rule="evenodd" d="M266.558 78.887C266.558 78.887 271.889 79.0367 274.676 82.7208C276.819 85.5412 279.015 100.622 278.995 102.892C278.976 105.162 276.476 117.666 275.11 119.02C274.431 119.155 273.731 119.151 273.054 119.007C272.319 118.864 271.636 118.525 271.077 118.027C271.077 118.027 271.837 104.09 271.847 102.784C271.857 100.889 266.006 89.2672 266.006 89.2672C266.006 89.2672 262.977 83.7398 266.558 78.887Z" fill="#6998D0"/>
<path fill-rule="evenodd" clip-rule="evenodd" d="M262.756 65.6556C262.63 65.1881 262.056 64.9389 262.056 64.9389C257.77 63.0423 254.621 65.0705 254.621 65.0705C257.28 61.553 263.624 62.3326 264.942 65.5268C267.096 70.7449 263.093 71.8045 263.093 71.8045C263.093 71.8045 259.111 70.1025 261.436 68.0169C262.206 67.317 262.578 66.7068 262.706 66.1679C262.747 66.0003 262.764 65.8279 262.756 65.6556Z" fill="#E9EFF8"/>
<path fill-rule="evenodd" clip-rule="evenodd" d="M257.18 71.6421C257.501 71.6813 257.9 70.444 257.121 70.3474C256.704 70.297 256.655 71.5763 257.18 71.6421Z" fill="#0F3970"/>
<path fill-rule="evenodd" clip-rule="evenodd" d="M253.12 71.2194C252.8 71.1816 252.693 69.8827 253.475 69.9793C253.892 70.0296 253.649 71.2866 253.12 71.2194Z" fill="#0F3970"/>
<path fill-rule="evenodd" clip-rule="evenodd" d="M256.979 69.1912C256.459 69.1464 256.419 69.5776 256.789 69.7385C256.895 69.7875 258.949 70.4594 258.87 70.3194C258.719 70.0269 257.966 69.2766 256.979 69.1912Z" fill="#E9EFF8"/>
<path fill-rule="evenodd" clip-rule="evenodd" d="M254.1 68.7881C254.62 68.8469 254.576 69.2766 254.187 69.3634C254.002 69.4026 251.908 69.6574 252.055 69.4936C252.328 69.2401 252.651 69.0464 253.003 68.9249C253.355 68.8034 253.729 68.7568 254.1 68.7881V68.7881Z" fill="#E9EFF8"/>
<path fill-rule="evenodd" clip-rule="evenodd" d="M254.068 73.4436C255.227 73.7712 255.09 73.2379 254.768 73.3036C253.683 73.515 254.723 72.8837 254.542 71.0067C254.52 70.8108 254.3 70.8346 254.293 71.0067C254.293 71.1201 254.33 71.5358 254.316 71.6576C254.172 73.1469 253.696 73.3316 254.068 73.4436Z" fill="#ED7D5B"/>
<path fill-rule="evenodd" clip-rule="evenodd" d="M253.778 74.2917C255.29 77.1877 256.919 74.5898 256.47 74.5128C254.184 74.1237 253.592 73.9375 253.778 74.2917Z" fill="white"/>
<path fill-rule="evenodd" clip-rule="evenodd" d="M225.749 135.731C226.008 129.417 226.569 123.926 227.242 120.095C228.312 113.992 229.272 110.479 229.287 110.437C229.427 109.9 231.465 107.727 235.992 107.795C240.519 107.864 240.092 110.711 240.092 110.711C240.091 110.796 240.08 110.881 240.06 110.964C240.015 111.111 235.86 125.978 236.038 145.172C236.038 145.312 236.048 145.513 236.054 145.714H225.472C225.221 143.729 225.406 139.524 225.749 135.731Z" fill="#D1A383"/>
<path fill-rule="evenodd" clip-rule="evenodd" d="M224.426 145.077C224.426 145.344 224.566 145.557 224.747 145.557C224.922 145.557 225.062 145.338 225.065 145.077H234.059C234.059 145.344 234.199 145.557 234.375 145.557H234.384C234.56 145.557 234.7 145.333 234.7 145.061C234.655 140 234.905 134.94 235.446 129.908C236.639 118.612 238.849 111.065 238.883 110.961C238.904 110.879 238.914 110.794 238.912 110.708C238.912 110.708 239.346 107.86 234.816 107.793C230.287 107.725 228.247 109.892 228.108 110.434C228.108 110.463 227.555 112.451 226.831 116.033C226.59 117.218 226.331 118.575 226.063 120.092C225.393 123.921 224.831 129.414 224.572 135.724C224.198 139.889 224.064 143.4 224.426 145.077Z" fill="#E3BB9B"/>
<path fill-rule="evenodd" clip-rule="evenodd" d="M224.426 145.077C224.426 145.344 224.566 145.557 224.747 145.557C224.922 145.557 225.062 145.338 225.065 145.077H234.059C234.059 145.344 234.199 145.557 234.375 145.557H234.384C234.56 145.557 234.7 145.333 234.7 145.061C234.655 140 234.905 134.94 235.446 129.908C233.958 122.74 228.21 117.259 226.831 116.027C226.59 117.213 226.331 118.569 226.063 120.086C225.393 123.916 224.831 129.408 224.572 135.718C224.198 139.889 224.064 143.4 224.426 145.077Z" fill="#DEB393"/>
<path fill-rule="evenodd" clip-rule="evenodd" d="M231.484 144.366C232.491 144.366 233.2 144.412 233.443 144.664C233.443 144.41 233.457 143.937 233.484 143.047C233.513 141.994 233.565 140.36 233.638 138.511C233.768 135.276 233.992 130.828 234.325 128C234.716 124.705 237.038 111.355 237.053 111.313C237.067 111.256 237.074 111.198 237.075 111.139C237.093 110.919 237.068 110.698 237 110.487C236.932 110.277 236.824 110.083 236.681 109.914C236.196 109.341 235.319 109.042 234.077 109.023C230.767 108.981 229.252 110.527 229.142 110.949C229.115 111.045 226.54 121.36 226.092 127.206C226.05 127.748 225.952 128.668 225.841 129.835C225.385 134.408 224.433 143.92 225.385 144.086C227.245 144.408 229.112 144.385 230.612 144.366C230.918 144.366 231.209 144.366 231.475 144.366H231.484ZM233.492 144.983L233.466 144.966C233.466 144.966 233.454 144.958 233.452 144.923H233.443C233.446 144.889 233.442 144.855 233.43 144.823C233.419 144.79 233.401 144.761 233.377 144.736C233.097 144.447 232.004 144.457 230.624 144.475C229.118 144.49 227.245 144.511 225.375 144.195C224.409 144.025 225.062 136.692 225.749 129.831C225.864 128.666 225.956 127.745 225.997 127.204C226.445 121.368 229.024 111.008 229.051 110.928C229.164 110.491 230.719 108.873 234.09 108.928C235.364 108.946 236.269 109.259 236.775 109.856C236.929 110.032 237.045 110.238 237.117 110.461C237.19 110.683 237.216 110.919 237.194 111.152C237.198 111.218 237.189 111.285 237.168 111.348C237.158 111.405 234.827 124.805 234.448 128.018C233.821 133.32 233.573 144.289 233.558 144.9V144.955L233.492 144.983Z" fill="#D1A383"/>
<path fill-rule="evenodd" clip-rule="evenodd" d="M235.371 145.557H200.109C200.109 145.557 200.931 142.28 221.351 142.767C235.803 143.114 235.371 145.557 235.371 145.557Z" fill="#E3BB9B"/>
<path fill-rule="evenodd" clip-rule="evenodd" d="M236.068 145.711V145.431C236.068 145.241 235.992 145.059 235.858 144.924C235.724 144.79 235.542 144.714 235.352 144.714H200.08C199.89 144.715 199.708 144.791 199.574 144.925C199.439 145.059 199.364 145.241 199.363 145.431V145.711H236.068Z" fill="#D1A383"/>
<path fill-rule="evenodd" clip-rule="evenodd" d="M207.358 123.265C207.358 123.265 200.919 130.627 199.594 130.507C198.245 130.385 197.422 129.961 196.25 130.507C195.41 130.902 192.751 133.042 193.459 132.902C194.167 132.762 195.468 132.593 195.809 132.562C196.279 132.516 197.035 132.506 197.548 132.422C197.872 132.363 199.042 132.332 199.433 132.32C201.131 132.264 209.153 127.576 209.153 127.576L207.358 123.265Z" fill="#F4AE7C"/>
<path fill-rule="evenodd" clip-rule="evenodd" d="M210.523 86.6666C210.523 86.6666 210.814 82.9685 216.133 83.9287C217.533 84.1821 218.512 81.6752 220.807 82.5682C225.76 84.4928 226.056 81.9523 227.489 85.5174C228.087 87.0095 231.901 88.7465 230.733 91.3262C229.566 93.9059 231.519 95.6401 230.15 97.6599C229.441 98.7055 229.73 100.574 226.387 100.64C224.723 100.675 222.129 103.76 220.262 104.317C218.395 104.874 212.786 104.071 212.996 101.508C213.161 99.5075 210.831 99.6755 209.396 97.3758C208.146 95.3658 210.376 94.8563 209.186 91.6131C208.309 89.2336 210.59 88.6527 210.523 86.6666Z" fill="#E9EFF8"/>
<path fill-rule="evenodd" clip-rule="evenodd" d="M215.481 130.02C215.481 130.02 194.896 130.945 190.252 133.879C188.617 134.909 186.637 139.801 184.757 145.711H195.213C195.47 144.965 195.841 144.508 196.452 144.478C198.169 144.385 219.582 147.08 222.821 141.376C226.06 135.672 215.481 130.02 215.481 130.02Z" fill="#0F3970"/>
<path fill-rule="evenodd" clip-rule="evenodd" d="M223.459 130.507C223.459 130.507 201.537 131.544 197.004 134.656C195.5 135.689 193.82 140.176 192.245 145.713H202.648C202.869 145.294 203.173 145.049 203.607 145.014C205.32 144.854 226.821 146.713 229.835 140.886C232.848 135.059 223.459 130.507 223.459 130.507Z" fill="#0F3D86"/>
<path fill-rule="evenodd" clip-rule="evenodd" d="M230.025 102.496C230.025 102.483 230.007 102.474 230 102.461C229.816 102.26 229.61 102.08 229.387 101.925H229.38C227.591 100.674 224.388 100.405 224.388 100.405C224.388 100.405 224.039 100.374 223.486 100.349C223.066 99.2598 221.526 97.6977 221.386 95.3462L215.583 97.7369C215.583 97.7369 217.029 98.5067 217.139 100.116C217.165 100.469 217.184 100.816 217.191 101.14C217.036 101.194 213.717 101.662 212.992 102.437C212.267 103.213 210.827 108.38 210.463 109.296L231.002 109.632C231.002 109.632 231.51 104.251 230.025 102.496Z" fill="#F4AE7C"/>
<path fill-rule="evenodd" clip-rule="evenodd" d="M230.778 139.23C228.35 139.461 220.154 134.512 217.423 132.903C217.373 132.875 217.328 132.847 217.283 132.822C216.146 132.153 214.548 131.842 213.024 131.586C211.088 131.27 209.281 131.056 208.7 130.363C208.01 129.538 210.04 128.624 211.669 127.675C212.488 127.198 213.209 126.708 213.434 126.221C213.608 125.839 213.594 124.999 213.478 123.924C213.458 123.723 213.431 123.515 213.403 123.299C213.26 123.59 213.096 123.87 212.914 124.138C212.41 124.879 211.827 125.562 211.174 126.175C210.4 126.908 209.634 127.454 209.151 127.575C208.828 127.645 208.491 127.614 208.187 127.486C207.336 127.153 206.507 126.214 205.856 125.311C205.704 125.096 205.558 124.891 205.425 124.681C204.979 124.007 204.662 123.444 204.542 123.313C204.178 122.908 206.006 122.109 206.756 121.514C207.506 120.919 210.451 109.286 210.451 109.286C210.815 108.371 212.257 103.206 212.979 102.427C212.979 102.427 215.794 105.864 219.443 105.668C223.069 105.473 229.273 101.977 229.37 101.922C229.688 102.062 230.019 102.499 230.019 102.499C231.503 104.254 230.999 109.622 230.999 109.622C230.999 109.622 228.156 122.141 228.156 123.404C228.156 125.72 230.073 131.046 230.984 134.881C231.565 137.308 231.74 139.138 230.778 139.23Z" fill="#6998D0"/>
<path fill-rule="evenodd" clip-rule="evenodd" d="M215.57 97.7314C215.57 97.7314 217.018 98.5013 217.127 100.111C220.146 99.831 220.821 96.9196 221.373 95.3519L215.57 97.7314Z" fill="#ED7D5B"/>
<path fill-rule="evenodd" clip-rule="evenodd" d="M214.565 99.1773C214.565 99.1773 221.728 98.819 221.435 94.3623C221.142 89.9056 221.87 86.8542 217.285 86.8948C212.699 86.9354 211.921 88.6948 211.657 90.2065C211.392 91.7182 212.692 99.1577 214.565 99.1773Z" fill="#F4AE7C"/>
<path fill-rule="evenodd" clip-rule="evenodd" d="M214.26 88.4819C214.26 88.4819 215.973 88.0816 216.535 88.9145C217.096 89.7473 216.693 90.2134 217.943 90.5647C219.193 90.916 219.622 90.8881 219.491 91.7629C219.359 92.6377 220.751 93.2872 220.807 93.9856C220.863 94.6841 221.441 95.0354 221.989 95.0858C222.538 95.1362 222.289 86.066 220.17 85.6671C218.051 85.2682 215.999 85.7413 215.374 86.241C214.75 86.7407 214.26 88.4819 214.26 88.4819Z" fill="#E9EFF8"/>
<path fill-rule="evenodd" clip-rule="evenodd" d="M214.26 88.482C214.26 88.482 212.596 88.3644 212.301 89.3148C212.005 90.2652 212.4 90.4892 211.976 91.063C211.552 91.6369 211.797 92.6573 211.797 92.6573C211.797 92.6573 208.502 86.591 211.976 86.192C215.45 85.7931 215.352 86.5 214.26 88.482Z" fill="#E9EFF8"/>
<path fill-rule="evenodd" clip-rule="evenodd" d="M213.392 121.874C212.916 123.303 212.068 124.876 211.175 126.182C210.401 126.915 209.635 127.461 209.153 127.582C208.83 127.652 208.493 127.621 208.188 127.494C207.337 127.16 206.508 126.221 205.858 125.318C205.705 125.103 205.559 124.898 205.427 124.688C207.704 122.869 212.016 118.684 212.466 112.966C213.077 105.146 213.427 122.225 213.392 121.874Z" fill="#406FB5"/>
<path fill-rule="evenodd" clip-rule="evenodd" d="M208.19 127.484C208.983 126.273 210.6 125.078 212.916 124.14C211.851 125.74 210.026 127.359 209.154 127.572C208.831 127.642 208.494 127.612 208.19 127.484V127.484Z" fill="#519AAB"/>
<path fill-rule="evenodd" clip-rule="evenodd" d="M227.132 112.455C227.132 112.455 225.342 130.433 217.423 132.902C217.373 132.874 217.328 132.846 217.283 132.821C216.146 132.152 214.548 131.841 213.024 131.585C211.088 131.268 209.281 131.054 208.7 130.361C208.01 129.537 210.04 128.623 211.669 127.674C212.488 127.197 213.209 126.707 213.434 126.22C213.608 125.837 213.594 124.998 213.478 123.923C221.162 121.08 227.132 112.455 227.132 112.455Z" fill="#406FB5"/>
<path fill-rule="evenodd" clip-rule="evenodd" d="M229.143 107.13C228.312 103.392 224.552 105.536 224.552 105.536C223.248 105.239 213.674 120.758 212.908 121.108C212.257 121.408 203.436 118.845 200.756 118.054C200.056 117.514 197.634 115.627 197.209 115.594C196.712 115.557 193.39 116.409 193.411 116.938C193.432 117.467 194.211 118.237 195.435 118.433C196.363 118.58 197.939 119.195 198.944 119.346C198.944 119.346 208.684 125.979 212.83 126.788C216.561 127.517 229.975 110.868 229.143 107.13Z" fill="#F4AE7C"/>
<path fill-rule="evenodd" clip-rule="evenodd" d="M207.07 119.813C207.07 119.813 204.83 125.58 207.516 127.775C210.202 129.97 216.041 129.228 222.435 120.312C228.828 111.395 231.428 106.544 228.109 105.126C224.79 103.708 222.051 105.932 220.346 109.401C218.577 113.005 215.316 117.995 213.359 118.184C211.402 118.373 207.07 119.813 207.07 119.813Z" fill="#6998D0"/>
<path fill-rule="evenodd" clip-rule="evenodd" d="M229.371 101.919C229.275 101.974 223.073 105.47 219.445 105.665C215.796 105.861 212.982 102.425 212.984 102.425C213.248 102.145 213.858 101.898 214.534 101.702C215.709 101.362 217.081 101.161 217.179 101.127C218.379 102.537 220.479 102.276 223.477 100.343C224.037 100.368 224.38 100.399 224.38 100.399C224.38 100.399 225.023 100.454 225.892 100.626C226.964 100.837 228.383 101.228 229.371 101.919V101.919Z" fill="#6998D0"/>
<path fill-rule="evenodd" clip-rule="evenodd" d="M216.843 93.0395C217.163 93.0801 217.562 91.8413 216.782 91.7447C216.364 91.7013 216.316 92.9793 216.843 93.0395Z" fill="#0F3970"/>
<path fill-rule="evenodd" clip-rule="evenodd" d="M212.781 92.6196C212.46 92.579 212.361 91.2829 213.135 91.378C213.552 91.4326 213.31 92.691 212.781 92.6196Z" fill="#0F3970"/>
<path fill-rule="evenodd" clip-rule="evenodd" d="M216.641 90.5942C216.119 90.5494 216.081 90.9805 216.449 91.1429C216.556 91.1905 218.609 91.8623 218.532 91.721C218.385 91.4298 217.626 90.6796 216.641 90.5942Z" fill="#E9EFF8"/>
<path fill-rule="evenodd" clip-rule="evenodd" d="M213.763 90.191C214.284 90.2498 214.238 90.6809 213.849 90.7649C213.667 90.8055 211.571 91.0617 211.718 90.8951C211.992 90.6425 212.315 90.4495 212.667 90.3283C213.019 90.2071 213.392 90.1603 213.763 90.191V90.191Z" fill="#E9EFF8"/>
<path fill-rule="evenodd" clip-rule="evenodd" d="M213.728 94.8423C214.89 95.1712 214.75 94.6365 214.428 94.7023C213.342 94.9151 214.382 94.2824 214.203 92.4054C214.18 92.208 213.961 92.2332 213.954 92.3984C213.954 92.5118 213.99 92.9261 213.976 93.0493C213.832 94.5498 213.356 94.7359 213.728 94.8423Z" fill="#ED7D5B"/>
<path fill-rule="evenodd" clip-rule="evenodd" d="M213.438 95.6989C214.95 98.5949 216.579 95.997 216.132 95.9201C213.844 95.5267 213.252 95.342 213.438 95.6989Z" fill="white"/>
</svg>
