<svg width="200" height="200" viewBox="0 0 200 200" fill="none" xmlns="http://www.w3.org/2000/svg">
<g clip-path="url(#clip0_2_6198)">
<path d="M100.005 5.92329e-07C80.2258 -0.00215171 60.8897 5.86125 44.4424 16.8487C27.9952 27.8361 15.1755 43.4541 7.60469 61.7275C0.0338412 80.0009 -1.94813 100.109 1.90938 119.509C5.76688 138.909 15.2906 156.729 29.2762 170.716C43.2618 184.703 61.081 194.229 80.4804 198.089C99.8799 201.948 119.988 199.968 138.262 192.399C156.537 184.831 172.156 172.013 183.145 155.567C194.135 139.121 200 119.785 200 100.005C200 73.4842 189.465 48.0491 170.713 29.2948C151.961 10.5404 126.527 0.00288647 100.005 5.92329e-07ZM87.0668 35.6059H112.944V94.0639H135.241L100.005 129.311L64.7587 94.0639H87.0668V35.6059ZM161.282 141.847V158.975H38.729V126.884H55.8463V141.868H144.154V126.884H161.282V141.847Z" fill="#0097B8"/>
</g>
<defs>
<clipPath id="clip0_2_6198">
<rect width="200" height="200" fill="white"/>
</clipPath>
</defs>
</svg>
