<svg width="350" height="250" viewBox="0 0 350 250" fill="none" xmlns="http://www.w3.org/2000/svg">
<path d="M332 125.14C332 190.232 257.381 243 184.774 243C83 243 26.2302 227 15 125.14C15 60.0471 44 7.27916 184.774 7.27917C318 7.27917 332 60.0471 332 125.14Z" fill="#D0D5DD"/>
<rect x="76.905" y="118.305" width="89.095" height="89.6954" fill="#413F88"/>
<rect x="171" y="46" width="80.4652" height="78.1874" fill="#413F88"/>
<path fill-rule="evenodd" clip-rule="evenodd" d="M208.849 19.2588C173.328 19.2588 144.456 48.1311 144.456 83.652C144.456 91.3571 145.814 98.7494 148.304 105.602C163.149 112.93 174.788 125.79 180.517 141.477C189.07 145.682 198.687 148.045 208.849 148.045C244.37 148.045 273.242 119.173 273.242 83.652C273.242 48.1311 244.37 19.2588 208.849 19.2588ZM179.863 141.151C174.178 125.978 162.904 113.518 148.558 106.287C154.264 121.447 165.531 133.9 179.863 141.151ZM171.283 67.9325C171.283 61.9762 176.113 57.203 182.013 57.203C187.913 57.203 192.742 61.9762 192.742 67.9325C192.742 73.8326 187.913 78.6621 182.013 78.6621C176.113 78.6621 171.283 73.8326 171.283 67.9325ZM235.685 121.402C237.053 121.402 238.429 120.879 239.476 119.833C241.569 117.74 241.569 114.343 239.476 112.25C231.29 104.072 220.415 99.5649 208.849 99.5649C197.282 99.5649 186.4 104.072 178.222 112.25C176.129 114.351 176.129 117.748 178.222 119.841C180.323 121.934 183.719 121.934 185.812 119.841C191.962 113.683 200.148 110.294 208.849 110.294C217.55 110.294 225.736 113.675 231.894 119.833C232.94 120.879 234.308 121.402 235.685 121.402ZM235.677 78.6621C229.777 78.6621 224.947 73.8326 224.947 67.9325C224.947 61.9762 229.777 57.203 235.677 57.203C241.577 57.203 246.406 61.9762 246.406 67.9325C246.414 73.8326 241.585 78.6621 235.677 78.6621Z" fill="#F99B58"/>
<path fill-rule="evenodd" clip-rule="evenodd" d="M55.3784 163.607C55.3784 128.086 84.2507 99.2136 119.772 99.2136C155.293 99.2136 184.165 128.086 184.165 163.607C184.165 199.128 155.293 228 119.772 228C84.2507 228 55.3784 199.128 55.3784 163.607ZM92.9352 137.158C87.0352 137.158 82.2057 141.931 82.2057 147.887C82.2057 153.787 87.0352 158.617 92.9352 158.617C98.8352 158.617 103.665 153.787 103.665 147.887C103.665 141.931 98.8352 137.158 92.9352 137.158ZM89.1446 181.098C90.191 180.051 91.5674 179.528 92.9357 179.528C94.3122 179.528 95.6805 180.051 96.7269 181.098C102.884 187.255 111.07 190.636 119.772 190.636C128.473 190.636 136.659 187.247 142.808 181.09C144.901 178.997 148.298 178.997 150.399 181.09C152.491 183.183 152.491 186.579 150.399 188.68C142.221 196.858 131.338 201.366 119.772 201.366C108.205 201.366 97.3306 196.858 89.1446 188.68C87.0518 186.587 87.0518 183.191 89.1446 181.098ZM135.87 147.887C135.87 153.787 140.699 158.617 146.599 158.617C152.507 158.617 157.337 153.787 157.329 147.887C157.329 141.931 152.499 137.158 146.599 137.158C140.699 137.158 135.87 141.931 135.87 147.887Z" fill="#F9E958"/>
<path d="M138.298 32.827C98.3065 32.827 78.1978 55.4803 78.1978 90.2443" stroke="#413F88" stroke-width="9" stroke-linecap="round"/>
<path d="M78.3939 90.2444L94.3398 79.3397" stroke="#413F88" stroke-width="9" stroke-linecap="round"/>
<path d="M78.3939 90.2444L63.8473 77.533" stroke="#413F88" stroke-width="9" stroke-linecap="round"/>
<path d="M191.562 213.686C231.554 213.686 251.662 191.032 251.662 156.268" stroke="#413F88" stroke-width="9" stroke-linecap="round"/>
<path d="M251.465 156.268L235.519 167.173" stroke="#413F88" stroke-width="9" stroke-linecap="round"/>
<path d="M251.465 156.268L266.012 168.98" stroke="#413F88" stroke-width="9" stroke-linecap="round"/>
</svg>
