<svg width="200" height="200" viewBox="0 0 200 200" fill="none" xmlns="http://www.w3.org/2000/svg">
<rect width="200" height="200" rx="100" fill="#0097B8"/>
<path d="M91.8589 16.8359C95.7162 10.2132 105.284 10.2132 109.141 16.8359L129.802 52.3086C131.215 54.7346 133.583 56.4549 136.327 57.0491L176.448 65.7372C183.939 67.3592 186.895 76.4585 181.788 82.1736L154.437 112.785C152.566 114.879 151.661 117.662 151.944 120.455L156.08 161.298C156.852 168.923 149.111 174.546 142.098 171.456L104.532 154.902C101.963 153.77 99.0366 153.77 96.4675 154.902L58.9021 171.456C51.8887 174.546 44.1484 168.923 44.9204 161.298L49.0557 120.455C49.3385 117.662 48.4341 114.879 46.5635 112.785L19.2115 82.1736C14.1049 76.4585 17.0615 67.3592 24.552 65.7372L64.6732 57.0491C67.4171 56.4549 69.7849 54.7346 71.1979 52.3086L91.8589 16.8359Z" fill="#ECDD57"/>
<path d="M82.4222 94.2727V90.5909L89.445 79.5455H92.7859V84.4545H90.8768L87.0927 90.4545V90.5909H97.4563V94.2727H82.4222ZM90.9109 97V93.1477L91.0131 91.5455V79.5455H95.445V97H90.9109ZM102.035 97.2727C101.376 97.2727 100.811 97.0426 100.339 96.5824C99.8732 96.1165 99.6431 95.5511 99.6488 94.8864C99.6431 94.2386 99.8732 93.6847 100.339 93.2244C100.811 92.7642 101.376 92.5341 102.035 92.5341C102.66 92.5341 103.211 92.7642 103.689 93.2244C104.172 93.6847 104.416 94.2386 104.422 94.8864C104.416 95.3295 104.299 95.733 104.072 96.0966C103.85 96.4545 103.561 96.7415 103.203 96.9574C102.845 97.1676 102.456 97.2727 102.035 97.2727ZM106.861 97L113.713 83.4318V83.3295H105.668V79.5455H118.623V83.3295L111.736 97H106.861ZM82.3935 108.17H78.0639C78.0412 107.903 77.9474 107.673 77.7827 107.48C77.6179 107.287 77.4048 107.139 77.1435 107.037C76.8878 106.929 76.6037 106.875 76.2912 106.875C75.8878 106.875 75.5412 106.949 75.2514 107.097C74.9616 107.244 74.8196 107.455 74.8253 107.727C74.8196 107.92 74.902 108.099 75.0724 108.264C75.2486 108.429 75.5866 108.557 76.0866 108.648L78.7457 109.125C80.0866 109.369 81.0838 109.781 81.7372 110.361C82.3963 110.935 82.7287 111.705 82.7344 112.67C82.7287 113.602 82.4503 114.412 81.8991 115.099C81.3537 115.781 80.6065 116.31 79.6577 116.685C78.7145 117.054 77.6378 117.239 76.4276 117.239C74.4276 117.239 72.8622 116.83 71.7315 116.011C70.6065 115.193 69.9787 114.114 69.848 112.773H74.5185C74.581 113.187 74.7855 113.509 75.1321 113.736C75.4844 113.957 75.9276 114.068 76.4616 114.068C76.8935 114.068 77.2486 113.994 77.527 113.847C77.8111 113.699 77.956 113.489 77.9616 113.216C77.956 112.966 77.831 112.767 77.5866 112.619C77.348 112.472 76.973 112.352 76.4616 112.261L74.1435 111.852C72.8082 111.619 71.8082 111.176 71.1435 110.523C70.4787 109.869 70.1491 109.028 70.1548 108C70.1491 107.091 70.3878 106.321 70.8707 105.69C71.3594 105.054 72.0554 104.571 72.9588 104.241C73.8679 103.906 74.9446 103.739 76.1889 103.739C78.081 103.739 79.5724 104.131 80.6634 104.915C81.7599 105.699 82.3366 106.784 82.3935 108.17ZM92.3438 103.909V107.318H83.7188V103.909H92.3438ZM85.3892 100.773H90.0938V112.79C90.0938 112.972 90.125 113.125 90.1875 113.25C90.25 113.369 90.3466 113.46 90.4773 113.523C90.608 113.58 90.7756 113.608 90.9801 113.608C91.1222 113.608 91.2869 113.591 91.4744 113.557C91.6676 113.523 91.8097 113.494 91.9006 113.472L92.5824 116.778C92.3722 116.841 92.071 116.918 91.679 117.009C91.2926 117.099 90.8324 117.159 90.2983 117.188C89.2188 117.244 88.3125 117.134 87.5795 116.855C86.8466 116.571 86.2955 116.125 85.9261 115.517C85.5568 114.909 85.3778 114.148 85.3892 113.233V100.773ZM97.9112 117.205C97.076 117.205 96.3374 117.068 95.6953 116.795C95.0589 116.517 94.5589 116.097 94.1953 115.534C93.8317 114.972 93.6499 114.256 93.6499 113.386C93.6499 112.67 93.772 112.06 94.0163 111.554C94.2607 111.043 94.6016 110.625 95.0391 110.301C95.4766 109.977 95.9851 109.73 96.5646 109.56C97.1499 109.389 97.7805 109.278 98.4567 109.227C99.1896 109.17 99.7777 109.102 100.221 109.023C100.67 108.937 100.994 108.821 101.192 108.673C101.391 108.52 101.491 108.318 101.491 108.068V108.034C101.491 107.693 101.36 107.432 101.099 107.25C100.837 107.068 100.502 106.977 100.093 106.977C99.6442 106.977 99.2777 107.077 98.9936 107.276C98.7152 107.469 98.5476 107.767 98.4908 108.17H94.1612C94.218 107.375 94.4709 106.642 94.9197 105.972C95.3743 105.295 96.0362 104.756 96.9055 104.352C97.7749 103.943 98.8601 103.739 100.161 103.739C101.099 103.739 101.94 103.849 102.684 104.071C103.428 104.287 104.062 104.591 104.585 104.983C105.107 105.369 105.505 105.824 105.778 106.347C106.056 106.864 106.195 107.426 106.195 108.034V117H101.798V115.159H101.695C101.434 115.648 101.116 116.043 100.741 116.344C100.371 116.645 99.9482 116.864 99.4709 117C98.9993 117.136 98.4794 117.205 97.9112 117.205ZM99.4453 114.239C99.8033 114.239 100.138 114.165 100.451 114.017C100.769 113.869 101.028 113.656 101.227 113.378C101.425 113.099 101.525 112.761 101.525 112.364V111.273C101.4 111.324 101.266 111.372 101.124 111.418C100.988 111.463 100.84 111.506 100.681 111.545C100.528 111.585 100.363 111.622 100.187 111.656C100.016 111.69 99.8374 111.722 99.6499 111.75C99.2862 111.807 98.9879 111.901 98.755 112.031C98.5277 112.156 98.3572 112.312 98.2436 112.5C98.1357 112.682 98.0817 112.886 98.0817 113.114C98.0817 113.477 98.2095 113.756 98.4652 113.949C98.7209 114.142 99.0476 114.239 99.4453 114.239ZM108.443 117V103.909H113.011V106.398H113.148C113.386 105.477 113.764 104.804 114.281 104.378C114.804 103.952 115.415 103.739 116.114 103.739C116.318 103.739 116.52 103.756 116.719 103.79C116.923 103.818 117.119 103.861 117.307 103.918V107.932C117.074 107.852 116.787 107.793 116.446 107.753C116.105 107.713 115.813 107.693 115.568 107.693C115.108 107.693 114.693 107.798 114.324 108.009C113.96 108.213 113.673 108.503 113.463 108.878C113.253 109.247 113.148 109.682 113.148 110.182V117H108.443ZM130.815 108.17H126.486C126.463 107.903 126.369 107.673 126.205 107.48C126.04 107.287 125.827 107.139 125.565 107.037C125.31 106.929 125.026 106.875 124.713 106.875C124.31 106.875 123.963 106.949 123.673 107.097C123.384 107.244 123.241 107.455 123.247 107.727C123.241 107.92 123.324 108.099 123.494 108.264C123.67 108.429 124.009 108.557 124.509 108.648L127.168 109.125C128.509 109.369 129.506 109.781 130.159 110.361C130.818 110.935 131.151 111.705 131.156 112.67C131.151 113.602 130.872 114.412 130.321 115.099C129.776 115.781 129.028 116.31 128.08 116.685C127.136 117.054 126.06 117.239 124.849 117.239C122.849 117.239 121.284 116.83 120.153 116.011C119.028 115.193 118.401 114.114 118.27 112.773H122.94C123.003 113.187 123.207 113.509 123.554 113.736C123.906 113.957 124.349 114.068 124.884 114.068C125.315 114.068 125.67 113.994 125.949 113.847C126.233 113.699 126.378 113.489 126.384 113.216C126.378 112.966 126.253 112.767 126.009 112.619C125.77 112.472 125.395 112.352 124.884 112.261L122.565 111.852C121.23 111.619 120.23 111.176 119.565 110.523C118.901 109.869 118.571 109.028 118.577 108C118.571 107.091 118.81 106.321 119.293 105.69C119.781 105.054 120.477 104.571 121.381 104.241C122.29 103.906 123.366 103.739 124.611 103.739C126.503 103.739 127.994 104.131 129.085 104.915C130.182 105.699 130.759 106.784 130.815 108.17Z" fill="black"/>
</svg>
