<svg width="300" height="298" viewBox="0 0 300 298" fill="none" xmlns="http://www.w3.org/2000/svg">
<g clip-path="url(#clip0_2_415)">
<path fill-rule="evenodd" clip-rule="evenodd" d="M148.795 46.2026C180.514 46.2026 193.878 72.9642 216.776 93.7673C247.084 121.301 277.387 103.376 282.24 196.406C286.559 279.204 232.668 205.357 156.682 235.029C80.6961 264.701 3.30227 276.64 26.2729 180.669C49.2436 84.6975 75.1052 46.2026 148.795 46.2026Z" fill="#E9EFF8"/>
<path fill-rule="evenodd" clip-rule="evenodd" d="M58.0254 119.172C65.2831 104.656 72.5408 97.3985 87.0393 97.3985C94.7329 97.403 102.11 100.461 107.55 105.901C112.99 111.342 116.049 118.719 116.053 126.412C116.053 155.424 87.0393 177.1 58.0254 206.114C29.0139 177.112 -3.8147e-06 155.436 -3.8147e-06 126.425C0.00448281 118.731 3.06274 111.354 8.50293 105.914C13.9431 100.473 21.3203 97.4151 29.0139 97.4106C43.5197 97.4106 50.7725 104.663 58.0254 119.172Z" fill="#D0D9EE"/>
<path fill-rule="evenodd" clip-rule="evenodd" d="M244.936 99.9266C250.212 89.3691 255.493 84.0879 266.051 84.0879C271.647 84.0943 277.012 86.3208 280.968 90.2786C284.924 94.2364 287.148 99.6022 287.151 105.198C287.151 126.313 266.039 142.089 244.924 163.202C223.809 142.089 202.691 126.313 202.691 105.198C202.694 99.5982 204.919 94.2284 208.879 90.2686C212.839 86.3089 218.209 84.0832 223.809 84.0806C234.366 84.0879 239.642 89.3691 244.936 99.9266Z" fill="#D0D9EE"/>
<path fill-rule="evenodd" clip-rule="evenodd" d="M58.8963 132.175C58.9537 132.29 58.9879 132.415 58.997 132.542C59.0061 132.67 58.9899 132.799 58.9493 132.92C58.9088 133.042 58.8447 133.155 58.7606 133.251C58.6766 133.348 58.5744 133.428 58.4597 133.485C58.345 133.542 58.2201 133.577 58.0922 133.586C57.9643 133.595 57.8359 133.579 57.7142 133.538C57.5926 133.497 57.4801 133.433 57.3832 133.349C57.2864 133.265 57.207 133.163 57.1497 133.048L51.7741 122.295C50.3903 119.527 48.75 116.465 46.7784 113.694C44.843 110.975 42.5858 108.542 39.9368 106.964C39.7141 106.831 39.5535 106.615 39.4902 106.363C39.4269 106.112 39.4662 105.845 39.5993 105.623C39.7324 105.4 39.9486 105.239 40.2001 105.176C40.4517 105.113 40.7181 105.152 40.9408 105.285C43.8438 107.02 46.297 109.64 48.3727 112.56C50.4121 115.427 52.0983 118.577 53.5208 121.422L58.8963 132.175ZM31.317 102.506C30.7074 102.467 30.1074 102.445 29.5486 102.445C23.4429 102.409 17.534 104.603 12.9308 108.614C10.6243 110.645 8.74333 113.113 7.39666 115.875C6.04999 118.637 5.26437 121.639 5.08524 124.707C5.04411 125.287 5.02718 125.861 5.02718 126.425C5.02963 127.821 5.1104 129.217 5.2691 130.605C5.4224 132.004 5.65175 133.394 5.95616 134.768C7.32545 140.952 10.1777 146.794 13.7292 152.221C17.2806 157.647 21.4707 162.602 25.6076 167.109C32.6936 174.831 40.3505 182.125 47.9953 189.407C51.1403 192.407 54.2853 195.407 57.3504 198.385C57.4404 198.475 57.5472 198.547 57.6649 198.596C57.7826 198.645 57.9088 198.67 58.0363 198.67C58.1638 198.67 58.29 198.645 58.4077 198.596C58.5254 198.547 58.6322 198.475 58.7222 198.385C61.7656 195.419 64.9009 192.433 68.0362 189.434L71.1667 186.451C71.355 186.272 71.4647 186.026 71.4715 185.766C71.4783 185.507 71.3817 185.255 71.203 185.067C71.0243 184.879 70.7781 184.769 70.5186 184.762C70.2591 184.755 70.0075 184.852 69.8192 185.031L66.6742 188.016C63.7905 190.764 60.9067 193.512 58.0182 196.316C55.1151 193.503 52.2265 190.752 49.3331 187.987C41.7149 180.729 34.0919 173.471 27.0374 165.778C22.9731 161.344 18.812 156.438 15.3573 151.147C11.9027 145.856 9.16408 140.26 7.85769 134.343C7.57069 133.037 7.35346 131.718 7.20692 130.39C7.06306 129.072 6.99118 127.748 6.9916 126.422C6.9916 125.869 7.00773 125.339 7.03999 124.833C7.20434 122.02 7.92409 119.268 9.15774 116.735C10.3914 114.202 12.1145 111.939 14.2275 110.075C18.4743 106.382 23.923 104.366 29.551 104.405C30.1098 104.405 30.659 104.422 31.1888 104.458C31.448 104.475 31.7035 104.389 31.8991 104.218C32.0946 104.047 32.2142 103.805 32.2315 103.546C32.2488 103.287 32.1625 103.031 31.9914 102.836C31.8204 102.64 31.5787 102.52 31.3195 102.503L31.317 102.506ZM79.6316 178.259C79.4465 178.441 79.1967 178.542 78.9372 178.54C78.6777 178.537 78.4297 178.432 78.2478 178.247C78.0659 178.062 77.965 177.812 77.9673 177.553C77.9695 177.293 78.0748 177.045 78.2599 176.863C80.0953 175.054 81.9138 173.225 83.7153 171.379C85.5168 169.532 87.2805 167.666 89.0062 165.781C93.0729 161.346 97.2316 156.44 100.689 151.149C104.146 145.858 106.884 140.263 108.188 134.345C108.477 133.04 108.695 131.721 108.841 130.392C108.985 129.074 109.057 127.75 109.057 126.425C109.057 120.586 106.737 114.986 102.609 110.858C98.4801 106.729 92.8805 104.409 87.0418 104.409C85.1262 104.388 83.2139 104.572 81.3372 104.956C79.4971 105.337 77.7319 106.017 76.1116 106.969C76.0014 107.035 75.8793 107.078 75.7523 107.097C75.6252 107.115 75.4958 107.109 75.3714 107.077C75.2469 107.046 75.1299 106.99 75.0269 106.913C74.924 106.837 74.8371 106.741 74.7714 106.63C74.7056 106.52 74.6622 106.398 74.6436 106.271C74.6251 106.144 74.6317 106.014 74.6631 105.89C74.6946 105.766 74.7503 105.649 74.8269 105.546C74.9036 105.443 74.9998 105.356 75.1101 105.29C76.9095 104.228 78.8709 103.468 80.9162 103.04C82.9279 102.625 84.9781 102.425 87.0321 102.445C93.3923 102.448 99.4913 104.975 103.989 109.473C108.486 113.97 111.014 120.069 111.016 126.429C111.013 129.236 110.703 132.034 110.092 134.773C108.725 140.957 105.871 146.799 102.322 152.226C98.7726 157.652 94.5801 162.607 90.4408 167.114C88.7086 169.001 86.9345 170.879 85.1185 172.748C83.3024 174.617 81.4735 176.454 79.6316 178.259ZM69.4104 110.375C69.4918 110.276 69.5921 110.194 69.7053 110.134C69.8185 110.073 69.9425 110.036 70.0702 110.023C70.1979 110.011 70.3268 110.024 70.4496 110.061C70.5724 110.098 70.6866 110.16 70.7857 110.241C70.8848 110.323 70.9669 110.423 71.0273 110.536C71.0877 110.649 71.1252 110.773 71.1377 110.901C71.1501 111.029 71.1373 111.158 71.1 111.28C71.0626 111.403 71.0014 111.517 70.92 111.616C70.216 112.473 69.5313 113.392 68.8684 114.353C68.2056 115.313 67.5645 116.312 66.933 117.335C66.798 117.557 66.5804 117.716 66.3281 117.777C66.0759 117.839 65.8096 117.797 65.5879 117.662C65.3663 117.527 65.2073 117.309 65.1461 117.057C65.0848 116.805 65.1263 116.539 65.2614 116.317C65.9025 115.274 66.5653 114.241 67.2572 113.242C67.9491 112.243 68.6628 111.283 69.4104 110.375Z" fill="white"/>
<path fill-rule="evenodd" clip-rule="evenodd" d="M245.56 109.391C245.644 109.559 245.658 109.755 245.598 109.934C245.539 110.113 245.411 110.261 245.242 110.345C245.073 110.429 244.878 110.443 244.699 110.384C244.52 110.324 244.372 110.196 244.287 110.027L240.373 102.201C239.326 100.024 238.113 97.9306 236.744 95.9397C235.336 93.9632 233.694 92.1899 231.768 91.0432C231.675 91.0027 231.592 90.943 231.524 90.8679C231.456 90.7929 231.405 90.7042 231.375 90.6079C231.344 90.5116 231.334 90.4098 231.346 90.3093C231.357 90.2088 231.39 90.112 231.442 90.0252C231.494 89.9385 231.564 89.8639 231.647 89.8063C231.731 89.7488 231.825 89.7096 231.924 89.6915C232.024 89.6733 232.126 89.6766 232.224 89.7011C232.322 89.7256 232.414 89.7708 232.494 89.8335C234.61 91.094 236.389 93.0052 237.901 95.1293C239.311 97.1772 240.563 99.3302 241.646 101.569L245.56 109.395V109.391ZM225.48 87.799C225.037 87.7675 224.607 87.753 224.193 87.753C219.749 87.7267 215.448 89.3233 212.097 92.2431C210.419 93.7216 209.051 95.5177 208.071 97.5278C207.091 99.5379 206.519 101.722 206.388 103.955C206.359 104.378 206.344 104.794 206.344 105.205C206.344 106.222 206.401 107.238 206.513 108.249C206.626 109.267 206.793 110.278 207.014 111.278C208.011 115.777 210.087 120.028 212.67 123.979C215.254 127.929 218.31 131.534 221.317 134.812C226.472 140.434 232.044 145.745 237.608 151.043C239.899 153.22 242.204 155.397 244.416 157.575C244.551 157.703 244.73 157.775 244.916 157.775C245.103 157.775 245.282 157.703 245.417 157.575C247.631 155.417 249.912 153.242 252.191 151.069L254.468 148.892C254.604 148.762 254.684 148.583 254.688 148.394C254.693 148.205 254.622 148.022 254.492 147.886C254.361 147.749 254.182 147.67 253.994 147.665C253.805 147.661 253.622 147.731 253.485 147.861L251.206 150.039C249.109 152.037 247.009 154.038 244.916 156.087C242.807 154.038 240.7 152.032 238.595 150.024C233.05 144.745 227.495 139.455 222.369 133.864C219.408 130.636 216.386 127.066 213.868 123.219C211.349 119.372 209.373 115.274 208.405 110.97C208.191 110.021 208.03 109.061 207.921 108.094C207.814 107.135 207.761 106.17 207.762 105.205C207.762 104.801 207.762 104.417 207.8 104.049C207.919 102.002 208.442 99.9988 209.34 98.1552C210.237 96.3115 211.491 94.6639 213.028 93.3076C216.12 90.6212 220.085 89.1547 224.181 89.1828C224.588 89.1828 224.987 89.1949 225.374 89.2191C225.467 89.2253 225.561 89.213 225.649 89.1831C225.738 89.1531 225.819 89.106 225.89 89.0445C225.96 88.9829 226.017 88.9081 226.059 88.8243C226.1 88.7406 226.125 88.6494 226.131 88.5562C226.137 88.4629 226.125 88.3694 226.095 88.2809C226.065 88.1924 226.018 88.1106 225.956 88.0403C225.895 87.97 225.82 87.9125 225.736 87.8711C225.652 87.8297 225.561 87.8052 225.468 87.799H225.48ZM260.646 142.938C260.58 143.004 260.501 143.056 260.414 143.091C260.328 143.126 260.235 143.144 260.142 143.143C260.048 143.142 259.956 143.123 259.87 143.087C259.784 143.051 259.705 142.998 259.64 142.931C259.574 142.864 259.522 142.786 259.487 142.699C259.452 142.612 259.434 142.52 259.435 142.426C259.436 142.333 259.455 142.24 259.491 142.154C259.528 142.068 259.581 141.99 259.647 141.925C260.986 140.607 262.309 139.276 263.617 137.933C264.925 136.589 266.209 135.231 267.469 133.859C270.43 130.632 273.451 127.061 275.97 123.214C278.488 119.368 280.479 115.291 281.432 110.987C281.645 110.038 281.807 109.078 281.916 108.111C282.021 107.152 282.074 106.187 282.073 105.222C282.072 100.972 280.383 96.8968 277.379 93.8915C274.374 90.8861 270.298 89.1968 266.048 89.1949C264.654 89.1801 263.263 89.314 261.897 89.594C260.558 89.8718 259.273 90.367 258.094 91.0601C257.936 91.1291 257.758 91.1382 257.593 91.0856C257.428 91.0329 257.289 90.9222 257.2 90.7741C257.111 90.6259 257.079 90.4505 257.11 90.2805C257.141 90.1106 257.233 89.9577 257.368 89.8505C258.68 89.0774 260.109 88.5241 261.599 88.2127C263.064 87.9104 264.557 87.7653 266.053 87.7796C270.673 87.786 275.102 89.6225 278.371 92.8871C281.639 96.1517 283.481 100.578 283.494 105.198C283.491 106.215 283.435 107.231 283.324 108.242C283.21 109.259 283.042 110.27 282.821 111.27C281.824 115.77 279.749 120.021 277.162 123.971C274.576 127.922 271.526 131.527 268.518 134.805C267.257 136.179 265.967 137.55 264.648 138.917C263.336 140.267 262.001 141.605 260.656 142.931L260.646 142.938ZM253.207 93.535C253.265 93.4588 253.338 93.3951 253.421 93.3476C253.504 93.3002 253.596 93.27 253.691 93.2589C253.786 93.2477 253.882 93.2559 253.974 93.2828C254.066 93.3098 254.151 93.355 254.225 93.4157C254.299 93.4765 254.36 93.5515 254.404 93.6363C254.448 93.7212 254.475 93.814 254.482 93.9094C254.49 94.0048 254.478 94.1007 254.448 94.1914C254.417 94.2821 254.369 94.3658 254.305 94.4374C253.793 95.0615 253.297 95.7316 252.815 96.4284C252.334 97.1251 251.864 97.8557 251.405 98.6057C251.359 98.6918 251.297 98.7677 251.221 98.8287C251.145 98.8896 251.057 98.9344 250.964 98.9601C250.87 98.9859 250.772 98.9921 250.675 98.9783C250.579 98.9646 250.486 98.9313 250.403 98.8803C250.32 98.8294 250.249 98.762 250.193 98.6822C250.137 98.6025 250.098 98.5122 250.079 98.4168C250.059 98.3214 250.059 98.2231 250.079 98.1278C250.1 98.0326 250.139 97.9424 250.195 97.863C250.662 97.1058 251.143 96.3534 251.647 95.6252C252.15 94.897 252.677 94.1858 253.207 93.5253V93.535Z" fill="white"/>
<path fill-rule="evenodd" clip-rule="evenodd" d="M148.493 273.502C204.44 273.502 249.794 278.979 249.794 285.736C249.794 292.493 204.44 297.973 148.493 297.973C92.5455 297.973 47.1969 292.493 47.1969 285.736C47.1969 278.979 92.5479 273.502 148.493 273.502Z" fill="#D0D9EE"/>
<path fill-rule="evenodd" clip-rule="evenodd" d="M131.473 65.2493C139.314 67.5572 160.55 74.065 161.612 73.8134L180.966 59.2423L192.869 69.137C192.869 69.137 166.308 87.7409 164.806 88.428C163.688 88.9264 140.301 77.5414 129.274 72.4417C129.427 69.033 129.715 68.2225 131.473 65.2493Z" fill="#EF8F7D"/>
<path fill-rule="evenodd" clip-rule="evenodd" d="M166.879 67.4121L179.004 82.2735C179.004 82.2735 191.785 72.9812 196.498 67.9733C202.217 61.9035 208.468 48.8614 207.544 48.392C204.955 47.0615 199.367 46.0018 195.513 46.8123C182.176 49.6186 166.879 67.4121 166.879 67.4121Z" fill="#ED7A15"/>
<path fill-rule="evenodd" clip-rule="evenodd" d="M174.778 266.339L175.344 275.774C175.55 276.957 176.365 279.93 176.365 281.009C176.365 285.085 157.161 277.54 161.465 275.73C161.854 275.563 163.884 274.339 164.022 272.943C164.22 270.805 164.721 266.46 164.721 266.46L174.778 266.339Z" fill="#F4AE7C"/>
<path fill-rule="evenodd" clip-rule="evenodd" d="M161.523 275.691C161.523 275.691 166.032 276.94 168.34 277.252C170.648 277.564 173.694 274.944 175.329 275.65C177.124 276.42 176.781 285.647 176.781 285.647C176.781 285.647 151.621 287.497 144.833 285.441C142.133 284.609 152.303 278.602 161.523 275.691Z" fill="#142D4D"/>
<path fill-rule="evenodd" clip-rule="evenodd" d="M217.114 267.234L217.681 276.691C217.889 277.874 218.704 280.828 218.704 281.907C218.704 286.002 199.498 278.457 203.799 276.649C204.191 276.483 206.838 274.32 206.966 272.926C207.162 270.766 207.058 267.377 207.058 267.377L217.114 267.234Z" fill="#F4AE7C"/>
<path fill-rule="evenodd" clip-rule="evenodd" d="M203.838 276.587C203.838 276.587 208.347 277.854 210.655 278.166C212.963 278.478 216.009 275.837 217.644 276.545C219.439 277.334 219.904 285.961 219.904 285.961C219.904 285.961 193.212 288.683 187.162 287.043C184.455 286.293 194.616 279.516 203.838 276.587Z" fill="#142D4D"/>
<path fill-rule="evenodd" clip-rule="evenodd" d="M186.666 131.246L178.545 134.573L161.465 211.746L162.157 269.595L175.85 269.907C175.85 269.907 182.217 219.292 182.217 215.363C182.217 211.434 211.717 146.727 211.717 146.727L186.666 131.246Z" fill="#142D4D"/>
<path fill-rule="evenodd" clip-rule="evenodd" d="M192.934 135.509C192.934 135.509 195.201 194.054 195.201 204.082C195.201 214.11 198.436 270.454 198.436 270.454L217.492 271.037C217.492 271.037 218.481 253.95 219.95 228.775C220.192 224.849 219.657 216.887 219.95 212.808C222.086 183.477 226.308 155.855 224.304 144.898C223.98 143.154 223.371 138.538 222.183 137.374C213.181 128.585 192.934 135.509 192.934 135.509Z" fill="#0F3970"/>
<path fill-rule="evenodd" clip-rule="evenodd" d="M215.54 46.563C215.54 46.563 225.011 47.809 227.503 49.5363C230.311 51.4886 233.425 55.8529 233.425 55.8529C233.425 55.8529 221.798 107.883 221.776 116.634C221.762 123.391 224.292 140.021 224.292 140.021C224.292 140.021 189.155 142.118 175.847 137.149C175.847 137.149 180.049 117.381 180.049 112.187C180.049 106.993 185.074 59.7818 186.221 56.4771C187.256 53.4845 189.155 48.121 195.576 46.8001C201.997 45.4792 215.54 46.563 215.54 46.563Z" fill="#F1923F"/>
<path fill-rule="evenodd" clip-rule="evenodd" d="M212.953 32.5726L215.218 46.6042C215.218 46.6042 208.096 58.6181 202.986 57.123C198.697 55.8529 199.974 46.3139 199.974 46.3139C199.974 46.3139 202.311 38.103 201.612 33.9758C200.913 29.8485 212.953 32.5726 212.953 32.5726Z" fill="#F4AE7C"/>
<path fill-rule="evenodd" clip-rule="evenodd" d="M201.612 33.9879C200.91 29.8752 212.953 32.5726 212.953 32.5726L213.147 33.7822C212.832 34.525 212.39 35.207 211.841 35.7975C209.15 38.5215 204.946 40.1521 201.312 40.2658C201.675 38.0619 201.9 35.6717 201.612 33.9879Z" fill="#EC724C"/>
<path fill-rule="evenodd" clip-rule="evenodd" d="M214.937 12.0163C215.278 11.9123 217.666 28.5615 213.135 33.1339C208.604 37.7062 199.776 39.2255 196.607 35.6088C193.104 31.617 193.28 13.7195 200.327 8.99714C207.375 4.27479 214.937 12.0163 214.937 12.0163Z" fill="#F4AE7C"/>
<path fill-rule="evenodd" clip-rule="evenodd" d="M202.998 0.104004C206.893 0.865228 210.471 2.77738 213.268 5.59326C215.738 5.88356 219.098 7.15124 222.572 12.5558C226.84 19.2087 223.688 26.5656 218.718 30.163C213.749 33.7604 213.836 37.9989 213.836 37.9989L213.038 35.795C212.445 34.1671 212.232 32.4254 212.414 30.7025C212.51 29.6464 212.781 28.6137 213.217 27.647C214.412 25.2278 210.65 23.6359 209.588 21.6401C208.778 20.1014 208.739 16.5597 207.459 14.0122L205.933 12.0575C205.933 12.0575 202.406 9.48097 198.956 10.2067C195.506 10.9325 196.011 -1.24835 202.998 0.104004Z" fill="#0F3970"/>
<path fill-rule="evenodd" clip-rule="evenodd" d="M209.83 24.5915C209.791 26.6285 210.776 28.2906 212.024 28.3123C213.273 28.3341 214.313 26.7108 214.349 24.6835C214.386 22.6561 213.401 20.9845 212.153 20.9627C210.904 20.9409 209.857 22.5763 209.83 24.5915Z" fill="#F4AE7C"/>
<path fill-rule="evenodd" clip-rule="evenodd" d="M229.89 53.2571C226.702 53.1724 223.884 73.0658 225.906 75.0302C227.928 76.9947 228.311 101.489 228.311 101.489L198.244 100.773V100.795C197.659 100.42 191.362 96.4091 190.462 95.5357C189.516 94.6212 184.927 95.0785 183.712 96.3461C182.498 97.6138 186.412 96.5736 187.491 97.2606C188.57 97.9477 186.68 99.6799 186.68 99.6799C186.68 99.6799 179.062 100.718 177.577 99.2226C176.091 97.7275 172.126 95.2115 171.584 96.709C171.306 97.4759 173.355 99.8057 174.504 100.781C173.067 99.7621 171.343 98.6831 170.755 98.867C169.673 99.2226 170.123 100.512 170.709 100.906C171.294 101.301 177.342 105.646 178.286 105.958C179.229 106.27 193.285 106.58 195.704 107.1C195.704 107.1 235.346 115.644 237.598 115.103C239.575 114.645 241.554 102.631 241.554 93.4237C241.554 84.2161 239.855 53.5474 229.89 53.2571Z" fill="#F4AE7C"/>
<path fill-rule="evenodd" clip-rule="evenodd" d="M225.756 48.7259C225.756 48.7259 231.303 49.9355 237.03 56.0199C242.241 61.5696 245.524 92.5842 245.524 92.5842L227.534 95.3277L226.1 80.3284L221.293 73.4698L225.756 48.7259Z" fill="#ED7A15"/>
<path fill-rule="evenodd" clip-rule="evenodd" d="M139.019 60.5729C139.019 60.5729 137.766 59.2834 135.424 59.4503C133.082 59.6173 130.012 62.4018 129.584 63.4203C129.361 63.9187 130.835 68.0169 131.473 68.9096C131.853 69.449 132.722 69.72 133.027 69.4273C133.23 69.241 133.027 68.3048 132.961 68.1185C132.855 67.7241 132.076 65.2154 132.076 65.2154C132.076 65.2154 133.59 67.7507 134.292 67.8983C134.993 68.0459 135.388 67.5233 135.347 67.3153C135.134 66.2339 133.953 64.1558 133.953 64.1558C133.953 64.1558 135.726 66.6282 136.6 66.3597C137.473 66.0911 137.108 65.2372 136.977 64.9251C136.847 64.613 135.635 62.9292 135.635 62.9292C135.635 62.9292 137.57 65.4646 137.933 64.5501C138.16 64.0106 136.905 61.6204 136.905 61.6204L139.019 60.5729Z" fill="#F3A992"/>
<path fill-rule="evenodd" clip-rule="evenodd" d="M144.632 41.3883C145.841 36.1918 147.022 30.9735 143.838 25.2593C141.259 20.6434 136.803 17.9822 131.643 17.4016C117.028 15.7589 115.741 28.1067 101.857 33.5306C95.9252 35.8386 89.8384 35.1733 84.5403 38.1659C74.9698 43.5511 69.8894 58.6834 76.235 72.7755C91.7762 107.303 128.42 84.7072 133.131 77.9115C136.636 72.8602 143.855 44.7341 144.632 41.3883Z" fill="#0F3970"/>
<path fill-rule="evenodd" clip-rule="evenodd" d="M135.693 67.4338L134.2 60.0551C137.132 60.8742 139.686 62.6896 141.424 65.1888C144.235 69.3257 148.923 83.2726 149.741 83.6887C150.559 84.1048 159.435 71.1546 160.991 69.0958C162.909 66.5822 163.625 63.6719 164.83 61.468C166.035 59.2641 170.271 58.5165 171.882 58.8068C173.493 59.0971 169.676 65.5202 169.676 65.5202C169.676 65.5202 160.042 81.3396 156.83 90.0295C153.617 98.7194 143.587 102.832 141.983 101.606C140.379 100.379 135.693 67.4338 135.693 67.4338Z" fill="#F3A992"/>
<path fill-rule="evenodd" clip-rule="evenodd" d="M137.434 89.6134L149.707 83.0041C149.707 83.0041 144.143 60.7616 134.2 60.0552L137.434 89.6134Z" fill="#406FB5"/>
<path fill-rule="evenodd" clip-rule="evenodd" d="M164.936 62.6946C164.936 62.6946 165.336 61.0011 166.417 60.6793C167.498 60.3576 169.385 60.6382 169.501 60.6793C169.618 60.7205 171.705 59.6608 171.705 59.6608L169.988 62.6946C169.988 62.6946 166.62 66.4371 165.5 65.0436C164.38 63.6502 164.936 62.6946 164.936 62.6946Z" fill="#F4AE7C"/>
<path fill-rule="evenodd" clip-rule="evenodd" d="M172.305 59.7842C172.305 59.7842 173.515 65.646 173.213 66.8725C172.91 68.0991 172.129 67.4338 171.988 67.1846C171.386 66.0839 170.975 62.3195 170.975 62.3195L172.305 59.7842Z" fill="#F3A992"/>
<path fill-rule="evenodd" clip-rule="evenodd" d="M169.697 64.6493C169.697 64.6493 170.28 68.2781 170.876 68.7015C171.26 68.9918 171.754 68.8273 171.918 68.0991C172.083 67.3709 171.139 62.8808 171.139 62.8808L169.697 64.6493Z" fill="#F3A992"/>
<path fill-rule="evenodd" clip-rule="evenodd" d="M86.1781 259.439C86.1781 259.439 85.1354 269.438 82.4597 271.267C79.784 273.096 76.2181 279.891 78.0011 283.571C78.5575 284.715 79.6728 285.381 80.9429 285.748C82.7422 286.274 84.6697 286.145 86.3829 285.384C88.0962 284.623 89.4842 283.28 90.3005 281.592C91.4097 279.195 92.0337 276.603 92.1367 273.964C92.5407 265.857 95.2139 261.72 95.2139 261.72L86.1781 259.439Z" fill="#F4AE7C"/>
<path fill-rule="evenodd" clip-rule="evenodd" d="M127.293 263.535C127.293 263.535 128.135 273.616 127.45 276.899C127.085 278.645 125.043 282.262 125.982 283.914C126.92 285.567 127.987 285.971 127.987 285.971L152.255 286.346C153.58 286.365 152.707 285.555 151.64 284.829C149.894 283.602 148.495 282.811 142.914 280.254C142.549 280.087 141.221 279.286 140.737 279.028C139.527 278.321 138.317 277.218 137.265 276.139C135.523 274.288 135.373 265.412 135.373 265.412L127.293 263.535Z" fill="#F4AE7C"/>
<path fill-rule="evenodd" clip-rule="evenodd" d="M146.265 129.42C146.265 129.42 149.32 145.798 147.312 156.515C145.304 167.232 135.673 266.808 135.673 266.808L124.971 267.391C124.971 267.391 122.726 225.797 123.127 220.018C123.529 214.238 126.703 204.551 126.703 204.551L125.641 171.001L139.145 126.891L146.265 129.42Z" fill="#142D4D"/>
<path fill-rule="evenodd" clip-rule="evenodd" d="M114.805 125.97C114.805 125.97 106.376 137.943 104.371 147.857C102.365 157.771 105.844 188.243 101.981 201.237C99.8952 208.253 91.9722 219.139 90.7698 228.216C89.5674 237.293 84.8427 261.101 84.8427 261.101L95.5405 263.097L120.403 203.661L139.907 149.908L144.903 122.239L114.805 125.97Z" fill="#0F3970"/>
<path fill-rule="evenodd" clip-rule="evenodd" d="M121.627 57.8101C121.627 57.8101 115.848 58.7028 111.544 62.6946C102.312 71.2369 116.968 104.206 117.769 110.005C118.569 115.804 111.193 129.274 111.193 129.274C111.193 129.274 138.772 134.096 146.272 129.42C146.272 129.42 147.15 83.0041 146.347 78.8575C145.544 74.7109 136.564 61.9785 134.96 60.3358C133.356 58.6931 121.627 57.8101 121.627 57.8101Z" fill="#6998D0"/>
<path fill-rule="evenodd" clip-rule="evenodd" d="M111.191 66.5823C111.902 64.5453 114.336 63.5485 116.419 64.4049C119.268 65.588 123.192 67.7919 125.128 71.5756C128.341 77.9164 139.575 99.6798 143.054 100.51C146.533 101.339 160.715 77.9164 160.715 77.9164C160.715 77.9164 160.316 73.7795 161.518 71.4304C162.72 69.0813 166.332 66.6282 166.867 67.4387C167.402 68.2491 164.859 70.3418 164.859 70.7651C164.859 71.1885 165.933 71.4304 167.399 70.62C168.865 69.8095 169.671 68.1257 169.671 68.1257C169.671 68.1257 172.09 72.2602 169.545 75.9834C167 79.7066 165.933 81.2211 165.933 81.2211C165.933 81.2211 149.482 115.79 143.456 116.184C137.848 116.569 105.556 82.6992 111.191 66.5823Z" fill="#F4AE7C"/>
<path fill-rule="evenodd" clip-rule="evenodd" d="M125.343 43.7156L125.179 44.5696C124.695 47.105 122.759 55.5022 121.475 57.8101C119.907 60.5946 126.829 69.512 133.489 68.4306C135.47 68.0991 131.812 60.2414 131.989 59.4092C132.323 57.8101 132.78 55.6473 133.247 53.4023C133.51 52.1563 133.777 50.8887 134.026 49.6815L135.322 43.4882L125.343 43.7156Z" fill="#F4AE7C"/>
<path fill-rule="evenodd" clip-rule="evenodd" d="M125.183 44.5696L125.348 43.7156L135.327 43.4882L134.031 49.6815C133.789 50.8669 133.515 52.1346 133.259 53.3829C131.715 53.1748 130.114 52.4684 128.491 51.1378C126.857 49.7963 125.611 48.0423 124.883 46.0574C125 45.4623 125.101 44.9591 125.183 44.5696Z" fill="#EC724C"/>
<path fill-rule="evenodd" clip-rule="evenodd" d="M133.247 21.6812C133.247 21.6812 129.71 22.2013 127.148 25.8181C126.995 29.7348 123.717 40.8174 128.188 46.6042C134.553 52.6523 140.846 45.8155 141.779 38.5384C141.898 32.3452 142.52 21.4127 133.247 21.6812Z" fill="#F4AE7C"/>
<path fill-rule="evenodd" clip-rule="evenodd" d="M136.851 20.4328C136.851 20.4328 130.561 31.0146 126.071 31.513C121.581 32.0113 120.991 37.624 120.991 37.624C120.991 37.624 122.597 24.6544 127.039 22.1602C131.481 19.666 136.851 20.4328 136.851 20.4328Z" fill="#0F3970"/>
<path fill-rule="evenodd" clip-rule="evenodd" d="M127.291 32.575C127.658 34.4644 126.92 36.1918 125.65 36.4192C124.38 36.6466 123.05 35.3596 122.682 33.4677C122.314 31.5759 123.055 29.8703 124.325 29.6211C125.595 29.372 126.925 30.7025 127.291 32.575Z" fill="#F4AE7C"/>
<path fill-rule="evenodd" clip-rule="evenodd" d="M91.0311 279.809C85.1983 280.828 81.3178 277.605 79.3026 275.196C77.8196 277.917 76.91 281.328 78.0011 283.571C78.9687 285.548 81.5767 286.087 83.783 286.169C84.91 286.218 86.0298 285.967 87.0278 285.441C88.0259 284.915 88.8664 284.134 89.4634 283.177C90.1025 282.112 90.628 280.983 91.0311 279.809Z" fill="#0F3970"/>
<path fill-rule="evenodd" clip-rule="evenodd" d="M140.746 279.04C134.326 280.6 129.582 279.538 126.928 278.52C126.243 280.349 125.336 282.656 125.82 283.965C126.408 285.608 127.247 285.964 127.997 285.983C133.861 286.128 149.473 286.336 153.941 286.377C154.076 286.389 154.211 286.361 154.33 286.295C154.448 286.229 154.544 286.129 154.606 286.009C154.667 285.888 154.69 285.751 154.673 285.617C154.656 285.483 154.599 285.356 154.509 285.255C153.392 284.009 141.225 279.311 140.746 279.04Z" fill="#0F3970"/>
<path fill-rule="evenodd" clip-rule="evenodd" d="M120.2 96.9509L134.65 87.9707C134.65 87.9707 128.628 71.8828 122.005 66.1976C115.381 60.5124 112.25 61.8744 110.876 63.0526C107.039 66.3355 107.731 74.2972 112.086 84.129C116.44 93.9608 120.2 96.9509 120.2 96.9509Z" fill="#406FB5"/>
<path fill-rule="evenodd" clip-rule="evenodd" d="M115.782 272.471C115.782 272.471 115.255 277.008 115.255 277.794V278.561L115.632 279.342L115.782 279.654L113.07 283.467C113.07 283.467 102.162 283.631 101.92 283.631C101.678 283.631 103.372 280.994 103.372 280.994C103.372 280.994 106.976 278.278 107.627 276.376C108.278 274.475 107.083 270.497 107.083 270.497L115.782 272.471Z" fill="#F4AE7C"/>
<path fill-rule="evenodd" clip-rule="evenodd" d="M168.335 245.306C168.335 245.306 172.221 247.713 172.828 248.194L173.425 248.678L173.803 249.457L173.96 249.772L178.627 250.014C178.627 250.014 185.536 241.573 185.689 241.384C185.841 241.196 183.702 241.67 183.702 241.67C183.702 241.67 179.348 242.258 177.449 241.578C175.55 240.898 171.713 237.126 171.713 237.126L168.335 245.306Z" fill="#F4AE7C"/>
<path fill-rule="evenodd" clip-rule="evenodd" d="M133.048 202.718L174.877 238.343L168.435 247.449C168.435 247.449 125.447 220.76 123.195 220.46C120.943 220.16 119.128 221.186 118.697 222.831C118.267 224.476 117.195 273.725 117.195 273.725H106.021L100.215 211.712L133.048 202.718Z" fill="#0F3D86"/>
<path fill-rule="evenodd" clip-rule="evenodd" d="M72.7852 151.901C69.691 149.872 62.4212 142.075 59.9632 139.418C59.939 139.109 59.7044 137.297 57.7254 135.006C56.3295 133.387 55.2651 129.683 54.3385 130.736C53.4119 131.788 55.6981 134.72 54.6578 134.739C53.6176 134.759 48.4428 128.948 47.6082 129.901C46.7735 130.854 52.0354 136.019 51.0991 136.031C50.1629 136.043 45.905 130.82 44.7269 132.161C43.5487 133.501 50.3153 137.855 49.6863 138.571C49.0573 139.288 44.8648 136.443 43.9188 137.524C42.9729 138.605 49.8315 141.153 49.2823 141.153C48.7331 141.153 44.7777 141.056 44.7462 141.818C44.7148 142.682 54.7619 144.022 55.9908 145.512C58.6133 149.69 63.2897 157.318 68.012 160.669C73.8182 164.781 87.1796 173.459 87.1796 173.459L93.8253 164.873C93.8253 164.873 76.4527 154.309 72.7852 151.901Z" fill="#F4AE7C"/>
<path fill-rule="evenodd" clip-rule="evenodd" d="M54.6578 136.588C54.4155 137.093 54.2781 137.642 54.2538 138.201C54.2129 138.807 54.3094 139.413 54.5361 139.976C54.7627 140.538 55.1136 141.043 55.5626 141.45C54.9651 140.342 54.2998 139.109 54.6578 136.588Z" fill="#EF8F7D"/>
<path fill-rule="evenodd" clip-rule="evenodd" d="M134.103 142.51C136.564 139.742 141.54 130.312 143.221 127.104C143.163 126.799 142.921 124.997 144.23 122.266C145.159 120.33 145.212 116.494 146.371 117.26C147.53 118.027 146.105 121.465 147.114 121.211C148.123 120.957 151.599 113.994 152.652 114.679C153.704 115.364 149.99 121.741 150.888 121.516C151.785 121.291 154.541 115.117 156.024 116.104C157.507 117.091 152.117 123.064 152.913 123.604C153.709 124.143 157.025 120.284 158.208 121.078C159.391 121.872 153.445 126.122 153.977 125.984C154.509 125.846 158.3 124.714 158.528 125.445C158.789 126.265 149.441 130.189 148.648 131.948C147.196 136.665 144.692 145.253 141 149.727C136.484 155.194 125.851 167.077 125.851 167.077L117.2 160.531C117.2 160.531 131.193 145.791 134.103 142.51Z" fill="#F4AE7C"/>
<path fill-rule="evenodd" clip-rule="evenodd" d="M147.603 122.992C147.967 123.416 148.241 123.91 148.408 124.443C148.607 125.016 148.673 125.627 148.602 126.229C148.531 126.831 148.324 127.409 147.997 127.92C148.285 126.688 148.597 125.329 147.603 122.992Z" fill="#EF8F7D"/>
<path fill-rule="evenodd" clip-rule="evenodd" d="M115.62 162.062C115.003 161.139 114.153 160.394 113.156 159.904C112.159 159.413 111.051 159.194 109.942 159.268C103.297 159.718 89.8311 160.787 88.5562 162.062C86.8627 163.756 81.7412 174.867 86.6208 190.435C91.5004 206.003 94.1592 204.377 98.1291 204.377C102.099 204.377 120.829 195.545 120.829 195.545L115.62 162.062Z" fill="#284C88"/>
<path fill-rule="evenodd" clip-rule="evenodd" d="M127.09 148.848L134.899 159.033L125.208 173.457C125.208 173.457 126.117 184.177 127.518 187.513C128.919 190.849 136.999 204.597 136.999 204.597C136.999 204.597 117.364 216.64 98.1533 214.874C98.1533 214.874 92.7366 187.031 91.2198 184.358C89.7029 181.685 75.0496 168.425 75.0496 168.425L82.1621 156.934L94.4422 163.744C94.4422 163.744 116.89 160.115 117.969 159.031C119.048 157.947 127.09 148.848 127.09 148.848Z" fill="#6998D0"/>
<path fill-rule="evenodd" clip-rule="evenodd" d="M101.756 128.016C101.756 128.016 109.337 124 111.931 130.651C111.931 130.651 118.739 129.964 117.565 137.011C117.565 137.011 124.412 140.461 120.076 149.349C120.076 149.349 121.985 157.7 112.216 158.225C112.216 158.225 110.765 161.182 106.299 160.492C101.833 159.803 100.703 158.632 100.703 158.632C100.703 158.632 92.802 160.94 90.4093 153.808C90.4093 153.808 84.9806 152.506 88.6239 145.536C88.6239 145.536 83.8798 136.503 92.2286 133.781C92.2286 133.769 93.2084 124.528 101.756 128.016Z" fill="#152F54"/>
<path fill-rule="evenodd" clip-rule="evenodd" d="M98.6976 147.598C99.3121 149.311 98.8694 151.043 97.7106 151.468C96.5518 151.894 95.1051 150.83 94.4882 149.112C93.8713 147.394 94.3188 145.662 95.4776 145.241C96.6365 144.82 98.088 145.873 98.6976 147.598Z" fill="#F4AE7C"/>
<path fill-rule="evenodd" clip-rule="evenodd" d="M119.135 143.374C119.222 145.198 118.291 146.727 117.06 146.785C115.828 146.843 114.757 145.411 114.672 143.591C114.587 141.772 115.519 140.238 116.75 140.18C117.981 140.122 119.058 141.552 119.135 143.374Z" fill="#F4AE7C"/>
<path fill-rule="evenodd" clip-rule="evenodd" d="M110.472 155.455C110.472 155.572 111.454 159.81 111.982 162.045C112.074 162.451 112.024 162.875 111.84 163.248C111.657 163.62 111.35 163.919 110.973 164.092C108.89 165.04 104.789 166.369 101.959 163.797C101.831 163.682 101.73 163.54 101.663 163.382C101.597 163.223 101.566 163.052 101.574 162.88L101.92 152.78L110.472 155.455Z" fill="#F4AE7C"/>
<path fill-rule="evenodd" clip-rule="evenodd" d="M110.999 157.824C108.793 158.934 106.021 158.956 102.91 157.134C102.525 156.914 102.153 156.672 101.797 156.409L101.92 152.78L110.472 155.455C110.472 155.518 110.699 156.534 110.999 157.824Z" fill="#EF8F7D"/>
<path fill-rule="evenodd" clip-rule="evenodd" d="M104.407 132.136C101.945 132.919 99.8442 134.555 98.4823 136.75C96.2905 140.379 95.0809 150.881 102.91 155.475C110.738 160.069 116.44 152.954 116.29 146.226C116.14 139.498 113.153 130.9 104.407 132.136Z" fill="#F4AE7C"/>
<path fill-rule="evenodd" clip-rule="evenodd" d="M117.2 159.389C120.807 162.116 124.581 176.082 126.004 179.742L127.158 186.439L112.49 160.521C112.49 160.521 116.409 158.801 117.2 159.389Z" fill="#4268B0"/>
<path fill-rule="evenodd" clip-rule="evenodd" d="M99.3702 162.919C99.3702 162.919 99.8105 180.141 98.5162 186.056C97.2219 191.971 93.8253 194.04 93.8253 194.04L92.1584 187.152C92.1584 187.152 93.8253 171.95 94.4422 163.744C94.5317 162.498 99.3702 162.919 99.3702 162.919Z" fill="#4268B0"/>
<path fill-rule="evenodd" clip-rule="evenodd" d="M117.768 286.244C119.435 286.034 116.559 280.259 115.632 279.33L103.379 280.982C103.379 280.982 97.4808 283.716 96.0824 285.117C95.751 285.448 95.705 286.029 97.1493 286.244C101.772 286.934 114.072 286.711 117.768 286.244Z" fill="#0F3D86"/>
<path fill-rule="evenodd" clip-rule="evenodd" d="M178.005 255.517C176.568 256.381 173.953 250.759 173.803 249.469L183.702 241.679C183.702 241.679 191.33 239.488 192.871 241.031C194.272 242.417 181.273 253.553 178.005 255.517Z" fill="#0F3D86"/>
<path fill-rule="evenodd" clip-rule="evenodd" d="M259.504 257.233C281.87 257.233 300 261.312 300 266.344C300 271.376 281.87 275.454 259.504 275.454C237.139 275.454 219.009 271.376 219.009 266.344C219.009 261.312 237.139 257.233 259.504 257.233Z" fill="#D0D9EE"/>
<path fill-rule="evenodd" clip-rule="evenodd" d="M276.195 237.559H244.43C243.744 237.561 243.086 237.835 242.6 238.32C242.115 238.806 241.841 239.464 241.839 240.15V247.449C241.84 248.136 242.114 248.795 242.599 249.281C243.085 249.767 243.743 250.041 244.43 250.043H276.195C276.882 250.041 277.54 249.767 278.026 249.281C278.511 248.795 278.784 248.136 278.786 247.449V240.155C278.785 239.468 278.512 238.809 278.026 238.322C277.541 237.836 276.882 237.561 276.195 237.559Z" fill="#AAB9DE"/>
<path fill-rule="evenodd" clip-rule="evenodd" d="M275.912 250.038H244.716L247.776 266.162H272.849L275.912 250.038Z" fill="#AAB9DE"/>
<path fill-rule="evenodd" clip-rule="evenodd" d="M244.716 250.038H275.912L275.355 252.953H245.267L244.716 250.038Z" fill="#8D9FCA"/>
<path fill-rule="evenodd" clip-rule="evenodd" d="M257.325 174.354C252.022 189.042 251.406 206.409 255.479 226.455C256.557 229.701 257.344 233.037 257.83 236.422C257.929 236.802 258.033 237.18 258.137 237.559H260.073C260.537 230.07 260.692 222.455 260.537 214.717C260.275 202.658 259.33 190.623 257.707 178.67C257.697 178.591 257.702 178.51 257.723 178.433C257.744 178.356 257.78 178.283 257.829 178.22C257.878 178.157 257.939 178.104 258.009 178.064C258.078 178.024 258.155 177.998 258.234 177.988C258.314 177.978 258.394 177.984 258.472 178.005C258.549 178.026 258.621 178.062 258.685 178.111C258.748 178.16 258.801 178.221 258.841 178.29C258.881 178.36 258.906 178.436 258.916 178.516C260.544 190.511 261.491 202.588 261.754 214.69C261.916 222.432 261.762 230.054 261.295 237.557H262.664C263.365 230.815 264.817 224.841 267.018 219.633C269.491 202.006 266.26 186.914 257.325 174.354Z" fill="#AAB9DE"/>
<path fill-rule="evenodd" clip-rule="evenodd" d="M288.378 197.954C287.563 211.145 280.781 224.347 268.03 237.559H265.243C267.304 232.777 269.618 228.025 272.184 223.303C276.483 215.439 281.304 207.873 286.614 200.654C286.647 200.6 286.668 200.54 286.676 200.478C286.684 200.416 286.679 200.352 286.661 200.292C286.644 200.232 286.613 200.176 286.573 200.128C286.532 200.08 286.482 200.04 286.426 200.013C286.315 199.936 286.18 199.903 286.046 199.919C285.912 199.936 285.789 200.001 285.7 200.102C280.371 207.351 275.533 214.948 271.221 222.843C268.566 227.724 266.184 232.632 264.074 237.569H262.649C264.72 217.68 273.296 204.475 288.378 197.954Z" fill="#BCC9E7"/>
<path fill-rule="evenodd" clip-rule="evenodd" d="M233.132 204.048C233.879 215.811 239.605 226.981 250.309 237.56H254.663C252.923 233.919 251.013 230.319 248.932 226.758C244.754 219.65 240.05 212.866 234.86 206.46C234.714 206.284 234.799 205.993 235.041 205.817C235.137 205.73 235.262 205.683 235.391 205.683C235.52 205.683 235.644 205.73 235.74 205.817C240.949 212.246 245.67 219.055 249.864 226.187C252.056 229.935 254.057 233.725 255.868 237.557H258C255.613 219.622 247.323 208.453 233.132 204.048Z" fill="#D0D9EE"/>
<path fill-rule="evenodd" clip-rule="evenodd" d="M248.927 226.758C251.008 230.317 252.918 233.918 254.659 237.559H255.868C254.059 233.727 252.057 229.937 249.864 226.189C245.67 219.057 240.949 212.248 235.74 205.819C235.644 205.733 235.52 205.685 235.391 205.685C235.262 205.685 235.137 205.733 235.041 205.819C234.799 205.996 234.714 206.286 234.86 206.463C240.048 212.867 244.751 219.651 248.927 226.758Z" fill="white"/>
<path fill-rule="evenodd" clip-rule="evenodd" d="M271.228 222.834C268.573 227.714 266.191 232.623 264.082 237.559H265.243C267.304 232.777 269.618 228.025 272.184 223.303C276.483 215.439 281.304 207.873 286.614 200.654C286.647 200.6 286.669 200.54 286.677 200.478C286.685 200.415 286.68 200.352 286.663 200.291C286.645 200.231 286.614 200.175 286.574 200.127C286.533 200.079 286.482 200.04 286.426 200.013C286.315 199.936 286.18 199.903 286.046 199.919C285.912 199.936 285.789 200.001 285.7 200.102C280.373 207.348 275.539 214.942 271.228 222.834Z" fill="white"/>
<path fill-rule="evenodd" clip-rule="evenodd" d="M261.287 237.559C261.75 230.065 261.903 222.442 261.747 214.693C261.484 202.591 260.536 190.513 258.909 178.518C258.889 178.358 258.805 178.212 258.677 178.113C258.549 178.014 258.387 177.97 258.227 177.991C258.067 178.011 257.921 178.095 257.822 178.222C257.723 178.35 257.679 178.512 257.7 178.673C259.323 190.625 260.268 202.66 260.53 214.719C260.683 222.461 260.529 230.075 260.066 237.562L261.287 237.559Z" fill="white"/>
<path fill-rule="evenodd" clip-rule="evenodd" d="M50.8137 258.856C68.9386 258.856 83.6306 262.161 83.6306 266.24C83.6306 270.318 68.9386 273.623 50.8137 273.623C32.6887 273.623 17.9967 270.318 17.9967 266.24C17.9967 262.161 32.6887 258.856 50.8137 258.856Z" fill="#D0D9EE"/>
<path fill-rule="evenodd" clip-rule="evenodd" d="M64.3372 242.913H38.5965C38.0402 242.915 37.5072 243.137 37.1138 243.53C36.7204 243.924 36.4985 244.457 36.4966 245.013V250.923C36.4979 251.48 36.7195 252.013 37.1131 252.407C37.5066 252.8 38.04 253.022 38.5965 253.023H64.3372C64.894 253.022 65.4276 252.8 65.8215 252.407C66.2154 252.013 66.4376 251.48 66.4395 250.923V245.013C66.4376 244.456 66.2154 243.923 65.8215 243.53C65.4276 243.136 64.894 242.915 64.3372 242.913Z" fill="#AAB9DE"/>
<path fill-rule="evenodd" clip-rule="evenodd" d="M64.1098 253.026H38.8288L41.3085 266.092H61.6277L64.1098 253.026Z" fill="#AAB9DE"/>
<path fill-rule="evenodd" clip-rule="evenodd" d="M38.8288 253.026H64.1098L63.6598 255.389H39.2763L38.8288 253.026Z" fill="#8D9FCA"/>
<path fill-rule="evenodd" clip-rule="evenodd" d="M49.0476 191.691C44.7494 203.593 44.2503 217.669 47.5501 233.916C48.4236 236.546 49.0615 239.249 49.4565 241.992C49.5387 242.299 49.621 242.606 49.6984 242.913H51.2685C51.6427 236.841 51.7677 230.67 51.6435 224.401C51.4341 214.63 50.6716 204.879 49.3597 195.194C49.343 195.065 49.378 194.936 49.4569 194.833C49.5359 194.731 49.6523 194.664 49.7807 194.647C49.909 194.63 50.0387 194.665 50.1412 194.744C50.2437 194.823 50.3107 194.94 50.3274 195.068C51.6478 204.789 52.416 214.577 52.6281 224.384C52.7539 230.665 52.6305 236.842 52.258 242.916H53.366C53.9337 237.451 55.1086 232.613 56.8908 228.4C58.9004 214.104 56.286 201.868 49.0476 191.691Z" fill="#AAB9DE"/>
<path fill-rule="evenodd" clip-rule="evenodd" d="M74.2125 210.817C73.5529 221.509 68.0564 232.207 57.723 242.913H55.4659C57.1319 239.042 59.006 235.191 61.0882 231.359C64.5727 224.987 68.4797 218.855 72.7828 213.004C72.8095 212.961 72.8268 212.912 72.8336 212.861C72.8403 212.811 72.8364 212.759 72.8221 212.71C72.8077 212.661 72.7832 212.616 72.7502 212.577C72.7172 212.538 72.6764 212.506 72.6304 212.484C72.5413 212.423 72.4332 212.397 72.3263 212.411C72.2195 212.424 72.1211 212.476 72.0497 212.557C67.7299 218.428 63.8091 224.583 60.314 230.979C58.1641 234.934 56.2336 238.912 54.5224 242.913H53.3684C55.0425 226.801 61.9905 216.102 74.2125 210.817Z" fill="#D0D9EE"/>
<path fill-rule="evenodd" clip-rule="evenodd" d="M29.4397 215.757C30.0461 225.289 34.683 234.342 43.3503 242.916H46.8872C45.476 239.964 43.9269 237.046 42.2399 234.16C38.8546 228.4 35.0425 222.901 30.8356 217.71C30.8109 217.666 30.7952 217.617 30.7894 217.567C30.7835 217.517 30.7877 217.467 30.8017 217.418C30.8156 217.37 30.8391 217.325 30.8707 217.285C30.9022 217.246 30.9413 217.214 30.9856 217.19C31.0631 217.119 31.164 217.08 31.2686 217.08C31.3733 217.08 31.4742 217.119 31.5517 217.19C35.7733 222.399 39.5992 227.918 42.9971 233.698C44.7712 236.735 46.3937 239.807 47.8646 242.913H49.5871C47.6598 228.378 40.944 219.327 29.4397 215.757Z" fill="#BCC9E7"/>
<path fill-rule="evenodd" clip-rule="evenodd" d="M42.2399 234.158C43.9285 237.042 45.4776 239.96 46.8872 242.913H47.8549C46.384 239.807 44.7615 236.735 42.9874 233.698C39.5949 227.918 35.7748 222.4 31.559 217.19C31.4815 217.119 31.3806 217.08 31.2759 217.08C31.1712 217.08 31.0703 217.119 30.9929 217.19C30.9486 217.214 30.9095 217.246 30.8779 217.285C30.8464 217.325 30.8229 217.37 30.8089 217.418C30.795 217.467 30.7908 217.517 30.7966 217.567C30.8024 217.617 30.8182 217.666 30.8429 217.71C35.0472 222.9 38.8568 228.398 42.2399 234.158Z" fill="white"/>
<path fill-rule="evenodd" clip-rule="evenodd" d="M60.314 230.979C58.1641 234.934 56.2336 238.912 54.5224 242.913H55.4659C57.1319 239.042 59.006 235.191 61.0882 231.359C64.5727 224.987 68.4796 218.855 72.7828 213.004C72.8095 212.961 72.8268 212.912 72.8336 212.861C72.8403 212.811 72.8364 212.759 72.822 212.71C72.8077 212.661 72.7832 212.616 72.7502 212.577C72.7172 212.538 72.6763 212.506 72.6304 212.484C72.5413 212.423 72.4332 212.397 72.3263 212.411C72.2195 212.424 72.1211 212.476 72.0497 212.557C67.7299 218.428 63.8091 224.583 60.314 230.979Z" fill="white"/>
<path fill-rule="evenodd" clip-rule="evenodd" d="M52.2604 242.913C52.6329 236.839 52.7563 230.662 52.6305 224.382C52.4184 214.574 51.6503 204.786 50.3298 195.066C50.3216 195.002 50.3009 194.941 50.2689 194.885C50.237 194.83 50.1944 194.781 50.1436 194.742C50.0929 194.703 50.0349 194.674 49.973 194.657C49.9112 194.641 49.8466 194.636 49.7831 194.645C49.7195 194.653 49.6582 194.674 49.6027 194.705C49.5472 194.737 49.4984 194.78 49.4594 194.831C49.4203 194.882 49.3916 194.94 49.3749 195.001C49.3582 195.063 49.3539 195.128 49.3621 195.191C50.6765 204.876 51.4414 214.628 51.6531 224.399C51.7789 230.673 51.6539 236.844 51.2782 242.913H52.2604Z" fill="white"/>
</g>
<defs>
<clipPath id="clip0_2_415">
<rect width="300" height="297.973" fill="white"/>
</clipPath>
</defs>
</svg>
