<svg width="300" height="300" viewBox="0 0 300 300" fill="none" xmlns="http://www.w3.org/2000/svg">
<g clip-path="url(#clip0_2_655)">
<path d="M264 244.5C229.5 309 97.9998 315 49.9999 241C1.99991 167 77.0004 57.5003 183 80.0002C289 102.5 298.5 180 264 244.5Z" fill="#3FBEDA"/>
<path d="M87.7501 78.2001C87.7501 78.2001 84.4411 91.4346 87.7501 91.4346C91.0591 91.4346 87.7501 78.2001 87.7501 78.2001Z" fill="#CFD2D6"/>
<path d="M126.377 81.4791C126.377 81.4791 123.068 94.7121 126.377 94.7121C129.686 94.7121 126.377 81.4791 126.377 81.4791Z" fill="#CFD2D6"/>
<path d="M188.226 71.5895C188.226 71.5895 184.917 84.8225 188.226 84.8225C191.535 84.8225 188.226 71.5895 188.226 71.5895Z" fill="#CFD2D6"/>
<path d="M157.721 87.5886C157.721 87.5886 154.412 100.822 157.721 100.822C161.03 100.822 157.721 87.5886 157.721 87.5886Z" fill="#CFD2D6"/>
<path d="M201.554 106.291C201.554 106.291 198.254 119.524 201.554 119.524C204.854 119.524 201.554 106.291 201.554 106.291Z" fill="#CFD2D6"/>
<path d="M214.251 68.2446C214.251 68.2446 210.942 81.4791 214.251 81.4791C217.56 81.4791 214.251 68.2446 214.251 68.2446Z" fill="#CFD2D6"/>
<path d="M214.251 134.282C214.251 134.282 210.942 147.517 214.251 147.517C217.56 147.517 214.251 134.282 214.251 134.282Z" fill="#CFD2D6"/>
<path d="M217.451 207.532C217.451 207.532 214.143 220.766 217.451 220.766C220.758 220.766 217.451 207.532 217.451 207.532Z" fill="#CFD2D6"/>
<path d="M226.554 163.504C226.554 163.504 223.254 176.737 226.554 176.737C229.854 176.737 226.554 163.504 226.554 163.504Z" fill="#CFD2D6"/>
<path d="M96.8775 143.815C96.8775 143.815 93.5685 157.049 96.8775 157.049C100.187 157.049 96.8775 143.815 96.8775 143.815Z" fill="#CFD2D6"/>
<path d="M61.3726 198.68C61.3726 198.68 58.0636 211.913 61.3726 211.913C64.6816 211.913 61.3726 198.68 61.3726 198.68Z" fill="#CFD2D6"/>
<path d="M109.5 104.395C109.5 104.395 106.191 117.629 109.5 117.629C112.809 117.629 109.5 104.395 109.5 104.395Z" fill="#CFD2D6"/>
<path d="M173.591 112.907C173.591 112.907 170.282 126.142 173.591 126.142C176.9 126.142 173.591 112.907 173.591 112.907Z" fill="#CFD2D6"/>
<path d="M190.121 143.815C190.121 143.815 186.812 157.049 190.121 157.049C193.43 157.049 190.121 143.815 190.121 143.815Z" fill="#CFD2D6"/>
<path d="M208.628 177.5C208.628 177.5 205.319 190.735 208.628 190.735C211.937 190.735 208.628 177.5 208.628 177.5Z" fill="#CFD2D6"/>
<path d="M68.6341 117.131C68.6341 117.131 65.3251 130.364 68.6341 130.364C71.9431 130.364 68.6341 117.131 68.6341 117.131Z" fill="#CFD2D6"/>
<path d="M78.57 163.504C78.57 163.504 75.261 176.737 78.57 176.737C81.879 176.737 78.57 163.504 78.57 163.504Z" fill="#CFD2D6"/>
<path d="M90.15 207.532C90.15 207.532 86.841 220.766 90.15 220.766C93.459 220.766 90.15 207.532 90.15 207.532Z" fill="#CFD2D6"/>
<path d="M225.084 61.5125H112.232C112.283 61.031 112.982 55.199 117.996 52.6895C120.588 51.392 123.08 51.6095 124.176 51.7775C124.517 50.399 126.521 42.86 134.121 38.3915C141.144 34.2605 148.082 35.6135 149.636 35.957C149.25 26.6 156.813 19.241 164.85 19.529C171.57 19.7705 177.738 25.3235 178.845 32.915C184.487 28.4 192.312 28.589 197.099 32.915C200.892 36.344 202.31 41.951 200.75 47.213C202.52 46.97 210.134 46.1225 217.178 51.1685C222.201 54.77 224.318 59.498 225.084 61.5125Z" fill="#AEB3B7"/>
<path d="M168.659 71.6661H55.8C56.5665 69.6516 58.6831 64.9161 63.7096 61.3161C70.7596 56.2701 78.3676 57.1161 80.1391 57.3606C78.5776 52.0986 79.9891 46.4916 83.7886 43.0626C88.5751 38.7366 96.4006 38.5476 102.042 43.0626C103.149 35.4711 109.317 29.9181 116.037 29.6766C124.071 29.3886 131.637 36.7401 131.249 46.1046C132.803 45.7611 139.74 44.4081 146.763 48.5391C147.481 48.9606 148.173 49.425 148.835 49.9296C154.739 54.4221 156.401 60.6816 156.708 61.9296C157.805 61.7616 160.296 61.5441 162.888 62.8416C167.901 65.3526 168.608 71.1846 168.659 71.6661Z" fill="#CFD2D6"/>
<path d="M168.659 71.666H55.8C104.628 71.666 132.617 61.5125 148.835 49.9355C154.739 54.428 156.401 60.6875 156.708 61.9355C157.805 61.7675 160.296 61.55 162.888 62.8475C167.901 65.3525 168.608 71.1845 168.659 71.666Z" fill="#C1C5C9"/>
<path d="M208.269 262.266C208.269 262.266 202.269 249.443 210.486 230.987C215.409 219.924 214.853 208.646 214.853 208.646" stroke="#245B57" stroke-width="2" stroke-miterlimit="10"/>
<path d="M214.818 211.91C214.818 211.91 211.028 202.01 214.749 201.72C219.101 201.381 214.818 211.91 214.818 211.91Z" fill="#4A8E89"/>
<path d="M214.159 218.285C214.159 218.285 205.986 213.651 208.468 211.632C211.066 209.522 214.159 218.285 214.159 218.285Z" fill="#4A8E89"/>
<path d="M214.16 218.285C214.16 218.285 221.074 211.194 222.559 214.358C223.95 217.338 214.16 218.285 214.16 218.285Z" fill="#4A8E89"/>
<path d="M211.381 228.819C211.381 228.819 202.711 224.703 205.437 222.369C208.608 219.65 211.381 228.819 211.381 228.819Z" fill="#4A8E89"/>
<path d="M211.382 228.819C211.382 228.819 218.952 222.471 220.474 225.728C221.895 228.762 211.382 228.819 211.382 228.819Z" fill="#4A8E89"/>
<path d="M207.649 239C207.649 239 198.781 235.1 201.799 232.656C204.411 230.535 207.649 239 207.649 239Z" fill="#4A8E89"/>
<path d="M217.684 235.964C216.393 232.238 207.649 239.004 207.649 239.004C207.649 239.004 218.926 239.546 217.684 235.964Z" fill="#4A8E89"/>
<path d="M207.75 263.3C207.75 263.3 207.75 245.732 226.689 229.304C238.039 219.456 243.339 206.486 243.339 206.486" stroke="#245B57" stroke-width="2" stroke-miterlimit="10"/>
<path d="M241.587 210.135C241.587 210.135 242.534 197.013 246.867 198.644C251.937 200.552 241.587 210.135 241.587 210.135Z" fill="#69A8A2"/>
<path d="M237.495 216.95C237.495 216.95 230.745 207.443 234.597 206.478C238.626 205.478 237.495 216.95 237.495 216.95Z" fill="#69A8A2"/>
<path d="M237.495 216.95C237.495 216.95 248.997 212.615 248.997 216.95C249 221.037 237.495 216.95 237.495 216.95Z" fill="#69A8A2"/>
<path d="M228.834 227.336C228.834 227.336 221.25 218.15 225.546 216.95C230.541 215.565 228.834 227.336 228.834 227.336Z" fill="#69A8A2"/>
<path d="M228.834 227.336C228.834 227.336 240.684 224.186 240.684 228.642C240.681 232.8 228.834 227.336 228.834 227.336Z" fill="#69A8A2"/>
<path d="M219.284 236.823C219.284 236.823 211.362 227.784 216.039 226.614C220.095 225.6 219.284 236.823 219.284 236.823Z" fill="#69A8A2"/>
<path d="M232.163 238.682C232.67 233.814 219.284 236.823 219.284 236.823C219.284 236.823 231.675 243.362 232.163 238.682Z" fill="#69A8A2"/>
<path d="M173.811 148.502C173.706 148.865 173.565 149.217 173.389 149.552C169.315 157.398 160.699 153.419 160.563 153.356C160.666 153.546 168.165 167.213 160.563 169.631C152.913 172.064 121.977 176.475 112.849 171.456C103.782 166.469 112.807 151.421 112.924 151.226C112.774 151.307 104.454 155.876 101.137 148.638C97.791 141.338 107.602 135.861 114.295 130.005C119.679 125.294 117.186 115.935 124.335 110.723C126.86 108.897 129.658 107.479 132.624 106.523C144.802 102.542 158.139 106.352 159.852 112.877C159.999 113.429 160.059 114.001 160.032 114.572C159.696 121.755 161.2 127.077 163.332 131.231C167.85 140.034 175.2 143.589 173.811 148.502Z" fill="#16222F"/>
<path d="M159.85 112.866C152.25 113.6 132.622 106.512 132.622 106.512C144.801 102.531 158.137 106.341 159.85 112.866Z" fill="#25323F"/>
<path d="M173.811 148.502C165.511 146.552 163.36 131.402 163.333 131.222C167.85 140.034 175.2 143.589 173.811 148.502Z" fill="#25323F"/>
<path d="M178.2 182.201L168.465 187.778L168.097 189.114L156.697 230.573L96.867 229.71C96.8355 220.28 99.555 205.41 102.843 191.882C106.677 176.094 108.823 163.244 113.193 160.701C117.024 158.478 131.25 156.62 131.25 156.62L151.633 156.545C151.633 156.545 161.368 156.341 163.801 157.254C166.234 158.168 178.2 182.201 178.2 182.201Z" fill="#8CC0DD"/>
<path d="M168.103 189.114L156.703 230.573L96.873 229.71C96.8415 220.28 99.561 205.41 102.849 191.882C121.299 221.432 162.129 177.536 162.129 177.536L168.103 189.114Z" fill="#84BBD3"/>
<path d="M111.345 185.712C111.345 185.712 122.908 201.593 137.221 190.43L138.421 193.589L117.472 201.239L111.345 185.712Z" fill="#84BBD3"/>
<path d="M115.912 197.301L136.839 189.417" stroke="white" stroke-width="3" stroke-miterlimit="10"/>
<path d="M117.466 201.243L109.501 181.034" stroke="#5089A3" stroke-width="2" stroke-miterlimit="10"/>
<path d="M138.415 193.589L131.254 174.645" stroke="#5089A3" stroke-width="2" stroke-miterlimit="10"/>
<path d="M199.987 244.541L176.943 246.594L174.63 225.666L173.88 218.82L172.38 205.296C172.38 205.296 171.564 211.596 169.443 220.127C169.248 220.91 169.042 221.71 168.825 222.527C168.049 225.443 167.128 228.558 166.045 231.729C161.292 245.652 153.405 260.64 140.925 264.552C138.841 265.205 136.669 265.535 134.485 265.53C104.385 265.53 107.809 229.806 107.809 229.806L132.259 230.159C132.259 230.159 132.541 229.325 133.071 227.843C137.386 215.753 158.143 160.493 176.62 161.633C189.84 162.453 195.579 188.885 198.07 211.685C198.423 214.913 198.711 218.067 198.946 221.067C199.987 234.327 199.987 244.541 199.987 244.541Z" fill="#3C7C77"/>
<path d="M176.527 242.829L199.924 240.204" stroke="white" stroke-width="3" stroke-miterlimit="10"/>
<path d="M176.152 239.441L199.815 236.477" stroke="white" stroke-width="3" stroke-miterlimit="10"/>
<path d="M220.066 265.533H178.54L177.676 255.294C177.676 255.294 192.246 262.536 201.553 255.669C209.029 257.868 220.126 258.659 220.066 265.533Z" fill="#702B2B"/>
<path d="M201.553 255.669C192.253 262.536 177.676 255.294 177.676 255.294L176.943 246.594L194.206 245.055C194.206 245.055 194.404 250.721 195.57 252.386C196.63 253.898 198.855 254.876 201.553 255.669Z" fill="#F49E92"/>
<path d="M159.852 144.831C158.254 147.113 150.952 147.494 150.952 147.494L151.638 156.545C151.638 156.545 156.756 166.164 148.822 167.045C136.426 168.408 131.25 156.62 131.25 156.62V138.822C124.252 138.222 121.362 134.564 122.595 127.422C123.739 120.786 132.847 119.132 136.422 123.467L135.9 110.759C135.9 110.759 158.25 110 159.852 115.169C159.852 115.169 159.943 116.741 160.06 119.163C160.089 119.744 160.119 120.374 160.147 121.043C160.185 121.836 160.221 122.684 160.257 123.57C160.285 124.254 160.312 124.961 160.338 125.685C160.629 133.673 160.78 143.504 159.852 144.831Z" fill="#FFAD9E"/>
<path d="M124.866 132.003C124.18 127.794 126.394 125.253 129.531 124.503C133.078 123.656 135.898 126.221 136.122 126.431" stroke="#C67166" stroke-width="2" stroke-miterlimit="10"/>
<path d="M150 124.296C150 125.22 149.481 125.969 148.84 125.969C148.2 125.969 147.682 125.219 147.682 124.296C147.682 123.374 148.201 122.622 148.84 122.622C149.479 122.622 150 123.372 150 124.296Z" fill="#16222F"/>
<path d="M160.338 125.687C160.128 126.102 159.787 126.374 159.402 126.374C158.763 126.374 158.244 125.624 158.244 124.7C158.244 123.776 158.763 123.027 159.402 123.027C159.739 123.027 160.044 123.236 160.257 123.569C160.285 124.25 160.312 124.962 160.338 125.687Z" fill="#16222F"/>
<path d="M128.176 124.989L132.622 134.259" stroke="#C67166" stroke-width="2" stroke-miterlimit="10"/>
<path d="M131.25 138.822C134.443 139.122 134.901 137.873 135.661 138.062C136.422 138.251 133.873 141.18 131.25 140.877V138.822Z" fill="#F49E92"/>
<path d="M155.173 126.8L155.401 132.923C155.401 132.923 158.043 131.325 158.251 133.911C158.46 136.497 155.448 135.395 155.448 135.395" stroke="#C67166" stroke-width="2" stroke-miterlimit="10"/>
<path d="M148.443 137.682C149.64 137.063 151.023 136.903 152.331 137.232C153.638 137.562 154.78 138.358 155.541 139.47" stroke="#C67166" stroke-width="2" stroke-miterlimit="10"/>
<path d="M150.952 147.5C150.952 147.5 145.495 147.752 141.177 146.591C141.096 146.569 141.01 146.576 140.933 146.611C140.857 146.646 140.795 146.706 140.758 146.781C140.721 146.856 140.712 146.942 140.731 147.024C140.751 147.106 140.798 147.178 140.865 147.228C142.815 148.691 146.59 150.875 151.168 150.362L150.952 147.5Z" fill="#F49E92"/>
<path d="M159.852 115.169C159.852 115.169 159.496 121.457 143.169 116.792C143.169 116.792 139.296 125.412 136.419 123.459L137.737 111.009L159.852 115.169Z" fill="#F49E92"/>
<path d="M136.426 123.459C139.848 124.905 141.442 114.257 141.442 114.257C141.442 114.257 157.192 119.957 159.852 115.169C162.511 110.381 134.601 109.238 134.601 109.238L136.426 123.459Z" fill="#16222F"/>
<path d="M143.638 121.317C143.638 121.317 148.639 121.101 149.841 119.217C149.919 119.101 149.97 118.969 149.992 118.831C150.014 118.693 150.006 118.551 149.968 118.416C149.931 118.282 149.865 118.157 149.774 118.05C149.684 117.943 149.572 117.857 149.445 117.797C148.2 117.261 147.178 120.392 143.638 121.317Z" fill="#16222F"/>
<path d="M160.147 121.043C159.178 120.731 158.298 120.275 157.879 119.616C157.802 119.5 157.75 119.368 157.728 119.23C157.706 119.092 157.714 118.951 157.752 118.816C157.79 118.681 157.856 118.556 157.946 118.45C158.037 118.343 158.149 118.257 158.275 118.197C158.832 117.96 159.345 118.458 160.06 119.163C160.089 119.75 160.119 120.374 160.147 121.043Z" fill="#16222F"/>
<path d="M195.9 244.541L172.855 246.594L170.55 225.666L169.8 218.82L168.3 205.296C168.3 205.296 167.484 211.596 165.363 220.127C165.163 220.91 164.957 221.71 164.745 222.527C163.969 225.443 163.048 228.558 161.965 231.729C157.212 245.652 149.325 260.64 136.845 264.552C134.761 265.205 132.589 265.535 130.405 265.53C100.305 265.53 103.729 229.806 103.729 229.806L128.179 230.159C128.179 230.159 128.461 229.325 128.991 227.843C133.219 215.993 153.229 162.708 171.415 161.633C171.79 161.61 172.165 161.61 172.539 161.633C181.965 162.218 187.588 175.824 190.942 191.852C192.292 198.302 193.275 205.142 193.99 211.685C194.343 214.913 194.631 218.067 194.866 221.067C195.9 234.327 195.9 244.541 195.9 244.541Z" fill="#438784"/>
<path d="M166.392 198.831L168.294 205.296L171.412 194.897" stroke="#245B57" stroke-width="2" stroke-miterlimit="10"/>
<path d="M136.839 264.555C134.755 265.208 132.583 265.538 130.399 265.533C100.299 265.533 103.723 229.809 103.723 229.809L128.173 230.162C128.173 230.162 123.45 235.491 117.463 238.077C111.477 240.663 115.8 264.567 136.839 264.555Z" fill="#3D7F7A"/>
<path d="M164.739 222.53C163.963 225.446 163.042 228.561 161.959 231.732C131.971 242.577 128.988 227.846 128.988 227.846L164.739 222.53Z" fill="#3D7F7A"/>
<path d="M194.865 221.07C194.865 221.07 190.377 220.533 188.956 220.634C187.536 220.734 170.55 225.666 170.55 225.666L169.8 218.82L194.001 211.688C194.341 214.916 194.629 218.07 194.865 221.07Z" fill="#3D7F7A"/>
<path d="M172.441 242.829L195.837 240.204" stroke="white" stroke-width="3" stroke-miterlimit="10"/>
<path d="M172.066 239.441L195.729 236.477" stroke="white" stroke-width="3" stroke-miterlimit="10"/>
<path d="M190.941 191.855C183.697 189.593 171.414 161.636 171.414 161.636C171.788 161.613 172.163 161.613 172.537 161.636C181.963 162.221 187.587 175.827 190.941 191.855Z" fill="#4A8E89"/>
<path d="M215.98 265.533H174.45L173.586 255.294C173.586 255.294 188.155 262.536 197.463 255.669C204.943 257.868 216.04 258.659 215.98 265.533Z" fill="#7C3331"/>
<path d="M197.467 255.669C188.167 262.536 173.59 255.294 173.59 255.294L172.857 246.594L190.12 245.055C190.12 245.055 190.318 250.721 191.484 252.386C192.544 253.898 194.769 254.876 197.467 255.669Z" fill="#FFAD9E"/>
<path d="M190.12 245.055C190.12 245.055 172.948 247.691 173.59 255.294L172.857 246.594L190.12 245.055Z" fill="#F49E92"/>
<path d="M202.291 215.259C201.531 216.477 188.448 217.541 188.448 217.541L163.279 226.541L146.77 232.443C142.773 233.872 138.377 233.69 134.511 231.936C130.646 230.182 127.614 226.994 126.057 223.044L117.466 201.245L134.835 194.9L138.415 193.592L145.401 212.069C145.401 212.069 188.151 203.246 189.817 201.719C191.484 200.192 194.838 194.265 195.901 194.265C196.965 194.265 195.901 200.958 195.901 200.958C195.901 200.958 199.401 199.742 200.313 200.658C201.225 201.575 203.052 214.043 202.291 215.259Z" fill="#FFAD9E"/>
<path d="M163.279 226.539L146.77 232.442C142.773 233.871 138.377 233.689 134.511 231.935C130.646 230.181 127.614 226.992 126.057 223.043L117.466 201.243L134.835 194.9C134.835 194.9 122.502 220.217 142.293 218.399C142.293 218.396 144.3 229.605 163.279 226.539Z" fill="#F49E92"/>
<path d="M145.401 212.066L141.442 220.127" stroke="#C67166" stroke-width="2" stroke-miterlimit="10"/>
<path d="M197.761 192.65C196.834 193.85 191.931 195.564 190.075 194.637C189.159 194.187 188.083 192.528 187.225 190.728C186.346 188.879 185.7 186.873 185.7 185.841C185.7 183.806 190.939 182.103 190.939 182.103C190.939 182.103 188.475 176.043 191.089 175.883C193.053 175.761 196.315 184.485 197.461 189.422C197.85 191.099 198 192.35 197.761 192.65Z" fill="#FFAD9E"/>
<path d="M197.761 192.65C196.834 193.85 191.931 195.564 190.075 194.637C189.159 194.187 188.083 192.528 187.225 190.728C187.225 190.728 196.434 194.106 197.46 189.425C197.85 191.099 198 192.35 197.761 192.65Z" fill="#F49E92"/>
</g>
<defs>
<clipPath id="clip0_2_655">
<rect width="300" height="300" fill="white"/>
</clipPath>
</defs>
</svg>
