<svg width="80" height="80" viewBox="0 0 80 80" fill="none" xmlns="http://www.w3.org/2000/svg">
<path d="M56.2814 11.2991C56.3509 11.4181 56.3918 11.5516 56.401 11.6891C56.4101 11.8265 56.3872 11.9643 56.3341 12.0914C56.281 12.2186 56.1992 12.3317 56.0949 12.4218C55.9907 12.512 55.867 12.5768 55.7335 12.611L55.5218 12.6662L55.6668 12.6847C56.0673 12.6105 56.4728 12.5659 56.8799 12.5512C57.3884 12.5331 57.8976 12.56 58.4014 12.6317L69.2019 14.1899L70.7418 14.4201C69.9623 13.4826 69.1428 12.5842 68.2834 11.7249C63.6979 7.13441 58.0643 3.72827 51.8687 1.80029L53.4086 5.11693L56.2814 11.2991Z" fill="#EC6972"/>
<path d="M54.4469 12.9445L55.5219 12.666L55.7336 12.6107C55.8671 12.5765 55.9908 12.5117 56.095 12.4216C56.1993 12.3314 56.2811 12.2183 56.3342 12.0912C56.3873 11.964 56.4102 11.8263 56.4011 11.6888C56.3919 11.5513 56.351 11.4178 56.2815 11.2988L53.4087 5.10975L51.8687 1.79312C42.4246 -1.13179 32.2323 -0.46078 23.2532 3.67702C14.2742 7.81482 7.14299 15.127 3.23206 24.2063L27.6782 18.8297L54.4469 12.9445Z" fill="#00AAAD"/>
<path d="M47.6445 69.4675L30.4263 68.5469L13.2082 67.6262C13.0747 67.6262 11.8961 67.2833 10.2963 66.7861C10.7566 67.2925 11.227 67.7881 11.7073 68.273C18.804 75.3751 28.3124 79.5489 38.3444 79.9655C48.3764 80.382 58.1982 77.011 65.8593 70.5217L63.8521 70.4066L47.6445 69.4675Z" fill="#F0BD00"/>
<path d="M18.6939 41.289L49.3482 35.2771L78.6144 29.5369C77.1107 23.9873 74.4253 18.8282 70.742 14.4129L69.202 14.1828L58.4015 12.6246C57.8977 12.5529 57.3885 12.5259 56.88 12.544C56.4729 12.5588 56.0674 12.6034 55.6669 12.6775L55.3676 12.7351L54.4469 12.9376L27.6782 18.8297L3.23205 24.2063C1.26782 28.769 0.174794 33.659 0.00939941 38.6237L9.33437 39.954L18.6939 41.289Z" fill="#F0BD00"/>
<path d="M62.8209 50.5507L52.6627 54.277L50.5219 55.0642L46.8895 56.3945L39.7145 55.5751L32.5395 54.7696L29.2593 54.0215L25.9884 53.285L8.1717 50.6267H8.06582L4.07894 50.7878L1.49622 50.8936C3.17047 56.793 6.18175 62.2274 10.2964 66.7748C11.8962 67.272 13.0747 67.6172 13.2082 67.6149L30.4264 68.5356L47.6446 69.4562L63.8407 70.3953L65.8479 70.5104C66.6904 69.7969 67.5022 69.0511 68.2833 68.2732C74.7354 61.8361 78.7876 53.3834 79.7652 44.3225L63.4747 50.3067L62.8209 50.5507Z" fill="#EC6972"/>
<path d="M8.06585 50.6382H8.17174L17.0824 51.9639L25.9953 53.2897L29.2663 54.0262L32.5396 54.7627L39.7146 55.5798L46.8896 56.3991L49.7761 55.3404L50.522 55.0688L52.6627 54.2817L62.821 50.5553L66.359 49.2457L79.7652 44.3271C80.3039 39.3661 79.9136 34.3481 78.6143 29.53L49.348 35.2772L18.6937 41.289L9.3411 39.9541L0.0253356 38.6237C0.00922231 39.0841 1.46009e-05 39.5444 1.46009e-05 40.0047C-0.00313557 43.6917 0.503471 47.3615 1.50545 50.9098L4.08818 50.8039L8.06585 50.6382Z" fill="#9BAED7"/>
<path d="M39.9955 71.3434C57.308 71.3434 71.3426 57.3105 71.3426 40C71.3426 22.6894 57.308 8.65649 39.9955 8.65649C22.6829 8.65649 8.64832 22.6894 8.64832 40C8.64832 57.3105 22.6829 71.3434 39.9955 71.3434Z" fill="white"/>
<path d="M35.1361 23.9737V25.9278C35.1361 25.9952 35.1229 26.0619 35.0971 26.1242C35.0713 26.1865 35.0335 26.2431 34.9858 26.2907C34.9381 26.3384 34.8815 26.3762 34.8192 26.402C34.757 26.4278 34.6902 26.4411 34.6228 26.4411H29.5794C29.443 26.4417 29.3125 26.4963 29.2163 26.5929C29.12 26.6895 29.066 26.8203 29.066 26.9566V37.8456C29.066 37.9823 29.0117 38.1135 28.915 38.2101C28.8183 38.3068 28.6872 38.3611 28.5504 38.3611H25.7053C25.5685 38.3611 25.4374 38.3068 25.3407 38.2101C25.244 38.1135 25.1897 37.9823 25.1897 37.8456V26.9566C25.1897 26.8199 25.1353 26.6887 25.0386 26.5921C24.9419 26.4954 24.8108 26.4411 24.674 26.4411H21.5273C21.4597 26.4414 21.3927 26.4283 21.3302 26.4026C21.2677 26.377 21.2108 26.3392 21.1629 26.2915C21.115 26.2438 21.077 26.1872 21.051 26.1247C21.0251 26.0623 21.0117 25.9954 21.0117 25.9278V23.9737C21.0117 23.9061 21.0251 23.8392 21.051 23.7768C21.077 23.7143 21.115 23.6577 21.1629 23.61C21.2108 23.5623 21.2677 23.5245 21.3302 23.4989C21.3927 23.4732 21.4597 23.4602 21.5273 23.4605H34.6228C34.7589 23.4605 34.8895 23.5145 34.9858 23.6108C35.0821 23.707 35.1361 23.8376 35.1361 23.9737Z" fill="#423E3C"/>
<path d="M39.7606 24.0336V37.788C39.7606 37.94 39.7002 38.0858 39.5927 38.1933C39.4852 38.3008 39.3394 38.3611 39.1874 38.3611H36.5356C36.4603 38.3614 36.3856 38.3468 36.3159 38.3181C36.2462 38.2894 36.1829 38.2472 36.1297 38.194C36.0764 38.1407 36.0342 38.0774 36.0055 38.0077C35.9768 37.938 35.9622 37.8634 35.9625 37.788V34.3218C35.9625 34.2463 35.9476 34.1716 35.9186 34.1019C35.8897 34.0323 35.8472 33.969 35.7938 33.9157C35.7403 33.8625 35.6768 33.8203 35.607 33.7917C35.5372 33.763 35.4624 33.7484 35.387 33.7487H34.7379C34.6625 33.7484 34.5878 33.763 34.5181 33.7917C34.4485 33.8204 34.3852 33.8626 34.3319 33.9159C34.2786 33.9692 34.2364 34.0325 34.2077 34.1021C34.179 34.1718 34.1644 34.2465 34.1647 34.3218V37.788C34.1647 37.8635 34.1498 37.9382 34.1208 38.0079C34.0919 38.0776 34.0495 38.1409 33.996 38.1941C33.9425 38.2474 33.8791 38.2895 33.8093 38.3182C33.7395 38.3468 33.6647 38.3614 33.5892 38.3611H30.9374C30.7854 38.3611 30.6396 38.3008 30.5321 38.1933C30.4246 38.0858 30.3643 37.94 30.3643 37.788V27.9509C30.3649 27.7991 30.4254 27.6537 30.5328 27.5463C30.6402 27.439 30.7856 27.3784 30.9374 27.3778H33.5892C33.7414 27.3778 33.8875 27.4381 33.9953 27.5455C34.1032 27.6529 34.1641 27.7987 34.1647 27.9509V30.7336C34.1647 30.8856 34.2251 31.0313 34.3326 31.1388C34.4401 31.2463 34.5858 31.3067 34.7379 31.3067H35.387C35.5392 31.3067 35.6852 31.2464 35.7931 31.139C35.901 31.0315 35.9618 30.8858 35.9625 30.7336V24.0336C35.9622 23.9582 35.9768 23.8835 36.0055 23.8139C36.0342 23.7442 36.0764 23.6809 36.1297 23.6276C36.1829 23.5744 36.2462 23.5322 36.3159 23.5035C36.3856 23.4748 36.4603 23.4601 36.5356 23.4605H39.1874C39.3394 23.4605 39.4852 23.5208 39.5927 23.6283C39.7002 23.7358 39.7606 23.8816 39.7606 24.0336Z" fill="#423E3C"/>
<path d="M58.979 23.9094V25.9993C58.9761 26.1174 58.9279 26.2299 58.8443 26.3134C58.7608 26.397 58.6483 26.4452 58.5302 26.4481H56.1915C56.0694 26.4481 55.9523 26.4966 55.8659 26.583C55.7796 26.6693 55.7311 26.7864 55.7311 26.9085V37.9286C55.7282 38.0467 55.6799 38.1592 55.5964 38.2427C55.5128 38.3263 55.4003 38.3745 55.2822 38.3774H52.3105C52.1903 38.3775 52.0749 38.3305 51.9889 38.2467C51.9029 38.1628 51.8531 38.0487 51.8501 37.9286V26.8923C51.8501 26.7722 51.8032 26.6569 51.7193 26.5708C51.6355 26.4848 51.5213 26.435 51.4012 26.432H49.074C48.9559 26.4291 48.8434 26.3809 48.7598 26.2973C48.6763 26.2138 48.628 26.1013 48.6251 25.9832V23.9002C48.628 23.7821 48.6763 23.6696 48.7598 23.5861C48.8434 23.5026 48.9559 23.4543 49.074 23.4514H58.5302C58.6499 23.4544 58.7637 23.5039 58.8475 23.5894C58.9313 23.6749 58.9785 23.7897 58.979 23.9094Z" fill="#423E3C"/>
<path d="M47.8333 23.8379C47.8178 23.7326 47.7647 23.6364 47.684 23.5671C47.6032 23.4977 47.5001 23.4599 47.3936 23.4605H42.5596C42.452 23.4596 42.3478 23.4983 42.2668 23.5691C42.1857 23.64 42.1335 23.7381 42.12 23.8448L40.2601 37.8594C40.2515 37.9221 40.2565 37.9858 40.2747 38.0464C40.2929 38.1069 40.3238 38.1629 40.3655 38.2105C40.4072 38.258 40.4586 38.2961 40.5163 38.3221C40.5739 38.3481 40.6365 38.3614 40.6997 38.3612H43.7935C43.9044 38.361 44.0113 38.3194 44.0931 38.2444C44.1749 38.1694 44.2256 38.0666 44.2354 37.9561L44.5301 34.7775C44.5398 34.667 44.5906 34.5642 44.6724 34.4892C44.7542 34.4142 44.8611 34.3726 44.972 34.3724L45.292 34.3863C45.4038 34.386 45.5116 34.4281 45.5936 34.5041C45.6757 34.5801 45.7258 34.6844 45.734 34.7959L45.9964 37.9538C46.0045 38.0651 46.0548 38.1691 46.1368 38.2448C46.2189 38.3204 46.3267 38.362 46.4383 38.3612H49.4745C49.5381 38.3608 49.6009 38.3469 49.6587 38.3202C49.7164 38.2935 49.7677 38.2548 49.8092 38.2065C49.8507 38.1583 49.8813 38.1017 49.899 38.0407C49.9167 37.9796 49.9211 37.9154 49.9119 37.8525L47.8333 23.8379Z" fill="#423E3C"/>
<path d="M46.3623 31.6635C46.1295 31.8853 45.8387 32.037 45.5236 32.1009C45.2084 32.1648 44.8815 32.1385 44.5806 32.0249C43.798 31.774 43.2916 31.0167 43.2732 30.0915C43.2678 29.4296 43.473 28.783 43.859 28.2452C44.245 27.7075 44.7919 27.3062 45.4208 27.0994C45.7201 26.9935 46.0377 26.9498 46.3416 26.8692C46.4613 26.8393 46.5027 26.883 46.5119 27.0004C46.5119 27.1661 46.6132 27.3595 46.5534 27.4861C46.4935 27.6126 46.2887 27.6242 46.1482 27.6886C45.9322 27.7812 45.7412 27.9238 45.5911 28.1047C45.441 28.2855 45.3361 28.4995 45.285 28.7289C46.0861 28.8302 46.6247 29.2192 46.8342 29.981C46.9281 30.2769 46.9335 30.5938 46.8496 30.8927C46.7658 31.1917 46.5964 31.4596 46.3623 31.6635Z" fill="#F8AF00"/>
<path d="M33.8631 42.2624V55.9202C33.8631 56.085 33.7976 56.2431 33.6811 56.3596C33.5645 56.4762 33.4064 56.5416 33.2416 56.5416H31.0985C30.9337 56.5416 30.7756 56.4762 30.659 56.3596C30.5425 56.2431 30.477 56.085 30.477 55.9202V46.4836L29.1995 56.0054C29.1786 56.1566 29.1027 56.2949 28.9864 56.3938C28.8701 56.4927 28.7214 56.5453 28.5687 56.5416H26.3658C26.2161 56.5411 26.0716 56.4869 25.9584 56.3889C25.8453 56.291 25.7709 56.1557 25.7489 56.0077L24.4023 46.7137V55.9202C24.4023 56.085 24.3368 56.2431 24.2203 56.3596C24.1037 56.4762 23.9456 56.5416 23.7808 56.5416H21.6377C21.5559 56.5419 21.4749 56.5261 21.3992 56.495C21.3235 56.4639 21.2547 56.4182 21.1968 56.3604C21.1388 56.3027 21.0928 56.2341 21.0614 56.1586C21.0301 56.083 21.0139 56.002 21.0139 55.9202V42.2624C21.0139 42.1806 21.0301 42.0996 21.0614 42.024C21.0928 41.9485 21.1388 41.8799 21.1968 41.8221C21.2547 41.7644 21.3235 41.7187 21.3992 41.6876C21.4749 41.6565 21.5559 41.6406 21.6377 41.6409H25.498C25.6457 41.6386 25.7892 41.6898 25.9022 41.7849C26.0151 41.8801 26.0899 42.0129 26.1126 42.1588C26.2354 42.9352 26.3612 43.8183 26.4901 44.808L27.0403 48.5987L28.746 42.1841C28.765 42.034 28.8382 41.896 28.9518 41.796C29.0654 41.696 29.2115 41.6409 29.3629 41.6409H33.2347C33.3169 41.64 33.3984 41.6554 33.4746 41.6863C33.5508 41.7171 33.6202 41.7627 33.6786 41.8205C33.7371 41.8783 33.7835 41.9471 33.8151 42.023C33.8468 42.0988 33.8631 42.1802 33.8631 42.2624Z" fill="#423E3C"/>
<path d="M58.3553 42.2557V44.0072C58.3547 44.1704 58.2894 44.3267 58.1738 44.4419C58.0581 44.557 57.9016 44.6217 57.7384 44.6217H50.4782C50.3146 44.6217 50.1577 44.6867 50.042 44.8024C49.9263 44.9181 49.8613 45.075 49.8613 45.2386V55.9204C49.8613 56.0836 49.7966 56.2401 49.6814 56.3557C49.5662 56.4713 49.4099 56.5366 49.2467 56.5372H46.6018C46.5209 56.5372 46.4408 56.5212 46.3661 56.4902C46.2914 56.4592 46.2235 56.4137 46.1664 56.3564C46.1093 56.2991 46.0641 56.2311 46.0333 56.1562C46.0026 56.0814 45.9869 56.0013 45.9872 55.9204V45.2386C45.9872 45.075 45.9222 44.9181 45.8065 44.8024C45.6908 44.6867 45.5339 44.6217 45.3703 44.6217H43.3676C43.2044 44.6217 43.0479 44.557 42.9322 44.4419C42.8166 44.3267 42.7513 44.1704 42.7507 44.0072V42.2557C42.7507 42.1748 42.7667 42.0947 42.7977 42.0199C42.8288 41.9452 42.8742 41.8774 42.9316 41.8203C42.9889 41.7632 43.0569 41.718 43.1317 41.6872C43.2066 41.6565 43.2867 41.6408 43.3676 41.6411H57.7384C57.8193 41.6408 57.8994 41.6565 57.9743 41.6872C58.0491 41.718 58.1171 41.7632 58.1744 41.8203C58.2318 41.8774 58.2772 41.9452 58.3083 42.0199C58.3393 42.0947 58.3553 42.1748 58.3553 42.2557Z" fill="#423E3C"/>
<path d="M51.7834 45.5215H57.8973C58.0096 45.5215 58.1173 45.5661 58.1968 45.6455C58.2762 45.7249 58.3208 45.8327 58.3208 45.945V47.6344C58.3208 47.7467 58.2762 47.8544 58.1968 47.9338C58.1173 48.0133 58.0096 48.0579 57.8973 48.0579H55.1787C55.1238 48.0579 55.0711 48.0797 55.0322 48.1185C54.9934 48.1574 54.9716 48.2101 54.9716 48.265V49.1627C54.9716 49.2176 54.9934 49.2703 55.0322 49.3091C55.0711 49.348 55.1238 49.3698 55.1787 49.3698H57.7753C57.8876 49.3698 57.9953 49.4144 58.0748 49.4938C58.1542 49.5733 58.1988 49.681 58.1988 49.7933V51.4827C58.1988 51.595 58.1542 51.7027 58.0748 51.7821C57.9953 51.8616 57.8876 51.9062 57.7753 51.9062H55.1787C55.1238 51.9062 55.0711 51.928 55.0322 51.9669C54.9934 52.0057 54.9716 52.0584 54.9716 52.1133V53.6186C54.9716 53.6735 54.9934 53.7262 55.0322 53.7651C55.0711 53.8039 55.1238 53.8257 55.1787 53.8257H58.0883C58.2006 53.8257 58.3084 53.8703 58.3878 53.9498C58.4672 54.0292 58.5119 54.1369 58.5119 54.2492V56.1296C58.5119 56.242 58.4672 56.3497 58.3878 56.4291C58.3084 56.5085 58.2006 56.5532 58.0883 56.5532H51.7834C51.6711 56.5532 51.5634 56.5085 51.4839 56.4291C51.4045 56.3497 51.3599 56.242 51.3599 56.1296V45.9565C51.3584 45.8999 51.3682 45.8436 51.3888 45.7909C51.4094 45.7382 51.4403 45.6901 51.4798 45.6496C51.5193 45.609 51.5665 45.5768 51.6187 45.5548C51.6708 45.5328 51.7268 45.5215 51.7834 45.5215Z" fill="#423E3C"/>
<path d="M41.9199 42.0186C41.9044 41.9137 41.8517 41.8178 41.7714 41.7485C41.6911 41.6792 41.5886 41.6411 41.4825 41.6411H36.6486C36.5412 41.6412 36.4375 41.6803 36.3567 41.7509C36.2759 41.8216 36.2234 41.9191 36.2089 42.0255L34.349 56.0401C34.3408 56.1023 34.346 56.1655 34.364 56.2256C34.3821 56.2856 34.4127 56.3412 34.4538 56.3886C34.4949 56.436 34.5456 56.4742 34.6025 56.5006C34.6594 56.527 34.7213 56.541 34.784 56.5418H37.8801C37.991 56.5417 38.0979 56.5 38.1797 56.425C38.2615 56.3501 38.3123 56.2472 38.322 56.1367L38.6167 52.9582C38.6259 52.8475 38.6765 52.7443 38.7584 52.6692C38.8403 52.5942 38.9475 52.5527 39.0586 52.5531L39.3786 52.5669C39.4903 52.5671 39.5978 52.6094 39.6797 52.6854C39.7616 52.7613 39.8119 52.8653 39.8206 52.9766L40.0784 56.1321C40.087 56.2434 40.1373 56.3474 40.2192 56.4234C40.3012 56.4993 40.4086 56.5416 40.5203 56.5418H43.5565C43.6203 56.5418 43.6834 56.5281 43.7414 56.5016C43.7994 56.475 43.851 56.4363 43.8927 56.3881C43.9345 56.3398 43.9653 56.2831 43.9831 56.2219C44.001 56.1606 44.0054 56.0963 43.9962 56.0331L41.9199 42.0186Z" fill="#423E3C"/>
<path d="M37.8778 45.4594C38.1151 45.2333 38.4116 45.079 38.733 45.0142C39.0544 44.9495 39.3875 44.9769 39.6939 45.0934C40.4904 45.3466 41.006 46.1176 41.0244 47.0636C41.0322 47.7399 40.8242 48.4012 40.4305 48.9512C40.0368 49.5013 39.4781 49.9116 38.8353 50.1224C38.5315 50.2283 38.2069 50.2744 37.8916 50.3526C37.7719 50.3825 37.7281 50.3411 37.7189 50.2191C37.7189 50.0511 37.6153 49.8532 37.6752 49.7266C37.735 49.6 37.9468 49.5839 38.0918 49.5171C38.3122 49.4232 38.5068 49.2779 38.6594 49.0933C38.812 48.9086 38.9181 48.6901 38.9688 48.4561C38.1517 48.3548 37.6038 47.9566 37.3921 47.181C37.2938 46.8781 37.2876 46.553 37.374 46.2466C37.4604 45.9402 37.6357 45.6662 37.8778 45.4594Z" fill="#6CB96C"/>
</svg>
