<svg width="500" height="500" viewBox="0 0 500 500" fill="none" xmlns="http://www.w3.org/2000/svg">
<path d="M145.93 365.678C148.504 327.44 153.712 284.878 172.772 259.078C177.154 253.144 183.618 245.363 191.518 238.721C183.736 228.739 170.001 214.12 154.93 211.938C145.793 218.108 134.867 221.704 123.156 221.704C111.445 221.704 100.952 218.246 91.9131 212.273C75.82 216.065 61.3382 233.553 55.4039 241.59C37.7781 265.464 32.8264 308.281 30.4881 342.924C29.9182 351.412 32.7871 359.508 38.5838 365.698C44.3411 371.868 52.1814 375.267 60.6111 375.267H146.461C145.911 372.123 145.714 368.881 145.95 365.639L145.93 365.678Z" fill="#D43C2B"/>
<path d="M446.119 233.651C439.772 224.612 423.718 204.393 405.778 201.779C396.641 207.949 385.716 211.545 374.004 211.545C362.293 211.545 351.8 208.087 342.761 202.114C326.668 205.906 312.186 223.394 306.232 231.431C305.387 232.571 304.582 233.769 303.796 235.007C314.642 242.828 323.406 253.635 328.869 261.416C346.652 286.706 351.604 327.95 354.04 365.108H439.399C447.828 365.108 455.649 361.728 461.406 355.578C467.203 349.408 470.072 341.352 469.522 332.883C467.183 296.943 462.585 257.035 446.099 233.612L446.119 233.651Z" fill="#D43C2B"/>
<path d="M415.19 193.92C425.742 183.034 432.266 168.002 432.266 151.437C432.266 118.268 406.131 91.3087 374.004 91.3087C341.877 91.3087 315.743 118.288 315.743 151.437C315.743 168.395 322.6 183.741 333.585 194.686C318.258 201.111 305.584 215.593 298.392 225.3C298.333 225.379 298.274 225.477 298.195 225.556C297.174 226.931 296.211 228.385 295.268 229.859C293.48 228.955 291.632 228.169 289.766 227.501C291.259 225.968 292.654 224.337 293.99 222.628C302.027 212.312 306.841 199.245 306.841 185.018C306.841 151.85 280.707 124.89 248.58 124.89C231.544 124.89 216.177 132.475 205.527 144.559C196.095 155.249 190.338 169.456 190.338 185.018C190.338 201.976 197.196 217.322 208.18 228.267C205.213 229.505 202.324 231.058 199.573 232.826C191.478 222.353 179.079 209.384 164.361 204.118C174.913 193.232 181.437 178.2 181.437 161.615C181.437 128.447 155.303 101.487 123.175 101.487C91.0479 101.487 64.9138 128.466 64.9138 161.615C64.9138 178.573 71.7716 193.92 82.7558 204.865C67.2914 211.329 54.5387 226.027 47.3666 235.734C28.3063 261.475 23.0992 304.037 20.525 342.275C19.7784 353.397 23.6887 364.42 31.2931 372.555C38.9761 380.769 49.3905 385.288 60.6105 385.288H149.565C151.353 389.179 153.75 392.795 156.698 395.958C164.381 404.172 174.795 408.691 186.015 408.691H313.955C325.175 408.691 335.589 404.191 343.252 395.997C348.695 390.201 352.252 382.891 353.568 375.149H439.379C450.599 375.149 461.013 370.649 468.677 362.455C476.261 354.36 480.191 343.375 479.484 332.293C478.246 313.292 476.379 293.17 472.469 274.66C468.696 256.799 463.057 240.411 454.273 227.933C446.59 217.008 432.482 200.149 415.17 193.939L415.19 193.92ZM461.426 355.617C455.649 361.768 447.848 365.167 439.418 365.167H354.06C351.623 328.009 346.691 286.765 328.888 261.456C323.406 253.674 314.662 242.847 303.815 235.047C304.601 233.809 305.407 232.61 306.252 231.47C312.186 223.434 326.688 205.945 342.781 202.153C351.82 208.107 362.529 211.585 374.024 211.585C385.519 211.585 396.66 207.989 405.797 201.819C423.738 204.432 439.791 224.652 446.138 233.691C462.605 257.113 467.222 297.022 469.561 332.961C470.111 341.411 467.222 349.467 461.445 355.657L461.426 355.617ZM313.994 398.709H186.054C177.605 398.709 169.784 395.31 164.027 389.14C158.23 382.93 155.362 374.854 155.931 366.346C158.27 331.704 163.221 288.887 180.847 265.012C186.781 256.976 201.283 239.487 217.356 235.695C226.395 241.649 237.104 245.127 248.6 245.127C260.095 245.127 271.236 241.531 280.373 235.361C298.313 237.974 314.367 258.194 320.714 267.233C337.181 290.655 341.798 330.564 344.137 366.503C344.687 374.953 341.798 383.009 336.021 389.199C330.244 395.349 322.443 398.748 314.013 398.748L313.994 398.709ZM60.6302 375.287C52.1808 375.287 44.3602 371.887 38.6028 365.717C32.8061 359.508 29.9373 351.432 30.5071 342.943C32.8454 308.301 37.7972 265.484 55.423 241.61C61.3572 233.573 75.8391 216.085 91.9322 212.292C100.971 218.246 111.68 221.724 123.175 221.724C134.67 221.724 145.812 218.128 154.949 211.958C170.02 214.139 183.755 228.778 191.537 238.741C183.637 245.382 177.173 253.164 172.791 259.098C153.75 284.898 148.523 327.459 145.949 365.698C145.733 368.94 145.91 372.162 146.46 375.326H60.6105L60.6302 375.287ZM74.9155 161.557C74.9155 133.909 96.5695 111.41 123.175 111.41C149.781 111.41 171.455 133.909 171.455 161.557C171.455 189.204 149.801 211.703 123.175 211.703C96.5499 211.703 74.9155 189.204 74.9155 161.557ZM200.34 184.959C200.34 157.312 221.994 134.813 248.619 134.813C275.245 134.813 296.899 157.312 296.899 184.959C296.899 212.607 275.245 235.105 248.619 235.105C221.994 235.105 200.34 212.607 200.34 184.959ZM325.764 151.417C325.764 123.77 347.418 101.271 374.043 101.271C400.669 101.271 422.323 123.77 422.323 151.417C422.323 179.064 400.669 201.563 374.043 201.563C347.418 201.563 325.764 179.064 325.764 151.417Z" fill="#05244F"/>
<path d="M344.117 366.464C341.779 330.525 337.181 290.616 320.695 267.193C314.348 258.155 298.294 237.935 280.354 235.322C271.217 241.492 260.291 245.088 248.58 245.088C236.869 245.088 226.376 241.629 217.337 235.656C201.244 239.448 186.762 256.936 180.828 264.973C163.202 288.847 158.25 331.664 155.912 366.307C155.342 374.795 158.211 382.891 164.008 389.1C169.765 395.27 177.605 398.67 186.035 398.67H313.974C322.404 398.67 330.225 395.29 335.982 389.14C341.779 382.97 344.648 374.913 344.098 366.444L344.117 366.464Z" fill="#A6180D"/>
</svg>
