<svg width="500" height="500" viewBox="0 0 500 500" fill="none" xmlns="http://www.w3.org/2000/svg">
<path d="M416.788 326.937H400.429C418.229 326.937 432.643 338.907 432.643 356.828C432.643 374.749 418.252 389.191 400.429 389.191H386.542C404.868 389.191 419.579 399.559 418.755 418.19C417.932 435.584 404.936 448.996 385.627 448.996H296.833C257.642 448.996 227.304 450.759 181.066 424.85C165.943 416.359 142.698 412.628 120.07 411.026V234.15C132.86 233.052 144.413 231.106 151.643 227.673C159.88 223.782 174.934 201.055 200.513 170.797C225.268 141.478 243.64 128.272 267.502 72.3349C273.565 49.7449 293.539 48.097 305.619 53.4756C315.823 58.0302 326.164 72.5867 322.801 92.0641C322.801 92.0641 322.755 92.1098 322.755 92.1785C312.871 146.147 291.434 170.752 276.677 201.97C275.533 204.396 277.134 207.143 279.788 207.051C368.17 203.321 409.375 207.303 409.375 207.303C428.593 209.317 441.589 221.814 441.589 239.666C441.589 257.519 427.152 267.063 409.375 267.063H416.788C431.751 267.063 447.857 276.08 449.001 294.459C450.145 312.334 434.611 326.891 416.788 326.891V326.937Z" stroke="#05244F" stroke-width="22" stroke-linecap="round" stroke-linejoin="round"/>
<path d="M409.375 267.131H353.573" stroke="#05244F" stroke-width="22" stroke-linecap="round" stroke-linejoin="round"/>
<path d="M400.429 326.937H353.573" stroke="#05244F" stroke-width="22" stroke-linecap="round" stroke-linejoin="round"/>
<path d="M386.542 389.191H353.573" stroke="#05244F" stroke-width="22" stroke-linecap="round" stroke-linejoin="round"/>
<path d="M50.9529 235.844C58.9834 235.066 92.4324 236.622 120.07 234.196V411.072C91.8605 409.149 64.6116 410.545 55.1397 410.408" fill="#A6180D"/>
<path d="M50.9529 235.844C58.9834 235.066 92.4324 236.622 120.07 234.196V411.072C91.8605 409.149 64.6116 410.545 55.1397 410.408" stroke="#05244F" stroke-width="22" stroke-linecap="round" stroke-linejoin="round"/>
</svg>
