<svg width="500" height="500" viewBox="0 0 500 500" fill="none" xmlns="http://www.w3.org/2000/svg">
<path d="M323.749 435.545C323.597 436.379 323.396 437.22 323.167 438.05C318.498 454.956 300.476 465.025 282.9 460.539L254.416 453.269" fill="#A6180D"/>
<path d="M323.749 435.545C323.597 436.379 323.396 437.22 323.167 438.05C318.498 454.956 300.476 465.025 282.9 460.539L254.416 453.269" stroke="#05244F" stroke-width="22" stroke-linecap="round" stroke-linejoin="round"/>
<path d="M300.515 349.184C248.231 367.846 199.007 349.184 199.007 349.184L138.406 362.774L259.503 400.381L387.296 357.249L300.511 349.184H300.515Z" fill="#A6180D" stroke="#05244F" stroke-width="22" stroke-linecap="round" stroke-linejoin="round"/>
<path d="M300.515 349.184L299.794 274.246V335.439C299.794 353.907 317.835 367.451 336.459 362.961L414.819 344.07C428.657 340.731 436.901 327.068 433.043 313.853L433.023 313.795C429.378 301.283 416.16 293.734 402.996 296.63L349.569 308.378V253.095C349.569 222.905 324.121 198.435 292.733 198.435H207.266C175.878 198.435 150.43 222.905 150.43 253.095V308.378L97.0022 296.63C83.8421 293.734 70.62 301.283 66.9751 313.795L66.9557 313.853C63.1015 327.068 71.345 340.728 85.1837 344.07L163.543 362.961C182.167 367.451 200.209 353.907 200.209 335.439V274.246L201.232 349.184C201.232 349.184 220.67 357.435 249.999 357.474C279.328 357.517 300.515 349.184 300.515 349.184Z" stroke="#05244F" stroke-width="22" stroke-linecap="round" stroke-linejoin="round"/>
<path d="M183.563 435.189L106.649 415.565C89.0689 411.079 78.5998 393.739 83.2682 376.842C87.9367 359.936 105.959 349.867 123.536 354.353L252.376 387.225" fill="#A6180D"/>
<path d="M183.563 435.189L106.649 415.565C89.0689 411.079 78.5998 393.739 83.2682 376.842C87.9367 359.936 105.959 349.867 123.536 354.353L252.376 387.225" stroke="#05244F" stroke-width="22" stroke-linecap="round" stroke-linejoin="round"/>
<path d="M223.043 460.997L402.888 415.108C419.471 410.877 429.347 394.519 424.95 378.563L423.993 375.112C419.596 359.157 402.581 349.661 385.997 353.891L206.153 399.78C189.569 404.011 179.693 420.369 184.094 436.325L185.044 439.776C189.445 455.723 206.455 465.227 223.039 460.993L223.043 460.997Z" fill="#A6180D" stroke="#05244F" stroke-width="22" stroke-linecap="round" stroke-linejoin="round"/>
<path d="M198.053 290.209C168.65 300.787 152.415 287.79 152.415 287.79" stroke="#05244F" stroke-width="22" stroke-linecap="round" stroke-linejoin="round"/>
<path d="M348.487 290.209C319.084 300.787 302.849 287.79 302.849 287.79" stroke="#05244F" stroke-width="22" stroke-linecap="round" stroke-linejoin="round"/>
<path d="M250.003 177.695C288.579 177.695 319.852 146.423 319.852 107.847C319.852 69.2717 288.579 38 250.003 38C211.427 38 180.154 69.2717 180.154 107.847C180.154 146.423 211.427 177.695 250.003 177.695Z" stroke="#05244F" stroke-width="22" stroke-linecap="round" stroke-linejoin="round"/>
</svg>
