<svg width="500" height="500" viewBox="0 0 500 500" fill="none" xmlns="http://www.w3.org/2000/svg">
<path d="M291.439 463.998C294.041 457.085 303.655 427.809 305.649 422.344C308.007 415.878 314.046 411.501 320.926 411.282C344.485 410.533 378.01 408.208 388.787 405.478C404.536 401.502 413.21 384.566 407.394 369.401L399.927 349.933L406.488 337.092L398.603 324.065L411.746 312.598L406.488 288.36L420.888 284.128C434.821 280.033 439.033 262.331 428.426 252.378C428.426 252.378 416.859 241.705 406.041 231.785C400.73 226.916 397.726 220.028 397.801 212.821C397.979 195.422 396.928 163.783 392.721 151.075C392.696 151.03 392.696 150.984 392.675 150.934C385.183 128.347 373.021 107.878 357.343 90.6896C325.774 56.114 279.938 34.8051 229.171 36.0545C142.48 38.1849 67.7434 112.975 65.6709 199.67C64.3885 253.259 88.2456 301.35 126.292 332.922C144.577 348.092 152.251 372.743 145.317 395.467" stroke="#05244F" stroke-width="22" stroke-linecap="round" stroke-linejoin="round"/>
<path d="M217.563 274.973C217.563 274.973 192.945 212.941 120.261 230.895C120.261 230.895 135.674 308.548 217.563 274.973Z" fill="#D43C2B" stroke="#05244F" stroke-width="22" stroke-linecap="round" stroke-linejoin="round"/>
<path d="M219.975 213.165C318.576 178.904 271.933 97.1969 271.933 97.1969C242.719 112.209 227.839 131.868 220.69 150.723" fill="#D43C2B"/>
<path d="M219.975 213.165C318.576 178.904 271.933 97.1969 271.933 97.1969C242.719 112.209 227.839 131.868 220.69 150.723" stroke="#05244F" stroke-width="22" stroke-linecap="round" stroke-linejoin="round"/>
<path d="M211.242 327.573C225.564 311.741 230.966 287.669 230.954 266.993C230.946 248.539 226.664 230.291 219.971 213.165" stroke="#05244F" stroke-width="22" stroke-linecap="round" stroke-linejoin="round"/>
<path d="M337.593 273.029C325.729 290.842 307.75 308.134 294.19 319.916C280.617 308.151 262.634 290.842 250.753 273.029C240.233 257.234 236.799 227.817 259.957 221.62C274.912 217.628 286.284 229.261 294.19 241.982C302.079 229.261 313.451 217.624 328.389 221.62C351.559 227.817 348.126 257.234 337.593 273.029Z" stroke="#05244F" stroke-width="22" stroke-linecap="round" stroke-linejoin="round"/>
<path d="M219.975 213.165C219.975 213.165 233.068 134.598 147.725 108.122C147.725 108.122 115.59 196.973 219.975 213.165Z" fill="#D43C2B" stroke="#05244F" stroke-width="22" stroke-linecap="round" stroke-linejoin="round"/>
</svg>
